<svg xmlns="http://www.w3.org/2000/svg" xmlns:xlink="http://www.w3.org/1999/xlink" viewBox="0 0 1920 1080"><defs><radialGradient id="Super_Soft_Black_Vignette" cx="1040.53" cy="485.56" r="7.91" gradientUnits="userSpaceOnUse"><stop offset="0.57" stop-color="#130c0e"/><stop offset="0.8" stop-color="#130c0e"/><stop offset="1" stop-color="#130c0e"/></radialGradient><radialGradient id="Super_Soft_Black_Vignette-2" cx="1036.55" cy="547.24" r="29.76" xlink:href="#Super_Soft_Black_Vignette"/><radialGradient id="Super_Soft_Black_Vignette-3" cx="1002.19" cy="519.2" r="78.04" xlink:href="#Super_Soft_Black_Vignette"/><radialGradient id="Super_Soft_Black_Vignette-4" cx="1018.65" cy="519.2" r="62.32" xlink:href="#Super_Soft_Black_Vignette"/><radialGradient id="Super_Soft_Black_Vignette-5" cx="1056.48" cy="486.31" r="14.61" xlink:href="#Super_Soft_Black_Vignette"/><radialGradient id="Super_Soft_Black_Vignette-6" cx="951.74" cy="594.03" r="33.14" xlink:href="#Super_Soft_Black_Vignette"/><radialGradient id="Super_Soft_Black_Vignette-7" cx="940.5" cy="610.18" r="12.13" xlink:href="#Super_Soft_Black_Vignette"/><radialGradient id="Super_Soft_Black_Vignette-8" cx="953.63" cy="564.52" r="8.64" xlink:href="#Super_Soft_Black_Vignette"/><radialGradient id="Super_Soft_Black_Vignette-9" cx="1008.42" cy="644.72" r="34.62" xlink:href="#Super_Soft_Black_Vignette"/><radialGradient id="Super_Soft_Black_Vignette-10" cx="992.57" cy="581.57" r="46.73" xlink:href="#Super_Soft_Black_Vignette"/><radialGradient id="Super_Soft_Black_Vignette-11" cx="1006.49" cy="649.96" r="12.32" xlink:href="#Super_Soft_Black_Vignette"/><radialGradient id="Super_Soft_Black_Vignette-12" cx="1012.82" cy="665.84" r="6.02" xlink:href="#Super_Soft_Black_Vignette"/><radialGradient id="Super_Soft_Black_Vignette-13" cx="971.51" cy="644.8" r="36.61" xlink:href="#Super_Soft_Black_Vignette"/><radialGradient id="Super_Soft_Black_Vignette-14" cx="976.58" cy="651.37" r="13.67" xlink:href="#Super_Soft_Black_Vignette"/><radialGradient id="Super_Soft_Black_Vignette-15" cx="966.84" cy="668.61" r="6.27" xlink:href="#Super_Soft_Black_Vignette"/><radialGradient id="Super_Soft_Black_Vignette-16" cx="1028.55" cy="604.41" r="7.61" xlink:href="#Super_Soft_Black_Vignette"/><radialGradient id="Super_Soft_Black_Vignette-17" cx="1005.18" cy="604.44" r="21.49" xlink:href="#Super_Soft_Black_Vignette"/><radialGradient id="Super_Soft_Black_Vignette-18" cx="1002.47" cy="604.88" r="19.81" xlink:href="#Super_Soft_Black_Vignette"/><radialGradient id="Super_Soft_Black_Vignette-19" cx="998.58" cy="604.61" r="6.19" xlink:href="#Super_Soft_Black_Vignette"/><radialGradient id="Super_Soft_Black_Vignette-20" cx="1002.19" cy="604.55" r="6.16" xlink:href="#Super_Soft_Black_Vignette"/><radialGradient id="Super_Soft_Black_Vignette-21" cx="1014.34" cy="604.06" r="12.09" xlink:href="#Super_Soft_Black_Vignette"/><radialGradient id="Super_Soft_Black_Vignette-22" cx="970.58" cy="605.07" r="14.62" xlink:href="#Super_Soft_Black_Vignette"/><radialGradient id="Super_Soft_Black_Vignette-23" cx="957.03" cy="590.26" r="35.03" xlink:href="#Super_Soft_Black_Vignette"/><radialGradient id="Super_Soft_Black_Vignette-24" cx="958.1" cy="606.99" r="6.78" xlink:href="#Super_Soft_Black_Vignette"/><radialGradient id="Super_Soft_Black_Vignette-25" cx="946.66" cy="604.41" r="13.48" xlink:href="#Super_Soft_Black_Vignette"/><radialGradient id="Super_Soft_Black_Vignette-26" cx="936.22" cy="517.57" r="13.28" xlink:href="#Super_Soft_Black_Vignette"/><radialGradient id="Super_Soft_Black_Vignette-27" cx="1042.56" cy="519.02" r="13.28" xlink:href="#Super_Soft_Black_Vignette"/><radialGradient id="Super_Soft_Black_Vignette-28" cx="989.38" cy="518.3" r="51.5" xlink:href="#Super_Soft_Black_Vignette"/><radialGradient id="Super_Soft_Black_Vignette-29" cx="989.34" cy="523.02" r="44.81" xlink:href="#Super_Soft_Black_Vignette"/><radialGradient id="Super_Soft_Black_Vignette-30" cx="989.34" cy="523.02" r="46.31" xlink:href="#Super_Soft_Black_Vignette"/><radialGradient id="Super_Soft_Black_Vignette-31" cx="989.38" cy="462.29" r="39.15" xlink:href="#Super_Soft_Black_Vignette"/><radialGradient id="Super_Soft_Black_Vignette-32" cx="989.38" cy="444.71" r="19.85" xlink:href="#Super_Soft_Black_Vignette"/><radialGradient id="Super_Soft_Black_Vignette-33" cx="989.38" cy="458.57" r="23.91" xlink:href="#Super_Soft_Black_Vignette"/><radialGradient id="Super_Soft_Black_Vignette-34" cx="989.38" cy="492.86" r="39.44" xlink:href="#Super_Soft_Black_Vignette"/></defs><g id="Desktop_New" data-name="Desktop New"><g id="Construction_Man" data-name="Construction Man"><ellipse cx="989.97" cy="685.08" rx="64.3" ry="13.21" style="fill:#371a45;opacity:0.2"/><path d="M1041,491.62s-8.6-4.78-7-9.13c2.69-7.3,13.26,1.07,13.26,1.07" style="fill:#fc0"/><path d="M1041,493.13a1.47,1.47,0,0,1-.73-.19c-1-.55-9.68-5.56-7.69-11a5.62,5.62,0,0,1,3.79-3.75c4.72-1.33,11.12,3.59,11.83,4.16a1.51,1.51,0,1,1-1.88,2.37c-1.5-1.19-6.39-4.39-9.13-3.62a2.6,2.6,0,0,0-1.77,1.88c-.87,2.37,3.88,5.94,6.32,7.29a1.51,1.51,0,0,1-.74,2.83Z" style="fill:url(#Super_Soft_Black_Vignette)"/><path d="M1022.72,577.31s37.17-12.32,40.15-60.14l-52.63,21.2Z" style="fill:#fc0"/><g style="opacity:0.25"><path d="M1062.86,517.17c-3,47.82-40.13,60.14-40.13,60.14L1016.54,558l.61,3.66,5.58,8.09s18.64-6.74,17.86-10.75c-.24-1.2-12-1.59-17,1s-8.52-14.11-8.52-14.11h36.46a70.82,70.82,0,0,0,10.5-28.37Z" style="fill:#371a45"/></g><g style="opacity:0.25"><polygon points="1018.96 558.02 1016.54 558.02 1012.65 545.88 1010.25 538.37 1012.39 537.51 1015.07 545.88 1018.96 558.02" style="fill:#371a45"/></g><g style="opacity:0.25"><polygon points="1018.96 558.02 1016.54 558.02 1012.65 545.88 1015.07 545.88 1018.96 558.02" style="fill:#371a45"/></g><path d="M1022.72,578.82a1.48,1.48,0,0,1-.68-.16,1.5,1.5,0,0,1-.75-.89l-12.49-38.94a1.51,1.51,0,0,1,.88-1.86l52.62-21.2a1.5,1.5,0,0,1,2.07,1.49c-1.56,25.2-12.64,40.57-21.66,49-9.79,9.18-19.12,12.33-19.51,12.46A1.31,1.31,0,0,1,1022.72,578.82Zm-10.61-39.57,11.56,36.07A59.18,59.18,0,0,0,1040.75,564c8.29-7.8,18.4-21.77,20.43-44.49Z" style="fill:url(#Super_Soft_Black_Vignette-2)"/><polygon points="1105.52 494.31 1096.89 498.19 1105.52 502.08 1105.52 530.6 1093.38 534.47 1105.52 536.41 1105.52 552.2 898.87 552.2 898.87 542.42 909.24 539.28 898.87 536.73 898.87 524.75 911.79 520.14 898.87 516.12 898.87 504.6 918.26 505.34 898.87 497.33 898.87 486.21 1105.52 486.21 1105.52 494.31" style="fill:#dbac54"/><path d="M1105.52,530.6l-12.14,3.87,12.14,1.94V552.2h-52.39V505l45.1-2.95c1.94,11.65,7.29,2.24,7.29,2.24Z" style="fill:#dd8e37"/><polygon points="1098.23 494.31 1088.27 498.19 1098.23 502.08 1098.23 530.6 1084.21 534.47 1098.23 536.41 1098.23 552.2 898.86 552.2 898.86 542.42 909.56 539.28 898.86 536.74 898.86 524.75 910 520.14 898.86 516.11 898.86 504.6 916.77 505.34 898.86 497.33 898.86 486.2 1098.23 486.2 1098.23 494.31" style="fill:#db8216"/><path d="M1051.05,501.16c-9.66-.61-11.84-10.24-12.51-15h34.59a39.37,39.37,0,0,0,.59,4.25C1075,497,1065.52,502.08,1051.05,501.16Z" style="fill:#c65d17"/><g style="opacity:0.35000000000000003"><polygon points="1098.23 486.21 1098.23 494.3 1098.2 494.32 1098.2 492.42 898.86 492.42 898.86 486.21 1098.23 486.21" style="fill:#fff"/></g><path d="M1092,499.64l6.24,2.44V530.6l-6.76,3.65s-12.92,1.63-13-3c0-4.16,13.47-3.51,13.47-23.16Z" style="fill:#c65d17"/><path d="M1098.23,536.41V552.2H898.86v-9.73h37.45a49.7,49.7,0,0,1-4.39-17.87C930.37,497,959,473.44,986.58,471.89s56.07,19.54,57.62,47.1a49.7,49.7,0,0,1-4.39,23.48h45.26a6.92,6.92,0,0,0,6.92-6.92Z" style="fill:#c65d17"/><polygon points="1091.99 496.74 1091.99 499.64 1088.27 498.19 1091.99 496.74" style="fill:#cd8322"/><polygon points="1084.21 534.47 1091.99 532.32 1091.99 535.55 1084.21 534.47" style="fill:#cd8322"/><g style="opacity:0.5"><path d="M925.11,513.2l5.06-.16,5.06-.12c3.37-.07,6.74-.17,10.11-.23,6.75-.13,13.49-.21,20.24-.3s13.49-.12,20.23-.14l10.12,0h20.23l10.12,0q10.13,0,20.24.12,20.24.17,40.46.58a.76.76,0,0,1,.74.78.75.75,0,0,1-.74.74q-20.22.42-40.46.58-10.12.07-20.24.12l-10.12,0H995.93l-10.12,0c-6.74,0-13.49-.09-20.23-.14s-13.49-.17-20.24-.3c-3.37-.06-6.74-.16-10.11-.23l-5.06-.12-5.06-.16a.53.53,0,0,1,0-1.06Z" style="fill:#371a45"/></g><g style="opacity:0.5"><path d="M931.25,534.1c11.32-.45,22.64-.64,34-.81,5.66,0,11.32-.13,17-.14l8.49,0h17l8.49,0q8.49,0,17,.13,17,.16,34,.58a.76.76,0,0,1,0,1.51q-17,.43-34,.59c-5.66,0-11.32.1-17,.12l-8.49,0h-17l-8.49,0c-5.66,0-11.32-.08-17-.14-11.32-.16-22.64-.36-34-.8a.53.53,0,0,1-.51-.55A.53.53,0,0,1,931.25,534.1Z" style="fill:#371a45"/></g><g style="opacity:0.5"><path d="M925.82,497.44c3.12-.09,6.25-.15,9.37-.21s6.25-.14,9.37-.17l18.74-.23c6.24,0,12.49-.09,18.73-.1l9.37,0,9.37,0,18.74,0,9.36,0,9.37.07c6.25.06,12.49.08,18.74.16s12.49.14,18.74.27a.56.56,0,0,1,.55.58.56.56,0,0,1-.55.55c-6.25.13-12.49.18-18.74.27s-12.49.1-18.74.15l-9.37.07-9.36,0-18.74,0-9.37,0-9.37,0c-6.24,0-12.49-.07-18.73-.11l-18.74-.22c-3.12,0-6.25-.12-9.37-.17s-6.25-.12-9.37-.21a.39.39,0,0,1-.38-.41A.38.38,0,0,1,925.82,497.44Z" style="fill:#371a45"/></g><path d="M1105.51,553.71H898.86a1.51,1.51,0,0,1-1.51-1.51v-9.78a1.52,1.52,0,0,1,1.08-1.45l5.09-1.54-5-1.23a1.51,1.51,0,0,1-1.15-1.47v-12a1.5,1.5,0,0,1,1-1.42l8.66-3.09-8.61-2.68a1.52,1.52,0,0,1-1.06-1.45V504.6a1.5,1.5,0,0,1,.47-1.09,1.45,1.45,0,0,1,1.1-.42l10.94.42-11.57-4.79a1.5,1.5,0,0,1-.94-1.39V486.21a1.51,1.51,0,0,1,1.51-1.51h206.65a1.51,1.51,0,0,1,1.52,1.51v8.09a1.51,1.51,0,0,1-.89,1.38l-5.57,2.51,5.57,2.51a1.51,1.51,0,0,1,.89,1.38V530.6A1.51,1.51,0,0,1,1106,532l-6.08,1.94,5.86.94a1.51,1.51,0,0,1,1.28,1.49V552.2A1.51,1.51,0,0,1,1105.51,553.71Zm-205.13-3H1104v-13L1093.14,536a1.51,1.51,0,0,1-.22-2.93l11.08-3.54V503.05l-7.73-3.48a1.51,1.51,0,0,1,0-2.76l7.73-3.48v-5.61H900.38v8.6L918.84,504a1.51,1.51,0,0,1-.63,2.9l-17.83-.68V515l11.86,3.7a1.51,1.51,0,0,1,.06,2.86l-11.92,4.26v9.73l9.22,2.27a1.49,1.49,0,0,1,1.15,1.42,1.52,1.52,0,0,1-1.07,1.49l-9.3,2.81Z" style="fill:url(#Super_Soft_Black_Vignette-3)"/><path d="M1098.23,553.71H939.07a1.51,1.51,0,0,1,0-3h157.65v-13L1085.85,536a1.51,1.51,0,0,1-.22-2.93l11.09-3.54V503.05l-7.74-3.48a1.51,1.51,0,0,1,0-2.76l7.74-3.48v-5.61H939.07a1.51,1.51,0,0,1,0-3h159.16a1.5,1.5,0,0,1,1.51,1.51v8.09a1.51,1.51,0,0,1-.89,1.38l-5.57,2.51,5.57,2.51a1.51,1.51,0,0,1,.89,1.38V530.6a1.5,1.5,0,0,1-1,1.44L1092.6,534l5.87.94a1.51,1.51,0,0,1,1.27,1.49V552.2A1.5,1.5,0,0,1,1098.23,553.71Z" style="fill:url(#Super_Soft_Black_Vignette-4)"/><path d="M1042,479.56c-2.15,3.53-.18,14.45,5.14,16.55,4.54,1.8,20.58-.69,23-3.13,2.69-2.75,2.06-9.16.07-10.64S1047.44,470.56,1042,479.56Z" style="fill:#fff"/><path d="M1042,479.56c-2.15,3.53-.18,14.45,5.14,16.55,4.54,1.8,20.58-.69,23-3.13,2.69-2.75,2.06-9.16.07-10.64S1047.44,470.56,1042,479.56Z" style="fill:#fc0"/><g style="opacity:0.25"><path d="M1070.06,493c-2.38,2.44-18.43,4.94-23,3.13-5.06-2-7.09-12-5.43-16,.56,3.72,2.36,7.65,5.33,9.11,7.11,3.49,21.38,2.18,23.51-2.5a15,15,0,0,0,.84-2.45C1072.22,486.86,1072.06,490.93,1070.06,493Z" style="fill:#371a45"/></g><path d="M1052,498.21a16.47,16.47,0,0,1-5.49-.69c-2.52-1-4.61-3.62-5.87-7.38-1.18-3.54-1.69-8.6,0-11.36a9,9,0,0,1,6.28-4.1c8.85-1.72,22.32,5.14,24.08,6.45,1.24.92,2.1,2.94,2.29,5.4.25,3.05-.57,5.86-2.17,7.5C1068.93,496.31,1058.94,498.21,1052,498.21Zm-2-20.79a13.8,13.8,0,0,0-2.54.22,6,6,0,0,0-4.27,2.71h0c-.83,1.36-1,5.12.29,8.83,1,2.86,2.46,4.87,4.11,5.53,4.31,1.71,19.62-1,21.33-2.79,1-1,1.5-3,1.33-5.15a5.16,5.16,0,0,0-1.08-3.22C1067.9,482.57,1057.66,477.42,1050.06,477.42Zm-8.1,2.14Z" style="fill:url(#Super_Soft_Black_Vignette-5)"/><path d="M972,554.25l-.5,56.15-.2,23.18s-25.41,2.88-33.48-6.58c-3-3.51-5.07-14-6-25.54-1.06-14.07-.34-29.76,2.71-36.41C939.51,554.37,963.15,553.55,972,554.25Z" style="fill:#fff"/><g style="opacity:0.25"><path d="M971.53,610.4l-.2,23.18s-25.41,2.88-33.48-6.58c-3-3.51-5.07-14-6-25.54l15.63-3.7s5.51-.22,6.83,17.27c.37,4.89,7.95,6.34,13.29,2.1A12.3,12.3,0,0,0,971.53,610.4Z" style="fill:#371a45"/></g><path d="M962.73,635.52c-8.42,0-20.62-1.2-26-7.54-3.91-4.58-6-18.63-6.55-30.25s-.1-26.36,3.09-33.31c5.36-11.68,29.9-12.39,38.91-11.67a1.51,1.51,0,0,1-.24,3c-9.88-.78-31.66.61-35.92,9.92-2.44,5.32-3.55,17.83-2.82,31.89.71,13.76,3.06,25.2,5.83,28.45,7.46,8.74,31.92,6.09,32.16,6.06a1.51,1.51,0,0,1,.34,3A86.05,86.05,0,0,1,962.73,635.52Z" style="fill:url(#Super_Soft_Black_Vignette-6)"/><path d="M933.22,599l13.47.31a2.64,2.64,0,0,1,2.51,2c1,4.29,2.83,14.32-1.21,17.87-3.35,3-9,2.92-12.52.28-3.88-3-4.76-12.84-5-17.74A2.64,2.64,0,0,1,933.22,599Z" style="fill:#fff"/><g style="opacity:0.25"><path d="M949.2,601.3c1,4.29,2.83,14.32-1.21,17.87-3.35,3-9,2.92-12.52.28-2.38-1.82-3.64-6.26-4.29-10.55a11.37,11.37,0,0,0,3,4.91c7.1,6.22,11.75-1.79,11.75-1.79s1,1.83,1.68,1.9c2.94.3,1.86-8.81,1.19-13.51A2.48,2.48,0,0,1,949.2,601.3Z" style="fill:#371a45"/></g><path d="M941.6,622.92a11.66,11.66,0,0,1-7-2.27c-4.09-3.11-5.28-12-5.55-18.88a4.14,4.14,0,0,1,4.24-4.32h0l13.47.31a4.14,4.14,0,0,1,3.95,3.2c1.3,5.52,2.81,15.39-1.68,19.34A11.21,11.21,0,0,1,941.6,622.92Zm-8.44-22.45a1.11,1.11,0,0,0-.81.34,1.1,1.1,0,0,0-.32.84c.34,8.57,2,14.77,4.36,16.59A8.85,8.85,0,0,0,947,618c2.81-2.47,2.22-10.08.74-16.38a1.13,1.13,0,0,0-1.07-.87l-13.48-.31h0Z" style="fill:url(#Super_Soft_Black_Vignette-7)"/><path d="M945.81,604.18c.05,1.54.25,3.18.34,4.83a26.19,26.19,0,0,1-.13,5.07,11.8,11.8,0,0,1-1.83,5.08,8.55,8.55,0,0,1-2,2.07,9.65,9.65,0,0,1-2.51,1.34,1.51,1.51,0,1,1-1.06-2.83l.11,0h0a6.41,6.41,0,0,0,3.31-2.12,9.16,9.16,0,0,0,1.7-3.9,23.31,23.31,0,0,0,.45-4.63c0-1.6-.05-3.2,0-4.9a.81.81,0,0,1,.84-.77.8.8,0,0,1,.76.77Z" style="fill:#371a45"/><path d="M942.19,562.81c1.85-.12,3.69-.19,5.53-.24s3.69-.07,5.55-.05,3.7.08,5.57.22a35.76,35.76,0,0,1,5.68.8,1.51,1.51,0,1,1-.71,2.94l-.11,0h0a32.94,32.94,0,0,0-5.14-1.13c-1.78-.28-3.58-.48-5.39-.64s-3.63-.29-5.46-.38-3.65-.16-5.47-.19h0a.65.65,0,0,1,0-1.3Z" style="fill:url(#Super_Soft_Black_Vignette-8)"/><path d="M1039.51,564.79v-.07S1039.55,564.75,1039.51,564.79Z" style="fill:#fff"/><path d="M1039.51,564.79v-.07S1039.55,564.75,1039.51,564.79Z" style="fill:#fff"/><path d="M1039.51,564.72s0,0,0,.07Z" style="fill:#fff"/><path d="M1028.18,607.15s-4.3,30.49-8.69,58.38c0,0,11.89,3.23,12,10.41.1,9-9.75,9.62-21.82,9.63-8.63,0-14.73-2-18.33-4.23-7.85-4.93,6.88-13.75-5.93-77.47" style="fill:#fc0"/><g style="opacity:0.25"><path d="M1031.1,678.78c-1.87,6.33-10.8,6.78-21.46,6.79-8.63,0-14.73-2-18.33-4.22-7.85-4.94,6.87-13.76-5.93-77.48l42.8,3.28s-1.09,7.72-2.74,19a43.45,43.45,0,0,1-6.08,4.75,40.57,40.57,0,0,0-17.83,26.2c-2,10.23-3.44,19,1.36,22.05,3.61,2.27,9.05,3.07,17,2.88A22,22,0,0,0,1031.1,678.78Z" style="fill:#371a45"/></g><path d="M1009.61,687.08c-10.46,0-16.46-2.79-19.1-4.46-3.86-2.42-3.41-5.78-2.58-11.89,1.32-9.69,3.77-27.72-4-66.56a1.52,1.52,0,0,1,3-.6c7.91,39.34,5.41,57.7,4.07,67.57-.83,6.1-.94,7.59,1.18,8.92,2.38,1.5,7.8,4,17.5,4h0c8.07,0,15.56-.27,18.66-3.4A6.27,6.27,0,0,0,1030,676c-.06-4.94-7.85-8.15-10.85-9a1.52,1.52,0,0,1-1.1-1.7c4.33-27.56,8.64-58,8.68-58.35a1.51,1.51,0,0,1,3,.42c0,.3-4.23,29.88-8.49,57.12,3.3,1.14,11.7,4.69,11.78,11.44a9.19,9.19,0,0,1-2.52,6.86c-3.92,4-11.74,4.3-20.81,4.3Z" style="fill:url(#Super_Soft_Black_Vignette-9)"/><g style="opacity:0.35000000000000003"><path d="M993.14,629.18c-.06-1.21-.14-2.46-.23-3.76C993,626.72,993.08,628,993.14,629.18Z" style="fill:#371a45"/></g><g style="opacity:0.35000000000000003"><path d="M992.83,624.37q-.09-1.07-.18-2.16Q992.74,623.31,992.83,624.37Z" style="fill:#371a45"/></g><g style="opacity:0.35000000000000003"><path d="M992.32,618.82c-.07-.67-.15-1.36-.23-2.05C992.17,617.46,992.24,618.15,992.32,618.82Z" style="fill:#371a45"/></g><g style="opacity:0.35000000000000003"><path d="M987,613.56c-.08-.82-.16-1.65-.24-2.5C986.8,611.91,986.88,612.74,987,613.56Z" style="fill:#371a45"/></g><path d="M1027.51,614c-2.34,18.81-43.46,27.34-61.3,13.94a21,21,0,0,1-4-4,18.76,18.76,0,0,1-2.76-4.94,20.5,20.5,0,0,1-1.2-5.05,242,242,0,0,1,.26-50.42q.36-3.45.79-7c.09-.72.18-1.44.28-2.16s.21-1.63.33-2.44q.87-6.28,2-12.77a45,45,0,0,0,.74-7.52c.25-3.7,14.14-3.87,28-1.67,10.23,2.17,25.22,4.1,28.14,12.45a13.2,13.2,0,0,0,.31,1.73c.36,1.44.92,3,1.35,4.17a114.94,114.94,0,0,1,3.8,14.73,211.42,211.42,0,0,1,3.39,23.51A134.43,134.43,0,0,1,1027.51,614Z" style="fill:#fff"/><path d="M1027.5,614c-2.33,18.81-43.45,27.34-61.29,14a21.61,21.61,0,0,1-4-4,18.84,18.84,0,0,1-2.77-4.95,20.85,20.85,0,0,1-1.19-5.05L958,612.3c-.34-3.34-.59-6.79-.76-10.33a258.19,258.19,0,0,1,1.2-38.35c0-.24,0-.48.08-.73h0q.32-3.1.71-6.25l.27-2.16c0-.18.05-.35.07-.52.09-.64.17-1.28.27-1.92.57-4.19,1.25-8.45,2-12.76a45.21,45.21,0,0,0,.74-7.53c.25-3.7,14.14-3.87,28-1.67,10.24,2.17,25.23,4.11,28.15,12.45a11.5,11.5,0,0,0,.31,1.73,43.62,43.62,0,0,0,1.35,4.17c.48,1.3,1,3.18,1.67,5.53.47,1.76,1,3.79,1.45,6,.23,1,.45,2.08.67,3.17a211.27,211.27,0,0,1,3.4,23.51A134.42,134.42,0,0,1,1027.5,614Z" style="fill:#fc0"/><g style="opacity:0.25"><path d="M967.14,615.8a62.34,62.34,0,0,1-7.92-.41c-.33-3.3-.58-6.69-.75-10.19a40.39,40.39,0,0,0,4.19.41,24.28,24.28,0,0,0,2.68,7.42C965.91,614,966.52,614.93,967.14,615.8Z" style="fill:#371a45"/></g><path d="M1025.94,567.89a49.34,49.34,0,0,1,2.07,8.51c.11.72.21,1.44.31,2.16l.26,2.17c.17,1.45.33,2.89.46,4.35a164.48,164.48,0,0,1,.78,17.49q-.08,4.39-.45,8.78l-.23,2.2c0,.36-.07.72-.15,1.13a9.61,9.61,0,0,1-.23,1.19,16.45,16.45,0,0,1-1.78,4.43,23.15,23.15,0,0,1-6.29,6.8,38.65,38.65,0,0,1-7.85,4.45,58.55,58.55,0,0,1-17.26,4.3,55.77,55.77,0,0,1-17.79-1,44.63,44.63,0,0,1-4.34-1.25,36.78,36.78,0,0,1-4.2-1.79,25.64,25.64,0,0,1-7.39-5.54,22.1,22.1,0,0,1-2.76-3.82,20.93,20.93,0,0,1-1.81-4.35c-.1-.38-.23-.75-.3-1.14l-.24-1.14c-.12-.76-.25-1.57-.3-2.28-.14-1.45-.31-2.9-.41-4.35a239.58,239.58,0,0,1-.16-34.93,327.12,327.12,0,0,1,4.22-34.62c.24-1.43.51-2.81.61-4.13.06-.67.09-1.39.13-2.12l.06-1.09,0-.55v-.14c0-.08,0-.19,0-.28a2.16,2.16,0,0,1,.14-.57,3.73,3.73,0,0,1,1.17-1.6,6.56,6.56,0,0,1,1.29-.76,12.8,12.8,0,0,1,2.4-.77,30.39,30.39,0,0,1,4.56-.57,72.8,72.8,0,0,1,8.87.09c2.94.18,5.85.49,8.75.89l2.2.33.56.08.55.12,1.07.22,4.25.86c2.85.58,5.71,1.2,8.56,2a38.88,38.88,0,0,1,8.41,3.31,17.65,17.65,0,0,1,3.81,2.84,11.17,11.17,0,0,1,2.68,4.2,1.4,1.4,0,0,1,.08.34v0a15.21,15.21,0,0,0,.59,2.69c.28.93.62,1.87,1,2.83a1.51,1.51,0,1,1-2.83,1c-.36-1-.72-2-1-3a17.84,17.84,0,0,1-.73-3.29l.08.36a8.24,8.24,0,0,0-2-3,14.76,14.76,0,0,0-3.15-2.3,36.44,36.44,0,0,0-7.73-3c-2.72-.75-5.51-1.35-8.33-1.91l-4.26-.84-1-.21-.52-.11-.51-.07-2.1-.3c-2.83-.38-5.67-.67-8.51-.84a72.59,72.59,0,0,0-8.47-.05,27.52,27.52,0,0,0-4,.52,9.15,9.15,0,0,0-1.72.55,2.71,2.71,0,0,0-.58.33c-.1.1-.15.17-.11.11s0,0,0,0,0,0,0,0V532l0,.54,0,1.07c0,.71-.06,1.44-.13,2.22-.13,1.56-.41,3-.65,4.44a320.76,320.76,0,0,0-4.16,34.25,238.19,238.19,0,0,0,.17,34.42c.1,1.43.27,2.86.41,4.28.06.74.16,1.36.26,2l.21,1c.06.33.17.64.25,1a17,17,0,0,0,3.82,6.85,22,22,0,0,0,6.4,4.82,31.46,31.46,0,0,0,3.77,1.62,36.46,36.46,0,0,0,4,1.16,52.36,52.36,0,0,0,16.72,1,55.55,55.55,0,0,0,16.3-4,35.9,35.9,0,0,0,7.22-4.05,20,20,0,0,0,5.45-5.83,13.3,13.3,0,0,0,1.46-3.57,38.07,38.07,0,0,0,.55-4.08c.25-2.83.41-5.68.46-8.54a158.83,158.83,0,0,0-.7-17.16c-.26-2.86-.6-5.71-1-8.56a82.46,82.46,0,0,1-.61-8.64h0a.76.76,0,0,1,.76-.78A.79.79,0,0,1,1025.94,567.89Z" style="fill:url(#Super_Soft_Black_Vignette-10)"/><path d="M1006.18,653a67.28,67.28,0,0,1-15.71-1.91,1.51,1.51,0,1,1,.77-2.92c.18.05,18.07,4.64,30.24-1.11a1.51,1.51,0,1,1,1.29,2.73C1017.58,652.25,1011.58,653,1006.18,653Z" style="fill:url(#Super_Soft_Black_Vignette-11)"/><path d="M1019.23,667c-.51-.12-1.11-.23-1.68-.31s-1.15-.16-1.73-.22a31.52,31.52,0,0,0-3.5-.15,21.91,21.91,0,0,0-3.44.34,13.9,13.9,0,0,0-3.23,1.06l0,0a.76.76,0,0,1-.73-1.32,14.89,14.89,0,0,1,3.53-1.59,23,23,0,0,1,3.74-.77,31.7,31.7,0,0,1,3.78-.23c.63,0,1.26,0,1.89,0s1.24.07,1.93.15a1.52,1.52,0,0,1-.36,3l-.15,0Z" style="fill:url(#Super_Soft_Black_Vignette-12)"/><path d="M960.12,688.06c20.7.77,31.9.1,32.82-14,1.33-20.26,3-43.86,3-43.86l-29.56-23-7.79-6.06c0,1.71,0,3.39-.07,5.06-.41,35.1,1.4,62.07,1.4,62.07s-11.29,3-12,11C947.28,685.28,952.83,687.79,960.12,688.06Z" style="fill:#fc0"/><g style="opacity:0.25"><path d="M996.09,629.53s-1.82,24.29-3.15,44.55c-.92,14.08-12.12,14.76-32.82,14-7-.26-12.39-2.58-12.31-8a23.38,23.38,0,0,0,6.7,1.12c20.7.77,31.9.1,32.82-14,1.07-16.36.95-31,3.26-34.67C991.76,630.64,996.09,629.53,996.09,629.53Z" style="fill:#371a45"/></g><path d="M996.66,630.27a71.52,71.52,0,0,1,.13,7.46c0,2.48-.22,4.95-.37,7.42L995.48,660l-.47,7.42-.24,3.71-.12,1.85c0,.62-.07,1.22-.13,1.9s-.15,1.32-.25,2a19.56,19.56,0,0,1-.46,2,14.17,14.17,0,0,1-1.69,3.83,12.6,12.6,0,0,1-2.9,3.15,15.34,15.34,0,0,1-3.63,2,30.28,30.28,0,0,1-7.68,1.73c-2.55.27-5.08.36-7.59.38s-5,0-7.5-.12l-1.86-.07-.94,0-1-.06a25.26,25.26,0,0,1-3.92-.53,17.14,17.14,0,0,1-3.91-1.31,9.84,9.84,0,0,1-3.46-2.79,7.8,7.8,0,0,1-1.56-4.33,10.1,10.1,0,0,1,.7-4.33,12.21,12.21,0,0,1,1-1.94,13.32,13.32,0,0,1,1.3-1.67,16.87,16.87,0,0,1,3.1-2.66,23.7,23.7,0,0,1,3.48-1.92c.6-.27,1.2-.52,1.81-.75s1.22-.43,1.92-.62h0l-1.12,1.56c-.35-5.62-.6-11.21-.81-16.82s-.37-11.2-.47-16.8-.18-11.21-.18-16.82.05-11.21.13-16.81a1.51,1.51,0,1,1,3,0h0c-.08,5.59-.14,11.17-.12,16.76s.07,11.17.17,16.76.27,11.17.47,16.75.46,11.17.81,16.72a1.52,1.52,0,0,1-1.09,1.56h0c-.49.14-1.07.35-1.61.56s-1.08.44-1.6.69a21.66,21.66,0,0,0-3,1.73,10.79,10.79,0,0,0-4.16,4.83,6.81,6.81,0,0,0-.45,3,4.55,4.55,0,0,0,.93,2.55,6.55,6.55,0,0,0,2.31,1.78,14.1,14.1,0,0,0,3.14,1,22.65,22.65,0,0,0,3.43.46l.88,0,.93,0,1.85.06c2.46.08,4.92.13,7.37.11a72.41,72.41,0,0,0,7.25-.37,26.49,26.49,0,0,0,6.78-1.52,10.26,10.26,0,0,0,5-3.85,11.46,11.46,0,0,0,1.32-2.93c.16-.53.27-1.08.39-1.63s.18-1.13.22-1.71.1-1.2.15-1.81l.13-1.85.27-3.71.53-7.42L993.38,645a105.64,105.64,0,0,1,1.77-14.79.78.78,0,0,1,.91-.59.76.76,0,0,1,.6.69Z" style="fill:url(#Super_Soft_Black_Vignette-13)"/><path d="M976.36,654.46a46.94,46.94,0,0,1-18-3.3,1.51,1.51,0,1,1,1.23-2.75,49.13,49.13,0,0,0,34,0,1.51,1.51,0,1,1,1,2.84A53.31,53.31,0,0,1,976.36,654.46Z" style="fill:url(#Super_Soft_Black_Vignette-14)"/><path d="M959.54,666.81c.71-.08,1.35-.12,2-.15s1.32,0,2,0a37.36,37.36,0,0,1,4,.23,26.46,26.46,0,0,1,3.91.76,16.48,16.48,0,0,1,3.72,1.59.76.76,0,0,1-.7,1.34l0,0a14.64,14.64,0,0,0-3.42-1.07,24.38,24.38,0,0,0-3.63-.34,34.94,34.94,0,0,0-3.68.15c-.61.06-1.22.13-1.83.22s-1.23.19-1.77.31h0a1.51,1.51,0,1,1-.64-2.95Z" style="fill:url(#Super_Soft_Black_Vignette-15)"/><circle cx="1028.55" cy="604.41" r="6.1" style="fill:#fff"/><g style="opacity:0.35000000000000003"><path d="M1034.64,604.56a6.1,6.1,0,1,1-12.19-.3,5.94,5.94,0,0,1,.65-2.59,6.1,6.1,0,0,0,11,.27A6,6,0,0,1,1034.64,604.56Z" style="fill:#371a45"/></g><path d="M1028.55,612h-.19a7.7,7.7,0,1,1,.19,0Zm0-12.19a4.53,4.53,0,1,0,.11,0Z" style="fill:url(#Super_Soft_Black_Vignette-16)"/><g style="opacity:0.25"><path d="M962.66,605.61a40.39,40.39,0,0,1-4.19-.41q.24,4.93.7,9.6h-.74c-1.58-8.54-1.21-17.44-1.4-26.28l5.39-3.75C962,589.78,961.18,598.25,962.66,605.61Z" style="fill:#371a45"/></g><g style="opacity:0.25"><path d="M1026.86,616.82c-3.26,9.33-16.86,16-31.16,17.47l.39-4.76a51.21,51.21,0,0,0,21.91-6.06l-31.11,1.1a7,7,0,0,1-7.18-6.7l-.11-3.11a89.63,89.63,0,0,1-9.63,1l-1.16-.93h-2.36q-.57-.85-1.11-1.77a24.28,24.28,0,0,1-2.68-7.42,58.65,58.65,0,0,0,16.14-1.68l.43.25.82-3.67c-.12-3.35.24-10.08,4-10.81.45-.09,1.27,3.87,1.74,3.85l32.21-1.13a6.94,6.94,0,0,1,7.17,6.69l.48,13.58.13,3.57a6.4,6.4,0,0,1-.19,1.86C1026.06,617.69,1026.48,617.25,1026.86,616.82Z" style="fill:#371a45"/></g><g style="opacity:0.25"><path d="M967.14,615.8a62.34,62.34,0,0,1-7.92-.41c-.33-3.3-.58-6.69-.75-10.19a40.39,40.39,0,0,0,4.19.41,24.28,24.28,0,0,0,2.68,7.42C965.91,614,966.52,614.93,967.14,615.8Z" style="fill:#371a45"/></g><path d="M1021.83,619.38l-32.21,1.13a7,7,0,0,1-7.18-6.69l-.6-17.15a7,7,0,0,1,5.31-7,6.21,6.21,0,0,1,1.38-.18l32.2-1.14a7,7,0,0,1,7.18,6.7l.48,13.57.13,3.57A7,7,0,0,1,1021.83,619.38Z" style="fill:#fff"/><g style="opacity:0.25"><path d="M1021.83,619.38l-32.21,1.13a7,7,0,0,1-7.18-6.69l-.6-17.15a7,7,0,0,1,5.31-7l3.06,1.89c2,13.71,1.8,23.93,23.1,21.76a37.43,37.43,0,0,0,15.08-4.7l.13,3.57A7,7,0,0,1,1021.83,619.38Z" style="fill:#371a45"/></g><path d="M990.59,622a9.73,9.73,0,0,1-9.71-9.37L980.37,598a9.73,9.73,0,0,1,9.37-10l29.68-1a9.72,9.72,0,0,1,10.05,9.36l.51,14.62a9.74,9.74,0,0,1-9.36,10L990.93,622l0-1.51,0,1.51Zm29.18-32.07h-.24l-29.69,1a6.7,6.7,0,0,0-6.45,6.92l.51,14.62a6.73,6.73,0,0,0,6.93,6.46l29.68-1.05A6.71,6.71,0,0,0,1027,611l-.51-14.62A6.7,6.7,0,0,0,1019.77,589.91Z" style="fill:url(#Super_Soft_Black_Vignette-17)"/><path d="M1023.11,619.21a6.69,6.69,0,0,1-1.28.17l-32.21,1.13a7,7,0,0,1-6.46-3.86,6.73,6.73,0,0,1-.72-2.83l-.27-7.62-.09-2.51-.24-7a7,7,0,0,1,6.69-7.17l7-.25a7,7,0,0,0-5.42,7l.33,9.26.27,7.89a7,7,0,0,0,7.18,6.69Z" style="fill:#fff"/><g style="opacity:0.25"><path d="M1023.11,619.21a6.69,6.69,0,0,1-1.28.17l-32.21,1.13a7,7,0,0,1-7.18-6.69l-.36-10.13c.87,1.76,2.41,3.9,4.74,4,1.29.09,2.51-.88,3.58-2.22l.27,7.89a7,7,0,0,0,7.18,6.69Z" style="fill:#371a45"/></g><path d="M989.36,622a8.48,8.48,0,0,1-8.43-8.16l-.6-17.14a8.47,8.47,0,0,1,8.14-8.75l7-.24a1.51,1.51,0,0,1,.39,3,5.45,5.45,0,0,0-4.24,5.49l.61,17.14a5.45,5.45,0,0,0,5.61,5.24l25.26-.89a1.51,1.51,0,0,1,.41,3,8.66,8.66,0,0,1-1.6.21L989.67,622Zm.9-31.08-1.68,0a5.41,5.41,0,0,0-3.77,1.74,5.34,5.34,0,0,0-1.46,3.88l.6,17.14h0a5.45,5.45,0,0,0,5.61,5.23l1.89-.07a8.33,8.33,0,0,1-2.28-5.47l-.61-17.15A8.42,8.42,0,0,1,990.26,591Z" style="fill:url(#Super_Soft_Black_Vignette-18)"/><path d="M1003.08,604.53c0,.63-.72,5.77-.72,5.77l-3.61.11c-2.49.07-4.58-2.44-4.68-5.62s1.85-5.81,4.34-5.88l3.61-.11S1003.05,603.49,1003.08,604.53Z" style="fill:#22a7f0"/><g style="opacity:0.35000000000000003"><path d="M1003.08,604.53c0,.63-.72,5.77-.72,5.77l-3.61.11c-2.49.07-4.58-2.44-4.68-5.62s1.85-5.81,4.34-5.88l3.61-.11S1003.05,603.49,1003.08,604.53Z" style="fill:#371a45"/></g><path d="M998.64,611.42c-3,0-5.46-2.93-5.57-6.6a7.62,7.62,0,0,1,1.39-4.73,5.05,5.05,0,0,1,3.92-2.19l3.61-.1a1,1,0,0,1,1,.79c.18.79,1,4.83,1.08,5.91,0,.67-.55,4.72-.73,6a1,1,0,0,1-1,.86l-3.62.1Zm2.58-11.59-2.78.08a3,3,0,0,0-2.36,1.37,5.56,5.56,0,0,0-1,3.48c.07,2.62,1.7,4.71,3.64,4.65l2.76-.08c.31-2.2.6-4.42.6-4.78C1002.06,604,1001.59,601.61,1001.22,599.83Z" style="fill:url(#Super_Soft_Black_Vignette-19)"/><ellipse cx="1002.19" cy="604.55" rx="4.51" ry="5.75" transform="translate(-17.32 29.68) rotate(-1.68)" style="fill:#22a7f0"/><g style="opacity:0.35000000000000003"><path d="M997.69,604.69c.09,3.17,2.18,5.69,4.67,5.62s4.43-2.71,4.33-5.89a7.25,7.25,0,0,0-.14-1.25c-.58,2.2-2.18,3.8-4.11,3.86-2.15.06-4-1.81-4.53-4.37A7.07,7.07,0,0,0,997.69,604.69Z" style="fill:#371a45"/></g><g style="opacity:0.7000000000000001"><path d="M997.69,604.69c0,.21,0,.42,0,.63.43-2.5,2.14-4.39,4.24-4.45,2.32-.07,4.3,2.11,4.62,5a7.47,7.47,0,0,0,.1-1.43c-.09-3.18-2.18-5.69-4.67-5.62S997.59,601.51,997.69,604.69Z" style="fill:#fff"/></g><path d="M1002.25,611.31a5,5,0,0,1-3.9-2,7.92,7.92,0,0,1-.27-9.37,5,5,0,0,1,3.91-2.18c3-.09,5.6,2.87,5.71,6.59s-2.28,6.83-5.31,6.92Zm-.12-11.51h-.08a3.11,3.11,0,0,0-2.36,1.37,5.94,5.94,0,0,0,.21,6.9,3.05,3.05,0,0,0,2.43,1.23c1.93-.06,3.44-2.23,3.36-4.85S1004,599.8,1002.13,599.8Z" style="fill:url(#Super_Soft_Black_Vignette-20)"/><path d="M1011.81,620.74a1.13,1.13,0,0,1-1.13-1.12l-.1-8.68a7.11,7.11,0,0,1,3.12-6,4.84,4.84,0,0,0,2.13-4.18l-.39-12.22a1.14,1.14,0,0,1,2.27-.08l.39,12.23a7.11,7.11,0,0,1-3.13,6.13,4.84,4.84,0,0,0-2.13,4.07l.1,8.68a1.13,1.13,0,0,1-1.12,1.15Z" style="fill:url(#Super_Soft_Black_Vignette-21)"/><path d="M956,597.38a7.59,7.59,0,0,0-2.36,5.88,7.7,7.7,0,0,0,3.06,5.88S966,615.32,986,611.5c0,0,4.54-6.71-1.77-10.63C984.24,600.87,966.14,606.52,956,597.38Z" style="fill:#fff"/><g style="opacity:0.25"><path d="M953.59,603.18h0a7.68,7.68,0,0,0,3.06,6S966,615.32,986,611.5c0,0,3.47-5.13.13-9v.08a5.32,5.32,0,0,1-4.23,5.13c-18.18,2.8-26.7-2.83-26.7-2.83A6.18,6.18,0,0,1,953.59,603.18Z" style="fill:#371a45"/></g><path d="M973.58,614.27c-11.75,0-17.46-3.67-17.76-3.87a9.29,9.29,0,0,1-.87-14.16,1.51,1.51,0,0,1,2,0c9.43,8.44,26.67,3.22,26.84,3.17a1.5,1.5,0,0,1,1.24.16,8.07,8.07,0,0,1,3.9,5.19c.82,3.83-1.56,7.42-1.66,7.57a1.57,1.57,0,0,1-1,.64A68.19,68.19,0,0,1,973.58,614.27Zm-17.45-14.78a5.74,5.74,0,0,0-1,3.66,6.23,6.23,0,0,0,2.37,4.72c.1.06,9,5.65,27.59,2.27a7.48,7.48,0,0,0,.91-4.74,4.81,4.81,0,0,0-2-2.88C980.55,603.46,965.85,606.87,956.13,599.49Z" style="fill:url(#Super_Soft_Black_Vignette-22)"/><path d="M969.23,549.58s-40.84,29.75-36.3,63.79c2.36,17.7,14.23,18.49,21.49,17.17,4.78-.87,4.45-1.32,7.31-2.66s7.2-1.6,11.28-1.91c7.72-.59,13.27-20.31,2.28-26.79-6.74-4-12.47.23-14.33.85-.78-.85-1.72-8.61,1.46-15.26" style="fill:#fc0"/><path d="M970.12,550.8c-1.4,1-2.82,2.2-4.19,3.35s-2.72,2.36-4,3.59q-4,3.66-7.63,7.66a96.39,96.39,0,0,0-12.75,17.32,65.49,65.49,0,0,0-4.51,9.69,49.91,49.91,0,0,0-2.53,10.29,41.62,41.62,0,0,0,0,10.52,25.49,25.49,0,0,0,3.15,9.75,14.17,14.17,0,0,0,3.26,3.67,11.58,11.58,0,0,0,2.07,1.29,12,12,0,0,0,2.29.89,16.78,16.78,0,0,0,5,.62,20,20,0,0,0,2.56-.17c.43-.06.85-.12,1.28-.2s.87-.16,1.3-.25a17,17,0,0,0,2.42-.64,9.85,9.85,0,0,0,1.07-.48L960,627c.44-.22.84-.43,1.32-.64.24-.11.49-.2.73-.29l.72-.24a23,23,0,0,1,2.86-.65c1.88-.32,3.74-.48,5.57-.63l1.37-.1.33,0,.23,0,.23,0,.24-.07a5.32,5.32,0,0,0,1.81-1,10.17,10.17,0,0,0,1.55-1.76,15.58,15.58,0,0,0,1.23-2.15,20,20,0,0,0,1.48-4.83,19.39,19.39,0,0,0,.17-5,13.89,13.89,0,0,0-1.34-4.72,10.49,10.49,0,0,0-3-3.64c-.31-.24-.66-.45-1-.67l-1.07-.56-1.12-.43c-.38-.09-.76-.22-1.15-.29a10.4,10.4,0,0,0-4.73.23,15.22,15.22,0,0,0-2.36.86c-.4.17-.79.36-1.2.55l-.65.31c-.12.05-.2.1-.36.16l-.42.16a1.4,1.4,0,0,1-1.57-.39v0h0a3.92,3.92,0,0,1-.25-.32l-.13-.23a4.11,4.11,0,0,1-.18-.38c-.09-.22-.16-.42-.22-.61a10.23,10.23,0,0,1-.25-1.11,17.2,17.2,0,0,1-.24-2.12,20.81,20.81,0,0,1,0-2.09c0-.69.1-1.38.19-2.07a20,20,0,0,1,1-4,11.76,11.76,0,0,1,2-3.64.79.79,0,0,1,1.1-.1.8.8,0,0,1,.27.73v0c-.21,1.29-.46,2.5-.67,3.72s-.4,2.43-.48,3.66c-.05.61-.08,1.22-.09,1.84s0,1.22,0,1.83.06,1.2.12,1.78c0,.28.08.57.12.82l.07.32s0,.08,0,.08h0a.69.69,0,0,0-.11-.13h0l-1.59-.41c.14-.06.28-.1.48-.2l.59-.28c.41-.2.84-.41,1.29-.6a19.07,19.07,0,0,1,2.78-1,13.5,13.5,0,0,1,6.1-.29c.51.09,1,.25,1.51.38l1.44.56,1.35.7c.43.28.87.55,1.28.86a13.54,13.54,0,0,1,3.91,4.7,17.13,17.13,0,0,1,1.65,5.75,22.6,22.6,0,0,1-.2,5.87,22.88,22.88,0,0,1-1.72,5.61,19.34,19.34,0,0,1-1.49,2.6,13.6,13.6,0,0,1-2.06,2.32,8.11,8.11,0,0,1-2.92,1.64l-.42.13-.45.07-.44.06-.35,0-1.36.11c-1.81.14-3.59.3-5.31.59a18.94,18.94,0,0,0-2.47.56c-.2.06-.4.12-.58.19s-.37.14-.54.22l-.57.26-.57.29-1.2.65a12.59,12.59,0,0,1-1.43.65,19.62,19.62,0,0,1-2.86.76,23.69,23.69,0,0,1-11.56,0,15.92,15.92,0,0,1-2.8-1.09A15.18,15.18,0,0,1,939,629a17.11,17.11,0,0,1-4-4.47,23.25,23.25,0,0,1-2.36-5.34,35.31,35.31,0,0,1-1.21-5.59,44.22,44.22,0,0,1,0-11.32,51.81,51.81,0,0,1,2.68-10.93,68.68,68.68,0,0,1,4.71-10.14A99,99,0,0,1,952,563.36q3.74-4.1,7.81-7.85,2-1.87,4.15-3.67c1.42-1.19,2.83-2.35,4.36-3.49a1.52,1.52,0,0,1,1.81,2.43h0Z" style="fill:url(#Super_Soft_Black_Vignette-23)"/><g style="opacity:0.25"><path d="M973,626c-4.08.31-8.52.61-11.28,1.91s-2.53,1.79-7.31,2.66c-7.26,1.32-19.13.54-21.49-17.17l1.65-1.6c3.83,12.52,13.91,13,20.35,11.83,4.2-.75,10.56-3.74,17.41-3.42,5.52.26,7.76-5.64,9-10.78C982.15,617.08,978,625.59,973,626Z" style="fill:#371a45"/></g><path d="M953.9,614.89a15.18,15.18,0,0,1-.12-2.21c0-.72.07-1.44.16-2.16a19.34,19.34,0,0,1,3-8.19,18,18,0,0,1,1.33-1.79,9.74,9.74,0,0,1,.74-.83l.77-.81A1.52,1.52,0,0,1,962,601l-.1.09-.1.09-.71.63a7.3,7.3,0,0,0-.71.65,15.8,15.8,0,0,0-1.27,1.43,16.14,16.14,0,0,0-2,3.26,17.58,17.58,0,0,0-1.27,3.7c-.07.32-.12.64-.19,1s-.09.65-.13,1a14.23,14.23,0,0,0-.08,1.93v.06a.75.75,0,0,1-1.5.12Z" style="fill:url(#Super_Soft_Black_Vignette-24)"/><path d="M933.11,616.09H933a1.51,1.51,0,0,1-1.42-1.6c0-.39.68-9.63,8-16,5.09-4.42,12.06-6.31,20.72-5.63a1.51,1.51,0,0,1-.24,3c-7.81-.62-14,1-18.47,4.87-6.38,5.52-7,13.85-7,13.93A1.51,1.51,0,0,1,933.11,616.09Z" style="fill:url(#Super_Soft_Black_Vignette-25)"/><path d="M939.51,533.24l1.36,0a.9.9,0,0,0,.92-.88l.44-29.57a.91.91,0,0,0-.89-.91l-1.36,0a9.43,9.43,0,0,0-9.58,9.3l-.19,12.49A9.44,9.44,0,0,0,939.51,533.24Z" style="fill:#fff"/><path d="M940.89,533.54h0l-1.36,0a9.72,9.72,0,0,1-9.57-9.86l.19-12.49a9.71,9.71,0,0,1,9.85-9.56l1.36,0a1.17,1.17,0,0,1,1.16,1.19l-.44,29.56a1.2,1.2,0,0,1-1.17,1.16Zm-1.06-31.39a9.17,9.17,0,0,0-9.16,9l-.19,12.49a9.18,9.18,0,0,0,9,9.3h0l1.37,0a.6.6,0,0,0,.44-.17.64.64,0,0,0,.19-.45l.44-29.56a.63.63,0,0,0-.62-.64l-1.36,0Z" style="fill:#371a45"/><g style="opacity:0.25"><path d="M930.3,517.73l-.07,4.69a10.69,10.69,0,0,0,10.53,10.84,1,1,0,0,0,1-1l.12-7.8a1,1,0,0,1-.94.59h-.69A10.67,10.67,0,0,1,930.3,517.73Z" style="fill:#371a45"/></g><path d="M940.89,534.78h0l-1.36,0a11,11,0,0,1-10.79-11.11l.19-12.49A11,11,0,0,1,940,500.37l1.36,0a2.42,2.42,0,0,1,2.38,2.44l-.44,29.57a2.39,2.39,0,0,1-.73,1.69A2.42,2.42,0,0,1,940.89,534.78Zm0-3Zm-1.07-28.36a7.93,7.93,0,0,0-7.92,7.81l-.19,12.49a7.93,7.93,0,0,0,7.81,8h.75l.42-28.34h-.87Z" style="fill:url(#Super_Soft_Black_Vignette-26)"/><path d="M1037.65,503.4h1.6a9.22,9.22,0,0,1,9.22,9.22v12.92a9.22,9.22,0,0,1-9.22,9.22h-1.6a.88.88,0,0,1-.88-.88V504.28a.88.88,0,0,1,.88-.88Z" transform="translate(7.81 -15.41) rotate(0.85)" style="fill:#fff"/><path d="M1039,535h-.15l-1.36,0a1.17,1.17,0,0,1-1.16-1.19l.44-29.57a1.17,1.17,0,0,1,.36-.82,1.15,1.15,0,0,1,.83-.33l1.36,0h0a9.72,9.72,0,0,1,9.57,9.85l-.19,12.49A9.72,9.72,0,0,1,1039,535Zm-1.06-31.39a.67.67,0,0,0-.44.18.66.66,0,0,0-.19.44l-.43,29.57a.62.62,0,0,0,.61.63l1.37,0a9.18,9.18,0,0,0,9.3-9l.18-12.5a9.17,9.17,0,0,0-9-9.3l-1.37,0Z" style="fill:#371a45"/><g style="opacity:0.25"><path d="M1036.67,525.53l-.12,8.13a1,1,0,0,0,1,1,10.68,10.68,0,0,0,10.84-10.52l.06-4.22a10.68,10.68,0,0,1-9.82,6.13h-1.07A1.06,1.06,0,0,1,1036.67,525.53Z" style="fill:#371a45"/></g><path d="M1039,536.23h-.17l-1.36,0a2.42,2.42,0,0,1-2.38-2.45l.44-29.56a2.41,2.41,0,0,1,.73-1.7,2.38,2.38,0,0,1,1.72-.68l1.36,0h0A11,11,0,0,1,1050.08,513l-.19,12.49A11,11,0,0,1,1039,536.23Zm-.88-3,.76,0a7.93,7.93,0,0,0,8-7.81l.18-12.49a7.93,7.93,0,0,0-7.8-8h-.75Z" style="fill:url(#Super_Soft_Black_Vignette-27)"/><g style="opacity:0.25"><path d="M1023.59,560c-4.94,2-12.88,14.92-31.4,16.19-25.38,1.73-38.64-17.29-41.21-20.63l71.16-1.59C1022.61,555.72,1023.1,557.75,1023.59,560Z" style="fill:#371a45"/></g><circle cx="989.38" cy="518.3" r="49.98" style="fill:#fff"/><path d="M989.35,568.55a50.31,50.31,0,0,1-50.14-47.43h0a50.25,50.25,0,1,1,53,47.35C991.25,568.53,990.3,568.55,989.35,568.55Zm-49.6-47.46a49.72,49.72,0,1,0,46.84-52.42,49.76,49.76,0,0,0-46.84,52.42Z" style="fill:#371a45"/><g style="opacity:0.25"><path d="M939.57,514.17a50,50,0,1,0,99.72,1.32c0-.79-.11-1.58-.19-2.36a50,50,0,0,1-99.53,1Z" style="fill:#371a45"/></g><path d="M989.35,569.79A51.56,51.56,0,0,1,938,521.19h0a51.5,51.5,0,1,1,54.3,48.52C991.3,569.77,990.32,569.79,989.35,569.79ZM941,521a48.47,48.47,0,1,0,45.67-51.12A48.52,48.52,0,0,0,941,521Z" style="fill:url(#Super_Soft_Black_Vignette-28)"/><path d="M939.71,522.38a44.87,44.87,0,0,0,9.68,26c4.3,5.46,21.43,14.62,42.08,14,19.15-.62,36.15-11.54,40-17.34a44.88,44.88,0,0,0,7.51-26.7c-1.06-25.86-23.72-35.67-51.13-34.54S938.65,496.52,939.71,522.38Z" style="fill:url(#Super_Soft_Black_Vignette-29)"/><path d="M989.28,563.88c-20.89,0-37-9.34-41.08-14.57a46.28,46.28,0,0,1-10-26.87c-.52-12.76,4.19-22.82,14-29.88,8.54-6.14,20.84-9.71,35.56-10.31s27.26,1.94,36.28,7.36c10.37,6.23,15.9,15.86,16.42,28.63a46.32,46.32,0,0,1-7.76,27.6c-4,6.12-21.29,17.37-41.2,18Zm-48.06-41.57a43.31,43.31,0,0,0,9.36,25.13c3.81,4.84,20.21,14,40.84,13.39,18.61-.6,35.14-11.16,38.78-16.66a43.32,43.32,0,0,0,7.26-25.81c-.48-11.68-5.51-20.48-15-26.16-8.52-5.12-20.49-7.51-34.61-6.93C973.43,485.86,939.92,490.66,941.22,522.31Z" style="fill:url(#Super_Soft_Black_Vignette-30)"/><g style="opacity:0.5"><ellipse cx="955.7" cy="518.2" rx="6.41" ry="8.85" transform="translate(-90.14 221.37) rotate(-12.62)" style="fill:#fff"/></g><g style="opacity:0.5"><ellipse cx="964.26" cy="535.39" rx="3.48" ry="4.06" transform="matrix(0.94, -0.35, 0.35, 0.94, -126.62, 372.83)" style="fill:#fff"/></g><g style="opacity:0.7000000000000001"><path d="M948.37,497.85c-5.83,6-9.08,14.14-8.66,24.52a44.88,44.88,0,0,0,9.68,26c4.3,5.46,21.43,14.62,42.08,14A61.45,61.45,0,0,0,1011.8,558c-25.4.27-46.27-11-51.6-17.75a56.91,56.91,0,0,1-12.28-33A50.45,50.45,0,0,1,948.37,497.85Z" style="fill:#231f20"/></g><path d="M943.05,501a1.51,1.51,0,0,1-1.22-2.41c8.44-12.86,25.21-20.73,46-21.58,21-.86,38.33,5.85,47.67,18.42a1.51,1.51,0,0,1-2.28,2l0-.05a.39.39,0,0,1-.08-.1c-8.73-11.77-25.18-18.05-45.14-17.23s-35.76,8.21-43.65,20.28a1.16,1.16,0,0,1-.25.29A1.48,1.48,0,0,1,943.05,501Z" style="fill:#371a45"/><g style="opacity:0.5"><path d="M1028.46,534.14s7-25.84-7.21-35.44-33.94-8.75-33.43-7.5c0,0,22.12,4.4,31.4,21.36C1026.37,525.64,1028.46,534.14,1028.46,534.14Z" style="fill:#fff"/></g><path d="M1036,483v5.23H942.8V483a46.59,46.59,0,1,1,93.17,0Z" style="fill:#fbbe00"/><path d="M989.34,449.55V488.2H962.26c-4.35-5.64-7.75-12.11.5-11.13,16,1.91,15.59-21,20.27-26.1C985.5,448.26,989.34,449.55,989.34,449.55Z" style="fill:#fc0"/><path d="M1016.43,488.2H989.34V449.55s3.84-1.29,6.31,1.42c4.68,5.14,4.27,28,20.27,26.1C1024.17,476.09,1020.78,482.56,1016.43,488.2Z" style="fill:#fc0"/><path d="M1036,483v4.09a46.59,46.59,0,1,0-93.17,0V483a46.59,46.59,0,1,1,93.17,0Z" style="fill:#fff"/><path d="M1036,483v5.23H942.8V483a46.61,46.61,0,0,1,2.47-15c4.26,4.64,15.51,12,44.11,12s39.86-7.35,44.11-12A46.34,46.34,0,0,1,1036,483Z" style="fill:#fc0"/><path d="M1036,489.71H942.8a1.5,1.5,0,0,1-1.51-1.51V483a48.1,48.1,0,1,1,96.19,0v5.23A1.51,1.51,0,0,1,1036,489.71Zm-91.66-3h90.15V483a45.08,45.08,0,0,0-90.15,0Z" style="fill:url(#Super_Soft_Black_Vignette-31)"/><path d="M1010.2,458.07l1.9-14a7.37,7.37,0,0,0-5.75-8.19l-15.42-3.32a7.36,7.36,0,0,0-3.1,0l-15.41,3.32a7.37,7.37,0,0,0-5.75,8.19l1.9,14" style="fill:#fcef03"/><path d="M1012.1,444.1l-.1.74a7.38,7.38,0,0,0-5.65-5.64l-15.42-3.32a7.36,7.36,0,0,0-3.1,0l-15.41,3.32a7.38,7.38,0,0,0-5.65,5.64l-.1-.74a7.36,7.36,0,0,1,5.75-8.19l15.41-3.32a7.36,7.36,0,0,1,3.1,0l15.42,3.32A7.37,7.37,0,0,1,1012.1,444.1Z" style="fill:#fff"/><path d="M1009.45,458a47.44,47.44,0,0,1,.12-5.34c.12-1.77.32-3.52.55-5.28l.34-2.63.08-.65,0-.17v-.13l0-.26a4.56,4.56,0,0,0,0-.52,4.38,4.38,0,0,0,0-.52,5.81,5.81,0,0,0-1.89-3.61,5.72,5.72,0,0,0-1.75-1.07,4,4,0,0,0-.49-.16c-.17,0-.31-.09-.52-.13l-1.3-.27-5.19-1.1-5.18-1.1-2.6-.54-1.24-.26a5.86,5.86,0,0,0-1-.09,5.75,5.75,0,0,0-1,.09l-1.24.26-2.6.55-5.19,1.09-5.18,1.1-1.3.27c-.21,0-.35.09-.52.13a4,4,0,0,0-.49.16,5.72,5.72,0,0,0-1.75,1.07,5.81,5.81,0,0,0-1.89,3.61,4.38,4.38,0,0,0,0,.52,4.56,4.56,0,0,0,0,.52l0,.26v.13l0,.17.08.65.34,2.63a63.67,63.67,0,0,1,.67,10.62.77.77,0,0,1-.79.74.79.79,0,0,1-.71-.54,64.58,64.58,0,0,1-2.19-10.4l-.38-2.63-.09-.66,0-.16,0-.2,0-.4a5.3,5.3,0,0,1,0-.8,7.16,7.16,0,0,1,.05-.8,9,9,0,0,1,2.83-5.64,8.85,8.85,0,0,1,2.71-1.72,7.67,7.67,0,0,1,.76-.27l.77-.2,1.29-.29,5.18-1.14,5.18-1.13,2.59-.57.65-.14.7-.15a8.88,8.88,0,0,1,3.25,0l.7.15.65.14,2.59.57,5.18,1.13,5.18,1.14,1.29.29.76.2a7.84,7.84,0,0,1,.77.27,9,9,0,0,1,5.54,7.36,7.14,7.14,0,0,1,0,.8,7.06,7.06,0,0,1,0,.8l0,.4,0,.2,0,.16-.1.66-.38,2.63c-.25,1.74-.52,3.49-.88,5.23a47.73,47.73,0,0,1-1.31,5.17.76.76,0,0,1-1.49-.2Z" style="fill:url(#Super_Soft_Black_Vignette-32)"/><path d="M1001,436.46,999.31,476l-.54,12.23H980L979.46,476l-1.73-39.56a6.77,6.77,0,0,1,5.52-7,33.89,33.89,0,0,1,12.27,0A6.77,6.77,0,0,1,1001,436.46Z" style="fill:#fbbe00"/><path d="M1001,436.46l-.1,2.24a6.75,6.75,0,0,0-5.42-5.48,33.89,33.89,0,0,0-12.27,0,6.75,6.75,0,0,0-5.42,5.48l-.1-2.24a6.77,6.77,0,0,1,5.52-7,33.89,33.89,0,0,1,12.27,0A6.77,6.77,0,0,1,1001,436.46Z" style="fill:#fff"/><path d="M999.31,476l-.54,12.23H980L979.46,476a17.55,17.55,0,0,0,19.85,0Z" style="fill:#fc0"/><path d="M998.77,489.71H980a1.5,1.5,0,0,1-1.51-1.44l-2.27-51.74A8.32,8.32,0,0,1,983,428a35.66,35.66,0,0,1,12.81,0,8.32,8.32,0,0,1,6.76,8.53l-2.27,51.74A1.5,1.5,0,0,1,998.77,489.71Zm-17.33-3h15.89l2.2-50.29a5.28,5.28,0,0,0-4.28-5.42,32.12,32.12,0,0,0-11.73,0,5.27,5.27,0,0,0-4.28,5.42Z" style="fill:url(#Super_Soft_Black_Vignette-33)"/><path d="M1042.51,495.23s-10.58,7.34-53.13,7.34-53.12-7.34-53.12-7.34l6.54-12.08s28.88,2.57,46.58,2.57,46.59-2.57,46.59-2.57Z" style="fill:#fbbe00"/><path d="M1037.56,486.1c-6,.52-31.68,2.62-48.18,2.62s-42.13-2.1-48.18-2.62l1.6-3s28.87,2.57,46.58,2.57,46.59-2.57,46.59-2.57Z" style="fill:#fff"/><path d="M1042.51,495.23s-10.58,7.34-53.13,7.34-53.12-7.34-53.12-7.34l2.81-5.19c5.37,2.11,19.4,6,50.31,6s44.95-3.88,50.31-6h0Z" style="fill:#fc0"/><path d="M989.38,504.08c-42.52,0-53.53-7.3-54-7.61a1.51,1.51,0,0,1-.47-2l6.54-12.08a1.5,1.5,0,0,1,1.46-.78c.05,0,4.4.39,10.66.86,10.45.78,25.14,1.7,35.79,1.7,4,0,9-.13,14.68-.4,15.38-.71,31.61-2.15,31.77-2.16a1.52,1.52,0,0,1,1.47.78l6.54,12.08a1.52,1.52,0,0,1-.47,2C1042.92,496.78,1031.91,504.08,989.38,504.08Zm-51.06-9.48c3.76,1.73,17.19,6.46,51.06,6.46s47.29-4.73,51.07-6.46l-5.34-9.85c-3.77.32-17.65,1.47-30.91,2.08-5.77.27-10.75.41-14.82.41-10.74,0-25.51-.94-36-1.72-4.54-.34-8.08-.63-9.71-.77Z" style="fill:url(#Super_Soft_Black_Vignette-34)"/><path d="M847.53,474q-7.1-.18-14.22-.33-61.09-1.23-120.09.33a40.56,40.56,0,0,1-28.07-11.63,39.57,39.57,0,0,1-11.63-28.07v-33a39.7,39.7,0,0,1,39.7-39.7H847.53a39.7,39.7,0,0,1,39.69,39.7v33A39.69,39.69,0,0,1,847.53,474Z" style="fill:#fff;stroke:#000;stroke-miterlimit:10;stroke-width:5px"/><path d="M812.07,467.48c49.49,41.92,62.34,52.08,62.74,51.63s-12-9.25-19.61-25.49a71.85,71.85,0,0,1-6.53-31.36" style="fill:#fff;stroke:#000;stroke-miterlimit:10;stroke-width:5px"/><path d="M753.84,407.41a4.39,4.39,0,0,1-.37,1.82,4.74,4.74,0,0,1-1,1.48,4.64,4.64,0,0,1-3.32,1.36h-3.77a6.52,6.52,0,0,1-2.57-.52,6.72,6.72,0,0,1-2.1-1.4,6.53,6.53,0,0,1-1.41-2.09,6.35,6.35,0,0,1-.52-2.57V392.91h2.78v12.58a3.63,3.63,0,0,0,.3,1.46,4,4,0,0,0,.82,1.22,3.89,3.89,0,0,0,1.21.81,3.74,3.74,0,0,0,1.49.3h3.77a1.86,1.86,0,0,0,1.37-.55,1.84,1.84,0,0,0,.55-1.32v-14.5h2.78Z"/><path d="M772.78,392.91v15a4.29,4.29,0,0,1-.49,2.1,3.79,3.79,0,0,1-1.28,1.38,4.17,4.17,0,0,1-1.72.64,4.36,4.36,0,0,1-1.84-.13,4.28,4.28,0,0,1-1.62-.93,3.85,3.85,0,0,1-1.07-1.71l-4.13-12.55a1.32,1.32,0,0,0-.63-.77,1.48,1.48,0,0,0-.91-.18,1.38,1.38,0,0,0-.83.42,1.33,1.33,0,0,0-.36,1v14.91h-2.79V397.16a4.22,4.22,0,0,1,.52-2.15,3.8,3.8,0,0,1,1.31-1.36,4.1,4.1,0,0,1,1.75-.6,4.44,4.44,0,0,1,3.53,1.1,3.85,3.85,0,0,1,1.08,1.69l4.1,12.51a1.38,1.38,0,0,0,1.48,1,1.23,1.23,0,0,0,.78-.4,1.49,1.49,0,0,0,.33-1v-15Z"/><path d="M782,392.91a5.81,5.81,0,0,1,2.52.56,6.35,6.35,0,0,1,2.05,1.51,7.39,7.39,0,0,1,1.38,2.24,7.63,7.63,0,0,1,.5,2.75v7.13a5.13,5.13,0,0,1-1.34,3.5,4.67,4.67,0,0,1-1.46,1.07,4.23,4.23,0,0,1-1.8.4h-9.66V392.91Zm3.67,7a4.76,4.76,0,0,0-.29-1.64,4.34,4.34,0,0,0-.79-1.36,3.78,3.78,0,0,0-1.17-.91,3,3,0,0,0-1.4-.34h-5v13.58h6.89a1.59,1.59,0,0,0,1.28-.63,2.44,2.44,0,0,0,.52-1.56Z"/><path d="M790.08,396a5.28,5.28,0,0,1,1-1.57,4.9,4.9,0,0,1,1.54-1.07,4.65,4.65,0,0,1,1.9-.4h9.81v2.79h-9.81a1.84,1.84,0,0,0-.81.17,2,2,0,0,0-.65.46,2.29,2.29,0,0,0-.61,1.53v2.49h11.88v2.79H792.48v4.22a1.91,1.91,0,0,0,.55,1.36,1.87,1.87,0,0,0,1.37.56h10v2.79h-10a4.47,4.47,0,0,1-1.83-.38,4.65,4.65,0,0,1-1.49-1,4.79,4.79,0,0,1-1-1.49,4.52,4.52,0,0,1-.37-1.84v-9.5A4.93,4.93,0,0,1,790.08,396Z"/><path d="M805.61,392.91H816a4.66,4.66,0,0,1,2.61.68,3.49,3.49,0,0,1,1.43,1.66,3.41,3.41,0,0,1,.11,2.15,4.14,4.14,0,0,1-1.37,2.11l-2.49,2.21,5.52,10.35h-3.2l-4.51-8.57-5.69,4.92v3.65h-2.78Zm2.78,11.81,8.55-7.31a1.52,1.52,0,0,0,.47-.59.72.72,0,0,0,0-.56,1,1,0,0,0-.48-.41,2.44,2.44,0,0,0-.93-.15h-7.59Z"/><path d="M690.34,426a7.18,7.18,0,0,1,1.37-2.24,6.16,6.16,0,0,1,2-1.51,5.72,5.72,0,0,1,2.5-.56h6.92v2.79h-6.92a3.16,3.16,0,0,0-1.43.33,3.89,3.89,0,0,0-1.15.92,4.3,4.3,0,0,0-.77,1.36,5,5,0,0,0-.27,1.64v7.14a2.44,2.44,0,0,0,.51,1.56,1.59,1.59,0,0,0,1.26.63h8.77v2.79h-8.77a4.09,4.09,0,0,1-1.76-.4,4.63,4.63,0,0,1-1.45-1.07,4.79,4.79,0,0,1-1-1.57,5.14,5.14,0,0,1-.37-1.93v-7.13A7.39,7.39,0,0,1,690.34,426Z"/><path d="M713.93,421.71a4.18,4.18,0,0,1,1.72.36,4.67,4.67,0,0,1,2.35,2.39,4.34,4.34,0,0,1,.35,1.72v8.52a6.08,6.08,0,0,1-1.82,4.37,6.27,6.27,0,0,1-4.42,1.8h-4.06a4.34,4.34,0,0,1-1.72-.35,4.51,4.51,0,0,1-1.4-.95,4.71,4.71,0,0,1-1-1.4,4.18,4.18,0,0,1-.36-1.72v-8.52a6.15,6.15,0,0,1,6.19-6.22Zm1.63,4.45a1.6,1.6,0,0,0-.48-1.18,1.56,1.56,0,0,0-1.15-.48H709.8a3.49,3.49,0,0,0-1.32.26,3.4,3.4,0,0,0-1.09.74,3.26,3.26,0,0,0-.73,1.09,3.32,3.32,0,0,0-.27,1.32v8.54a1.56,1.56,0,0,0,.48,1.15,1.61,1.61,0,0,0,1.18.48h4.06a3.52,3.52,0,0,0,1.34-.26,3.57,3.57,0,0,0,1.09-.72,3.65,3.65,0,0,0,.75-1.09,3.25,3.25,0,0,0,.27-1.32Z"/><path d="M737.26,421.71v15a4.29,4.29,0,0,1-.49,2.1,3.79,3.79,0,0,1-1.28,1.38,4.17,4.17,0,0,1-1.72.64,4.36,4.36,0,0,1-1.84-.13,4.28,4.28,0,0,1-1.62-.93,3.85,3.85,0,0,1-1.07-1.71l-4.13-12.55a1.32,1.32,0,0,0-.63-.77,1.48,1.48,0,0,0-.91-.18,1.38,1.38,0,0,0-.83.42,1.33,1.33,0,0,0-.36,1v14.91h-2.79V426a4.22,4.22,0,0,1,.52-2.15,3.8,3.8,0,0,1,1.31-1.36,4.1,4.1,0,0,1,1.75-.6,4.44,4.44,0,0,1,3.53,1.1,3.85,3.85,0,0,1,1.08,1.69l4.1,12.51a1.38,1.38,0,0,0,1.48,1,1.23,1.23,0,0,0,.78-.4,1.49,1.49,0,0,0,.33-1v-15Z"/><path d="M750.29,431.76a5.31,5.31,0,0,1,1.86,1.51,4.63,4.63,0,0,1,.88,1.92,4.91,4.91,0,0,1-.06,2A4.55,4.55,0,0,1,752,439a4.92,4.92,0,0,1-1.73,1.32,5.59,5.59,0,0,1-2.47.51h-9.17v-2.79h9.17a2.74,2.74,0,0,0,1.55-.42,2,2,0,0,0,.85-1,1.59,1.59,0,0,0-.07-1.24,2.48,2.48,0,0,0-1.22-1.14l-7.42-3.84a5.29,5.29,0,0,1-1.81-1.48,4.7,4.7,0,0,1-.87-1.84,4.2,4.2,0,0,1,0-1.93,4.39,4.39,0,0,1,.9-1.74,4.8,4.8,0,0,1,1.68-1.25,5.73,5.73,0,0,1,2.43-.48h8.23v2.79h-8.23a2.91,2.91,0,0,0-1.56.38,1.67,1.67,0,0,0-.76.93,1.6,1.6,0,0,0,.13,1.14,2.27,2.27,0,0,0,1.13,1Z"/><path d="M760,424.5h-7.49v-2.79h17.74v2.79h-7.46v16.37H760Z"/><path d="M769.37,421.71h10.37a4.66,4.66,0,0,1,2.61.68,3.35,3.35,0,0,1,1.54,3.81,4.18,4.18,0,0,1-1.37,2.11L780,430.52l5.51,10.35h-3.19l-4.51-8.57-5.69,4.92v3.65h-2.78Zm2.78,11.81,8.55-7.31a1.52,1.52,0,0,0,.47-.59.72.72,0,0,0,0-.56,1,1,0,0,0-.48-.41,2.44,2.44,0,0,0-.93-.15h-7.59Z"/><path d="M800.5,436.21a4.39,4.39,0,0,1-.38,1.82,4.65,4.65,0,0,1-4.33,2.84H792a6.47,6.47,0,0,1-2.56-.52,6.72,6.72,0,0,1-2.1-1.4,6.53,6.53,0,0,1-1.94-4.66V421.71h2.79v12.58a3.63,3.63,0,0,0,.3,1.46,3.78,3.78,0,0,0,2,2,3.69,3.69,0,0,0,1.48.3h3.77a1.85,1.85,0,0,0,1.37-.55,1.8,1.8,0,0,0,.55-1.32v-14.5h2.79Z"/><path d="M802.27,426a7.37,7.37,0,0,1,1.37-2.24,6.27,6.27,0,0,1,2-1.51,5.73,5.73,0,0,1,2.51-.56h6.91v2.79h-6.91a3.13,3.13,0,0,0-1.43.33,3.65,3.65,0,0,0-1.15.92,4.12,4.12,0,0,0-.77,1.36,4.75,4.75,0,0,0-.28,1.64v7.14a2.39,2.39,0,0,0,.52,1.56,1.56,1.56,0,0,0,1.26.63h8.76v2.79h-8.76a4.13,4.13,0,0,1-1.77-.4,4.75,4.75,0,0,1-1.45-1.07,5.13,5.13,0,0,1-1.34-3.5v-7.13A7.59,7.59,0,0,1,802.27,426Z"/><path d="M821.11,424.5h-7.49v-2.79h17.74v2.79H823.9v16.37h-2.79Z"/><path d="M834.07,440.87h-2.78V421.71h2.78Z"/><path d="M845.86,421.71a4.13,4.13,0,0,1,1.71.36,4.57,4.57,0,0,1,2.35,2.39,4.17,4.17,0,0,1,.35,1.72v8.52a6.12,6.12,0,0,1-1.81,4.37,6.29,6.29,0,0,1-2,1.32,6.21,6.21,0,0,1-2.44.48h-4a4.39,4.39,0,0,1-3.12-1.3,4.53,4.53,0,0,1-1-1.4,4.18,4.18,0,0,1-.36-1.72v-8.52a6.29,6.29,0,0,1,.47-2.42,6.13,6.13,0,0,1,5.72-3.8Zm1.63,4.45A1.6,1.6,0,0,0,847,425a1.58,1.58,0,0,0-1.15-.48h-4.13a3.41,3.41,0,0,0-1.32.26,3.51,3.51,0,0,0-1.83,1.83,3.49,3.49,0,0,0-.26,1.32v8.54a1.56,1.56,0,0,0,.48,1.15,1.6,1.6,0,0,0,1.18.48h4a3.57,3.57,0,0,0,1.35-.26,3.69,3.69,0,0,0,1.09-.72,3.45,3.45,0,0,0,.74-1.09,3.25,3.25,0,0,0,.28-1.32Z"/><path d="M869.18,421.71v15a4.18,4.18,0,0,1-.49,2.1,3.77,3.77,0,0,1-1.27,1.38,4.21,4.21,0,0,1-1.73.64,4.39,4.39,0,0,1-1.84-.13,4.28,4.28,0,0,1-1.62-.93,3.83,3.83,0,0,1-1.06-1.71L857,425.51a1.34,1.34,0,0,0-.64-.77,1.47,1.47,0,0,0-.91-.18,1.41,1.41,0,0,0-.83.42,1.33,1.33,0,0,0-.36,1v14.91h-2.78V426a4.22,4.22,0,0,1,.51-2.15,3.89,3.89,0,0,1,1.31-1.36,4.1,4.1,0,0,1,1.75-.6A4.59,4.59,0,0,1,857,422a4.47,4.47,0,0,1,1.65.94,3.69,3.69,0,0,1,1.08,1.69l4.11,12.51a1.34,1.34,0,0,0,.6.8,1.32,1.32,0,0,0,.87.2,1.19,1.19,0,0,0,.78-.4,1.45,1.45,0,0,0,.34-1v-15Z"/></g><g id="Title_Text" data-name="Title Text"><path d="M656.43,205.82a17.4,17.4,0,0,1,3.47-5.29,16.36,16.36,0,0,1,5.17-3.59,15.41,15.41,0,0,1,6.37-1.33h33V205h-33a6.41,6.41,0,0,0-2.7.57,6.93,6.93,0,0,0-2.18,1.55,7.56,7.56,0,0,0-1.49,2.33,7.13,7.13,0,0,0-.57,2.81v8.4h40V230h-40v14.21a6.3,6.3,0,0,0,1.86,4.56,6.18,6.18,0,0,0,4.6,1.89h33.5V260H671a15.34,15.34,0,0,1-6.18-1.25,16.25,16.25,0,0,1-5-3.39,16.07,16.07,0,0,1-3.39-5,15.16,15.16,0,0,1-1.25-6.17v-32A16.22,16.22,0,0,1,656.43,205.82Z" style="fill:#090044"/><path d="M766.14,195.61l-18.81,54.73a14.86,14.86,0,0,1-4.89,7.06,12,12,0,0,1-7.63,2.63,12.57,12.57,0,0,1-7.58-2.54,14.05,14.05,0,0,1-5-7.07l-18.89-54.81h10l17.76,51.74a6.18,6.18,0,0,0,1.53,2.43,3.17,3.17,0,0,0,2.18.88,3.23,3.23,0,0,0,2.22-.92,5.54,5.54,0,0,0,1.5-2.55l17.92-51.58Z" style="fill:#090044"/><path d="M766.14,205.82a17.22,17.22,0,0,1,3.47-5.29,16.43,16.43,0,0,1,5.16-3.59,15.46,15.46,0,0,1,6.38-1.33h33V205h-33a6.41,6.41,0,0,0-2.7.57,6.82,6.82,0,0,0-2.18,1.55,7.78,7.78,0,0,0-1.5,2.33,7.3,7.3,0,0,0-.56,2.81v8.4h40V230h-40v14.21a6.3,6.3,0,0,0,1.86,4.56,6.18,6.18,0,0,0,4.6,1.89h33.5V260h-33.5a15.34,15.34,0,0,1-6.18-1.25,16.25,16.25,0,0,1-5-3.39,16.07,16.07,0,0,1-3.39-5,15.17,15.17,0,0,1-1.26-6.17v-32A16.05,16.05,0,0,1,766.14,205.82Z" style="fill:#090044"/><path d="M877.78,195.61v50.45a14.27,14.27,0,0,1-1.65,7.07,13,13,0,0,1-4.28,4.64,14.26,14.26,0,0,1-5.81,2.14,14.42,14.42,0,0,1-6.18-.45,14.14,14.14,0,0,1-5.45-3.1,12.81,12.81,0,0,1-3.59-5.78l-13.89-42.22a4.58,4.58,0,0,0-2.14-2.58,5,5,0,0,0-3.06-.61,4.76,4.76,0,0,0-2.79,1.42,4.45,4.45,0,0,0-1.21,3.31V260h-9.36V209.9a14,14,0,0,1,1.73-7.23,13.23,13.23,0,0,1,4.4-4.6,14,14,0,0,1,5.89-2,15.54,15.54,0,0,1,6.3.57,14.76,14.76,0,0,1,5.57,3.15,12.59,12.59,0,0,1,3.63,5.69l13.81,42.06a4.52,4.52,0,0,0,2,2.7,4.75,4.75,0,0,0,2.94.69,4.15,4.15,0,0,0,2.63-1.38,4.9,4.9,0,0,0,1.13-3.47V195.61Z" style="fill:#090044"/><path d="M901.27,205H876.09v-9.36h59.66V205H910.64V260h-9.37Z" style="fill:#090044"/><path d="M970.78,260h-9.36V195.61h9.36v23.81h32.13V195.61h9.36V260h-9.36V228.79H970.78Z" style="fill:#090044"/><path d="M1051.26,195.61a14,14,0,0,1,5.78,1.21,15.47,15.47,0,0,1,4.72,3.27,15.67,15.67,0,0,1,3.19,4.76,14.38,14.38,0,0,1,1.17,5.77v28.66A20.58,20.58,0,0,1,1060,254a21.14,21.14,0,0,1-14.89,6.06h-13.64a14.43,14.43,0,0,1-5.78-1.17,15.07,15.07,0,0,1-4.72-3.19,15.9,15.9,0,0,1-3.23-4.72,14.12,14.12,0,0,1-1.21-5.78V216.52a20.56,20.56,0,0,1,1.62-8.16,21,21,0,0,1,4.44-6.66,20.52,20.52,0,0,1,14.77-6.09Zm5.49,14.94a5.38,5.38,0,0,0-1.61-4,5.29,5.29,0,0,0-3.88-1.62h-13.88a11.42,11.42,0,0,0-8.11,3.36,11.62,11.62,0,0,0-2.47,3.68,11.33,11.33,0,0,0-.88,4.45v28.7a5.3,5.3,0,0,0,1.61,3.89,5.36,5.36,0,0,0,4,1.61h13.64a11.36,11.36,0,0,0,4.52-.89,11.78,11.78,0,0,0,3.67-2.42,11.66,11.66,0,0,0,2.51-3.64,11,11,0,0,0,.92-4.45Z" style="fill:#090044"/><path d="M1070.32,195.61h34.87a15.82,15.82,0,0,1,8.8,2.26,12,12,0,0,1,4.8,5.61,11.55,11.55,0,0,1,.37,7.22,14.1,14.1,0,0,1-4.61,7.11l-8.39,7.42,18.57,34.8H1114l-15.18-28.82-19.13,16.55V260h-9.36Zm9.36,39.72,28.74-24.61a4.68,4.68,0,0,0,1.57-2,2.33,2.33,0,0,0,0-1.87,3,3,0,0,0-1.61-1.37,8,8,0,0,0-3.15-.53h-25.51Z" style="fill:#090044"/><path d="M1136.27,260h-9.36V195.61h9.36Z" style="fill:#090044"/><path d="M1147.25,257.6a11.87,11.87,0,0,1-5.41-6.54,11,11,0,0,1,.77-9.26,14.92,14.92,0,0,1,2.82-3.64,38.68,38.68,0,0,1,3.84-3.19l30-21.67a8.55,8.55,0,0,0,2.46-2.83,3.79,3.79,0,0,0,.44-2.91,3,3,0,0,0-2.3-2.1,17,17,0,0,0-4.4-.49h-31.88v-9.36h31.88a19.58,19.58,0,0,1,10.13,2.42,11.75,11.75,0,0,1,5.45,6.78,13.25,13.25,0,0,1-.4,9,16,16,0,0,1-5.81,7.23l-30.12,21.55a18,18,0,0,0-3.34,3.07,2.67,2.67,0,0,0-.77,2.58,3.3,3.3,0,0,0,2.22,1.78,13.49,13.49,0,0,0,4.48.64h36.33V260h-36.33A19.11,19.11,0,0,1,1147.25,257.6Z" style="fill:#090044"/><path d="M1232.66,195.61a13.92,13.92,0,0,1,5.77,1.21,15.41,15.41,0,0,1,7.91,8,14.38,14.38,0,0,1,1.17,5.77v28.66a20.51,20.51,0,0,1-6.09,14.69,21.14,21.14,0,0,1-14.9,6.06h-13.64a14.34,14.34,0,0,1-5.77-1.17,15,15,0,0,1-4.73-3.19,15.68,15.68,0,0,1-3.22-4.72,14,14,0,0,1-1.22-5.78V216.52a20.56,20.56,0,0,1,1.62-8.16,21,21,0,0,1,4.44-6.66,20.45,20.45,0,0,1,6.62-4.48,20.72,20.72,0,0,1,8.15-1.61Zm5.49,14.94a5.39,5.39,0,0,0-1.62-4,5.27,5.27,0,0,0-3.87-1.62h-13.89a11.43,11.43,0,0,0-10.57,7,11.16,11.16,0,0,0-.89,4.45v28.7a5.5,5.5,0,0,0,5.57,5.5h13.64a11.32,11.32,0,0,0,4.52-.89,11.83,11.83,0,0,0,3.68-2.42,11.63,11.63,0,0,0,2.5-3.64,10.86,10.86,0,0,0,.93-4.45Z" style="fill:#090044"/><path d="M1311.12,195.61v50.45a14.27,14.27,0,0,1-1.65,7.07,13,13,0,0,1-4.28,4.64,14.26,14.26,0,0,1-5.81,2.14,14.42,14.42,0,0,1-6.18-.45,14.14,14.14,0,0,1-5.45-3.1,12.81,12.81,0,0,1-3.59-5.78l-13.89-42.22a4.6,4.6,0,0,0-2.13-2.58,5,5,0,0,0-3.07-.61,4.76,4.76,0,0,0-2.79,1.42,4.49,4.49,0,0,0-1.21,3.31V260h-9.36V209.9a14.1,14.1,0,0,1,1.73-7.23,13.23,13.23,0,0,1,4.4-4.6,14,14,0,0,1,5.9-2,15.51,15.51,0,0,1,6.29.57,14.76,14.76,0,0,1,5.57,3.15,12.7,12.7,0,0,1,3.64,5.69l13.8,42.06a4.52,4.52,0,0,0,2,2.7,4.75,4.75,0,0,0,2.94.69,4.15,4.15,0,0,0,2.63-1.38,4.9,4.9,0,0,0,1.13-3.47V195.61Z" style="fill:#090044"/><path d="M823.24,282.89a8,8,0,0,1,4.42,1.19,5.56,5.56,0,0,1,2.41,3.12,5.93,5.93,0,0,1,.2,2.27,6.31,6.31,0,0,1-.62,2.09,7.37,7.37,0,0,1-1.3,1.86,11,11,0,0,1-1.81,1.59l-13.38,8.75v5H809.4V282.89Zm1.2,9c.28-.2.56-.42.85-.67a3.92,3.92,0,0,0,.75-.83,3.24,3.24,0,0,0,.45-1,2.11,2.11,0,0,0,0-1.09,2,2,0,0,0-1.07-1.26,4.81,4.81,0,0,0-2.2-.44H813.16v12.64c1.92-1.26,3.81-2.49,5.65-3.71s3.74-2.45,5.66-3.68Z" style="fill:#090044"/><path d="M844.71,282.89a5.68,5.68,0,0,1,2.32.49,6.09,6.09,0,0,1,3.17,3.22,5.7,5.7,0,0,1,.47,2.32v11.5a8.25,8.25,0,0,1-.64,3.24,8.39,8.39,0,0,1-1.8,2.66,8.53,8.53,0,0,1-2.69,1.78,8.43,8.43,0,0,1-3.29.65h-5.47a5.83,5.83,0,0,1-2.32-.47,6.19,6.19,0,0,1-1.89-1.28,6.29,6.29,0,0,1-1.3-1.9,5.64,5.64,0,0,1-.49-2.32v-11.5a8.33,8.33,0,0,1,.65-3.27,8.67,8.67,0,0,1,1.78-2.67,8.13,8.13,0,0,1,2.66-1.8,8.33,8.33,0,0,1,3.27-.65Zm2.21,6a2.16,2.16,0,0,0-.65-1.59,2.13,2.13,0,0,0-1.56-.65h-5.57a4.49,4.49,0,0,0-1.78.36,4.64,4.64,0,0,0-1.47,1,4.58,4.58,0,0,0-1,1.48,4.46,4.46,0,0,0-.36,1.78v11.52a2.13,2.13,0,0,0,.65,1.56,2.16,2.16,0,0,0,1.59.65h5.47a4.62,4.62,0,0,0,1.82-.36,4.76,4.76,0,0,0,1.47-1,4.52,4.52,0,0,0,1-1.46,4.39,4.39,0,0,0,.38-1.79Z" style="fill:#090044"/><path d="M857.15,308.75H853.4V282.89h3.75Z" style="fill:#090044"/><path d="M883,282.89v20.25a5.76,5.76,0,0,1-.66,2.84,5.41,5.41,0,0,1-1.72,1.86,5.88,5.88,0,0,1-4.81.68,5.62,5.62,0,0,1-2.19-1.25,5.07,5.07,0,0,1-1.44-2.31L866.58,288a1.81,1.81,0,0,0-.86-1,2,2,0,0,0-1.23-.25,2,2,0,0,0-1.12.57,1.81,1.81,0,0,0-.48,1.33v20.12h-3.76V288.63a5.56,5.56,0,0,1,.7-2.9,5.31,5.31,0,0,1,1.76-1.85,5.67,5.67,0,0,1,2.37-.81,6.3,6.3,0,0,1,2.52.23,6,6,0,0,1,2.24,1.26,5.2,5.2,0,0,1,1.46,2.29l5.54,16.87a1.83,1.83,0,0,0,.8,1.09,1.85,1.85,0,0,0,1.19.27,1.6,1.6,0,0,0,1-.55,2,2,0,0,0,.45-1.39V282.89Z" style="fill:#090044"/><path d="M892.4,286.65H882.29v-3.76h23.94v3.76H896.16v22.1H892.4Z" style="fill:#090044"/><path d="M930.46,282.89a5.71,5.71,0,0,1,2.32.49,6.1,6.1,0,0,1,1.89,1.31A6.22,6.22,0,0,1,936,286.6a5.7,5.7,0,0,1,.47,2.32v11.5a8.08,8.08,0,0,1-.65,3.24,8.37,8.37,0,0,1-1.79,2.66,8.64,8.64,0,0,1-2.69,1.78,8.43,8.43,0,0,1-3.29.65h-5.48a5.78,5.78,0,0,1-2.31-.47,6.11,6.11,0,0,1-1.9-1.28,6.26,6.26,0,0,1-1.29-1.9,5.49,5.49,0,0,1-.49-2.32v-11.5a8.33,8.33,0,0,1,.65-3.27,8.67,8.67,0,0,1,1.78-2.67,8.13,8.13,0,0,1,2.66-1.8,8.26,8.26,0,0,1,3.27-.65Zm2.2,6a2.2,2.2,0,0,0-2.2-2.24h-5.57a4.46,4.46,0,0,0-1.78.36,4.8,4.8,0,0,0-1.48,1,4.4,4.4,0,0,0-1,1.48,4.46,4.46,0,0,0-.36,1.78v11.52a2.13,2.13,0,0,0,.65,1.56,2.16,2.16,0,0,0,1.58.65H928a4.53,4.53,0,0,0,1.81-.36,4.57,4.57,0,0,0,2.48-2.43,4.38,4.38,0,0,0,.37-1.79Z" style="fill:#090044"/><path d="M938.75,288.37a9.14,9.14,0,0,1,1.79-2.84,8.42,8.42,0,0,1,2.65-1.92,7.58,7.58,0,0,1,3.27-.72h9v3.76h-9a4.07,4.07,0,0,0-1.78.41,4.81,4.81,0,0,0-1.47,1.1,5.26,5.26,0,0,0-1,1.65,5.56,5.56,0,0,0-.36,2v4.06h13.61v3.76H941.86v9.11h-3.75V291.84A9.27,9.27,0,0,1,938.75,288.37Z" style="fill:#090044"/><path d="M991.33,282.89v20.25a5.76,5.76,0,0,1-.66,2.84,5.41,5.41,0,0,1-1.72,1.86,5.88,5.88,0,0,1-4.81.68,5.62,5.62,0,0,1-2.19-1.25,5.07,5.07,0,0,1-1.44-2.31L974.94,288a1.81,1.81,0,0,0-.86-1,2,2,0,0,0-1.23-.25,2,2,0,0,0-1.12.57,1.81,1.81,0,0,0-.48,1.33v20.12h-3.76V288.63a5.56,5.56,0,0,1,.7-2.9,5.31,5.31,0,0,1,1.76-1.85,5.67,5.67,0,0,1,2.36-.81,6.33,6.33,0,0,1,2.53.23,6,6,0,0,1,2.24,1.26,5.1,5.1,0,0,1,1.45,2.29l5.54,16.87a1.88,1.88,0,0,0,.81,1.09,1.85,1.85,0,0,0,1.19.27,1.6,1.6,0,0,0,1-.55,2,2,0,0,0,.45-1.39V282.89Z" style="fill:#090044"/><path d="M1007.17,282.89a5.71,5.71,0,0,1,2.32.49,6.1,6.1,0,0,1,1.89,1.31,6.22,6.22,0,0,1,1.28,1.91,5.7,5.7,0,0,1,.47,2.32v11.5a8.08,8.08,0,0,1-.65,3.24,8.37,8.37,0,0,1-1.79,2.66,8.64,8.64,0,0,1-2.69,1.78,8.43,8.43,0,0,1-3.29.65h-5.48a5.78,5.78,0,0,1-2.31-.47A6.11,6.11,0,0,1,995,307a6.26,6.26,0,0,1-1.29-1.9,5.49,5.49,0,0,1-.49-2.32v-11.5a8.33,8.33,0,0,1,.65-3.27,8.67,8.67,0,0,1,1.78-2.67,8.13,8.13,0,0,1,2.66-1.8,8.26,8.26,0,0,1,3.27-.65Zm2.2,6a2.2,2.2,0,0,0-2.2-2.24h-5.57a4.46,4.46,0,0,0-1.78.36,4.8,4.8,0,0,0-1.48,1,4.4,4.4,0,0,0-1,1.48,4.46,4.46,0,0,0-.36,1.78v11.52a2.13,2.13,0,0,0,.65,1.56,2.16,2.16,0,0,0,1.58.65h5.48a4.53,4.53,0,0,0,1.81-.36,4.57,4.57,0,0,0,2.48-2.43,4.38,4.38,0,0,0,.37-1.79Z" style="fill:#090044"/><path d="M1026.25,282.89h14a6.4,6.4,0,0,1,3.53.91,4.87,4.87,0,0,1,1.93,2.25,4.68,4.68,0,0,1,.14,2.9,5.6,5.6,0,0,1-1.85,2.85l-3.36,3,7.45,14h-4.31l-6.09-11.57-7.68,6.64v4.93h-3.76Zm3.76,15.94,11.53-9.87a1.79,1.79,0,0,0,.63-.8.9.9,0,0,0,0-.74,1.23,1.23,0,0,0-.65-.56,3.18,3.18,0,0,0-1.26-.21H1030Z" style="fill:#090044"/><path d="M1048.44,287a7,7,0,0,1,1.4-2.12,6.63,6.63,0,0,1,2.07-1.44,6.16,6.16,0,0,1,2.56-.54h13.25v3.76h-13.25a2.66,2.66,0,0,0-1.09.23,2.82,2.82,0,0,0-.87.62,3.15,3.15,0,0,0-.6.94,2.88,2.88,0,0,0-.23,1.12v3.38h16v3.75h-16v5.71a2.52,2.52,0,0,0,.75,1.83,2.49,2.49,0,0,0,1.84.76h13.45v3.76h-13.45a6,6,0,0,1-2.47-.51,6.41,6.41,0,0,1-3.37-3.37,6,6,0,0,1-.51-2.47V289.57A6.61,6.61,0,0,1,1048.44,287Z" style="fill:#090044"/><path d="M1076.92,286.65h-10.11v-3.76h23.94v3.76h-10.07v22.1h-3.76Z" style="fill:#090044"/><path d="M1110,302.46a6,6,0,0,1-.5,2.46,6.75,6.75,0,0,1-1.36,2,6.33,6.33,0,0,1-4.49,1.83h-5.09a8.73,8.73,0,0,1-3.46-.7,9.25,9.25,0,0,1-2.84-1.9,8.78,8.78,0,0,1-2.61-6.28v-17h3.76v17a5,5,0,0,0,.41,2,5.1,5.1,0,0,0,1.1,1.63,5,5,0,0,0,1.64,1.1,5,5,0,0,0,2,.41h5.09a2.52,2.52,0,0,0,1.85-.75,2.44,2.44,0,0,0,.74-1.78V282.89H1110Z" style="fill:#090044"/><path d="M1111.68,282.89h14a6.38,6.38,0,0,1,3.53.91,4.87,4.87,0,0,1,1.93,2.25,4.68,4.68,0,0,1,.14,2.9,5.58,5.58,0,0,1-1.84,2.85l-3.37,3,7.45,14h-4.31l-6.09-11.57-7.68,6.64v4.93h-3.75Zm3.75,15.94L1127,289a2,2,0,0,0,.63-.8.94.94,0,0,0,0-.74,1.19,1.19,0,0,0-.65-.56,3.18,3.18,0,0,0-1.26-.21h-10.24Z" style="fill:#090044"/><path d="M1157.19,282.89v20.25a5.76,5.76,0,0,1-.66,2.84,5.41,5.41,0,0,1-1.72,1.86,5.88,5.88,0,0,1-4.81.68,5.62,5.62,0,0,1-2.19-1.25,5.07,5.07,0,0,1-1.44-2.31L1140.8,288a1.81,1.81,0,0,0-.86-1,2,2,0,0,0-1.23-.25,2,2,0,0,0-1.12.57,1.81,1.81,0,0,0-.49,1.33v20.12h-3.75V288.63a5.66,5.66,0,0,1,.69-2.9,5.42,5.42,0,0,1,1.77-1.85,5.67,5.67,0,0,1,2.36-.81,6.33,6.33,0,0,1,2.53.23,6,6,0,0,1,2.24,1.26,5.1,5.1,0,0,1,1.45,2.29l5.54,16.87a1.8,1.8,0,0,0,.81,1.09,1.85,1.85,0,0,0,1.19.27,1.6,1.6,0,0,0,1-.55,2,2,0,0,0,.45-1.39V282.89Z" style="fill:#090044"/><path d="M677.64,798.17a26.69,26.69,0,0,1,5-8.14,23.2,23.2,0,0,1,7.36-5.48,20.84,20.84,0,0,1,9.09-2h25.08v10.1H699.05a11.17,11.17,0,0,0-5.18,1.22,13.46,13.46,0,0,0-4.18,3.31,15.33,15.33,0,0,0-2.78,4.93,17.73,17.73,0,0,0-1,6V834a8.65,8.65,0,0,0,1.87,5.63,5.69,5.69,0,0,0,4.57,2.31h31.78V852H692.35a14.62,14.62,0,0,1-6.4-1.44,17.49,17.49,0,0,1-5.27-3.87,18.34,18.34,0,0,1-3.57-5.7,18.75,18.75,0,0,1-1.3-7V808.14A27,27,0,0,1,677.64,798.17Z" style="fill:#090044"/><path d="M763.21,782.55a15.09,15.09,0,0,1,6.23,1.3,16.53,16.53,0,0,1,5.09,3.53,16.74,16.74,0,0,1,3.44,5.14,15.47,15.47,0,0,1,1.26,6.22v30.91a22.16,22.16,0,0,1-6.57,15.84,22.76,22.76,0,0,1-7.23,4.79A22.51,22.51,0,0,1,756.6,852H741.88a15.51,15.51,0,0,1-6.22-1.26,16.33,16.33,0,0,1-5.09-3.44,16.87,16.87,0,0,1-3.49-5.1,15,15,0,0,1-1.3-6.22V805.09a22.24,22.24,0,0,1,1.74-8.79,22.87,22.87,0,0,1,4.79-7.18,22.16,22.16,0,0,1,15.93-6.57Zm5.92,16.11a5.82,5.82,0,0,0-1.74-4.27,5.69,5.69,0,0,0-4.18-1.74h-15A12.33,12.33,0,0,0,735.88,805v31a5.73,5.73,0,0,0,1.74,4.19,5.79,5.79,0,0,0,4.26,1.74H756.6a12.34,12.34,0,0,0,4.87-1,12.39,12.39,0,0,0,6.66-6.54,11.7,11.7,0,0,0,1-4.8Z" style="fill:#090044"/><path d="M823.66,782.55a26.77,26.77,0,0,1,10.83,2.22,27.5,27.5,0,0,1,8.82,6.05,28.61,28.61,0,0,1,5.92,9,27.68,27.68,0,0,1,2.17,10.89V852H841.3V810.6a18.75,18.75,0,0,0-1.3-7,17.38,17.38,0,0,0-9.15-9.55,16.46,16.46,0,0,0-6.79-1.39h-.95V852H813V792.65H800.47a6.73,6.73,0,0,0-4.7,1.74,5.54,5.54,0,0,0-1.91,4.27V852h-10.1V798.74a15,15,0,0,1,1.3-6.22,16.6,16.6,0,0,1,3.57-5.14,17,17,0,0,1,5.3-3.53,16.36,16.36,0,0,1,6.52-1.3Z" style="fill:#090044"/><path d="M869.68,852h-10.1V782.55h10.1Z" style="fill:#090044"/><path d="M939.06,782.55V837a15.27,15.27,0,0,1-1.78,7.61,14,14,0,0,1-4.61,5,15.33,15.33,0,0,1-6.27,2.31,15.53,15.53,0,0,1-6.66-.48,15.25,15.25,0,0,1-5.88-3.35,13.8,13.8,0,0,1-3.87-6.23L895,796.3a4.94,4.94,0,0,0-2.3-2.78,5.44,5.44,0,0,0-3.31-.66,5.12,5.12,0,0,0-3,1.53,4.79,4.79,0,0,0-1.31,3.57V852H875V798a15.12,15.12,0,0,1,1.87-7.8,14.24,14.24,0,0,1,4.75-5A15,15,0,0,1,888,783a16.54,16.54,0,0,1,6.79.61,15.88,15.88,0,0,1,6,3.39,13.74,13.74,0,0,1,3.92,6.14l14.88,45.35a4.87,4.87,0,0,0,2.18,2.92,5.08,5.08,0,0,0,3.18.74,4.5,4.5,0,0,0,2.83-1.48A5.3,5.3,0,0,0,929,837V782.55Z" style="fill:#090044"/><path d="M991.86,811.14a19.94,19.94,0,0,1,6.19,4.39,20.65,20.65,0,0,1,4.18,6.52,21,21,0,0,1,1.52,8v22H961.44a16.06,16.06,0,0,1-6.79-1.44,17.39,17.39,0,0,1-5.44-3.87,18.57,18.57,0,0,1-3.66-5.7,18.2,18.2,0,0,1-1.35-7V808.14A26.24,26.24,0,0,1,951.34,790a24.58,24.58,0,0,1,7.75-5.48,22.51,22.51,0,0,1,9.4-2h26.38v10.1H968.49a12.64,12.64,0,0,0-5.53,1.22,14.19,14.19,0,0,0-4.48,3.31,16.27,16.27,0,0,0-4.18,10.9V834a8.11,8.11,0,0,0,2.09,5.63,6.57,6.57,0,0,0,5.05,2.31h32.21V830a11.09,11.09,0,0,0-.74-4,10.46,10.46,0,0,0-2-3.31,10,10,0,0,0-2.92-2.22,7.88,7.88,0,0,0-3.57-.83H965.1v-10.1h19.32A17.75,17.75,0,0,1,991.86,811.14Z" style="fill:#090044"/><path d="M1081.49,819a19,19,0,0,1,6.74,5.49,16.51,16.51,0,0,1,3,14.3,16.43,16.43,0,0,1-3.35,6.62,18,18,0,0,1-6.26,4.8,20.64,20.64,0,0,1-9,1.83h-33.26v-10.1h33.26a10,10,0,0,0,5.61-1.52,7.55,7.55,0,0,0,3.09-3.66,5.86,5.86,0,0,0-.26-4.53,9,9,0,0,0-4.44-4.13l-26.9-13.93a19.15,19.15,0,0,1-6.57-5.36,16.63,16.63,0,0,1-3.13-6.66,14.94,14.94,0,0,1,.17-7,16,16,0,0,1,3.26-6.32,17.53,17.53,0,0,1,6.1-4.52,20.64,20.64,0,0,1,8.79-1.74h29.86v10.1h-29.86a10.34,10.34,0,0,0-5.66,1.39,6,6,0,0,0-2.74,3.36,5.67,5.67,0,0,0,.48,4.14,8.33,8.33,0,0,0,4.09,3.66Z" style="fill:#090044"/><path d="M1133.81,782.55a15,15,0,0,1,6.22,1.3,16.46,16.46,0,0,1,5.1,3.53,16.92,16.92,0,0,1,3.44,5.14,15.47,15.47,0,0,1,1.26,6.22v30.91a22.16,22.16,0,0,1-6.57,15.84,22.87,22.87,0,0,1-7.23,4.79,22.56,22.56,0,0,1-8.84,1.74h-14.71a15.47,15.47,0,0,1-6.22-1.26,16.38,16.38,0,0,1-5.1-3.44,16.84,16.84,0,0,1-3.48-5.1,15,15,0,0,1-1.3-6.22V805.09a22.07,22.07,0,0,1,1.74-8.79,22.84,22.84,0,0,1,4.78-7.18,22.16,22.16,0,0,1,15.94-6.57Zm5.92,16.11a5.82,5.82,0,0,0-1.74-4.27,5.71,5.71,0,0,0-4.18-1.74h-15A12.36,12.36,0,0,0,1106.47,805v31a5.7,5.7,0,0,0,1.75,4.19,5.79,5.79,0,0,0,4.26,1.74h14.71a12.39,12.39,0,0,0,4.88-1,12.39,12.39,0,0,0,6.66-6.54,11.7,11.7,0,0,0,1-4.8Z" style="fill:#090044"/><path d="M1191.79,782.55a15,15,0,0,1,6.22,1.3,16.52,16.52,0,0,1,8.53,8.67,15.31,15.31,0,0,1,1.27,6.22v30.91a22.11,22.11,0,0,1-6.58,15.84,22.82,22.82,0,0,1-7.22,4.79,22.56,22.56,0,0,1-8.84,1.74h-14.71a15.56,15.56,0,0,1-6.23-1.26,16.45,16.45,0,0,1-5.09-3.44,16.84,16.84,0,0,1-3.48-5.1,15,15,0,0,1-1.31-6.22V805.09a22.07,22.07,0,0,1,1.75-8.79,22.84,22.84,0,0,1,4.78-7.18,22,22,0,0,1,7.14-4.83,22.24,22.24,0,0,1,8.79-1.74Zm5.92,16.11a5.82,5.82,0,0,0-1.74-4.27,5.71,5.71,0,0,0-4.18-1.74h-15a12.25,12.25,0,0,0-4.78,1,12.35,12.35,0,0,0-6.62,6.63,12.21,12.21,0,0,0-1,4.8v31a5.73,5.73,0,0,0,1.74,4.19,5.8,5.8,0,0,0,4.27,1.74h14.71a12.39,12.39,0,0,0,4.88-1,12.39,12.39,0,0,0,6.66-6.54,11.86,11.86,0,0,0,1-4.8Z" style="fill:#090044"/><path d="M1276.41,782.55V837a15.27,15.27,0,0,1-1.79,7.61,14,14,0,0,1-4.61,5,15.33,15.33,0,0,1-6.27,2.31,15.54,15.54,0,0,1-6.66-.48,15.25,15.25,0,0,1-5.88-3.35,13.8,13.8,0,0,1-3.87-6.23l-15-45.53a4.94,4.94,0,0,0-2.3-2.78,5.44,5.44,0,0,0-3.31-.66,5.12,5.12,0,0,0-3,1.53,4.83,4.83,0,0,0-1.31,3.57V852h-10.1V798a15.22,15.22,0,0,1,1.87-7.8,14.24,14.24,0,0,1,4.75-5,15,15,0,0,1,6.35-2.17,16.54,16.54,0,0,1,6.79.61,15.88,15.88,0,0,1,6,3.39,13.65,13.65,0,0,1,3.92,6.14l14.89,45.35a4.82,4.82,0,0,0,2.17,2.92,5.09,5.09,0,0,0,3.18.74,4.5,4.5,0,0,0,2.83-1.48,5.3,5.3,0,0,0,1.22-3.74V782.55Z" style="fill:#090044"/></g></g></svg>