<svg xmlns="http://www.w3.org/2000/svg" xmlns:xlink="http://www.w3.org/1999/xlink" viewBox="0 0 1080 1920"><defs><radialGradient id="Super_Soft_Black_Vignette" cx="591.75" cy="758.51" r="7.91" gradientUnits="userSpaceOnUse"><stop offset="0.57" stop-color="#130c0e"/><stop offset="0.8" stop-color="#130c0e"/><stop offset="1" stop-color="#130c0e"/></radialGradient><radialGradient id="Super_Soft_Black_Vignette-2" cx="587.77" cy="820.18" r="29.76" xlink:href="#Super_Soft_Black_Vignette"/><radialGradient id="Super_Soft_Black_Vignette-3" cx="553.41" cy="792.15" r="78.04" xlink:href="#Super_Soft_Black_Vignette"/><radialGradient id="Super_Soft_Black_Vignette-4" cx="569.87" cy="792.15" r="62.32" xlink:href="#Super_Soft_Black_Vignette"/><radialGradient id="Super_Soft_Black_Vignette-5" cx="607.69" cy="759.25" r="14.61" xlink:href="#Super_Soft_Black_Vignette"/><radialGradient id="Super_Soft_Black_Vignette-6" cx="502.95" cy="866.98" r="33.14" xlink:href="#Super_Soft_Black_Vignette"/><radialGradient id="Super_Soft_Black_Vignette-7" cx="491.72" cy="883.13" r="12.13" xlink:href="#Super_Soft_Black_Vignette"/><radialGradient id="Super_Soft_Black_Vignette-8" cx="504.85" cy="837.46" r="8.64" xlink:href="#Super_Soft_Black_Vignette"/><radialGradient id="Super_Soft_Black_Vignette-9" cx="559.64" cy="917.66" r="34.62" xlink:href="#Super_Soft_Black_Vignette"/><radialGradient id="Super_Soft_Black_Vignette-10" cx="543.79" cy="854.51" r="46.73" xlink:href="#Super_Soft_Black_Vignette"/><radialGradient id="Super_Soft_Black_Vignette-11" cx="557.71" cy="922.9" r="12.32" xlink:href="#Super_Soft_Black_Vignette"/><radialGradient id="Super_Soft_Black_Vignette-12" cx="564.03" cy="938.78" r="6.02" xlink:href="#Super_Soft_Black_Vignette"/><radialGradient id="Super_Soft_Black_Vignette-13" cx="522.73" cy="917.75" r="36.61" xlink:href="#Super_Soft_Black_Vignette"/><radialGradient id="Super_Soft_Black_Vignette-14" cx="527.8" cy="924.31" r="13.67" xlink:href="#Super_Soft_Black_Vignette"/><radialGradient id="Super_Soft_Black_Vignette-15" cx="518.06" cy="941.55" r="6.27" xlink:href="#Super_Soft_Black_Vignette"/><radialGradient id="Super_Soft_Black_Vignette-16" cx="579.77" cy="877.36" r="7.61" xlink:href="#Super_Soft_Black_Vignette"/><radialGradient id="Super_Soft_Black_Vignette-17" cx="556.39" cy="877.38" r="21.49" xlink:href="#Super_Soft_Black_Vignette"/><radialGradient id="Super_Soft_Black_Vignette-18" cx="553.69" cy="877.83" r="19.81" xlink:href="#Super_Soft_Black_Vignette"/><radialGradient id="Super_Soft_Black_Vignette-19" cx="549.79" cy="877.55" r="6.19" xlink:href="#Super_Soft_Black_Vignette"/><radialGradient id="Super_Soft_Black_Vignette-20" cx="553.41" cy="877.49" r="6.16" xlink:href="#Super_Soft_Black_Vignette"/><radialGradient id="Super_Soft_Black_Vignette-21" cx="565.55" cy="877.01" r="12.09" xlink:href="#Super_Soft_Black_Vignette"/><radialGradient id="Super_Soft_Black_Vignette-22" cx="521.8" cy="878.01" r="14.62" xlink:href="#Super_Soft_Black_Vignette"/><radialGradient id="Super_Soft_Black_Vignette-23" cx="508.24" cy="863.21" r="35.03" xlink:href="#Super_Soft_Black_Vignette"/><radialGradient id="Super_Soft_Black_Vignette-24" cx="509.32" cy="879.93" r="6.78" xlink:href="#Super_Soft_Black_Vignette"/><radialGradient id="Super_Soft_Black_Vignette-25" cx="497.88" cy="877.35" r="13.48" xlink:href="#Super_Soft_Black_Vignette"/><radialGradient id="Super_Soft_Black_Vignette-26" cx="487.44" cy="790.51" r="13.28" xlink:href="#Super_Soft_Black_Vignette"/><radialGradient id="Super_Soft_Black_Vignette-27" cx="593.78" cy="791.97" r="13.28" xlink:href="#Super_Soft_Black_Vignette"/><radialGradient id="Super_Soft_Black_Vignette-28" cx="540.6" cy="791.24" r="51.5" xlink:href="#Super_Soft_Black_Vignette"/><radialGradient id="Super_Soft_Black_Vignette-29" cx="540.56" cy="795.96" r="44.81" xlink:href="#Super_Soft_Black_Vignette"/><radialGradient id="Super_Soft_Black_Vignette-30" cx="540.56" cy="795.96" r="46.31" xlink:href="#Super_Soft_Black_Vignette"/><radialGradient id="Super_Soft_Black_Vignette-31" cx="540.6" cy="735.24" r="39.15" xlink:href="#Super_Soft_Black_Vignette"/><radialGradient id="Super_Soft_Black_Vignette-32" cx="540.6" cy="717.66" r="19.85" xlink:href="#Super_Soft_Black_Vignette"/><radialGradient id="Super_Soft_Black_Vignette-33" cx="540.6" cy="731.51" r="23.91" xlink:href="#Super_Soft_Black_Vignette"/><radialGradient id="Super_Soft_Black_Vignette-34" cx="540.6" cy="765.81" r="39.44" xlink:href="#Super_Soft_Black_Vignette"/></defs><g id="Desktop_New" data-name="Desktop New"><g id="Construction_Man" data-name="Construction Man"><ellipse cx="541.19" cy="958.02" rx="64.3" ry="13.21" style="fill:#371a45;opacity:0.2"/><path d="M592.22,764.57s-8.6-4.79-7-9.13c2.68-7.31,13.26,1.06,13.26,1.06" style="fill:#fc0"/><path d="M592.22,766.08a1.47,1.47,0,0,1-.73-.19c-1-.56-9.68-5.57-7.69-11a5.64,5.64,0,0,1,3.79-3.75c4.72-1.33,11.11,3.59,11.83,4.16a1.51,1.51,0,0,1-1.88,2.37c-1.5-1.19-6.4-4.39-9.13-3.62a2.63,2.63,0,0,0-1.78,1.89c-.87,2.36,3.89,5.93,6.32,7.28a1.52,1.52,0,0,1-.73,2.84Z" style="fill:url(#Super_Soft_Black_Vignette)"/><path d="M573.94,850.25s37.17-12.31,40.14-60.14l-52.62,21.2Z" style="fill:#fc0"/><g style="opacity:0.25"><path d="M614.08,790.11c-3,47.83-40.14,60.14-40.14,60.14L567.76,831l.61,3.67,5.57,8.08S592.59,836,591.81,832c-.24-1.2-12-1.59-17,1s-8.52-14.11-8.52-14.11h36.46a70.7,70.7,0,0,0,10.5-28.37Z" style="fill:#371a45"/></g><g style="opacity:0.25"><polygon points="570.18 830.96 567.76 830.96 563.87 818.83 561.46 811.31 563.61 810.45 566.29 818.83 570.18 830.96" style="fill:#371a45"/></g><g style="opacity:0.25"><polygon points="570.18 830.96 567.76 830.96 563.87 818.83 566.29 818.83 570.18 830.96" style="fill:#371a45"/></g><path d="M573.94,851.76a1.48,1.48,0,0,1-.68-.16,1.53,1.53,0,0,1-.76-.89L560,811.77a1.51,1.51,0,0,1,.88-1.86l52.62-21.2a1.51,1.51,0,0,1,2.07,1.5c-1.56,25.2-12.64,40.56-21.66,49-9.79,9.18-19.12,12.34-19.51,12.47A1.59,1.59,0,0,1,573.94,851.76Zm-10.61-39.57,11.56,36.07A59.3,59.3,0,0,0,592,836.92c8.28-7.8,18.4-21.78,20.42-44.5Z" style="fill:url(#Super_Soft_Black_Vignette-2)"/><polygon points="656.73 767.25 648.1 771.13 656.73 775.02 656.73 803.54 644.59 807.41 656.73 809.35 656.73 825.14 450.08 825.14 450.08 815.36 460.46 812.23 450.08 809.68 450.08 797.7 463 793.08 450.08 789.06 450.08 777.54 469.48 778.28 450.08 770.27 450.08 759.15 656.73 759.15 656.73 767.25" style="fill:#dbac54"/><path d="M656.73,803.54l-12.14,3.87,12.14,1.94v15.79H604.35V778l45.1-3c1.93,11.65,7.28,2.24,7.28,2.24Z" style="fill:#dd8e37"/><polygon points="649.45 767.25 639.48 771.13 649.45 775.02 649.45 803.54 635.43 807.41 649.45 809.35 649.45 825.14 450.08 825.14 450.08 815.36 460.78 812.22 450.08 809.68 450.08 797.69 461.22 793.08 450.08 789.05 450.08 777.54 467.98 778.29 450.08 770.27 450.08 759.15 649.45 759.15 649.45 767.25" style="fill:#db8216"/><path d="M602.27,774.11c-9.67-.62-11.84-10.25-12.51-15h34.59a36.86,36.86,0,0,0,.59,4.24C626.21,769.94,616.74,775,602.27,774.11Z" style="fill:#c65d17"/><g style="opacity:0.35000000000000003"><polygon points="649.45 759.15 649.45 767.25 649.41 767.26 649.41 765.37 450.08 765.37 450.08 759.15 649.45 759.15" style="fill:#fff"/></g><path d="M643.21,772.59l6.24,2.43v28.52l-6.77,3.66s-12.92,1.63-12.94-3c0-4.16,13.47-3.51,13.47-23.15Z" style="fill:#c65d17"/><path d="M649.45,809.35v15.79H450.08v-9.73h37.45a49.7,49.7,0,0,1-4.39-17.87c-1.55-27.56,27.09-51.16,54.66-52.71s56.07,19.54,57.61,47.1A49.79,49.79,0,0,1,591,815.41h45.26a6.92,6.92,0,0,0,6.92-6.92Z" style="fill:#c65d17"/><polygon points="643.21 769.68 643.21 772.59 639.48 771.13 643.21 769.68" style="fill:#cd8322"/><polygon points="635.43 807.41 643.21 805.26 643.21 808.49 635.43 807.41" style="fill:#cd8322"/><g style="opacity:0.5"><path d="M476.33,786.14l5.06-.15,5.05-.12c3.38-.08,6.75-.18,10.12-.23q10.13-.2,20.24-.3c6.74-.06,13.49-.13,20.23-.14l10.12,0h20.23l10.12,0q10.11,0,20.23.12,20.24.18,40.47.59a.75.75,0,0,1,.74.77.77.77,0,0,1-.74.74q-20.24.42-40.47.58-10.11.09-20.23.13l-10.12,0H547.15l-10.12,0c-6.74,0-13.49-.09-20.23-.14s-13.49-.17-20.24-.3c-3.37-.05-6.74-.16-10.12-.23l-5.05-.12-5.06-.16a.53.53,0,0,1-.52-.54A.54.54,0,0,1,476.33,786.14Z" style="fill:#371a45"/></g><g style="opacity:0.5"><path d="M482.46,807c11.32-.44,22.65-.64,34-.8,5.66-.06,11.32-.13,17-.15l8.49,0h17l8.49,0c5.66,0,11.32.07,17,.12q17,.16,34,.58a.76.76,0,0,1,.74.78.77.77,0,0,1-.74.74q-17,.42-34,.58c-5.66.05-11.32.1-17,.12l-8.49,0h-17l-8.49,0c-5.66,0-11.32-.09-17-.14-11.32-.17-22.65-.37-34-.81a.53.53,0,0,1,0-1.06Z" style="fill:#371a45"/></g><g style="opacity:0.5"><path d="M477,770.38c3.12-.09,6.24-.15,9.37-.21s6.24-.14,9.37-.17l18.73-.22c6.25,0,12.49-.1,18.74-.11l9.37,0,9.37,0,18.73,0,9.37,0,9.37.07c6.25.05,12.49.07,18.74.15s12.49.14,18.73.27a.57.57,0,0,1,0,1.13c-6.24.13-12.49.18-18.73.27s-12.49.1-18.74.16l-9.37.07-9.37,0-18.73,0-9.37,0-9.37,0c-6.25,0-12.49-.06-18.74-.1l-18.73-.23c-3.13,0-6.25-.11-9.37-.17s-6.25-.12-9.37-.21a.4.4,0,0,1-.39-.4A.4.4,0,0,1,477,770.38Z" style="fill:#371a45"/></g><path d="M656.73,826.65H450.08a1.51,1.51,0,0,1-1.51-1.51v-9.78a1.51,1.51,0,0,1,1.07-1.44l5.1-1.54-5-1.23a1.52,1.52,0,0,1-1.15-1.47v-12a1.5,1.5,0,0,1,1-1.42l8.67-3.09-8.61-2.68a1.51,1.51,0,0,1-1.06-1.44V777.54a1.55,1.55,0,0,1,.46-1.09,1.53,1.53,0,0,1,1.11-.42l10.94.42-11.58-4.78a1.53,1.53,0,0,1-.93-1.4V759.15a1.51,1.51,0,0,1,1.51-1.51H656.73a1.5,1.5,0,0,1,1.51,1.51v8.1a1.49,1.49,0,0,1-.89,1.37l-5.57,2.51,5.57,2.51a1.51,1.51,0,0,1,.89,1.38v28.52a1.5,1.5,0,0,1-1,1.44l-6.09,1.94,5.87.94a1.51,1.51,0,0,1,1.27,1.49v15.79A1.5,1.5,0,0,1,656.73,826.65Zm-205.14-3H655.22v-13l-10.87-1.74a1.51,1.51,0,0,1-.22-2.93l11.09-3.53V776l-7.74-3.49a1.51,1.51,0,0,1,0-2.75l7.74-3.49v-5.61H451.59v8.6l18.47,7.63a1.5,1.5,0,0,1,.9,1.72,1.52,1.52,0,0,1-1.54,1.19l-17.83-.69v8.83l11.86,3.7a1.51,1.51,0,0,1,.06,2.87l-11.92,4.25v9.73l9.23,2.27a1.52,1.52,0,0,1,1.15,1.43,1.5,1.5,0,0,1-1.07,1.48l-9.31,2.82Z" style="fill:url(#Super_Soft_Black_Vignette-3)"/><path d="M649.45,826.65H490.29a1.51,1.51,0,0,1,0-3H647.94v-13l-10.87-1.74a1.51,1.51,0,0,1-.22-2.93l11.09-3.53V776l-7.74-3.49a1.51,1.51,0,0,1,0-2.75l7.74-3.49v-5.61H490.29a1.51,1.51,0,0,1,0-3H649.45a1.51,1.51,0,0,1,1.51,1.51v8.1a1.5,1.5,0,0,1-.89,1.37l-5.57,2.51,5.57,2.51A1.53,1.53,0,0,1,651,775v28.52a1.52,1.52,0,0,1-1.05,1.44l-6.09,1.94,5.87.94a1.51,1.51,0,0,1,1.27,1.49v15.79A1.51,1.51,0,0,1,649.45,826.65Z" style="fill:url(#Super_Soft_Black_Vignette-4)"/><path d="M593.17,752.51C591,756,593,767,598.32,769.06c4.53,1.8,20.58-.7,23-3.14,2.68-2.75,2.06-9.16.07-10.64S598.66,743.5,593.17,752.51Z" style="fill:#fff"/><path d="M593.17,752.51C591,756,593,767,598.32,769.06c4.53,1.8,20.58-.7,23-3.14,2.68-2.75,2.06-9.16.07-10.64S598.66,743.5,593.17,752.51Z" style="fill:#fc0"/><g style="opacity:0.25"><path d="M621.28,765.92c-2.38,2.44-18.43,4.94-23,3.14-5-2-7.08-12-5.43-16,.57,3.73,2.37,7.65,5.34,9.11,7.1,3.49,21.38,2.18,23.51-2.49a15.31,15.31,0,0,0,.84-2.45C623.44,759.8,623.28,763.87,621.28,765.92Z" style="fill:#371a45"/></g><path d="M603.25,771.16a16.39,16.39,0,0,1-5.49-.7c-2.53-1-4.61-3.62-5.87-7.38-1.18-3.54-1.69-8.6,0-11.36a9,9,0,0,1,6.29-4.1c8.84-1.72,22.32,5.14,24.08,6.45,1.24.92,2.1,2.94,2.29,5.41.24,3-.57,5.85-2.18,7.5C620.14,769.25,610.16,771.16,603.25,771.16Zm-2-20.8a12.94,12.94,0,0,0-2.53.23,6,6,0,0,0-4.28,2.7h0c-.82,1.36-.94,5.12.3,8.83,1,2.86,2.45,4.87,4.11,5.53,4.31,1.71,19.62-1,21.33-2.78a7,7,0,0,0,1.33-5.16,5.08,5.08,0,0,0-1.09-3.21C619.12,755.51,608.88,750.36,601.27,750.36Zm-8.1,2.15h0Z" style="fill:url(#Super_Soft_Black_Vignette-5)"/><path d="M523.25,827.2l-.5,56.14-.2,23.19s-25.41,2.88-33.48-6.59c-3-3.5-5.08-14-5.95-25.53-1.07-14.08-.34-29.77,2.71-36.42C490.73,827.32,514.37,826.49,523.25,827.2Z" style="fill:#fff"/><g style="opacity:0.25"><path d="M522.75,883.34l-.2,23.19s-25.41,2.88-33.48-6.59c-3-3.5-5.08-14-5.95-25.53l15.63-3.71s5.51-.22,6.83,17.27c.37,4.89,7.95,6.34,13.29,2.11A12.33,12.33,0,0,0,522.75,883.34Z" style="fill:#371a45"/></g><path d="M514,908.46c-8.43,0-20.62-1.19-26-7.54-3.91-4.58-5.95-18.63-6.55-30.25s-.1-26.36,3.09-33.31c5.35-11.68,29.9-12.39,38.91-11.67a1.51,1.51,0,0,1-.24,3c-9.88-.78-31.66.61-35.93,9.92-2.44,5.32-3.54,17.84-2.81,31.89.71,13.77,3.05,25.2,5.83,28.45,7.46,8.74,31.91,6.09,32.16,6.06a1.51,1.51,0,0,1,.34,3A86.28,86.28,0,0,1,514,908.46Z" style="fill:url(#Super_Soft_Black_Vignette-6)"/><path d="M484.44,871.9l13.47.31a2.65,2.65,0,0,1,2.51,2c1,4.29,2.82,14.32-1.21,17.87-3.35,2.95-9,2.92-12.52.28-3.88-3-4.76-12.84-5-17.74A2.65,2.65,0,0,1,484.44,871.9Z" style="fill:#fff"/><g style="opacity:0.25"><path d="M500.42,874.25c1,4.28,2.82,14.31-1.21,17.86-3.36,2.95-9,2.92-12.52.28-2.39-1.82-3.64-6.26-4.29-10.54a11.17,11.17,0,0,0,3,4.9C492.5,893,497.14,885,497.14,885s1,1.84,1.68,1.91c2.95.29,1.87-8.82,1.2-13.52A2.63,2.63,0,0,1,500.42,874.25Z" style="fill:#371a45"/></g><path d="M492.82,895.86a11.63,11.63,0,0,1-7-2.27c-4.1-3.11-5.28-12-5.56-18.88a4.16,4.16,0,0,1,4.25-4.32h0l13.47.31a4.15,4.15,0,0,1,3.95,3.2c1.3,5.53,2.81,15.39-1.68,19.34A11.23,11.23,0,0,1,492.82,895.86Zm-8.45-22.44a1.09,1.09,0,0,0-.8.33,1.16,1.16,0,0,0-.33.84c.35,8.57,2,14.78,4.37,16.6a8.86,8.86,0,0,0,10.6-.21c2.81-2.47,2.22-10.09.74-16.39a1.14,1.14,0,0,0-1.08-.87l-13.47-.3h0Z" style="fill:url(#Super_Soft_Black_Vignette-7)"/><path d="M497,877.12c.05,1.55.25,3.18.34,4.83a26.17,26.17,0,0,1-.13,5.07,11.79,11.79,0,0,1-1.83,5.09,8.69,8.69,0,0,1-2,2.06,10,10,0,0,1-2.51,1.35,1.52,1.52,0,0,1-1.06-2.84l.11,0h0a6.35,6.35,0,0,0,3.31-2.12,9.12,9.12,0,0,0,1.7-3.89,23.48,23.48,0,0,0,.45-4.64c0-1.59-.05-3.2,0-4.9a.81.81,0,0,1,.83-.77.8.8,0,0,1,.77.78Z" style="fill:#371a45"/><path d="M493.41,835.75c1.85-.12,3.69-.19,5.53-.24s3.69-.07,5.54,0,3.71.08,5.58.22a37,37,0,0,1,5.68.8,1.52,1.52,0,0,1-.71,2.95l-.11,0h0a34.39,34.39,0,0,0-5.14-1.13c-1.78-.28-3.58-.48-5.39-.64s-3.64-.29-5.46-.38-3.65-.16-5.47-.19h0a.65.65,0,0,1-.64-.66A.66.66,0,0,1,493.41,835.75Z" style="fill:url(#Super_Soft_Black_Vignette-8)"/><path d="M590.73,837.73v-.07S590.77,837.69,590.73,837.73Z" style="fill:#fff"/><path d="M590.73,837.73v-.07S590.77,837.69,590.73,837.73Z" style="fill:#fff"/><path d="M590.73,837.66s0,0,0,.07Z" style="fill:#fff"/><path d="M579.4,880.09s-4.31,30.49-8.69,58.38c0,0,11.89,3.23,12,10.41.1,9-9.75,9.62-21.82,9.63-8.63,0-14.73-2-18.33-4.22-7.85-4.94,6.87-13.76-5.94-77.48" style="fill:#fc0"/><g style="opacity:0.25"><path d="M582.31,951.72c-1.87,6.33-10.79,6.79-21.45,6.79-8.63,0-14.73-2-18.33-4.22-7.85-4.94,6.87-13.76-5.94-77.48l42.81,3.28s-1.09,7.72-2.74,19a44.17,44.17,0,0,1-6.09,4.74A40.6,40.6,0,0,0,552.75,930c-2,10.23-3.45,19,1.36,22.06,3.6,2.26,9,3.07,17,2.87A22,22,0,0,0,582.31,951.72Z" style="fill:#371a45"/></g><path d="M560.83,960c-10.46,0-16.46-2.79-19.11-4.45-3.85-2.43-3.4-5.79-2.57-11.9,1.32-9.68,3.77-27.72-4-66.56a1.52,1.52,0,0,1,3-.6c7.9,39.35,5.41,57.71,4.07,67.57-.83,6.1-.95,7.59,1.18,8.93,2.37,1.49,7.8,4,17.5,4h0c8.07,0,15.56-.27,18.66-3.4a6.26,6.26,0,0,0,1.65-4.7c-.06-4.94-7.86-8.15-10.86-9a1.51,1.51,0,0,1-1.09-1.69c4.33-27.57,8.64-58,8.68-58.36a1.51,1.51,0,0,1,3,.42c0,.3-4.22,29.88-8.48,57.12,3.3,1.14,11.7,4.7,11.78,11.45a9.22,9.22,0,0,1-2.52,6.85c-3.92,4-11.74,4.3-20.81,4.3Z" style="fill:url(#Super_Soft_Black_Vignette-9)"/><g style="opacity:0.35000000000000003"><path d="M544.36,902.13c-.06-1.22-.14-2.47-.24-3.76C544.21,899.66,544.3,900.91,544.36,902.13Z" style="fill:#371a45"/></g><g style="opacity:0.35000000000000003"><path d="M544,897.31q-.07-1.06-.18-2.16Q544,896.25,544,897.31Z" style="fill:#371a45"/></g><g style="opacity:0.35000000000000003"><path d="M543.53,891.77c-.07-.68-.14-1.37-.22-2.06C543.39,890.4,543.46,891.09,543.53,891.77Z" style="fill:#371a45"/></g><g style="opacity:0.35000000000000003"><path d="M538.18,886.5c-.08-.82-.16-1.65-.25-2.5C538,884.85,538.1,885.69,538.18,886.5Z" style="fill:#371a45"/></g><path d="M578.72,887c-2.33,18.81-43.45,27.35-61.29,13.95a21.61,21.61,0,0,1-4-3.95,18.94,18.94,0,0,1-2.77-4.94,20.58,20.58,0,0,1-1.19-5.06,241.3,241.3,0,0,1,.26-50.42q.35-3.45.79-7l.27-2.16.33-2.44q.87-6.29,2-12.76a45.21,45.21,0,0,0,.74-7.53c.25-3.7,14.13-3.87,28-1.66,10.24,2.16,25.22,4.1,28.15,12.45a11.6,11.6,0,0,0,.31,1.72,41,41,0,0,0,1.35,4.17,113.92,113.92,0,0,1,3.79,14.74,210.72,210.72,0,0,1,3.4,23.5A134.42,134.42,0,0,1,578.72,887Z" style="fill:#fff"/><path d="M578.72,887c-2.34,18.82-43.45,27.35-61.29,13.95a21.31,21.31,0,0,1-4-3.95,18.94,18.94,0,0,1-2.77-4.94,20.14,20.14,0,0,1-1.19-5.06c-.07-.58-.13-1.15-.18-1.73-.34-3.35-.6-6.8-.76-10.34a258.23,258.23,0,0,1,1.2-38.35c0-.24.05-.48.07-.72h0c.22-2.07.45-4.14.71-6.25.1-.72.19-1.44.28-2.16,0-.17.05-.35.07-.52.09-.64.17-1.27.26-1.92q.87-6.29,2-12.76a45.21,45.21,0,0,0,.74-7.53c.25-3.7,14.13-3.87,28-1.66,10.24,2.17,25.22,4.1,28.15,12.45a11.6,11.6,0,0,0,.31,1.72,42,42,0,0,0,1.35,4.18c.48,1.29,1,3.18,1.67,5.52.47,1.76,1,3.79,1.45,6,.22,1,.45,2.08.67,3.18a212.94,212.94,0,0,1,3.4,23.51A134.33,134.33,0,0,1,578.72,887Z" style="fill:#fc0"/><g style="opacity:0.25"><path d="M518.36,888.75a64.09,64.09,0,0,1-7.92-.42q-.49-5-.75-10.18c1.4.21,2.81.33,4.19.4a24.09,24.09,0,0,0,2.68,7.42C517.13,887,517.73,887.87,518.36,888.75Z" style="fill:#371a45"/></g><path d="M577.15,840.84a49.24,49.24,0,0,1,2.07,8.5c.12.72.22,1.44.32,2.16l.26,2.17c.17,1.45.32,2.9.46,4.35a164.47,164.47,0,0,1,.77,17.49q-.06,4.4-.44,8.79l-.23,2.19c0,.36-.07.72-.15,1.13a11.9,11.9,0,0,1-.23,1.19,16.22,16.22,0,0,1-1.79,4.44,23.08,23.08,0,0,1-6.28,6.79,39.17,39.17,0,0,1-7.85,4.46,58.86,58.86,0,0,1-17.26,4.3,56.07,56.07,0,0,1-17.79-1,44.63,44.63,0,0,1-4.34-1.25,38.58,38.58,0,0,1-4.2-1.78,25.54,25.54,0,0,1-7.39-5.55,21.36,21.36,0,0,1-2.76-3.82,20.19,20.19,0,0,1-1.81-4.35c-.1-.38-.23-.75-.3-1.13l-.25-1.15c-.11-.76-.24-1.57-.3-2.27-.13-1.46-.3-2.91-.41-4.36a241,241,0,0,1-.15-34.93,324.35,324.35,0,0,1,4.22-34.61c.24-1.44.51-2.82.61-4.14.06-.67.09-1.38.13-2.11l.06-1.1,0-.55v-.14c0-.08,0-.19,0-.28a3.28,3.28,0,0,1,.14-.56,3.7,3.7,0,0,1,1.18-1.6,5.93,5.93,0,0,1,1.29-.77,12.05,12.05,0,0,1,2.4-.76,30.43,30.43,0,0,1,4.56-.58,74.88,74.88,0,0,1,8.87.09c2.93.19,5.85.5,8.75.89l2.2.33.56.09.54.11,1.08.22,4.25.86c2.85.58,5.71,1.2,8.56,2a38.56,38.56,0,0,1,8.4,3.3,17.49,17.49,0,0,1,3.81,2.84,11.27,11.27,0,0,1,2.69,4.2,1.4,1.4,0,0,1,.08.34v0a14.47,14.47,0,0,0,.59,2.7c.28.93.61,1.86,1,2.82a1.51,1.51,0,1,1-2.84,1c-.35-1-.72-1.95-1-3a16.19,16.19,0,0,1-.73-3.29l.07.36a8.21,8.21,0,0,0-2-3,15.11,15.11,0,0,0-3.15-2.3,37,37,0,0,0-7.73-3c-2.72-.76-5.52-1.35-8.34-1.92l-4.25-.84-1.06-.21-.51-.1-.51-.08-2.1-.3c-2.83-.38-5.67-.67-8.51-.84a72.59,72.59,0,0,0-8.47,0,27.52,27.52,0,0,0-4,.52,8.92,8.92,0,0,0-1.72.55,3.21,3.21,0,0,0-.58.33c-.1.1-.16.17-.12.11s0,0,0,0,0,0,0,0v.14l0,.53-.05,1.07c0,.71-.07,1.44-.13,2.22-.13,1.56-.41,3-.65,4.44a321.08,321.08,0,0,0-4.16,34.25,235.49,235.49,0,0,0,.17,34.43c.1,1.43.27,2.85.4,4.27.06.74.17,1.36.27,2l.21,1c.06.32.17.63.25,1a18.23,18.23,0,0,0,1.51,3.65,18.53,18.53,0,0,0,2.3,3.2,22.22,22.22,0,0,0,6.41,4.83,35.06,35.06,0,0,0,3.77,1.62,41.49,41.49,0,0,0,4,1.16,52.6,52.6,0,0,0,16.71,1,55.6,55.6,0,0,0,16.31-4,36.08,36.08,0,0,0,7.21-4.06,19.89,19.89,0,0,0,5.46-5.83,13,13,0,0,0,1.46-3.57,38.22,38.22,0,0,0,.55-4.07q.38-4.26.46-8.55a161.43,161.43,0,0,0-.7-17.16c-.26-2.86-.6-5.71-1-8.56a82.27,82.27,0,0,1-.61-8.64h0a.76.76,0,0,1,1.48-.26Z" style="fill:url(#Super_Soft_Black_Vignette-10)"/><path d="M557.4,925.94a68.2,68.2,0,0,1-15.71-1.9,1.51,1.51,0,1,1,.77-2.93c.18,0,18.06,4.64,30.24-1.11a1.51,1.51,0,0,1,1.29,2.74C568.8,925.19,562.8,925.94,557.4,925.94Z" style="fill:url(#Super_Soft_Black_Vignette-11)"/><path d="M570.45,940c-.51-.12-1.11-.22-1.68-.31s-1.16-.16-1.74-.22a31.34,31.34,0,0,0-3.49-.15,21.91,21.91,0,0,0-3.44.34,13.9,13.9,0,0,0-3.23,1.06l0,0a.76.76,0,0,1-.73-1.32,15.11,15.11,0,0,1,3.53-1.59,25.47,25.47,0,0,1,3.73-.77,34.24,34.24,0,0,1,3.78-.23c.63,0,1.26,0,1.9,0s1.24.07,1.93.15a1.52,1.52,0,0,1-.36,3l-.16,0Z" style="fill:url(#Super_Soft_Black_Vignette-12)"/><path d="M511.33,961c20.71.78,31.91.1,32.83-14,1.33-20.26,3-43.86,3-43.86l-29.56-23-7.79-6c0,1.7-.06,3.39-.07,5.06-.41,35.09,1.4,62.06,1.4,62.06s-11.29,3-12.05,11C498.5,958.22,504.05,960.73,511.33,961Z" style="fill:#fc0"/><g style="opacity:0.25"><path d="M547.31,902.47s-1.82,24.29-3.15,44.55c-.93,14.09-12.13,14.76-32.82,14-7-.26-12.39-2.58-12.31-8a23.38,23.38,0,0,0,6.69,1.11c20.71.77,31.91.1,32.83-14,1.07-16.37,1-31,3.26-34.68C543,903.58,547.31,902.47,547.31,902.47Z" style="fill:#371a45"/></g><path d="M547.88,903.21a74.39,74.39,0,0,1,.13,7.46c0,2.48-.22,5-.38,7.43l-.94,14.83-.47,7.42-.23,3.71-.12,1.86c0,.62-.07,1.22-.13,1.89s-.16,1.32-.25,2a19.75,19.75,0,0,1-.46,2,14.28,14.28,0,0,1-1.7,3.82,12.22,12.22,0,0,1-2.89,3.15,15.18,15.18,0,0,1-3.63,2,29.86,29.86,0,0,1-7.68,1.73c-2.55.27-5.08.36-7.59.38s-5,0-7.5-.12l-1.86-.06-.94,0-1,0a26.69,26.69,0,0,1-3.93-.54,16.59,16.59,0,0,1-3.9-1.31A9.75,9.75,0,0,1,499,958a7.78,7.78,0,0,1-1.56-4.34,10.1,10.1,0,0,1,.7-4.33,10.33,10.33,0,0,1,1-1.93,12.67,12.67,0,0,1,1.29-1.68,17.33,17.33,0,0,1,3.11-2.66,25.13,25.13,0,0,1,3.48-1.92c.59-.27,1.2-.52,1.81-.75s1.22-.43,1.92-.62h0l-1.12,1.56c-.35-5.62-.6-11.21-.81-16.81s-.37-11.21-.47-16.81-.18-11.21-.18-16.81,0-11.21.13-16.82a1.51,1.51,0,1,1,3,0h0c-.08,5.59-.14,11.17-.13,16.76s.07,11.17.18,16.76.26,11.17.47,16.75.46,11.17.81,16.73a1.53,1.53,0,0,1-1.09,1.55h0c-.49.14-1.08.35-1.61.56s-1.08.45-1.6.7a20.5,20.5,0,0,0-3,1.72,10.84,10.84,0,0,0-4.16,4.83,6.81,6.81,0,0,0-.45,3,4.38,4.38,0,0,0,.93,2.55,6.46,6.46,0,0,0,2.31,1.78,14.19,14.19,0,0,0,3.13,1,22.79,22.79,0,0,0,3.44.46l.88.05.92,0,1.85.06c2.47.07,4.93.12,7.37.1a69.27,69.27,0,0,0,7.25-.37,26.56,26.56,0,0,0,6.79-1.51,10.19,10.19,0,0,0,5-3.86,11.15,11.15,0,0,0,1.33-2.93c.16-.53.27-1.08.39-1.63s.18-1.13.22-1.71.1-1.19.15-1.81l.13-1.85.26-3.71.53-7.42,1.06-14.83a103.87,103.87,0,0,1,1.78-14.78.76.76,0,0,1,.91-.59.75.75,0,0,1,.6.68Z" style="fill:url(#Super_Soft_Black_Vignette-13)"/><path d="M527.58,927.4a47.13,47.13,0,0,1-18-3.29,1.51,1.51,0,1,1,1.24-2.76,49,49,0,0,0,34,0,1.51,1.51,0,1,1,1,2.84A53.22,53.22,0,0,1,527.58,927.4Z" style="fill:url(#Super_Soft_Black_Vignette-14)"/><path d="M510.76,939.75c.71-.08,1.35-.12,2-.15s1.32,0,2,0a37.55,37.55,0,0,1,4,.23,26.49,26.49,0,0,1,3.91.77,16.57,16.57,0,0,1,3.71,1.58.76.76,0,0,1-.7,1.34l0,0a14.79,14.79,0,0,0-3.42-1.07,25.78,25.78,0,0,0-3.63-.34,32.26,32.26,0,0,0-3.68.16q-.92.07-1.83.21c-.6.09-1.23.2-1.77.31h0a1.53,1.53,0,0,1-1.8-1.16,1.51,1.51,0,0,1,1.16-1.8Z" style="fill:url(#Super_Soft_Black_Vignette-15)"/><circle cx="579.77" cy="877.36" r="6.1" style="fill:#fff"/><g style="opacity:0.35000000000000003"><path d="M585.86,877.5a6.1,6.1,0,1,1-12.19-.29,6,6,0,0,1,.65-2.6,6.09,6.09,0,0,0,11,.27A6,6,0,0,1,585.86,877.5Z" style="fill:#371a45"/></g><path d="M579.77,885h-.19a7.7,7.7,0,1,1,.19,0Zm0-12.19a4.53,4.53,0,1,0,.12,0Z" style="fill:url(#Super_Soft_Black_Vignette-16)"/><g style="opacity:0.25"><path d="M513.88,878.55c-1.38-.07-2.79-.19-4.19-.4q.24,4.92.69,9.59h-.73c-1.59-8.54-1.21-17.43-1.4-26.27l5.39-3.76C513.17,862.73,512.39,871.19,513.88,878.55Z" style="fill:#371a45"/></g><g style="opacity:0.25"><path d="M578.07,889.77c-3.25,9.32-16.85,16-31.16,17.46l.4-4.76a51.11,51.11,0,0,0,21.91-6.06l-31.11,1.1a7,7,0,0,1-7.19-6.69l-.1-3.12a87.06,87.06,0,0,1-9.64,1l-1.16-.93h-2.35q-.57-.86-1.11-1.77a24.09,24.09,0,0,1-2.68-7.42A58.54,58.54,0,0,0,530,876.87l.44.25.81-3.67c-.12-3.34.25-10.08,4-10.81.45-.08,1.28,3.87,1.75,3.85l32.21-1.13a7,7,0,0,1,7.17,6.7l.48,13.57.13,3.57a6.72,6.72,0,0,1-.19,1.86C577.28,890.63,577.69,890.2,578.07,889.77Z" style="fill:#371a45"/></g><g style="opacity:0.25"><path d="M518.36,888.75a64.09,64.09,0,0,1-7.92-.42q-.49-5-.75-10.18c1.4.21,2.81.33,4.19.4a24.09,24.09,0,0,0,2.68,7.42C517.13,887,517.73,887.87,518.36,888.75Z" style="fill:#371a45"/></g><path d="M573,892.32l-32.21,1.13a7,7,0,0,1-7.18-6.69l-.6-17.14a7,7,0,0,1,5.31-7,7.05,7.05,0,0,1,1.39-.19l32.2-1.13a7,7,0,0,1,7.18,6.69l.48,13.58.13,3.56A7,7,0,0,1,573,892.32Z" style="fill:#fff"/><g style="opacity:0.25"><path d="M573,892.32l-32.21,1.13a7,7,0,0,1-7.18-6.69l-.6-17.14a7,7,0,0,1,5.31-7l3.07,1.88c2.05,13.71,1.8,23.93,23.1,21.77a37.75,37.75,0,0,0,15.08-4.7l.13,3.56A7,7,0,0,1,573,892.32Z" style="fill:#371a45"/></g><path d="M541.8,894.93a9.75,9.75,0,0,1-9.7-9.38l-.51-14.62a9.72,9.72,0,0,1,9.36-10l29.69-1a9.73,9.73,0,0,1,10.05,9.37l.51,14.62a9.75,9.75,0,0,1-9.37,10l-29.68,1,0-1.51,0,1.51ZM571,862.86h-.24l-29.68,1a6.7,6.7,0,0,0-6.45,6.93l.51,14.62A6.71,6.71,0,0,0,542,891.9l29.69-1a6.73,6.73,0,0,0,6.45-6.93l-.51-14.62A6.71,6.71,0,0,0,571,862.86Z" style="fill:url(#Super_Soft_Black_Vignette-17)"/><path d="M574.33,892.15a6,6,0,0,1-1.29.17l-32.21,1.13a7,7,0,0,1-6.45-3.85,6.78,6.78,0,0,1-.72-2.84l-.27-7.62-.09-2.51-.25-7a7,7,0,0,1,6.7-7.18l7-.24a7,7,0,0,0-5.42,7l.32,9.26.28,7.89a7,7,0,0,0,7.18,6.69Z" style="fill:#fff"/><g style="opacity:0.25"><path d="M574.33,892.15a6,6,0,0,1-1.29.17l-32.21,1.13a6.94,6.94,0,0,1-7.17-6.69l-.36-10.13c.87,1.76,2.4,3.91,4.74,4.06,1.28.08,2.51-.88,3.57-2.23l.28,7.89a7,7,0,0,0,7.18,6.69Z" style="fill:#371a45"/></g><path d="M540.58,895a8.46,8.46,0,0,1-8.43-8.16l-.61-17.14a8.47,8.47,0,0,1,8.15-8.74l7-.25a1.51,1.51,0,0,1,.39,3,5.43,5.43,0,0,0-4.24,5.48l.6,17.14a5.45,5.45,0,0,0,5.62,5.24l25.26-.89a1.51,1.51,0,0,1,.4,3,7.79,7.79,0,0,1-1.59.21L540.89,895Zm.89-31.08-1.67.06a5.45,5.45,0,0,0-5.24,5.61l.61,17.15h0a5.45,5.45,0,0,0,5.61,5.23l1.89-.06a8.37,8.37,0,0,1-2.29-5.48l-.6-17.14A8.42,8.42,0,0,1,541.47,863.89Z" style="fill:url(#Super_Soft_Black_Vignette-18)"/><path d="M554.3,877.47c0,.63-.72,5.78-.72,5.78l-3.62.1c-2.48.08-4.58-2.44-4.67-5.62s1.85-5.81,4.34-5.88l3.61-.11S554.27,876.44,554.3,877.47Z" style="fill:#22a7f0"/><g style="opacity:0.35000000000000003"><path d="M554.3,877.47c0,.63-.72,5.78-.72,5.78l-3.62.1c-2.48.08-4.58-2.44-4.67-5.62s1.85-5.81,4.34-5.88l3.61-.11S554.27,876.44,554.3,877.47Z" style="fill:#371a45"/></g><path d="M549.86,884.36c-3,0-5.46-2.93-5.57-6.6a7.62,7.62,0,0,1,1.39-4.73,5,5,0,0,1,3.92-2.18l3.61-.11a1,1,0,0,1,1,.79c.17.8,1,4.84,1.08,5.91,0,.67-.56,4.72-.73,5.95a1,1,0,0,1-1,.86l-3.61.11Zm2.57-11.59-2.78.08a3.08,3.08,0,0,0-2.35,1.37,5.57,5.57,0,0,0-1,3.48c.08,2.62,1.71,4.71,3.64,4.65l2.77-.08c.31-2.2.6-4.42.6-4.77C553.28,876.9,552.81,874.55,552.43,872.77Z" style="fill:url(#Super_Soft_Black_Vignette-19)"/><ellipse cx="553.41" cy="877.49" rx="4.51" ry="5.75" transform="translate(-25.52 16.63) rotate(-1.68)" style="fill:#22a7f0"/><g style="opacity:0.35000000000000003"><path d="M548.9,877.63c.1,3.17,2.19,5.69,4.67,5.62s4.43-2.71,4.34-5.89a6.38,6.38,0,0,0-.15-1.25c-.57,2.2-2.17,3.81-4.11,3.86-2.14.06-4-1.81-4.52-4.37A7.11,7.11,0,0,0,548.9,877.63Z" style="fill:#371a45"/></g><g style="opacity:0.7000000000000001"><path d="M548.9,877.63c0,.21,0,.43.05.64.42-2.51,2.14-4.4,4.24-4.46,2.32-.07,4.29,2.11,4.62,5a7.63,7.63,0,0,0,.1-1.44c-.09-3.17-2.19-5.69-4.67-5.62S548.81,874.45,548.9,877.63Z" style="fill:#fff"/></g><path d="M553.47,884.25a5.06,5.06,0,0,1-3.9-2,7.94,7.94,0,0,1-.28-9.37,5,5,0,0,1,3.92-2.19c3-.08,5.59,2.87,5.7,6.59s-2.27,6.83-5.31,6.92Zm-.13-11.51h-.07a3,3,0,0,0-2.36,1.37,5.95,5.95,0,0,0,.2,6.89,3.07,3.07,0,0,0,2.44,1.23c1.93,0,3.43-2.23,3.36-4.85S555.24,872.74,553.34,872.74Z" style="fill:url(#Super_Soft_Black_Vignette-20)"/><path d="M563,893.68a1.14,1.14,0,0,1-1.14-1.12l-.1-8.68a7.13,7.13,0,0,1,3.13-6,4.85,4.85,0,0,0,2.13-4.17l-.39-12.23a1.14,1.14,0,0,1,2.27-.07l.38,12.22a7.1,7.1,0,0,1-3.12,6.13,4.85,4.85,0,0,0-2.13,4.08l.1,8.68a1.13,1.13,0,0,1-1.12,1.14Z" style="fill:url(#Super_Soft_Black_Vignette-21)"/><path d="M507.16,870.32a7.77,7.77,0,0,0,.71,11.76s9.34,6.19,29.36,2.37c0,0,4.54-6.72-1.77-10.64C535.46,873.81,517.36,879.46,507.16,870.32Z" style="fill:#fff"/><g style="opacity:0.25"><path d="M504.81,876.13h0a7.68,7.68,0,0,0,3.06,6s9.34,6.18,29.36,2.37c0,0,3.47-5.14.12-9v.07a5.32,5.32,0,0,1-4.23,5.13c-18.19,2.81-26.7-2.83-26.7-2.83A6.22,6.22,0,0,1,504.81,876.13Z" style="fill:#371a45"/></g><path d="M524.79,887.21c-11.74,0-17.45-3.66-17.76-3.87a9.21,9.21,0,0,1-3.73-7,9.11,9.11,0,0,1,2.87-7.13,1.5,1.5,0,0,1,2,0c9.43,8.44,26.66,3.22,26.84,3.17a1.51,1.51,0,0,1,1.24.16,8.07,8.07,0,0,1,3.9,5.19c.82,3.84-1.56,7.42-1.67,7.57a1.45,1.45,0,0,1-1,.64A68.11,68.11,0,0,1,524.79,887.21Zm-17.44-14.78a5.74,5.74,0,0,0-1,3.66,6.21,6.21,0,0,0,2.37,4.72c.1.07,9,5.65,27.58,2.28a7.44,7.44,0,0,0,.92-4.75,4.83,4.83,0,0,0-2-2.88C531.77,876.4,517.06,879.82,507.35,872.43Z" style="fill:url(#Super_Soft_Black_Vignette-22)"/><path d="M520.45,822.52s-40.84,29.76-36.3,63.79c2.36,17.71,14.23,18.49,21.49,17.17,4.78-.87,4.45-1.32,7.31-2.66s7.2-1.6,11.27-1.91c7.73-.58,13.28-20.3,2.29-26.78-6.74-4-12.48.23-14.34.84-.78-.85-1.72-8.61,1.47-15.26" style="fill:#fc0"/><path d="M521.34,823.74c-1.4,1-2.82,2.2-4.19,3.35s-2.73,2.36-4,3.59q-4,3.68-7.63,7.66a95.63,95.63,0,0,0-12.75,17.33,64.91,64.91,0,0,0-4.51,9.68,49.21,49.21,0,0,0-2.53,10.3,41.62,41.62,0,0,0,0,10.52,25.33,25.33,0,0,0,3.15,9.74,13.68,13.68,0,0,0,3.26,3.67,11.86,11.86,0,0,0,2.06,1.29,12.49,12.49,0,0,0,2.29.89,17.23,17.23,0,0,0,5,.63,22,22,0,0,0,2.56-.18l1.28-.19,1.3-.25a17.36,17.36,0,0,0,2.42-.65,7.57,7.57,0,0,0,1.06-.48l1.21-.65c.44-.23.84-.44,1.33-.64a7.22,7.22,0,0,1,.72-.29c.25-.1.49-.17.73-.25a23,23,0,0,1,2.86-.65c1.88-.31,3.74-.48,5.57-.62l1.37-.11.33,0,.23,0,.23,0,.23-.07a5.27,5.27,0,0,0,1.82-1,10.61,10.61,0,0,0,1.55-1.76,14.57,14.57,0,0,0,1.22-2.15,19.18,19.18,0,0,0,1.48-4.83,19,19,0,0,0,.18-5,14.25,14.25,0,0,0-1.34-4.72,10.49,10.49,0,0,0-3-3.64c-.32-.24-.66-.45-1-.67l-1.08-.56-1.11-.43c-.39-.09-.76-.22-1.15-.29a10.46,10.46,0,0,0-4.74.24,15.44,15.44,0,0,0-2.35.85c-.4.17-.79.36-1.2.56l-.65.3-.36.16-.42.16a1.4,1.4,0,0,1-1.57-.39l0,0h0a2.51,2.51,0,0,1-.25-.32l-.14-.23c-.07-.14-.12-.25-.17-.37s-.16-.42-.22-.62c-.11-.38-.19-.74-.26-1.1a17.32,17.32,0,0,1-.23-2.13c0-.7,0-1.39,0-2.09s.11-1.38.19-2.07a20.84,20.84,0,0,1,1-4,11.76,11.76,0,0,1,2-3.64.78.78,0,0,1,1.36.63v0c-.22,1.28-.47,2.49-.67,3.71s-.4,2.43-.48,3.66c0,.61-.08,1.23-.09,1.84s0,1.22,0,1.83.06,1.21.12,1.78c0,.29.07.57.12.82l.07.32s0,.08,0,.08h0a.41.41,0,0,0-.1-.13h0l-1.58-.41c.14-.06.27-.1.48-.2l.59-.28,1.28-.6a19.2,19.2,0,0,1,2.79-1,13.48,13.48,0,0,1,6.1-.29c.51.1,1,.26,1.51.39s.95.36,1.43.55l1.36.7c.43.28.86.55,1.28.86a13.65,13.65,0,0,1,3.91,4.7,17.1,17.1,0,0,1,1.64,5.76,22.52,22.52,0,0,1-.19,5.86,22.77,22.77,0,0,1-1.73,5.61,18.67,18.67,0,0,1-1.48,2.6,13.66,13.66,0,0,1-2.06,2.33,8.26,8.26,0,0,1-2.92,1.64l-.43.12-.44.07-.44.07-.35,0-1.36.11c-1.81.14-3.59.3-5.31.59a20.89,20.89,0,0,0-2.48.56,5.49,5.49,0,0,0-.57.2,5.2,5.2,0,0,0-.55.21l-.56.26-.57.3-1.2.64A11.7,11.7,0,0,1,510,904a19.7,19.7,0,0,1-2.86.77,23.81,23.81,0,0,1-11.56-.06,16,16,0,0,1-2.81-1.09,15.1,15.1,0,0,1-2.56-1.61,16.93,16.93,0,0,1-4-4.47,23.29,23.29,0,0,1-2.37-5.34,35.27,35.27,0,0,1-1.2-5.59,44.14,44.14,0,0,1,0-11.31,53.15,53.15,0,0,1,2.68-10.94,70.26,70.26,0,0,1,4.72-10.14,98.75,98.75,0,0,1,13.16-17.87q3.74-4.09,7.81-7.85c1.35-1.26,2.74-2.48,4.15-3.67s2.83-2.35,4.36-3.49a1.51,1.51,0,1,1,1.8,2.42h0Z" style="fill:url(#Super_Soft_Black_Vignette-23)"/><g style="opacity:0.25"><path d="M524.22,898.91c-4.07.31-8.51.61-11.28,1.91s-2.52,1.79-7.3,2.66c-7.26,1.32-19.13.54-21.49-17.17l1.64-1.59c3.83,12.51,13.91,13,20.36,11.82,4.2-.75,10.56-3.73,17.41-3.42,5.51.26,7.76-5.63,9-10.78C533.37,890,529.26,898.53,524.22,898.91Z" style="fill:#371a45"/></g><path d="M505.11,887.83a15,15,0,0,1-.11-2.2,19.62,19.62,0,0,1,.16-2.17,19.47,19.47,0,0,1,3-8.19,18.84,18.84,0,0,1,1.33-1.79,9.74,9.74,0,0,1,.74-.83l.77-.81a1.51,1.51,0,1,1,2.19,2.09l-.09.09-.1.09-.72.63a8.55,8.55,0,0,0-.7.65,14.41,14.41,0,0,0-1.27,1.43,15.78,15.78,0,0,0-2,3.27,16.77,16.77,0,0,0-1.27,3.69c-.08.32-.12.65-.19,1s-.09.65-.13,1a14.15,14.15,0,0,0-.09,1.93v.05a.76.76,0,0,1-1.51.12Z" style="fill:url(#Super_Soft_Black_Vignette-24)"/><path d="M484.33,889h-.1a1.51,1.51,0,0,1-1.41-1.6c0-.39.67-9.63,8-16,5.09-4.41,12.06-6.31,20.72-5.62a1.51,1.51,0,0,1-.24,3c-7.81-.62-14,1-18.47,4.87-6.38,5.52-7,13.85-7,13.93A1.52,1.52,0,0,1,484.33,889Z" style="fill:url(#Super_Soft_Black_Vignette-25)"/><path d="M490.73,806.19l1.36,0a.9.9,0,0,0,.91-.89l.44-29.56a.9.9,0,0,0-.88-.92l-1.37,0a9.43,9.43,0,0,0-9.57,9.3l-.19,12.49A9.45,9.45,0,0,0,490.73,806.19Z" style="fill:#fff"/><path d="M492.1,806.48h0l-1.37,0a9.72,9.72,0,0,1-9.56-9.85l.18-12.5a9.71,9.71,0,0,1,9.86-9.56l1.36,0a1.17,1.17,0,0,1,1.15,1.19l-.43,29.56a1.22,1.22,0,0,1-.36.83A1.18,1.18,0,0,1,492.1,806.48Zm-1.05-31.39a9.18,9.18,0,0,0-9.16,9l-.19,12.49a9.17,9.17,0,0,0,9,9.3h0l1.37,0a.65.65,0,0,0,.44-.18.63.63,0,0,0,.19-.44l.44-29.57a.63.63,0,0,0-.62-.64l-1.36,0Z" style="fill:#371a45"/><g style="opacity:0.25"><path d="M481.52,790.68l-.07,4.69A10.69,10.69,0,0,0,492,806.21a1,1,0,0,0,1-1l.11-7.79a1,1,0,0,1-.93.59l-.7,0A10.65,10.65,0,0,1,481.52,790.68Z" style="fill:#371a45"/></g><path d="M492.11,807.72h0l-1.37,0a11,11,0,0,1-10.78-11.11l.18-12.49a11,11,0,0,1,11.11-10.79l1.37,0a2.41,2.41,0,0,1,2.37,2.45l-.43,29.56a2.42,2.42,0,0,1-2.41,2.38Zm0-3h0Zm-1.06-28.37a7.93,7.93,0,0,0-7.92,7.81l-.19,12.49a8,8,0,0,0,7.81,8h.75l.42-28.35h-.87Z" style="fill:url(#Super_Soft_Black_Vignette-26)"/><path d="M588.87,776.35h1.6a9.22,9.22,0,0,1,9.22,9.22v12.92a9.22,9.22,0,0,1-9.22,9.22h-1.6a.88.88,0,0,1-.88-.88V777.23a.88.88,0,0,1,.88-.88Z" transform="translate(11.81 -8.72) rotate(0.85)" style="fill:#fff"/><path d="M590.16,807.93H590l-1.37,0a1.17,1.17,0,0,1-1.15-1.19l.44-29.56a1.16,1.16,0,0,1,.35-.83,1.23,1.23,0,0,1,.84-.33l1.36,0h0a9.74,9.74,0,0,1,9.57,9.86l-.19,12.49A9.72,9.72,0,0,1,590.16,807.93Zm-1-31.38a.66.66,0,0,0-.44.17.63.63,0,0,0-.19.44L588,806.73a.64.64,0,0,0,.62.64l1.37,0a9.19,9.19,0,0,0,9.3-9l.18-12.49a9.16,9.16,0,0,0-9-9.3l-1.36,0Z" style="fill:#371a45"/><g style="opacity:0.25"><path d="M587.89,798.47l-.12,8.14a1,1,0,0,0,1,1,10.68,10.68,0,0,0,10.84-10.52l.06-4.21a10.68,10.68,0,0,1-9.83,6.12h-1.07A1,1,0,0,1,587.89,798.47Z" style="fill:#371a45"/></g><path d="M590.16,809.17H590l-1.36,0a2.42,2.42,0,0,1-2.38-2.45l.44-29.56a2.41,2.41,0,0,1,2.45-2.38l1.36,0h0a11,11,0,0,1,10.78,11.11l-.18,12.49A11,11,0,0,1,590.16,809.17Zm-.87-3H590a7.94,7.94,0,0,0,8.05-7.81l.18-12.49a7.93,7.93,0,0,0-7.81-8h-.75Z" style="fill:url(#Super_Soft_Black_Vignette-27)"/><g style="opacity:0.25"><path d="M574.81,832.93c-4.94,2.05-12.88,14.92-31.4,16.19-25.39,1.74-38.64-17.29-41.21-20.63l71.16-1.59C573.83,828.66,574.32,830.69,574.81,832.93Z" style="fill:#371a45"/></g><circle cx="540.6" cy="791.24" r="49.98" style="fill:#fff"/><path d="M540.57,841.5a50.32,50.32,0,0,1-50.14-47.44h0a50.25,50.25,0,1,1,53,47.36C542.47,841.47,541.51,841.5,540.57,841.5ZM491,794a49.71,49.71,0,1,0,46.84-52.42A49.76,49.76,0,0,0,491,794Z" style="fill:#371a45"/><g style="opacity:0.25"><path d="M490.79,787.11a50,50,0,1,0,99.72,1.33c0-.8-.11-1.59-.19-2.37a50,50,0,0,1-99.53,1Z" style="fill:#371a45"/></g><path d="M540.57,842.74a51.56,51.56,0,0,1-51.38-48.61h0a51.49,51.49,0,1,1,54.3,48.52C542.51,842.71,541.54,842.74,540.57,842.74ZM492.21,794a48.47,48.47,0,1,0,45.67-51.11A48.52,48.52,0,0,0,492.21,794Z" style="fill:url(#Super_Soft_Black_Vignette-28)"/><path d="M490.93,795.32a44.87,44.87,0,0,0,9.68,26c4.3,5.46,21.42,14.62,42.08,14,19.15-.62,36.15-11.54,40-17.33a44.84,44.84,0,0,0,7.52-26.71c-1.06-25.86-23.72-35.67-51.13-34.54S489.87,769.46,490.93,795.32Z" style="fill:url(#Super_Soft_Black_Vignette-29)"/><path d="M540.49,836.83c-20.88,0-36.95-9.35-41.07-14.58a46.28,46.28,0,0,1-10-26.87c-.53-12.76,4.19-22.81,14-29.87,8.55-6.15,20.85-9.72,35.56-10.32s27.27,1.94,36.29,7.36c10.37,6.24,15.89,15.87,16.42,28.63a46.24,46.24,0,0,1-7.77,27.6c-4,6.12-21.28,17.37-41.19,18C542,836.81,541.23,836.83,540.49,836.83Zm-48.05-41.57a43.23,43.23,0,0,0,9.36,25.12c3.81,4.84,20.2,14,40.84,13.39,18.61-.6,35.14-11.16,38.77-16.66a43.31,43.31,0,0,0,7.27-25.81c-.48-11.68-5.51-20.48-15-26.15-8.51-5.12-20.48-7.52-34.6-6.94C524.65,758.8,491.14,763.6,492.44,795.26Z" style="fill:url(#Super_Soft_Black_Vignette-30)"/><g style="opacity:0.5"><ellipse cx="506.91" cy="791.14" rx="6.41" ry="8.85" transform="translate(-160.64 129.9) rotate(-12.62)" style="fill:#fff"/></g><g style="opacity:0.5"><ellipse cx="515.48" cy="808.33" rx="3.48" ry="4.06" transform="matrix(0.94, -0.35, 0.35, 0.94, -251.09, 232.58)" style="fill:#fff"/></g><g style="opacity:0.7000000000000001"><path d="M499.59,770.8c-5.83,6-9.09,14.13-8.66,24.52a44.87,44.87,0,0,0,9.68,26c4.3,5.46,21.42,14.62,42.08,14A61.45,61.45,0,0,0,563,830.94c-25.4.28-46.27-11-51.6-17.75a56.81,56.81,0,0,1-12.28-33A50.3,50.3,0,0,1,499.59,770.8Z" style="fill:#231f20"/></g><path d="M494.27,774a1.51,1.51,0,0,1-1.22-2.4c8.44-12.87,25.2-20.74,46-21.59,21-.86,38.33,5.85,47.67,18.42a1.52,1.52,0,0,1-2.29,2l0,0a.39.39,0,0,0-.08-.1c-8.72-11.78-25.17-18.06-45.14-17.24s-35.76,8.21-43.64,20.29a1.68,1.68,0,0,1-.25.29A1.53,1.53,0,0,1,494.27,774Z" style="fill:#371a45"/><g style="opacity:0.5"><path d="M579.67,807.08s7-25.84-7.2-35.44-34-8.75-33.43-7.5c0,0,22.12,4.4,31.39,21.37C577.59,798.58,579.67,807.08,579.67,807.08Z" style="fill:#fff"/></g><path d="M587.19,755.91v5.24H494v-5.24a46.59,46.59,0,1,1,93.17,0Z" style="fill:#fbbe00"/><path d="M540.56,722.49v38.66H513.47c-4.34-5.65-7.74-12.12.51-11.13,16,1.9,15.59-21,20.27-26.1C536.72,721.2,540.56,722.49,540.56,722.49Z" style="fill:#fc0"/><path d="M567.64,761.15H540.56V722.49s3.84-1.29,6.31,1.43c4.68,5.13,4.27,28,20.27,26.1C575.39,749,572,755.5,567.64,761.15Z" style="fill:#fc0"/><path d="M587.19,755.91V760A46.59,46.59,0,1,0,494,760v-4.09a46.59,46.59,0,1,1,93.17,0Z" style="fill:#fff"/><path d="M587.19,755.91v5.24H494v-5.24a46.38,46.38,0,0,1,2.47-15c4.25,4.64,15.5,12,44.11,12s39.86-7.35,44.11-12A46.39,46.39,0,0,1,587.19,755.91Z" style="fill:#fc0"/><path d="M587.19,762.66H494a1.51,1.51,0,0,1-1.51-1.52v-5.23a48.1,48.1,0,0,1,96.19,0v5.23A1.52,1.52,0,0,1,587.19,762.66Zm-91.66-3h90.14v-3.72a45.07,45.07,0,1,0-90.14,0Z" style="fill:url(#Super_Soft_Black_Vignette-31)"/><path d="M561.41,731l1.9-14a7.36,7.36,0,0,0-5.74-8.2l-15.42-3.31a7.36,7.36,0,0,0-3.1,0l-15.41,3.31a7.36,7.36,0,0,0-5.75,8.2l1.9,14" style="fill:#fcef03"/><path d="M563.31,717.05l-.09.73a7.37,7.37,0,0,0-5.65-5.63l-15.42-3.32a7.05,7.05,0,0,0-3.1,0l-15.41,3.32a7.34,7.34,0,0,0-5.65,5.63l-.1-.73a7.36,7.36,0,0,1,5.75-8.2l15.41-3.31a7.36,7.36,0,0,1,3.1,0l15.42,3.31A7.36,7.36,0,0,1,563.31,717.05Z" style="fill:#fff"/><path d="M560.66,730.91a50,50,0,0,1,.13-5.34c.12-1.76.32-3.52.55-5.27l.33-2.63.09-.66,0-.16v-.14l0-.26a4.51,4.51,0,0,0,0-.52,4.38,4.38,0,0,0,0-.52,5.86,5.86,0,0,0-1.89-3.61,5.72,5.72,0,0,0-1.75-1.07,4.66,4.66,0,0,0-.49-.16c-.18,0-.31-.09-.52-.13l-1.3-.27-5.19-1.09-5.19-1.1-2.59-.55-1.24-.26a5.86,5.86,0,0,0-1-.09,5.66,5.66,0,0,0-1,.09l-1.25.26-2.59.55-5.19,1.1-5.19,1.09-1.29.27-.53.13c-.17,0-.32.11-.48.16a5.77,5.77,0,0,0-3.64,4.68,3,3,0,0,0,0,.52,3,3,0,0,0,0,.52l0,.26v.14l0,.16.08.66.34,2.63a64.56,64.56,0,0,1,.67,10.61.77.77,0,0,1-1.5.2,64.58,64.58,0,0,1-2.19-10.4l-.38-2.63-.09-.65,0-.17,0-.19,0-.4a5.4,5.4,0,0,1,0-.8,5.51,5.51,0,0,1,.05-.81,9,9,0,0,1,2.82-5.63,9.12,9.12,0,0,1,2.72-1.73c.25-.09.5-.2.76-.27l.76-.2,1.3-.29,5.18-1.14,5.18-1.13,2.59-.57.65-.14.7-.15a8.8,8.8,0,0,1,1.62-.15,9.88,9.88,0,0,1,1.63.15l.7.15.64.14,2.6.57,5.18,1.13,5.18,1.14,1.29.29.76.2c.26.07.51.18.76.27a9.12,9.12,0,0,1,2.72,1.73,9,9,0,0,1,2.82,5.63,5.51,5.51,0,0,1,0,.81,7.18,7.18,0,0,1,0,.8l0,.4,0,.19,0,.17-.09.65-.38,2.63c-.25,1.75-.53,3.49-.88,5.23a47.73,47.73,0,0,1-1.31,5.17.76.76,0,0,1-1,.5A.78.78,0,0,1,560.66,730.91Z" style="fill:url(#Super_Soft_Black_Vignette-32)"/><path d="M552.26,709.41l-1.73,39.5L550,761.15H531.21L530.68,749,529,709.41a6.78,6.78,0,0,1,5.52-7,33.83,33.83,0,0,1,12.26,0A6.79,6.79,0,0,1,552.26,709.41Z" style="fill:#fbbe00"/><path d="M552.26,709.41l-.1,2.23a6.74,6.74,0,0,0-5.43-5.48,33.83,33.83,0,0,0-12.26,0,6.75,6.75,0,0,0-5.42,5.48l-.1-2.23a6.78,6.78,0,0,1,5.52-7,33.83,33.83,0,0,1,12.26,0A6.79,6.79,0,0,1,552.26,709.41Z" style="fill:#fff"/><path d="M550.53,748.91,550,761.15H531.21L530.68,749a17.55,17.55,0,0,0,19.85-.05Z" style="fill:#fc0"/><path d="M550,762.66H531.21a1.52,1.52,0,0,1-1.51-1.45l-2.26-51.74A8.29,8.29,0,0,1,534.2,701a35,35,0,0,1,12.8,0,8.3,8.3,0,0,1,6.77,8.52l-2.27,51.74A1.52,1.52,0,0,1,550,762.66Zm-17.33-3h15.88l2.21-50.29a5.27,5.27,0,0,0-4.29-5.42,32.07,32.07,0,0,0-11.72,0,5.26,5.26,0,0,0-4.28,5.42Z" style="fill:url(#Super_Soft_Black_Vignette-33)"/><path d="M593.73,768.17s-10.59,7.34-53.13,7.34-53.12-7.34-53.12-7.34L494,756.1s28.87,2.57,46.58,2.57,46.59-2.57,46.59-2.57Z" style="fill:#fbbe00"/><path d="M588.78,759c-6,.52-31.68,2.62-48.18,2.62s-42.13-2.1-48.18-2.62l1.6-2.94s28.87,2.57,46.58,2.57,46.59-2.57,46.59-2.57Z" style="fill:#fff"/><path d="M593.73,768.17s-10.59,7.34-53.13,7.34-53.12-7.34-53.12-7.34l2.81-5.19c5.37,2.11,19.4,6,50.31,6s44.94-3.87,50.31-6h0Z" style="fill:#fc0"/><path d="M540.6,777c-42.52,0-53.54-7.31-54-7.62a1.5,1.5,0,0,1-.47-2l6.54-12.07a1.52,1.52,0,0,1,1.46-.79s4.4.39,10.66.86c10.45.78,25.14,1.71,35.79,1.71,4,0,9-.14,14.68-.4,15.38-.72,31.61-2.15,31.77-2.17a1.53,1.53,0,0,1,1.47.79l6.53,12.07a1.51,1.51,0,0,1-.46,2C594.14,769.72,583.13,777,540.6,777Zm-51.06-9.48c3.76,1.72,17.19,6.45,51.06,6.45s47.29-4.72,51.07-6.45l-5.34-9.86c-3.77.32-17.65,1.47-30.91,2.09-5.77.26-10.76.4-14.82.4-10.75,0-25.52-.93-36-1.72-4.54-.33-8.08-.63-9.72-.77Z" style="fill:url(#Super_Soft_Black_Vignette-34)"/><path d="M398.75,747q-7.1-.18-14.22-.33-61.09-1.23-120.1.33a40.51,40.51,0,0,1-28.06-11.63,39.52,39.52,0,0,1-11.63-28.06v-33a39.69,39.69,0,0,1,39.69-39.69H398.75a39.69,39.69,0,0,1,39.69,39.69v33A39.69,39.69,0,0,1,398.75,747Z" style="fill:#fff;stroke:#000;stroke-miterlimit:10;stroke-width:5px"/><path d="M363.29,740.43c49.48,41.91,62.34,52.07,62.73,51.62s-12-9.25-19.6-25.48a71.94,71.94,0,0,1-6.54-31.37" style="fill:#fff;stroke:#000;stroke-miterlimit:10;stroke-width:5px"/><path d="M305.06,680.35a4.44,4.44,0,0,1-.37,1.83,4.87,4.87,0,0,1-1,1.47,4.49,4.49,0,0,1-1.49,1,4.67,4.67,0,0,1-1.83.36h-3.77a6.35,6.35,0,0,1-2.57-.52,6.72,6.72,0,0,1-2.1-1.4A6.61,6.61,0,0,1,290.5,681a6.51,6.51,0,0,1-.51-2.57V665.86h2.78v12.57a3.68,3.68,0,0,0,.3,1.47,3.87,3.87,0,0,0,.82,1.21,4.1,4.1,0,0,0,1.21.82,3.7,3.7,0,0,0,1.49.29h3.77a1.82,1.82,0,0,0,1.36-.55,1.79,1.79,0,0,0,.56-1.32V665.86h2.78Z"/><path d="M324,665.86v15a4.24,4.24,0,0,1-.5,2.1,3.84,3.84,0,0,1-1.27,1.38,4.26,4.26,0,0,1-5.18-.42A3.74,3.74,0,0,1,316,682.2l-4.13-12.55a1.4,1.4,0,0,0-.63-.77,1.5,1.5,0,0,0-.92-.18,1.39,1.39,0,0,0-.82.42,1.33,1.33,0,0,0-.36,1V685h-2.79V670.1a4.09,4.09,0,0,1,.52-2.14,3.84,3.84,0,0,1,1.31-1.37,4.06,4.06,0,0,1,1.75-.6,4.54,4.54,0,0,1,1.87.17,4.35,4.35,0,0,1,1.66.93,3.89,3.89,0,0,1,1.08,1.7l4.1,12.5a1.28,1.28,0,0,0,.6.8,1.42,1.42,0,0,0,.88.21,1.3,1.3,0,0,0,.78-.41,1.48,1.48,0,0,0,.33-1v-15Z"/><path d="M333.22,665.86a5.8,5.8,0,0,1,2.52.55,6.61,6.61,0,0,1,2.05,1.51,7.11,7.11,0,0,1,1.37,2.25,7.33,7.33,0,0,1,.51,2.74V680a5.14,5.14,0,0,1-.36,1.93,5.2,5.2,0,0,1-1,1.58,4.85,4.85,0,0,1-1.47,1.06,4,4,0,0,1-1.79.4h-9.66V665.86Zm3.66,7a4.77,4.77,0,0,0-.28-1.65,4.48,4.48,0,0,0-.8-1.36,3.78,3.78,0,0,0-1.16-.91,3,3,0,0,0-1.4-.34h-5v13.58h6.88a1.6,1.6,0,0,0,1.29-.63,2.41,2.41,0,0,0,.51-1.55Z"/><path d="M341.3,668.89a5.28,5.28,0,0,1,1-1.57,5,5,0,0,1,1.54-1.07,4.63,4.63,0,0,1,1.89-.39h9.82v2.78h-9.82a2,2,0,0,0-.8.17,2.13,2.13,0,0,0-.65.46,2.46,2.46,0,0,0-.44.69,2.21,2.21,0,0,0-.17.84v2.5h11.88v2.78H343.7v4.22a1.86,1.86,0,0,0,.55,1.36,1.83,1.83,0,0,0,1.37.56h10V685h-10a4.52,4.52,0,0,1-1.84-.37,4.92,4.92,0,0,1-1.48-1,4.68,4.68,0,0,1-1-1.49,4.52,4.52,0,0,1-.37-1.84v-9.5A4.76,4.76,0,0,1,341.3,668.89Z"/><path d="M356.83,665.86H367.2a4.69,4.69,0,0,1,2.61.67,3.51,3.51,0,0,1,1.43,1.67,3.45,3.45,0,0,1,.11,2.14,4.2,4.2,0,0,1-1.37,2.12l-2.5,2.21L373,685h-3.19l-4.51-8.57-5.69,4.92V685h-2.78Zm2.78,11.81,8.55-7.32a1.34,1.34,0,0,0,.46-.59.66.66,0,0,0,0-.55.87.87,0,0,0-.48-.41,2.25,2.25,0,0,0-.93-.16h-7.59Z"/><path d="M241.56,699a7.28,7.28,0,0,1,1.36-2.25,6.53,6.53,0,0,1,2-1.51,5.76,5.76,0,0,1,2.51-.55h6.91v2.78h-6.91a3,3,0,0,0-1.43.34,3.74,3.74,0,0,0-1.15.91,4.41,4.41,0,0,0-.77,1.36,5,5,0,0,0-.27,1.65v7.14a2.41,2.41,0,0,0,.51,1.55,1.59,1.59,0,0,0,1.26.63h8.76v2.79h-8.76a4,4,0,0,1-1.76-.4,4.63,4.63,0,0,1-1.45-1.07,4.88,4.88,0,0,1-1-1.57,5.14,5.14,0,0,1-.36-1.93v-7.13A7.33,7.33,0,0,1,241.56,699Z"/><path d="M265.15,694.66a4.1,4.1,0,0,1,1.71.36,4.49,4.49,0,0,1,1.41,1,4.86,4.86,0,0,1,1,1.41,4.33,4.33,0,0,1,.34,1.72v8.52a6.12,6.12,0,0,1-1.81,4.37,6.29,6.29,0,0,1-2,1.32,6.21,6.21,0,0,1-2.44.48h-4.05a4.34,4.34,0,0,1-1.72-.35,4.51,4.51,0,0,1-1.4-1,4.71,4.71,0,0,1-1-1.4,4.18,4.18,0,0,1-.36-1.72v-8.52a6.11,6.11,0,0,1,.48-2.42,6.36,6.36,0,0,1,1.32-2,6,6,0,0,1,2-1.33,6.11,6.11,0,0,1,2.42-.48Zm1.63,4.44a1.61,1.61,0,0,0-.48-1.18,1.56,1.56,0,0,0-1.15-.48H261a3.32,3.32,0,0,0-1.32.27,3.26,3.26,0,0,0-1.09.73,3.37,3.37,0,0,0-.73,1.09,3.32,3.32,0,0,0-.27,1.32v8.54a1.56,1.56,0,0,0,.48,1.15,1.6,1.6,0,0,0,1.18.48h4.05a3.38,3.38,0,0,0,1.35-.26,3.69,3.69,0,0,0,1.09-.72,3.52,3.52,0,0,0,.74-1.08,3.16,3.16,0,0,0,.28-1.32Z"/><path d="M288.48,694.66v15a4.24,4.24,0,0,1-.5,2.1,3.93,3.93,0,0,1-1.27,1.38,4.34,4.34,0,0,1-1.73.63,4.17,4.17,0,0,1-1.83-.13,4.12,4.12,0,0,1-1.62-.92,3.74,3.74,0,0,1-1.07-1.72l-4.13-12.55a1.4,1.4,0,0,0-.63-.77,1.5,1.5,0,0,0-.92-.18,1.44,1.44,0,0,0-.83.42,1.37,1.37,0,0,0-.35,1v14.91h-2.79V698.9a4.09,4.09,0,0,1,.52-2.14,3.84,3.84,0,0,1,1.31-1.37,4.06,4.06,0,0,1,1.75-.6,4.54,4.54,0,0,1,1.87.17,4.24,4.24,0,0,1,1.65.93,3.72,3.72,0,0,1,1.08,1.7l4.11,12.5a1.31,1.31,0,0,0,.6.8,1.41,1.41,0,0,0,.87.21,1.3,1.3,0,0,0,.79-.41,1.48,1.48,0,0,0,.33-1v-15Z"/><path d="M301.51,704.7a5.31,5.31,0,0,1,1.86,1.51,4.72,4.72,0,0,1,.87,1.93,4.6,4.6,0,0,1-.06,2,4.43,4.43,0,0,1-.92,1.82,4.8,4.8,0,0,1-1.73,1.32,5.62,5.62,0,0,1-2.47.51h-9.17V711h9.17a2.69,2.69,0,0,0,1.55-.42,2,2,0,0,0,.85-1,1.66,1.66,0,0,0-.07-1.25,2.47,2.47,0,0,0-1.23-1.14l-7.41-3.84a5.09,5.09,0,0,1-1.81-1.48,4.53,4.53,0,0,1-.87-1.83,4.2,4.2,0,0,1,.05-1.93,4.39,4.39,0,0,1,.9-1.74,4.68,4.68,0,0,1,1.68-1.25,5.71,5.71,0,0,1,2.42-.48h8.24v2.78h-8.24a2.82,2.82,0,0,0-1.56.39,1.61,1.61,0,0,0-.75.92,1.55,1.55,0,0,0,.13,1.14,2.27,2.27,0,0,0,1.13,1Z"/><path d="M311.18,697.44h-7.49v-2.78h17.74v2.78H314v16.37h-2.78Z"/><path d="M320.59,694.66H331a4.7,4.7,0,0,1,2.62.67A3.51,3.51,0,0,1,335,697a3.45,3.45,0,0,1,.11,2.14,4.27,4.27,0,0,1-1.37,2.12l-2.5,2.21,5.52,10.34h-3.19l-4.51-8.57-5.69,4.92v3.65h-2.78Zm2.78,11.81,8.54-7.32a1.38,1.38,0,0,0,.47-.59.7.7,0,0,0,0-.55.87.87,0,0,0-.48-.41,2.27,2.27,0,0,0-.94-.16h-7.58Z"/><path d="M351.71,709.15a4.44,4.44,0,0,1-.37,1.83,4.7,4.7,0,0,1-1,1.47,4.55,4.55,0,0,1-1.48,1,4.68,4.68,0,0,1-1.84.36h-3.77a6.35,6.35,0,0,1-2.57-.52,6.72,6.72,0,0,1-2.1-1.4,6.42,6.42,0,0,1-1.41-2.09,6.35,6.35,0,0,1-.52-2.57V694.66h2.79v12.57a3.68,3.68,0,0,0,.3,1.47,3.75,3.75,0,0,0,2,2,3.58,3.58,0,0,0,1.49.3H347a1.86,1.86,0,0,0,1.37-.55,1.78,1.78,0,0,0,.55-1.32V694.66h2.78Z"/><path d="M353.49,699a7.3,7.3,0,0,1,1.37-2.25,6.3,6.3,0,0,1,2-1.51,5.71,5.71,0,0,1,2.5-.55h6.92v2.78h-6.92a3,3,0,0,0-1.42.34,3.78,3.78,0,0,0-1.16.91,4.39,4.39,0,0,0-.76,1.36,4.77,4.77,0,0,0-.28,1.65v7.14a2.36,2.36,0,0,0,.52,1.55,1.56,1.56,0,0,0,1.26.63h8.76v2.79h-8.76a4,4,0,0,1-1.77-.4,4.75,4.75,0,0,1-1.45-1.07,4.85,4.85,0,0,1-1-1.57,5.14,5.14,0,0,1-.36-1.93v-7.13A7.33,7.33,0,0,1,353.49,699Z"/><path d="M372.33,697.44h-7.49v-2.78h17.74v2.78h-7.47v16.37h-2.78Z"/><path d="M385.29,713.81H382.5V694.66h2.79Z"/><path d="M397.07,694.66a4.18,4.18,0,0,1,1.72.36,4.56,4.56,0,0,1,1.4,1,4.67,4.67,0,0,1,.95,1.41,4.34,4.34,0,0,1,.35,1.72v8.52A6.05,6.05,0,0,1,401,710a6.23,6.23,0,0,1-1.33,2,6.33,6.33,0,0,1-2,1.32,6.2,6.2,0,0,1-2.43.48h-4.06a4.25,4.25,0,0,1-1.71-.35,4.44,4.44,0,0,1-1.41-1,4.71,4.71,0,0,1-1-1.4,4.18,4.18,0,0,1-.36-1.72v-8.52a6.11,6.11,0,0,1,.48-2.42,6.36,6.36,0,0,1,1.32-2,6.07,6.07,0,0,1,2-1.33,6.13,6.13,0,0,1,2.43-.48Zm1.63,4.44a1.61,1.61,0,0,0-.48-1.18,1.56,1.56,0,0,0-1.15-.48H393a3.33,3.33,0,0,0-1.33.27,3.37,3.37,0,0,0-1.09.73,3.54,3.54,0,0,0-.73,1.09,3.31,3.31,0,0,0-.26,1.32v8.54a1.56,1.56,0,0,0,.48,1.15,1.59,1.59,0,0,0,1.17.48h4.06a3.3,3.3,0,0,0,1.34-.26,3.47,3.47,0,0,0,1.84-1.8,3.32,3.32,0,0,0,.27-1.32Z"/><path d="M420.4,694.66v15a4.23,4.23,0,0,1-.49,2.1,3.93,3.93,0,0,1-1.27,1.38,4.34,4.34,0,0,1-1.73.63,4.22,4.22,0,0,1-1.84-.13,4.12,4.12,0,0,1-1.62-.92,3.83,3.83,0,0,1-1.07-1.72l-4.12-12.55a1.37,1.37,0,0,0-.64-.77,1.48,1.48,0,0,0-.91-.18,1.41,1.41,0,0,0-.83.42,1.33,1.33,0,0,0-.36,1v14.91h-2.78V698.9a4.19,4.19,0,0,1,.51-2.14,3.92,3.92,0,0,1,1.31-1.37,4.1,4.1,0,0,1,1.75-.6,4.53,4.53,0,0,1,1.87.17,4.35,4.35,0,0,1,1.66.93,3.72,3.72,0,0,1,1.08,1.7l4.1,12.5a1.39,1.39,0,0,0,.6.8,1.42,1.42,0,0,0,.88.21,1.25,1.25,0,0,0,.78-.41,1.49,1.49,0,0,0,.34-1v-15Z"/></g><g id="Title_Text" data-name="Title Text"><path d="M207.79,475.76a17.4,17.4,0,0,1,3.47-5.29,16.47,16.47,0,0,1,5.17-3.59,15.46,15.46,0,0,1,6.38-1.33h33v9.36h-33a6.46,6.46,0,0,0-2.71.58,7,7,0,0,0-2.18,1.54,7.56,7.56,0,0,0-1.49,2.33,7.17,7.17,0,0,0-.57,2.81v8.41h40v9.36h-40v14.21a6.28,6.28,0,0,0,1.86,4.56,6.2,6.2,0,0,0,4.6,1.9h33.5V530h-33.5a15.29,15.29,0,0,1-6.17-1.25,16.12,16.12,0,0,1-5-3.39,16,16,0,0,1-3.39-5,15.13,15.13,0,0,1-1.25-6.17v-32A16.22,16.22,0,0,1,207.79,475.76Z" style="fill:#090044"/><path d="M317.5,465.55l-18.81,54.73a14.92,14.92,0,0,1-4.88,7.07,12.05,12.05,0,0,1-7.63,2.62,12.58,12.58,0,0,1-7.59-2.54,14.05,14.05,0,0,1-5-7.07l-18.89-54.81h10l17.76,51.75a6,6,0,0,0,1.54,2.42,3.14,3.14,0,0,0,2.18.89,3.23,3.23,0,0,0,2.22-.93,5.54,5.54,0,0,0,1.49-2.54l17.92-51.59Z" style="fill:#090044"/><path d="M317.5,475.76a17.4,17.4,0,0,1,3.47-5.29,16.36,16.36,0,0,1,5.17-3.59,15.41,15.41,0,0,1,6.37-1.33h33v9.36h-33a6.45,6.45,0,0,0-2.7.58,6.9,6.9,0,0,0-2.18,1.54,7.56,7.56,0,0,0-1.49,2.33,7.17,7.17,0,0,0-.57,2.81v8.41h40v9.36h-40v14.21a6.28,6.28,0,0,0,1.86,4.56,6.2,6.2,0,0,0,4.6,1.9h33.5V530H332a15.34,15.34,0,0,1-6.18-1.25,16,16,0,0,1-8.39-8.4,15.13,15.13,0,0,1-1.25-6.17v-32A16.22,16.22,0,0,1,317.5,475.76Z" style="fill:#090044"/><path d="M429.14,465.55V516a14.26,14.26,0,0,1-1.65,7.06,13,13,0,0,1-4.28,4.64,14.26,14.26,0,0,1-5.81,2.14,14.42,14.42,0,0,1-6.18-.44,14.24,14.24,0,0,1-5.45-3.11,12.83,12.83,0,0,1-3.59-5.77L388.3,478.31a4.6,4.6,0,0,0-2.14-2.59,4.94,4.94,0,0,0-3.07-.6,4.69,4.69,0,0,0-2.79,1.41,4.5,4.5,0,0,0-1.21,3.31V530h-9.36V479.84a14,14,0,0,1,1.74-7.23,13.21,13.21,0,0,1,4.39-4.6,14.15,14.15,0,0,1,5.9-2,15.51,15.51,0,0,1,6.29.57,14.69,14.69,0,0,1,5.57,3.15,12.75,12.75,0,0,1,3.64,5.69l13.8,42.06a4.47,4.47,0,0,0,2,2.7,4.69,4.69,0,0,0,2.95.69,4.16,4.16,0,0,0,2.62-1.37,4.93,4.93,0,0,0,1.13-3.47V465.55Z" style="fill:#090044"/><path d="M452.64,474.91H427.45v-9.36h59.66v9.36H462V530h-9.36Z" style="fill:#090044"/><path d="M522.14,530h-9.36V465.55h9.36v23.82h32.13V465.55h9.37V530h-9.37V498.73H522.14Z" style="fill:#090044"/><path d="M602.63,465.55a13.92,13.92,0,0,1,5.77,1.21,15.41,15.41,0,0,1,7.91,8,14.43,14.43,0,0,1,1.17,5.78v28.65a20.51,20.51,0,0,1-6.09,14.7,21.29,21.29,0,0,1-6.7,4.44,21,21,0,0,1-8.2,1.61H582.85a14.34,14.34,0,0,1-5.77-1.17,15,15,0,0,1-4.73-3.19,15.56,15.56,0,0,1-3.22-4.72,13.92,13.92,0,0,1-1.22-5.77V486.46a20.52,20.52,0,0,1,1.62-8.15,21,21,0,0,1,4.44-6.66,20.47,20.47,0,0,1,6.62-4.49,20.72,20.72,0,0,1,8.15-1.61Zm5.49,14.94a5.39,5.39,0,0,0-1.62-4,5.28,5.28,0,0,0-3.87-1.62H588.74a11.32,11.32,0,0,0-4.44.89,11.58,11.58,0,0,0-3.67,2.47,11.43,11.43,0,0,0-2.46,3.68,11.19,11.19,0,0,0-.89,4.45v28.71a5.32,5.32,0,0,0,1.61,3.88,5.39,5.39,0,0,0,4,1.62h13.64a11.5,11.5,0,0,0,4.52-.89,11.85,11.85,0,0,0,3.68-2.43,11.52,11.52,0,0,0,2.5-3.64,10.86,10.86,0,0,0,.93-4.45Z" style="fill:#090044"/><path d="M621.68,465.55h34.87a15.8,15.8,0,0,1,8.8,2.26,12,12,0,0,1,4.81,5.61,11.65,11.65,0,0,1,.36,7.23,14.16,14.16,0,0,1-4.6,7.1l-8.4,7.43L676.09,530H665.35l-15.18-28.82L631,517.7V530h-9.36ZM631,505.27l28.74-24.61a4.79,4.79,0,0,0,1.58-2,2.39,2.39,0,0,0,0-1.86,3,3,0,0,0-1.62-1.38,8,8,0,0,0-3.15-.53H631Z" style="fill:#090044"/><path d="M687.63,530h-9.36V465.55h9.36Z" style="fill:#090044"/><path d="M698.61,527.55A11.93,11.93,0,0,1,693.2,521a11.65,11.65,0,0,1-.6-5,11.53,11.53,0,0,1,1.37-4.25,15.43,15.43,0,0,1,2.82-3.64,38.68,38.68,0,0,1,3.84-3.19l30-21.67a8.44,8.44,0,0,0,2.46-2.83,3.79,3.79,0,0,0,.45-2.91,3,3,0,0,0-2.31-2.1,17.35,17.35,0,0,0-4.4-.49H694.9v-9.36h31.88A19.62,19.62,0,0,1,736.92,468a11.89,11.89,0,0,1,5.45,6.78,13.31,13.31,0,0,1-.41,9,15.92,15.92,0,0,1-5.81,7.23L706,512.53a18.1,18.1,0,0,0-3.35,3.07,2.69,2.69,0,0,0-.77,2.58,3.3,3.3,0,0,0,2.22,1.78,13.47,13.47,0,0,0,4.48.65H745V530H708.62A19.2,19.2,0,0,1,698.61,527.55Z" style="fill:#090044"/><path d="M784,465.55a13.92,13.92,0,0,1,5.77,1.21,15.41,15.41,0,0,1,7.91,8,14.43,14.43,0,0,1,1.17,5.78v28.65a20.34,20.34,0,0,1-1.61,8.08,20.56,20.56,0,0,1-4.48,6.62,21.29,21.29,0,0,1-6.7,4.44,21,21,0,0,1-8.2,1.61H764.24a14.38,14.38,0,0,1-5.77-1.17,15,15,0,0,1-4.72-3.19,15.59,15.59,0,0,1-3.23-4.72,13.92,13.92,0,0,1-1.21-5.77V486.46a20.51,20.51,0,0,1,1.61-8.15,21.34,21.34,0,0,1,4.44-6.66,20.47,20.47,0,0,1,14.77-6.1Zm5.49,14.94a5.39,5.39,0,0,0-1.62-4,5.25,5.25,0,0,0-3.87-1.62H770.13a11.32,11.32,0,0,0-4.44.89,11.69,11.69,0,0,0-3.67,2.47,11.51,11.51,0,0,0-3.35,8.13v28.71a5.29,5.29,0,0,0,1.62,3.88,5.35,5.35,0,0,0,4,1.62h13.64a11.55,11.55,0,0,0,4.53-.89,11.92,11.92,0,0,0,3.67-2.43,11.52,11.52,0,0,0,2.5-3.64,10.86,10.86,0,0,0,.93-4.45Z" style="fill:#090044"/><path d="M862.49,465.55V516a14.26,14.26,0,0,1-1.66,7.06,13,13,0,0,1-4.28,4.64,14.21,14.21,0,0,1-5.81,2.14,14.42,14.42,0,0,1-6.18-.44,14.24,14.24,0,0,1-5.45-3.11,12.92,12.92,0,0,1-3.59-5.77l-13.88-42.22a4.6,4.6,0,0,0-2.14-2.59,4.94,4.94,0,0,0-3.07-.6,4.69,4.69,0,0,0-2.79,1.41,4.5,4.5,0,0,0-1.21,3.31V530h-9.36V479.84a14,14,0,0,1,1.74-7.23,13.14,13.14,0,0,1,4.4-4.6,14.11,14.11,0,0,1,5.89-2,15.51,15.51,0,0,1,6.29.57,14.8,14.8,0,0,1,5.58,3.15,12.82,12.82,0,0,1,3.63,5.69l13.8,42.06a4.47,4.47,0,0,0,2,2.7,4.69,4.69,0,0,0,3,.69,4.16,4.16,0,0,0,2.62-1.37,4.93,4.93,0,0,0,1.13-3.47V465.55Z" style="fill:#090044"/><path d="M374.6,552.84A8,8,0,0,1,379,554a5.57,5.57,0,0,1,2.42,3.13,5.85,5.85,0,0,1,.19,2.26,6.31,6.31,0,0,1-.62,2.09,7.83,7.83,0,0,1-1.29,1.87A11.54,11.54,0,0,1,377.9,565l-13.38,8.75v5h-3.75V552.84Zm1.2,9c.28-.19.56-.42.86-.67a3.87,3.87,0,0,0,.74-.83,3.26,3.26,0,0,0,.46-1,2.22,2.22,0,0,0,0-1.09A2,2,0,0,0,376.8,557a4.78,4.78,0,0,0-2.2-.44H364.52v12.64c1.93-1.25,3.81-2.49,5.66-3.71s3.73-2.45,5.65-3.68Z" style="fill:#090044"/><path d="M396.08,552.84a5.62,5.62,0,0,1,2.31.48,6.2,6.2,0,0,1,1.9,1.31,6.45,6.45,0,0,1,1.28,1.92,5.78,5.78,0,0,1,.47,2.31v11.5a8.26,8.26,0,0,1-2.45,5.9A8.53,8.53,0,0,1,396.9,578a8.4,8.4,0,0,1-3.29.65h-5.47a5.87,5.87,0,0,1-2.32-.47,6,6,0,0,1-1.89-1.28,6.35,6.35,0,0,1-1.3-1.9,5.62,5.62,0,0,1-.48-2.31v-11.5a8.26,8.26,0,0,1,.64-3.27,8.62,8.62,0,0,1,1.79-2.68,8.16,8.16,0,0,1,5.92-2.44Zm2.2,6a2.2,2.2,0,0,0-.65-1.59,2.12,2.12,0,0,0-1.55-.65H390.5a4.49,4.49,0,0,0-1.78.36,4.6,4.6,0,0,0-2.46,2.47,4.49,4.49,0,0,0-.36,1.78v11.52a2.13,2.13,0,0,0,.65,1.56,2.16,2.16,0,0,0,1.59.65h5.47a4.69,4.69,0,0,0,3.29-1.33,4.71,4.71,0,0,0,1-1.46,4.52,4.52,0,0,0,.37-1.79Z" style="fill:#090044"/><path d="M408.52,578.69h-3.76V552.84h3.76Z" style="fill:#090044"/><path d="M434.33,552.84v20.24a5.73,5.73,0,0,1-.66,2.84,5.15,5.15,0,0,1-1.72,1.86,5.88,5.88,0,0,1-4.81.68,5.51,5.51,0,0,1-2.18-1.25,5.17,5.17,0,0,1-1.45-2.31L417.94,558a1.8,1.8,0,0,0-.86-1,1.93,1.93,0,0,0-1.23-.24,1.85,1.85,0,0,0-1.11.56,1.79,1.79,0,0,0-.49,1.33v20.12h-3.76V558.57a5.59,5.59,0,0,1,.7-2.9,5.31,5.31,0,0,1,1.76-1.85,5.72,5.72,0,0,1,2.37-.81,6.37,6.37,0,0,1,2.53.23,5.87,5.87,0,0,1,2.23,1.27,5,5,0,0,1,1.46,2.28l5.54,16.88a1.78,1.78,0,0,0,.81,1.08,1.9,1.9,0,0,0,1.18.28,1.69,1.69,0,0,0,1.05-.55,2,2,0,0,0,.46-1.4V552.84Z" style="fill:#090044"/><path d="M443.76,556.59H433.65v-3.75h23.94v3.75H447.52v22.1h-3.76Z" style="fill:#090044"/><path d="M481.82,552.84a5.64,5.64,0,0,1,2.32.48,6.32,6.32,0,0,1,1.9,1.31,6.45,6.45,0,0,1,1.28,1.92,5.78,5.78,0,0,1,.46,2.31v11.5a8.18,8.18,0,0,1-.64,3.24,8.28,8.28,0,0,1-1.8,2.66,8.53,8.53,0,0,1-2.69,1.78,8.43,8.43,0,0,1-3.29.65h-5.47a5.83,5.83,0,0,1-2.32-.47,6,6,0,0,1-1.89-1.28,6.17,6.17,0,0,1-1.3-1.9,5.63,5.63,0,0,1-.49-2.31v-11.5a8.26,8.26,0,0,1,.65-3.27,8.3,8.3,0,0,1,4.44-4.48,8.33,8.33,0,0,1,3.27-.64Zm2.21,6a2.2,2.2,0,0,0-.65-1.59,2.13,2.13,0,0,0-1.56-.65h-5.57a4.49,4.49,0,0,0-1.78.36,4.6,4.6,0,0,0-2.46,2.47,4.49,4.49,0,0,0-.36,1.78v11.52a2.13,2.13,0,0,0,.65,1.56,2.16,2.16,0,0,0,1.59.65h5.47a4.69,4.69,0,0,0,3.29-1.33,4.52,4.52,0,0,0,1-1.46,4.36,4.36,0,0,0,.38-1.79Z" style="fill:#090044"/><path d="M490.12,558.31a8.88,8.88,0,0,1,1.78-2.83,8.38,8.38,0,0,1,2.66-1.93,7.51,7.51,0,0,1,3.27-.71h9v3.75h-9a4,4,0,0,0-1.78.41,4.61,4.61,0,0,0-1.48,1.11,5.1,5.1,0,0,0-1,1.64,5.82,5.82,0,0,0-.35,2v4.07h13.6v3.76h-13.6v9.1h-3.76V561.78A9.11,9.11,0,0,1,490.12,558.31Z" style="fill:#090044"/><path d="M542.69,552.84v20.24a5.73,5.73,0,0,1-.66,2.84,5.15,5.15,0,0,1-1.72,1.86,5.88,5.88,0,0,1-4.81.68,5.51,5.51,0,0,1-2.18-1.25,5.17,5.17,0,0,1-1.45-2.31L526.3,558a1.8,1.8,0,0,0-.86-1,1.93,1.93,0,0,0-1.23-.24,1.91,1.91,0,0,0-1.12.56,1.82,1.82,0,0,0-.48,1.33v20.12h-3.76V558.57a5.59,5.59,0,0,1,.7-2.9,5.31,5.31,0,0,1,1.76-1.85,5.72,5.72,0,0,1,2.37-.81,6.3,6.3,0,0,1,2.52.23,5.84,5.84,0,0,1,2.24,1.27,5.11,5.11,0,0,1,1.46,2.28l5.54,16.88a1.78,1.78,0,0,0,.81,1.08,1.9,1.9,0,0,0,1.18.28,1.69,1.69,0,0,0,1.05-.55,2,2,0,0,0,.46-1.4V552.84Z" style="fill:#090044"/><path d="M558.53,552.84a5.64,5.64,0,0,1,2.32.48,6.32,6.32,0,0,1,1.9,1.31,6.45,6.45,0,0,1,1.28,1.92,5.78,5.78,0,0,1,.46,2.31v11.5a8.18,8.18,0,0,1-.64,3.24,8.28,8.28,0,0,1-1.8,2.66,8.53,8.53,0,0,1-2.69,1.78,8.43,8.43,0,0,1-3.29.65H550.6a5.83,5.83,0,0,1-2.32-.47,6,6,0,0,1-1.89-1.28,6.17,6.17,0,0,1-1.3-1.9,5.63,5.63,0,0,1-.49-2.31v-11.5a8.26,8.26,0,0,1,.65-3.27,8.3,8.3,0,0,1,4.44-4.48,8.33,8.33,0,0,1,3.27-.64Zm2.21,6a2.2,2.2,0,0,0-.65-1.59,2.13,2.13,0,0,0-1.56-.65H553a4.49,4.49,0,0,0-1.78.36,4.6,4.6,0,0,0-2.46,2.47,4.49,4.49,0,0,0-.36,1.78v11.52a2.13,2.13,0,0,0,.65,1.56,2.16,2.16,0,0,0,1.59.65h5.47a4.69,4.69,0,0,0,3.29-1.33,4.52,4.52,0,0,0,1-1.46,4.36,4.36,0,0,0,.38-1.79Z" style="fill:#090044"/><path d="M577.61,552.84h14a6.4,6.4,0,0,1,3.53.9,4.85,4.85,0,0,1,1.93,2.26,4.64,4.64,0,0,1,.14,2.89,5.71,5.71,0,0,1-1.84,2.86l-3.37,3,7.45,14h-4.31l-6.09-11.57-7.68,6.64v4.93h-3.76Zm3.76,15.94,11.53-9.88a1.88,1.88,0,0,0,.64-.79,1,1,0,0,0,0-.75,1.18,1.18,0,0,0-.65-.55,3,3,0,0,0-1.26-.22H581.37Z" style="fill:#090044"/><path d="M599.8,556.93a7,7,0,0,1,1.4-2.12,6.63,6.63,0,0,1,2.07-1.44,6.15,6.15,0,0,1,2.56-.53h13.25v3.75H605.83a2.66,2.66,0,0,0-1.09.23,2.85,2.85,0,0,0-.87.63,3,3,0,0,0-.6.93,2.93,2.93,0,0,0-.23,1.13v3.37h16v3.76H603v5.7a2.52,2.52,0,0,0,.75,1.83,2.47,2.47,0,0,0,1.85.76h13.44v3.76H605.64a6.17,6.17,0,0,1-2.48-.5,6.41,6.41,0,0,1-3.37-3.37,6.07,6.07,0,0,1-.5-2.48V559.51A6.6,6.6,0,0,1,599.8,556.93Z" style="fill:#090044"/><path d="M628.28,556.59H618.17v-3.75h23.94v3.75H632v22.1h-3.76Z" style="fill:#090044"/><path d="M661.32,572.4a6.13,6.13,0,0,1-.5,2.47,6.52,6.52,0,0,1-1.36,2,6.33,6.33,0,0,1-4.49,1.83h-5.08a8.57,8.57,0,0,1-3.47-.7,8.92,8.92,0,0,1-4.75-4.71,8.77,8.77,0,0,1-.69-3.47v-17h3.76v17a5,5,0,0,0,.4,2,5.26,5.26,0,0,0,1.1,1.63,5.17,5.17,0,0,0,1.64,1.11,5,5,0,0,0,2,.4H655a2.53,2.53,0,0,0,1.85-.74,2.44,2.44,0,0,0,.74-1.79V552.84h3.76Z" style="fill:#090044"/><path d="M663,552.84h14a6.36,6.36,0,0,1,3.53.9,4.79,4.79,0,0,1,1.93,2.26,4.57,4.57,0,0,1,.15,2.89,5.73,5.73,0,0,1-1.85,2.86l-3.37,3,7.45,14h-4.31l-6.09-11.57-7.67,6.64v4.93H663Zm3.76,15.94,11.53-9.88a1.93,1.93,0,0,0,.63-.79.93.93,0,0,0,0-.75,1.15,1.15,0,0,0-.64-.55,3.08,3.08,0,0,0-1.27-.22H666.8Z" style="fill:#090044"/><path d="M708.55,552.84v20.24a5.73,5.73,0,0,1-.66,2.84,5.15,5.15,0,0,1-1.72,1.86,5.88,5.88,0,0,1-4.81.68,5.62,5.62,0,0,1-2.19-1.25,5.15,5.15,0,0,1-1.44-2.31L692.16,558a1.8,1.8,0,0,0-.86-1,1.93,1.93,0,0,0-1.23-.24,1.91,1.91,0,0,0-1.12.56,1.82,1.82,0,0,0-.48,1.33v20.12h-3.76V558.57a5.59,5.59,0,0,1,.7-2.9,5.31,5.31,0,0,1,1.76-1.85,5.67,5.67,0,0,1,2.37-.81,6.3,6.3,0,0,1,2.52.23,5.91,5.91,0,0,1,2.24,1.27,5.11,5.11,0,0,1,1.46,2.28l5.54,16.88a1.78,1.78,0,0,0,.81,1.08,1.88,1.88,0,0,0,1.18.28,1.69,1.69,0,0,0,1.05-.55,2,2,0,0,0,.45-1.4V552.84Z" style="fill:#090044"/><path d="M229,1068.12a26.45,26.45,0,0,1,5-8.14,23.23,23.23,0,0,1,7.36-5.49,21,21,0,0,1,9.1-2h25.07v10.1H250.42a11.26,11.26,0,0,0-5.18,1.22,13.49,13.49,0,0,0-4.18,3.31,15.54,15.54,0,0,0-2.79,4.93,17.73,17.73,0,0,0-1,6v25.91a8.62,8.62,0,0,0,1.87,5.62,5.69,5.69,0,0,0,4.57,2.31h31.78V1122H243.71a14.65,14.65,0,0,1-6.4-1.44,17.12,17.12,0,0,1-5.26-3.87,18.23,18.23,0,0,1-3.57-5.7,18.71,18.71,0,0,1-1.31-7v-25.86A27,27,0,0,1,229,1068.12Z" style="fill:#090044"/><path d="M314.58,1052.49a14.89,14.89,0,0,1,6.22,1.31,16.5,16.5,0,0,1,5.09,3.52,16.74,16.74,0,0,1,3.44,5.14,15.51,15.51,0,0,1,1.26,6.22v30.91a22.16,22.16,0,0,1-6.57,15.84,22.82,22.82,0,0,1-7.22,4.79A22.59,22.59,0,0,1,308,1122H293.25a15.56,15.56,0,0,1-6.23-1.26,16.28,16.28,0,0,1-5.09-3.44,16.92,16.92,0,0,1-3.48-5.09,15.1,15.1,0,0,1-1.31-6.23V1075a22.25,22.25,0,0,1,1.74-8.8,23,23,0,0,1,4.79-7.18,22,22,0,0,1,7.14-4.83,22.24,22.24,0,0,1,8.79-1.74Zm5.92,16.12a5.85,5.85,0,0,0-1.75-4.28,5.69,5.69,0,0,0-4.17-1.74h-15a12.34,12.34,0,0,0-8.75,3.62,12.29,12.29,0,0,0-2.65,4,12.16,12.16,0,0,0-1,4.79v31a5.72,5.72,0,0,0,1.74,4.19,5.8,5.8,0,0,0,4.27,1.74H308a12.34,12.34,0,0,0,4.87-1,12.91,12.91,0,0,0,4-2.61,12.43,12.43,0,0,0,2.69-3.93,11.7,11.7,0,0,0,1-4.79Z" style="fill:#090044"/><path d="M375,1052.49a26.76,26.76,0,0,1,10.82,2.22,27.82,27.82,0,0,1,8.83,6,28.69,28.69,0,0,1,5.91,9,27.59,27.59,0,0,1,2.17,10.88V1122h-10.1v-41.41a18.76,18.76,0,0,0-1.3-7,17.47,17.47,0,0,0-3.66-5.71,17.29,17.29,0,0,0-5.48-3.84,16.53,16.53,0,0,0-6.79-1.39h-1V1122h-10.1v-59.37H351.83a6.75,6.75,0,0,0-4.7,1.74,5.57,5.57,0,0,0-1.91,4.27V1122h-10.1v-53.28a15,15,0,0,1,1.3-6.22,16.6,16.6,0,0,1,3.57-5.14,17,17,0,0,1,5.3-3.52,16.2,16.2,0,0,1,6.52-1.31Z" style="fill:#090044"/><path d="M421,1122H411v-69.47H421Z" style="fill:#090044"/><path d="M490.43,1052.49v54.41a15.34,15.34,0,0,1-1.79,7.62,14,14,0,0,1-4.61,5,15.33,15.33,0,0,1-6.27,2.31,15.54,15.54,0,0,1-6.66-.48,15,15,0,0,1-5.87-3.35,13.75,13.75,0,0,1-3.88-6.22l-15-45.54a5,5,0,0,0-2.31-2.78,5.35,5.35,0,0,0-3.31-.65,5,5,0,0,0-3,1.52,4.83,4.83,0,0,0-1.31,3.57V1122h-10.1V1067.9a15.08,15.08,0,0,1,1.88-7.79,14.16,14.16,0,0,1,4.74-5,15.19,15.19,0,0,1,6.36-2.17,16.72,16.72,0,0,1,6.79.61,16.05,16.05,0,0,1,6,3.39,13.71,13.71,0,0,1,3.92,6.14l14.89,45.36a4.83,4.83,0,0,0,2.17,2.91,5.09,5.09,0,0,0,3.18.74,4.43,4.43,0,0,0,2.83-1.48,5.28,5.28,0,0,0,1.22-3.74v-54.41Z" style="fill:#090044"/><path d="M543.23,1081.08a20.06,20.06,0,0,1,6.18,4.39,20.76,20.76,0,0,1,4.18,6.52,21,21,0,0,1,1.52,8v22H512.8a16.06,16.06,0,0,1-6.79-1.44,17.18,17.18,0,0,1-5.44-3.87,18.46,18.46,0,0,1-3.66-5.7,18.16,18.16,0,0,1-1.35-7v-25.86a25.84,25.84,0,0,1,1.92-10,26.18,26.18,0,0,1,5.22-8.14,24.61,24.61,0,0,1,7.75-5.49,22.67,22.67,0,0,1,9.4-2h26.38v10.1H519.85a12.81,12.81,0,0,0-5.53,1.22,14.46,14.46,0,0,0-4.48,3.31,16.27,16.27,0,0,0-4.18,10.9v25.91a8.09,8.09,0,0,0,2.09,5.62,6.58,6.58,0,0,0,5,2.31H545v-11.92a11.1,11.1,0,0,0-.74-4,10.57,10.57,0,0,0-2-3.31,9.88,9.88,0,0,0-2.92-2.22,7.87,7.87,0,0,0-3.57-.82H516.46v-10.1h19.32A17.76,17.76,0,0,1,543.23,1081.08Z" style="fill:#090044"/><path d="M632.85,1088.92a19.14,19.14,0,0,1,6.75,5.49,16.53,16.53,0,0,1,3,14.3,16.69,16.69,0,0,1-3.35,6.62,18.08,18.08,0,0,1-6.27,4.8,20.61,20.61,0,0,1-9,1.83H590.72v-10.1H624a9.94,9.94,0,0,0,5.62-1.52,7.61,7.61,0,0,0,3.09-3.66,5.92,5.92,0,0,0-.26-4.52A9,9,0,0,0,628,1098l-26.91-13.93a19.12,19.12,0,0,1-6.57-5.35,16.76,16.76,0,0,1-3.13-6.66,15,15,0,0,1,.17-7,15.82,15.82,0,0,1,3.27-6.31,17.3,17.3,0,0,1,6.09-4.53,20.7,20.7,0,0,1,8.79-1.74h29.86v10.1H609.69A10.36,10.36,0,0,0,604,1064a6,6,0,0,0-2.74,3.36,5.67,5.67,0,0,0,.48,4.14,8.28,8.28,0,0,0,4.09,3.66Z" style="fill:#090044"/><path d="M685.17,1052.49a14.94,14.94,0,0,1,6.23,1.31,16.5,16.5,0,0,1,5.09,3.52,16.74,16.74,0,0,1,3.44,5.14,15.51,15.51,0,0,1,1.26,6.22v30.91a22.16,22.16,0,0,1-6.57,15.84,22.77,22.77,0,0,1-16.06,6.53H663.84a15.51,15.51,0,0,1-6.22-1.26,16.16,16.16,0,0,1-5.09-3.44,16.77,16.77,0,0,1-3.49-5.09,15.09,15.09,0,0,1-1.3-6.23V1075a22.25,22.25,0,0,1,1.74-8.8,23,23,0,0,1,4.79-7.18,22.16,22.16,0,0,1,15.93-6.57Zm5.92,16.12a5.84,5.84,0,0,0-1.74-4.28,5.69,5.69,0,0,0-4.18-1.74h-15a12.34,12.34,0,0,0-8.75,3.62,12.31,12.31,0,0,0-2.66,4,12.15,12.15,0,0,0-.95,4.79v31a5.72,5.72,0,0,0,1.74,4.19,5.79,5.79,0,0,0,4.26,1.74h14.72a12.34,12.34,0,0,0,4.87-1,12.39,12.39,0,0,0,6.66-6.54,11.69,11.69,0,0,0,1-4.79Z" style="fill:#090044"/><path d="M743.15,1052.49a14.94,14.94,0,0,1,6.23,1.31,16.5,16.5,0,0,1,5.09,3.52,16.74,16.74,0,0,1,3.44,5.14,15.51,15.51,0,0,1,1.26,6.22v30.91a22.16,22.16,0,0,1-6.57,15.84,22.77,22.77,0,0,1-16.07,6.53H721.82a15.51,15.51,0,0,1-6.22-1.26,16.21,16.21,0,0,1-5.1-3.44,16.92,16.92,0,0,1-3.48-5.09,15.09,15.09,0,0,1-1.3-6.23V1075a22.25,22.25,0,0,1,1.74-8.8,22.81,22.81,0,0,1,4.79-7.18,22.11,22.11,0,0,1,15.93-6.57Zm5.92,16.12a5.84,5.84,0,0,0-1.74-4.28,5.69,5.69,0,0,0-4.18-1.74h-15a12.34,12.34,0,0,0-8.75,3.62,12.31,12.31,0,0,0-2.66,4,12.15,12.15,0,0,0-.95,4.79v31a5.68,5.68,0,0,0,1.74,4.19,5.79,5.79,0,0,0,4.26,1.74h14.71a12.35,12.35,0,0,0,4.88-1,12.39,12.39,0,0,0,6.66-6.54,11.69,11.69,0,0,0,1-4.79Z" style="fill:#090044"/><path d="M827.77,1052.49v54.41a15.34,15.34,0,0,1-1.79,7.62,13.91,13.91,0,0,1-4.61,5,15.33,15.33,0,0,1-6.27,2.31,15.54,15.54,0,0,1-6.66-.48,15.08,15.08,0,0,1-5.87-3.35,13.75,13.75,0,0,1-3.88-6.22l-15-45.54a5,5,0,0,0-2.31-2.78,5.35,5.35,0,0,0-3.31-.65,5,5,0,0,0-3,1.52,4.83,4.83,0,0,0-1.31,3.57V1122H763.7V1067.9a15.08,15.08,0,0,1,1.87-7.79,14.16,14.16,0,0,1,4.74-5,15.19,15.19,0,0,1,6.36-2.17,16.72,16.72,0,0,1,6.79.61,16.05,16.05,0,0,1,6,3.39,13.71,13.71,0,0,1,3.92,6.14l14.89,45.36a4.83,4.83,0,0,0,2.17,2.91,5.09,5.09,0,0,0,3.18.74,4.4,4.4,0,0,0,2.83-1.48,5.28,5.28,0,0,0,1.22-3.74v-54.41Z" style="fill:#090044"/></g></g></svg>