<svg xmlns="http://www.w3.org/2000/svg" viewBox="0 0 2892 284"><defs><style>.cls-1{fill:#fff;}.cls-2{fill:#e32e01;}.cls-3{fill:#fbbe00;}</style></defs><title>Header Logo Cooperate White Medium</title><g id="Layer_2" data-name="Layer 2"><g id="Text_Logo" data-name="Text Logo"><g id="Horizontal"><g id="White"><path class="cls-1" d="M5.71,47.43a76.69,76.69,0,0,1,15.74-24A75.26,75.26,0,0,1,45,7,70.39,70.39,0,0,1,74,1H219V51H74.16a21.59,21.59,0,0,0-16.42,7.27A24.62,24.62,0,0,0,51,75.58V105H219v51H51v54.49A21.29,21.29,0,0,0,72.43,232H219v51H72.31a70.52,70.52,0,0,1-28.37-5.7,73.61,73.61,0,0,1-23-15.53A71.5,71.5,0,0,1,0,210.86V76.59A74.66,74.66,0,0,1,5.71,47.43Z"/><path class="cls-1" d="M492.07,1,410.5,238.82q-6.93,20.4-22.82,32.49a57.38,57.38,0,0,1-35.6,12.1A58.77,58.77,0,0,1,317,271.83q-16.07-11.58-23-32.32L211.74,1H266l76,221.57q3.45,10,10,10,3.1,0,6.05-3.12a19,19,0,0,0,4.32-7.94L439.19,1Z"/><path class="cls-1" d="M489.71,47.43a76.69,76.69,0,0,1,15.74-24A75.26,75.26,0,0,1,529,7,70.39,70.39,0,0,1,558,1H703V51H558.16a21.59,21.59,0,0,0-16.42,7.27A24.62,24.62,0,0,0,535,75.58V105H703v51H535v54.49A21.29,21.29,0,0,0,556.43,232H703v51H556.31a70.52,70.52,0,0,1-28.37-5.7,73.5,73.5,0,0,1-23-15.53A71.5,71.5,0,0,1,484,210.86V76.59A74.66,74.66,0,0,1,489.71,47.43Z"/><path class="cls-1" d="M981,1V218.8q0,19.33-7.76,33a60.82,60.82,0,0,1-19.65,21.4A62.73,62.73,0,0,1,927,282.83a66.81,66.81,0,0,1-53.62-16.4q-11.38-10-16.54-26.58L798.25,62.09a14.34,14.34,0,0,0-6.56-7.59,15.47,15.47,0,0,0-9.14-1.9,13.34,13.34,0,0,0-8.1,4Q771,60,771,66.58V283H720V66.58q0-20,8-33.65a57.65,57.65,0,0,1,20.37-21,66.19,66.19,0,0,1,27.46-9,72.06,72.06,0,0,1,29,2.76,67.79,67.79,0,0,1,25.39,14.5,58.4,58.4,0,0,1,16.58,26.06l58,176.72a16.58,16.58,0,0,0,6.21,8.29,13.85,13.85,0,0,0,8.29,2.59,10.51,10.51,0,0,0,7.43-3.8Q930,226.39,930,218.8V1Z"/><path class="cls-1" d="M1081,52H975V1h262V52H1132V284h-51Z"/><path class="cls-2" d="M246.82,102.45c-10,1.77-19.35,3.77-27.82,6v17.26a211.06,211.06,0,0,1,33-8.18Z"/><path class="cls-2" d="M354,109.79c16,0,31.37.49,45.86,1.39l5.48-15.77c-15.73-1.06-32.27-1.62-49.34-1.62-20,0-39.35.78-57.49,2.22l5.3,15.45C319.55,110.38,336.43,109.79,354,109.79Z"/><path class="cls-2" d="M457.21,101l-5.38,15.69A250.69,250.69,0,0,1,484,123.83V106.09C475.71,104.21,466.74,102.51,457.21,101Z"/><path class="cls-2" d="M379.23,172.08q-12.12.39-24.8.4c-10.11,0-20-.19-29.57-.57-20.19-.78-39-2.35-55.55-4.55-21.57-2.85-39.39-6.76-51.63-11.36H175.23c16,12.65,52.63,23,100,28.63,17.19,2,35.8,3.44,55.36,4.1q12.66.44,25.8.44c5.7,0,11.35-.06,16.92-.19,19.29-.42,37.76-1.57,55-3.33A473.5,473.5,0,0,0,484,176.87V158.43c-12.75,3.89-29.74,7.18-49.64,9.59C417.76,170,399.13,171.44,379.23,172.08Z"/><path class="cls-1" d="M1398,283h-51V1h51V101h123V1h51V283h-51V152H1398Z"/><path class="cls-1" d="M1827,1h152.66q24.27,0,40.24,10.7t21.86,26.41q5.9,15.7,1.39,33.82t-21.17,33l-30.53,28q8.67,16.23,19.43,36.25t21.86,40.55q11.09,20.55,21.33,39.69T2071.94,283h-58.63l-62.1-118L1878,228.46V283h-51Zm50,159.92,110.27-95q6.92-4.84,5-9.88t-14-5H1877Z"/><path class="cls-1" d="M2126,283h-51V1h51Z"/><path class="cls-1" d="M2172.12,271.73q-18.47-11.26-25-30Q2143,228.9,2144,218.15a50.52,50.52,0,0,1,5.88-19.59,67.83,67.83,0,0,1,12.77-16.47,170.51,170.51,0,0,1,17.95-14.92l125.68-91.55a34.25,34.25,0,0,0,8.63-9.18q3.11-5,1.72-8.5-1.72-5.2-7.94-6.08a110.65,110.65,0,0,0-14.84-.86H2154V0h139.83q27.61,0,46.26,11.08t24.52,31.51q6.55,21.81-1.73,41.9a76.13,76.13,0,0,1-26.59,33.24l-126.36,90.72A111.54,111.54,0,0,0,2198,218.84q-4.32,4.51-3.28,7.28c.69,1.85,3.16,3.28,7.42,4.32a65.61,65.61,0,0,0,15.37,1.56H2376v51H2217.53Q2190.59,283,2172.12,271.73Z"/><path class="cls-1" d="M2545.51,1a65,65,0,0,1,26.64,5.52,71.93,71.93,0,0,1,21.79,14.84,68.9,68.9,0,0,1,14.7,21.92A66.9,66.9,0,0,1,2614,69.69V190.15a90.85,90.85,0,0,1-7.26,36.24,91.79,91.79,0,0,1-20.06,29.51,94.82,94.82,0,0,1-29.93,19.85,93.52,93.52,0,0,1-36.84,7.25h-57.42a65.86,65.86,0,0,1-26.29-5.35,70.68,70.68,0,0,1-21.79-14.5,69.07,69.07,0,0,1-14.87-21.57A64.4,64.4,0,0,1,2394,215V94.54A91.78,91.78,0,0,1,2401.26,58a95.32,95.32,0,0,1,19.9-29.68,91.49,91.49,0,0,1,29.74-20A92.71,92.71,0,0,1,2487.4,1ZM2563,68.68A17.72,17.72,0,0,0,2545.4,51h-58a39.37,39.37,0,0,0-16.56,3.47,47.24,47.24,0,0,0-13.46,9.18,40.69,40.69,0,0,0-9.14,13.53A42,42,0,0,0,2445,93.65v121a16.68,16.68,0,0,0,5.18,12.13,16.87,16.87,0,0,0,12.42,5.2h57.27a42.37,42.37,0,0,0,16.74-3.3,43.52,43.52,0,0,0,22.94-22.36A39.88,39.88,0,0,0,2563,189.7Z"/><path class="cls-1" d="M2892,1V218.8q0,19.33-7.76,33a60.82,60.82,0,0,1-19.65,21.4,62.73,62.73,0,0,1-26.56,9.67,66.81,66.81,0,0,1-53.62-16.4q-11.38-10-16.54-26.58L2709.25,62.09a14.34,14.34,0,0,0-6.56-7.59,15.47,15.47,0,0,0-9.14-1.9,13.34,13.34,0,0,0-8.1,4Q2682,60,2682,66.58V283h-51V66.58q0-20,7.95-33.65a57.65,57.65,0,0,1,20.37-21,66.19,66.19,0,0,1,27.46-9,72.06,72.06,0,0,1,29,2.76,67.79,67.79,0,0,1,25.39,14.5,58.4,58.4,0,0,1,16.58,26.06l58,176.72a16.58,16.58,0,0,0,6.21,8.29,13.85,13.85,0,0,0,8.29,2.59,10.51,10.51,0,0,0,7.43-3.8q3.27-3.63,3.28-11.22V1Z"/><path class="cls-3" d="M1686.82,194c17.78-5.42,30-20.08,39.76-37.17,4.07-5.7,10.58-4.89,14.65.81,10.59,16.28,5.7,35.82-5.7,50.47-18.72,23.61-48,32.57-77.33,27.68s-53.73-22-67.57-47.21c-4.89-8.14-11.4-25.24-6.52-24.43,25.24,4.07,42.34,30.12,70.09,33.11A73.94,73.94,0,0,0,1686.82,194Z"/><path class="cls-2" d="M1676.87,32.56c-42.28,40.38-43.91,110.39,13.07,143,4.08,2.44-4.88,9-9.76,11.4-15.47,6.51-31.75.81-44.78-8.14-25.24-19.54-34.19-49.66-28.49-79.78,6.51-32.57,28.49-61.06,59.55-72.57C1678,23.14,1681.93,25.3,1676.87,32.56Z"/><path class="cls-2" d="M1726.56,96.5c23.63-4.84,44.79,10.63,57,29.35,13,21.17,16.29,45.59,9,69.2-9.77,29.31-34.19,64.31-68.38,62.68,34.19-41.51,51.28-114-9.15-140.83C1705.6,111.25,1708.2,101.91,1726.56,96.5Z"/><path class="cls-3" d="M1776.92,62c19.67,12.61,43.28,33.78,39.21,59.83-39.08-35.82-112.35-54.54-140,5.7-3.26,5.7-9.77,8.14-14.66,2.44-9-11.4-9-25.23-4.07-38.26,15.47-38.26,62.69-51.29,99.53-38.93A91.08,91.08,0,0,1,1776.92,62Z"/></g></g></g></g></svg>