<svg xmlns="http://www.w3.org/2000/svg" viewBox="0 0 389 395"><defs><style>.cls-1{fill:#fff;}</style></defs><title>Header Logo Cooperate White Mini</title><g id="Layer_2" data-name="Layer 2"><g id="Title_Logo" data-name="Title Logo"><g id="White"><path class="cls-1" d="M80.42,81.23A30.09,30.09,0,0,1,103.4,71H248V0H103.46A98.23,98.23,0,0,0,62.84,8.46,105.14,105.14,0,0,0,30,31.43,107.63,107.63,0,0,0,8,65a105.1,105.1,0,0,0-8,40.86V294a100.31,100.31,0,0,0,29.24,71.31A103.28,103.28,0,0,0,61.39,387,98.43,98.43,0,0,0,101,395H248V324H101a29.67,29.67,0,0,1-30-29.94V105.57A34.71,34.71,0,0,1,80.42,81.23Z"/><polygon class="cls-1" points="318 0 318 140 186 140 145 140 71 140 71 211 145 211 186 211 318 211 318 395 389 395 389 0 318 0"/></g></g></g></svg>