<svg xmlns="http://www.w3.org/2000/svg" xmlns:xlink="http://www.w3.org/1999/xlink" viewBox="0 0 2000.45 2477.83"><defs><clipPath id="clip-path"><path d="M1163.3,1877.81c2.29,314.18-254.69,568.88-568.88,568.88S25.55,2192,25.55,1877.81s254.7-567.13,568.87-568.87C908,1307.19,1161,1556.88,1163.3,1877.81Z" style="fill:none"/></clipPath><radialGradient id="Super_Soft_Black_Vignette" cx="578.96" cy="1090.23" r="244.85" gradientUnits="userSpaceOnUse"><stop offset="0.57" stop-color="#130c0e"/><stop offset="0.8" stop-color="#130c0e"/><stop offset="1" stop-color="#130c0e"/></radialGradient><radialGradient id="Super_Soft_Black_Vignette-2" cx="243.79" cy="871.93" r="195.56" xlink:href="#Super_Soft_Black_Vignette"/><radialGradient id="Super_Soft_Black_Vignette-3" cx="180.18" cy="783.3" r="38.28" xlink:href="#Super_Soft_Black_Vignette"/><radialGradient id="Super_Soft_Black_Vignette-4" cx="285.85" cy="933.65" r="69.59" xlink:href="#Super_Soft_Black_Vignette"/><radialGradient id="Super_Soft_Black_Vignette-5" cx="801.04" cy="1138.84" r="205.37" xlink:href="#Super_Soft_Black_Vignette"/><radialGradient id="Super_Soft_Black_Vignette-6" cx="803.95" cy="1140.53" r="62.34" xlink:href="#Super_Soft_Black_Vignette"/><radialGradient id="Super_Soft_Black_Vignette-7" cx="377.51" cy="1129.17" r="118.12" xlink:href="#Super_Soft_Black_Vignette"/><radialGradient id="Super_Soft_Black_Vignette-8" cx="779.18" cy="1145.21" r="106.78" xlink:href="#Super_Soft_Black_Vignette"/><radialGradient id="Super_Soft_Black_Vignette-9" cx="424.73" cy="1152.37" r="62.07" xlink:href="#Super_Soft_Black_Vignette"/><radialGradient id="Super_Soft_Black_Vignette-10" cx="738.5" cy="1152.37" r="62.07" xlink:href="#Super_Soft_Black_Vignette"/><radialGradient id="Super_Soft_Black_Vignette-11" cx="575.34" cy="1146.73" r="109.66" xlink:href="#Super_Soft_Black_Vignette"/><radialGradient id="Super_Soft_Black_Vignette-12" cx="636.78" cy="1146.73" r="34.28" xlink:href="#Super_Soft_Black_Vignette"/><radialGradient id="Super_Soft_Black_Vignette-13" cx="541.83" cy="1146.73" r="63.01" xlink:href="#Super_Soft_Black_Vignette"/><radialGradient id="Super_Soft_Black_Vignette-14" cx="899.53" cy="725.19" r="78.75" xlink:href="#Super_Soft_Black_Vignette"/><radialGradient id="Super_Soft_Black_Vignette-15" cx="305.07" cy="647.62" r="78.75" xlink:href="#Super_Soft_Black_Vignette"/><radialGradient id="Super_Soft_Black_Vignette-16" cx="602.33" cy="686.41" r="295.18" xlink:href="#Super_Soft_Black_Vignette"/><radialGradient id="Super_Soft_Black_Vignette-17" cx="600.58" cy="711.24" r="256.93" xlink:href="#Super_Soft_Black_Vignette"/><radialGradient id="Super_Soft_Black_Vignette-18" cx="624.14" cy="538.06" r="198.23" xlink:href="#Super_Soft_Black_Vignette"/><radialGradient id="Super_Soft_Black_Vignette-19" cx="589.06" cy="1423.93" r="279.89" xlink:href="#Super_Soft_Black_Vignette"/><radialGradient id="Super_Soft_Black_Vignette-20" cx="825.07" cy="1473.15" r="39.98" xlink:href="#Super_Soft_Black_Vignette"/><radialGradient id="Super_Soft_Black_Vignette-21" cx="353.92" cy="1473.15" r="39.98" xlink:href="#Super_Soft_Black_Vignette"/><radialGradient id="Super_Soft_Black_Vignette-22" cx="813.5" cy="1371.66" r="82.94" xlink:href="#Super_Soft_Black_Vignette"/><radialGradient id="Super_Soft_Black_Vignette-23" cx="367.34" cy="1371.66" r="82.94" xlink:href="#Super_Soft_Black_Vignette"/><radialGradient id="Super_Soft_Black_Vignette-24" cx="4488.01" cy="1503.22" r="284.42" gradientTransform="matrix(-1.72, 0, 0, 1.22, 9195.68, -1422.24)" xlink:href="#Super_Soft_Black_Vignette"/><radialGradient id="Super_Soft_Black_Vignette-25" cx="5265.06" cy="545.44" r="326.58" gradientTransform="matrix(-1, 0, 0, 1, 6782.66, 0)" xlink:href="#Super_Soft_Black_Vignette"/></defs><g id="Layer_3" data-name="Layer 3"><g style="clip-path:url(#clip-path)"><circle cx="599.32" cy="1879.41" r="568.88" style="fill:#f32f01"/><rect x="-96.46" y="1485.66" width="606.26" height="117.64" rx="58.82" style="fill:#d12200"/><rect x="-173.25" y="1602.94" width="606.26" height="117.64" rx="58.82" style="fill:#d12200"/><rect x="-46.08" y="1720.21" width="606.26" height="117.64" rx="58.82" style="fill:#d12200"/><rect x="-70.18" y="1834.39" width="606.26" height="117.64" rx="58.82" style="fill:#d12200"/><rect x="-22.4" y="1947.63" width="606.26" height="117.64" rx="58.82" style="fill:#d12200"/><rect x="-86.35" y="2059" width="606.26" height="117.64" rx="58.82" style="fill:#d12200"/><rect x="-119.54" y="2167.48" width="606.26" height="117.64" rx="58.82" style="fill:#d12200"/><rect x="-138.89" y="1371.49" width="606.26" height="117.64" rx="58.82" style="fill:#d12200"/><rect x="-53.92" y="2285.48" width="606.26" height="117.64" rx="58.82" style="fill:#d12200"/><rect x="297.28" y="1485.83" width="606.26" height="117.64" rx="58.82" style="fill:#f32f01"/><rect x="216.78" y="1720.21" width="606.26" height="117.64" rx="58.82" style="fill:#f32f01"/><rect x="324.35" y="2176.84" width="606.26" height="117.64" rx="58.82" style="fill:#f32f01"/><rect x="336.88" y="1948.03" width="606.26" height="117.64" rx="58.82" style="fill:#f32f01"/><path d="M479.53,2518.49H-21a52.84,52.84,0,0,1-52.84-52.84v-12c0-29.18,23.66-52.84-76.4,59.11H350.29c158.42-112,182.07-88.29,182.07-59.11v12A52.83,52.83,0,0,1,479.53,2518.49Z" style="fill:#d12200"/><rect x="438.89" y="2404.57" width="606.26" height="117.64" rx="58.82" style="fill:#f32f01"/><rect x="791.75" y="1842.92" width="606.26" height="117.64" rx="58.82" style="fill:#e32e01"/><rect x="743.32" y="1729.29" width="606.26" height="117.64" rx="58.82" style="fill:#e32e01"/><rect x="679.33" y="1609.96" width="606.26" height="117.64" rx="58.82" style="fill:#e32e01"/><rect x="768.53" y="1492.36" width="606.26" height="117.64" rx="58.82" style="fill:#e32e01"/><rect x="686.25" y="1379.94" width="606.26" height="117.64" rx="58.82" style="fill:#e32e01"/><rect x="715.65" y="1959.31" width="606.26" height="117.64" rx="58.82" style="fill:#e32e01"/><rect x="862.65" y="2063.08" width="606.26" height="117.64" rx="58.82" style="fill:#e32e01"/><rect x="727.22" y="2180.68" width="606.26" height="117.64" rx="58.82" style="fill:#e32e01"/><rect x="513.14" y="1381.28" width="331.27" height="117.64" rx="58.82" style="fill:#f32f01"/><rect x="660.31" y="1260.61" width="606.26" height="117.64" rx="58.82" style="fill:#e32e01"/><rect x="552.22" y="1609.96" width="331.27" height="117.64" rx="58.82" style="fill:#f32f01"/><rect x="559.14" y="1844.91" width="331.27" height="117.64" rx="58.82" style="fill:#f32f01"/><rect x="614.48" y="2076.95" width="331.27" height="101.15" rx="50.58" style="fill:#f32f01"/><rect x="772.72" y="2300.01" width="606.26" height="117.64" rx="58.82" style="fill:#e32e01"/><rect x="626.58" y="2298.32" width="331.27" height="109.36" rx="54.68" style="fill:#f32f01"/></g></g><g id="Layer_1" data-name="Layer 1"><rect x="345.55" y="871.55" width="466.81" height="437.37" rx="155.54" transform="translate(1157.92 2180.47) rotate(-180)" style="fill:#fff"/><path d="M812.35,960.81v258.86c0,49.08-41.52,89.26-92.29,89.26H437.84c-50.75,0-92.29-40.18-92.29-89.26V960.81a85.9,85.9,0,0,1,9.58-39.47,90.13,90.13,0,0,1,17.69-23.73,93.58,93.58,0,0,1,60.35-25.93c1.56-.08,3.12-.12,4.67-.12H720.1c37.15,0,69.32,21.52,83.92,52.28a87.53,87.53,0,0,1,4.23,10.68A85.83,85.83,0,0,1,812.35,960.81Z" style="fill:#fff"/><path d="M721.6,871.55c49.92,0,90.76,40.84,90.76,90.76v255.85c0,49.92-40.84,90.76-90.76,90.76H436.31c-49.91,0-90.76-40.84-90.76-90.76V962.31c0-49.92,40.85-90.76,90.76-90.76H721.6m0-18.69H436.31A109.58,109.58,0,0,0,326.86,962.31v255.85a109.58,109.58,0,0,0,109.45,109.45H721.6a109.58,109.58,0,0,0,109.46-109.45V962.31A109.58,109.58,0,0,0,721.6,852.86Z" style="fill:url(#Super_Soft_Black_Vignette)"/><g style="opacity:0.30000000000000004"><path d="M802.27,974l-1.21.62c0-.57,0-1.15,0-1.72a18.78,18.78,0,0,1,.29-2.36c0-.2.08-.4.13-.6a2,2,0,0,1,0-.24c.06-.24.12-.47.19-.69s.1-.39.17-.59a2.45,2.45,0,0,1,.08-.29c.08-.21.15-.43.23-.63l.29-.75c-.06.27-.11.54-.16.81-.1.57-.18,1.16-.23,1.74A19.5,19.5,0,0,0,802.27,974Z" style="fill:#6b184e"/></g><path d="M450.89,887.67l-7.63,20-6.48,17-5.63,14.8L398,1026.63c-5.37,1.5-10.87,2.85-16.52,4-70.89,14.57-164.54-.83-292.33-144.14-20-22.4-68.23-36-47.2-86.93,21.51-52.12,51.77-45.62,51.77-45.62s-7.93-25.83,9.17-38.9c24.13-18.48,52.74,8.89,80.52,28.4,4,2.78,2.19-34.65,28.29-33.53C249,711.5,247,796.74,247,796.74s50.38,55.31,128.58,79.67a244.5,244.5,0,0,0,64.55,11.14C443.67,887.67,447.28,887.72,450.89,887.67Z" style="fill:#fbbe00"/><g style="opacity:0.35000000000000003"><path d="M398,1026.63h0c-72.7,20.19-170.87,14.57-308.85-140.15-20-22.41-68.23-36-47.2-86.93,12.91-31.31,29-41.45,39.76-44.58C78,760.51,75.4,767.76,71,775.47c-24.6,43.34,42.76,85.4,61.33,77.71,11.4-4.72,15.4-9.29,22-31.06,7-23.15,17.87-34.16,19.16-32.73,5.83,6.54,6,87.2,19.36,115.56C227,977.28,319,1012.84,385.76,1009.74A12.46,12.46,0,0,1,398,1026.63Z" style="fill:#371a45"/></g><path d="M339.65,1044.26c-63.55,0-148.68-29.75-257.4-151.66-4.41-4.93-10.78-9.68-17.52-14.71-21-15.66-49.79-37.11-31.33-81.86,15.59-37.76,36.3-48.2,49.46-50.76-.89-10.84.58-27,14.4-37.56,26.11-20,54.43,1,79.42,19.48l2.34,1.73c3.52-11.6,11.61-29.2,33-28.22,41.28,1.78,44.16,73.06,44.18,92.37,14.42,14.51,91.47,86.8,194.54,85.4h.12a9.19,9.19,0,0,1,.11,18.38c-122.42,1.54-207.24-90-210.79-93.92a9.21,9.21,0,0,1-2.4-6.4c.56-24.87-5.2-76.54-26.55-77.46-9.14-.38-12.72,6.91-16.1,20.53-1.4,5.66-2.62,10.55-8,12.56a9.86,9.86,0,0,1-9.09-1.21c-4.1-2.88-8.23-5.93-12.35-9-26.25-19.43-43.21-30.45-57.31-19.66-11.74,9-6,28.77-6,29a9.21,9.21,0,0,1-10.74,11.64c-.75-.11-23.39-3.36-41.33,40.13-13,31.53,4.75,44.77,25.32,60.1C82.9,868.5,90.32,874,96,880.37c141.35,158.49,238.64,154.32,299.53,137.4a9.19,9.19,0,1,1,4.92,17.71A224.25,224.25,0,0,1,339.65,1044.26Z" style="fill:url(#Super_Soft_Black_Vignette-2)"/><path d="M194.58,741.41l-2.06,29.18a9.77,9.77,0,0,1-1.67,4.81l-.25.37h0a25.26,25.26,0,0,0-1.92,2.39c-.68.94-1.34,1.9-2,2.91a55.06,55.06,0,0,0-3.37,6.24,44.72,44.72,0,0,0-4.13,20.5,41.9,41.9,0,0,0,1.16,7c1,4.69,3.34,9.06,5.86,13.39l.24.41a4.58,4.58,0,0,1-7.54,5.17c-3.68-4.59-7.28-9.52-9.45-15.32a53,53,0,0,1-2.78-8.86,59,59,0,0,1-1-9.3,60.62,60.62,0,0,1,2.49-18.43,73.27,73.27,0,0,1,3.2-8.71q.93-2.14,2-4.23a43.75,43.75,0,0,1,2.6-4.4h0l-1.92,5.18,2.12-30a9.19,9.19,0,0,1,18.33,1.3Z" style="fill:url(#Super_Soft_Black_Vignette-3)"/><path d="M256.21,1024.87a7.3,7.3,0,0,1-5-12.56c49.41-47.41,57-161.89,57-163a7.29,7.29,0,0,1,14.56.89c-.3,4.93-8,121.3-61.5,172.68A7.24,7.24,0,0,1,256.21,1024.87Z" style="fill:url(#Super_Soft_Black_Vignette-4)"/><path d="M894.36,1264.52c-3.93,86.87-30.49,122.12-63.29,133.24a64.17,64.17,0,0,1-21.92,3.43,93.68,93.68,0,0,1-40-10.6s-8.55,3.59-16.39,2.83c-60.64-5.88-46.81-41.87-34.49-99.53,3.54-16.59,7-35,8.43-54.94,7-94.34-19.37-183.52-19.37-183.52l10.16-84.64,11.3-94.33s5.93,5.37,15.56,15.6c8.43,8.94,19.69,21.55,32.26,37.53C827.86,994.62,901.16,1114.85,894.36,1264.52Z" style="fill:#fbbe00"/><path d="M810.76,1410.41c-.65,0-1.29,0-1.93,0a105.3,105.3,0,0,1-40.42-9.82,44.83,44.83,0,0,1-16.59,2c-22.87-2.21-37.4-8.59-45.73-20.07-13-18-7.27-43.7,0-76.3,4.47-20,9.52-42.69,11.4-67.93,6.8-91.45-18.75-179.36-19-180.23a9.19,9.19,0,0,1,17.63-5.21c1.1,3.7,26.77,91.9,19.71,186.8-2,26.58-7.19,50-11.78,70.57-6.26,28.08-11.21,50.26-3,61.51,4.93,6.8,15.6,10.92,32.62,12.57,4.46.43,10.16-1.42,12-2.17l4.19-1.71,3.94,2.26a85.53,85.53,0,0,0,35.74,9.35,54.61,54.61,0,0,0,18.65-2.94c34.65-11.76,53.85-53.8,57.08-125,5.22-115.35-39.13-212.6-77.25-273.88-41.54-66.76-84.94-106.58-85.38-107a9.19,9.19,0,0,1,12.36-13.6c1.84,1.66,45.43,41.59,88.32,110.37,39.64,63.58,85.76,164.63,80.31,284.92-3.65,80.6-26.4,126.89-69.53,141.53A75,75,0,0,1,810.76,1410.41Z" style="fill:url(#Super_Soft_Black_Vignette-5)"/><path d="M724.91,1158.39a7.29,7.29,0,0,1-2.49-14.15c5-1.82,122.68-43.88,165.45-5.42a7.29,7.29,0,0,1-9.75,10.85c-30.12-27.09-119-3.21-150.72,8.28A7.27,7.27,0,0,1,724.91,1158.39Z" style="fill:url(#Super_Soft_Black_Vignette-6)"/><path d="M791.59,1293.89H364c-1.12-34.67-.85-68.06.46-100,1.22-29.56,3.36-57.85,6.16-84.71,2.55-24.57,5.68-47.94,9.17-70,.46-2.92,1-5.77,1.61-8.55,8.66-39.18,31.94-66.32,47.94-92.57,2.71-4.46,5.21-8.87,7.4-13.33a93.82,93.82,0,0,0,6.13-15.62,14,14,0,0,0,.35-1.38c1.1-5.72-.51-12.78-3.13-20.16-5.74-16.2-16.31-34-13.35-42.81,4.92-14.5,9.19-25.9,12.36-33.94,3.61-9.19,5.77-14,5.77-14H710.73s2.2,4.73,5.9,13.85c3.84,9.45,9.26,23.58,15.47,42.13,3.84,11.44,8,24.56,12.2,39.27,3.1,10.75,6.27,22.36,9.42,34.77q2.25,8.85,4.44,18.24c6.94,29.28,13.58,62.47,19.14,99.28,3.15,20.64,5.93,42.38,8.2,65.22,2.74,27,4.76,55.45,5.89,85.28C792.58,1226.35,792.74,1259.45,791.59,1293.89Z" style="fill:#fbbe00"/><path d="M399.43,965a205.51,205.51,0,0,1-.39,21.13c-.28,7-1,13.8-1.64,20.65s-1.64,13.61-2.57,20.39-2.46,13.45-3.66,20.2l-1.82,10.11c-.55,3.38-1,6.78-1.48,10.18q-1.41,10.18-2.56,20.41t-2.24,20.47q-1.08,10.23-1.94,20.51c-2.5,27.37-3.23,54.9-4.23,82.4-.62,13.75-1.22,27.51-2.24,41.26-.77,13.77-1.57,27.51-9.19,41.19a1.6,1.6,0,0,1-2.17.62,1.58,1.58,0,0,1-.65-.68c-7.07-14-7.24-27.85-7.18-41.71-.16-13.87.21-27.74.87-41.61,1.49-27.72,4.16-55.38,6.48-83.08q.87-10.38,2-20.76t2.27-20.75c.77-6.92,1.65-13.83,2.6-20.73l2.62-20.74c.77-6.94,1.78-13.85,3.07-20.72s3.11-13.63,5.06-20.36a184.54,184.54,0,0,1,16.3-39.08,1.46,1.46,0,0,1,2.73.64Z" style="fill:url(#Super_Soft_Black_Vignette-7)"/><path d="M790.18,1293.93c-7.58-12.35-8.32-24.79-9-37.22-.9-12.43-1.38-24.84-1.86-37.24-.75-24.79-1.36-49.55-4-74.16-1.22-12.3-2.73-24.58-4.43-36.83s-3.43-24.52-6.07-36.64c-1.22-6.07-2.55-12.13-3.59-18.23s-1.7-12.3-2.31-18.5-.87-12.49-1.07-18.8a148.13,148.13,0,0,1,.57-19.23v0a1.47,1.47,0,0,1,2.75-.57A178.37,178.37,0,0,1,776,1031.74a201.31,201.31,0,0,1,7.74,36.87c1.61,12.48,3.74,24.87,5.42,37.35s3.27,25,4.51,37.49c2.46,25,5,50.12,6.27,75.2.51,12.54.76,25.07.49,37.59-.07,12.51-.3,25-7.42,37.63a1.63,1.63,0,0,1-2.23.62A1.67,1.67,0,0,1,790.18,1293.93Z" style="fill:url(#Super_Soft_Black_Vignette-8)"/><g style="opacity:0.35000000000000003"><path d="M791.39,1215c-26.23,2.56-59,3.49-84.38-3.17v14.1a35.63,35.63,0,0,1-35.52,35.5H477.69a35.61,35.61,0,0,1-35.48-35.5v-11.27c-25.33,3.85-54.81,2.18-77.7-.41,1.2-23.54,3.35-46.09,6.16-67.49,21,.88,48.12,1.27,71.54-.76v-25.29a35.56,35.56,0,0,1,35.48-35.48h193.8a35.52,35.52,0,0,1,28.26,14.06,35.14,35.14,0,0,1,7.26,21.42v23.7c23.59,3.43,54.09,3.43,78.5,2.63C788.24,1168.52,790.27,1191.21,791.39,1215Z" style="fill:#371a45"/></g><path d="M479.71,1177.82c-26.65,10.79-67.89,8.53-96,5.13a30.19,30.19,0,0,1-26.21-34.4h0a30.19,30.19,0,0,1,31.25-25.76c26.29,1.23,65.74,1.81,90.72-3.73" style="fill:#fff"/><g style="opacity:0.35000000000000003"><path d="M479.71,1177.82c-26.65,10.8-67.89,8.52-96,5.14a30.18,30.18,0,0,1-26.21-34.4,29.77,29.77,0,0,1,3.1-9.58,30.15,30.15,0,0,0,23.11,16c28.06,3.4,69.23,5.66,95.88-5.08Z" style="fill:#371a45"/></g><path d="M426.69,1195a374.2,374.2,0,0,1-44.09-2.87,39.4,39.4,0,0,1,6.57-78.47c38.55,1.81,69.91.56,88.3-3.53,3.34-.74,14.77-1.63,20.93,18.16,5.78,18.6,4.94,49.94-15.24,58.11h0C467.24,1192.79,446.87,1195,426.69,1195Zm53-17.13h0ZM387.3,1132a21,21,0,0,0-2.49,41.88c39.85,4.82,72.33,3.21,91.45-4.53,4.06-1.64,5.68-8.45,6.19-11.3,2.07-11.56-.95-24.87-3.67-29.41-25.55,5.08-63.06,4.67-90.47,3.38Z" style="fill:url(#Super_Soft_Black_Vignette-9)"/><path d="M683.53,1177.82c26.64,10.79,67.88,8.53,96,5.13a30.18,30.18,0,0,0,26.21-34.4h0a30.19,30.19,0,0,0-31.24-25.76c-26.3,1.23-65.75,1.81-90.73-3.73" style="fill:#fff"/><g style="opacity:0.35000000000000003"><path d="M779.52,1183c-28.11,3.38-69.35,5.66-96-5.14l.12-28.21c26.66,10.74,67.83,8.48,95.89,5.08a30,30,0,0,0,23-15.86,30.21,30.21,0,0,1-23,44.13Z" style="fill:#371a45"/></g><path d="M736.54,1195c-20.19,0-40.55-2.16-56.46-8.6h0c-20.18-8.17-21-39.51-15.24-58.11,6.15-19.79,17.57-18.9,20.92-18.16,18.39,4.08,49.74,5.34,88.31,3.53a39.4,39.4,0,0,1,6.56,78.47A374.2,374.2,0,0,1,736.54,1195ZM687,1169.3c19.12,7.74,51.6,9.35,91.45,4.53a21,21,0,0,0-3.49-41.86c-27.42,1.29-64.93,1.7-90.47-3.38-2.73,4.54-5.75,17.85-3.68,29.41.51,2.85,2.13,9.66,6.19,11.3Z" style="fill:url(#Super_Soft_Black_Vignette-10)"/><path d="M693.82,1099.64v94.17a31.87,31.87,0,0,1-31.77,31.78H488.61a31.87,31.87,0,0,1-31.75-31.78v-94.17a31.85,31.85,0,0,1,31.75-31.75H662.05a31.83,31.83,0,0,1,31.77,31.75Z" style="fill:#fff"/><g style="opacity:0.35000000000000003"><path d="M693.82,1099.64v94.17a31.85,31.85,0,0,1-31.76,31.77H488.62a31.86,31.86,0,0,1-31.77-31.76v-35.23c26,26.56,77.28,43.23,124.26,43.48,15.1.08,27.27-11.86,28.35-26.92,0-.15,0-.3,0-.45a27.39,27.39,0,0,1,54.53-.36c22.74-28.08,16.08-76.87,23.31-93.86A31.46,31.46,0,0,1,693.82,1099.64Z" style="fill:#371a45"/></g><path d="M662.06,1234.77H488.62a41,41,0,0,1-40.95-41v-94.18a41,41,0,0,1,40.95-41H662.06a41,41,0,0,1,41,41v94.18A41,41,0,0,1,662.06,1234.77Zm-173.44-157.7a22.6,22.6,0,0,0-22.57,22.57v94.18a22.6,22.6,0,0,0,22.57,22.57H662.06a22.6,22.6,0,0,0,22.57-22.57v-94.18a22.6,22.6,0,0,0-22.57-22.57Z" style="fill:url(#Super_Soft_Black_Vignette-11)"/><circle cx="636.78" cy="1146.73" r="27.39" transform="translate(-624.35 786.14) rotate(-45)" style="fill:#22a7f0"/><g style="opacity:0.7000000000000001"><path d="M664.17,1146.73a28.18,28.18,0,0,1-.53,5.47,27.41,27.41,0,0,0-53.72,0,28.18,28.18,0,0,1-.53-5.47,27.39,27.39,0,0,1,54.78,0Z" style="fill:#fff"/></g><g style="opacity:0.35000000000000003"><path d="M664.16,1146.73a27.38,27.38,0,0,1-54.76,0,26.84,26.84,0,0,1,1.87-9.92,27.36,27.36,0,0,0,51,0A26.65,26.65,0,0,1,664.16,1146.73Z" style="fill:#371a45"/></g><path d="M636.78,1181a34.28,34.28,0,1,1,34.28-34.28A34.32,34.32,0,0,1,636.78,1181Zm0-54.77a20.5,20.5,0,1,0,20.5,20.49A20.51,20.51,0,0,0,636.78,1126.24Z" style="fill:url(#Super_Soft_Black_Vignette-12)"/><path d="M559.17,1232.48a6.89,6.89,0,0,1-6.89-6.9v-50a27.55,27.55,0,0,0-10.94-21.91l-7.32-5.52a41.4,41.4,0,0,1-16.43-32.93v-47.31a6.9,6.9,0,0,1,13.79,0v47.31a27.57,27.57,0,0,0,10.93,21.92l7.33,5.51a41.44,41.44,0,0,1,16.42,32.93v50A6.89,6.89,0,0,1,559.17,1232.48Z" style="fill:url(#Super_Soft_Black_Vignette-13)"/><g style="opacity:0.35000000000000003"><path d="M785.53,938.64c-6.28,5.84-12.86,11.36-19.66,16.54a282.73,282.73,0,0,1-43.49,27.47,281.1,281.1,0,0,1-305.8-33.41c-.64-.49-1.28-1-1.89-1.57a281.69,281.69,0,0,1-57.47-65.84,260.76,260.76,0,0,0,68.95,11.91C420,876.43,408.75,857.41,411.91,848c5.25-15.49,9.82-27.66,13.21-36.26,3.85-9.81,6.16-14.94,6.16-14.94H715.21s2.35,5.05,6.31,14.8c4.1,10.09,9.89,25.18,16.52,45,4.1,12.22,8.51,26.24,13,41.95C760.08,908.1,772.11,921.58,785.53,938.64Z" style="fill:#371a45"/></g><path d="M863.32,813.53h0a5.81,5.81,0,0,1-4.94-6.56l23.33-165.72a5.82,5.82,0,0,1,6.56-5h0a61,61,0,0,1,51.86,68.86l-8,56.51A61,61,0,0,1,863.32,813.53Z" style="fill:#fbbe00"/><path d="M871.86,815.92a62.38,62.38,0,0,1-8.79-.62,7.6,7.6,0,0,1-6.47-8.58L879.94,641a7.6,7.6,0,0,1,8.58-6.47,62.77,62.77,0,0,1,53.39,70.88l-8,56.51A62.85,62.85,0,0,1,871.86,815.92ZM887.46,638a4,4,0,0,0-4,3.46L860.15,807.22a4,4,0,0,0,.77,3,4,4,0,0,0,2.65,1.57,59.22,59.22,0,0,0,66.83-50.34l8-56.51A59.23,59.23,0,0,0,888,638.08,3.73,3.73,0,0,0,887.46,638Z" style="fill:#fbbe00"/><g style="opacity:0.35000000000000003"><path d="M935.91,735.17l-3.73,26.51a61,61,0,0,1-68.87,51.86,5.83,5.83,0,0,1-4.94-6.58l6.19-44.05a5.84,5.84,0,0,0,4.76,4.15l3.93.54A60.89,60.89,0,0,0,935.91,735.17Z" style="fill:#371a45"/></g><path d="M871.87,824.1a71.32,71.32,0,0,1-9.94-.7,15.78,15.78,0,0,1-13.42-17.83l23.33-165.71a15.77,15.77,0,0,1,17.82-13.43A70.92,70.92,0,0,1,950,706.55l-8,56.51A71,71,0,0,1,871.87,824.1Zm-3-20a51,51,0,0,0,53.46-43.79l8-56.51A51.05,51.05,0,0,0,891,646.92Z" style="fill:url(#Super_Soft_Black_Vignette-14)"/><path d="M341.28,559.28h0a5.81,5.81,0,0,1,4.94,6.56L322.88,731.56a5.81,5.81,0,0,1-6.56,5h0a61,61,0,0,1-51.86-68.86l8-56.51A61,61,0,0,1,341.28,559.28Z" style="fill:#fbbe00"/><path d="M317.14,738.35a7.69,7.69,0,0,1-1.07-.07,62.75,62.75,0,0,1-53.38-70.88l8-56.51a62.73,62.73,0,0,1,70.87-53.38h0a7.58,7.58,0,0,1,6.47,8.58L324.66,731.81A7.62,7.62,0,0,1,317.14,738.35Zm15.51-177.89a59.19,59.19,0,0,0-58.46,50.93l-7.95,56.51a59.15,59.15,0,0,0,50.33,66.83,4,4,0,0,0,4.54-3.42l23.34-165.72a4,4,0,0,0-3.42-4.54h0A60.76,60.76,0,0,0,332.65,560.46Z" style="fill:#fbbe00"/><g style="opacity:0.35000000000000003"><path d="M329.37,685.59l-6.48,46a5.82,5.82,0,0,1-6.57,5,60.92,60.92,0,0,1-51.85-68.85l3.35-23.81a61,61,0,0,0,50,43.19l6.05.85A5.86,5.86,0,0,0,329.37,685.59Z" style="fill:#371a45"/></g><path d="M317.14,746.53a16.52,16.52,0,0,1-2.21-.15,70.94,70.94,0,0,1-60.34-80.12l8-56.51a70.92,70.92,0,0,1,80.12-60.34h0a15.77,15.77,0,0,1,13.43,17.82L332.75,733A15.8,15.8,0,0,1,317.14,746.53Zm15.53-177.89a51,51,0,0,0-50.38,43.89l-8,56.51a51,51,0,0,0,39.29,56.85l22.13-157.16C334.72,568.67,333.69,568.64,332.67,568.64Zm7.22.51Z" style="fill:url(#Super_Soft_Black_Vignette-15)"/><circle cx="602.33" cy="686.41" r="285.18" style="fill:#fbbe00"/><path d="M602.39,973.42A287.55,287.55,0,0,1,542.26,967c-154.73-33.13-253.67-186-220.55-340.69s186-253.68,340.69-220.55S916.07,591.75,883,746.48h0C854.14,881.05,734.79,973.42,602.39,973.42ZM602.27,403c-130.76,0-248.6,91.21-277,224.11-32.71,152.8,65,303.73,217.79,336.44s303.73-65,336.44-217.8-65-303.73-217.8-336.44A283.6,283.6,0,0,0,602.27,403Z" style="fill:#fbbe00"/><g style="opacity:0.35000000000000003"><path d="M886.79,706.93a281.93,281.93,0,0,1-5.59,39.18c-33,154-184.56,252.13-338.57,219.17S290.5,780.72,323.45,626.71c.95-4.43,2-8.84,3.15-13.16C316.34,753.33,410.45,882.78,551.36,913,700.94,945,848.2,853.32,886.79,706.93Z" style="fill:#371a45"/></g><path d="M602.4,981.59A295.19,295.19,0,0,1,540.55,975C381.41,941,279.65,783.77,313.72,624.63S505,363.73,664.11,397.8,925,589.05,890.94,748.19h0C861.32,886.59,738.57,981.59,602.4,981.59Zm-.13-570.43c-127,0-241.43,88.58-269.06,217.64-31.76,148.39,63.12,295,211.51,326.73s295-63.12,326.73-211.51-63.12-295-211.51-326.73A275.26,275.26,0,0,0,602.27,411.16ZM881.2,746.1h0Z" style="fill:url(#Super_Soft_Black_Vignette-16)"/><path d="M878.77,753.08c-10.85,54.74-38.7,102-77.43,138.06-29,27-133.63,63.6-249.49,41.7C444.42,912.54,358.2,836,341.66,800c-22.05-48.07-29.74-102.42-18.88-157.16C351.51,498,487.87,462.58,641.41,493S907.5,608.22,878.77,753.08Z" style="fill:url(#Super_Soft_Black_Vignette-17)"/><g style="opacity:0.5"><ellipse cx="792.33" cy="715.48" rx="50.47" ry="36.57" transform="translate(-163.66 1190.65) rotate(-68.51)" style="fill:#fff"/></g><g style="opacity:0.5"><ellipse cx="728.93" cy="804.83" rx="23.16" ry="19.88" transform="translate(-330.2 1044.25) rotate(-60.57)" style="fill:#fff"/></g><g style="opacity:0.35000000000000003"><path d="M851.51,607.21c27.55,39.17,38.79,87.68,27.26,145.86-10.86,54.75-38.71,102-77.42,138.07-29,27-133.65,63.59-249.51,41.71-40.91-7.72-78.73-23.6-110.81-42.32,143,23.87,270.51-21.22,306.51-54.72C796.7,790.1,832,730.06,845.81,660.59A289.1,289.1,0,0,0,851.51,607.21Z" style="fill:#231f20"/></g><path d="M880.06,630.16a8.85,8.85,0,0,1-6.82-3.19l-.77-.9-.52-1.16C838.14,550,755,494.35,643.9,472.3,532.17,450.15,434,471.08,374.48,529.72l-.68.61a8.86,8.86,0,0,1-11.59-13.4c63.76-62.7,167.67-85.31,285.14-62C764,478.05,851.6,537.17,887.91,617.19a8.86,8.86,0,0,1-7.85,13Z" style="fill:url(#Super_Soft_Black_Vignette-18)"/><g style="opacity:0.5"><path d="M368.12,741.37S351.6,589.57,439.9,547.9,639,528.43,635,535c0,0-128.56,5.37-195.78,92.83C387.35,695.29,368.12,741.37,368.12,741.37Z" style="fill:#fff"/></g><circle cx="809.76" cy="1610.88" r="7.05" style="fill:#371a45"/><g style="opacity:0.30000000000000004"><path d="M654.3,1287.71s98.12-34.22,179.3,48.28c74.6,75.82-12.6,150.62-12.6,150.62s26.87,103.32-42.9,116.57c-59.21,11.25-112.71-46-105.87-116.79,5.62-58.22,18.41-52.79,13.7-84.73-5.34-36.15-82.41-44.29-82.41-44.29h-29s-77.06,8.14-82.4,44.29c-4.71,31.94,8.08,26.51,13.7,84.73,6.84,70.81-46.67,128-105.88,116.79-69.76-13.25-42.89-116.57-42.89-116.57s-87.2-74.8-12.6-150.62c81.18-82.5,179.3-48.28,179.3-48.28Z" style="fill:#371a45"/></g><path d="M668.12,1257.81s118.89-69.3,217.25,30.67c90.4,91.86-15.26,182.5-15.26,182.5s32.56,125.19-52,141.25c-71.74,13.62-136.58-55.72-128.29-141.51,6.82-70.55,22.31-64,16.6-102.67-6.46-43.81-99.85-53.68-99.85-53.68H571.47s-93.39,9.87-99.85,53.68c-5.71,38.69,9.78,32.12,16.6,102.67,8.28,85.79-56.55,155.13-128.29,141.51C275.39,1596.17,308,1471,308,1471s-105.66-90.64-15.27-182.5c98.37-100,217.26-30.67,217.26-30.67" style="fill:#fbbe00"/><g style="opacity:0.35000000000000003"><path d="M863.78,1584.35c-8.72,13.08-23,23.59-45.64,27.88-71.75,13.63-136.59-55.73-128.3-141.51,6.82-70.55,22.3-64,16.6-102.66-6.46-43.81-99.86-53.68-99.86-53.68H571.46s-93.37,9.87-99.84,53.68c-5.72,38.67,9.79,32.11,16.6,102.66,8.29,85.78-56.55,155.14-128.3,141.51-22.66-4.29-36.92-14.8-45.63-27.88.62.12,1.25.25,1.87.35,85.46,14.75,162.67-58.43,152.81-151.36-8.14-76.39-26.59-69.27-19.77-111.19,7.69-47.44,118.91-58.12,118.91-58.12H610s111.22,10.68,118.91,58.12c6.79,41.92-11.66,34.8-19.77,111.19-9.86,92.93,67.36,166.11,152.81,151.36C862.53,1584.6,863.15,1584.47,863.78,1584.35Z" style="fill:#371a45"/></g><path d="M666.58,1255.17c15.86-10.91,33.52-18.29,52-23.35a175,175,0,0,1,57.51-6,173.73,173.73,0,0,1,29,4.4,175.86,175.86,0,0,1,27.87,9.36,192.31,192.31,0,0,1,48.84,32c14.37,12.78,27.36,28.11,36.69,45.83a121.41,121.41,0,0,1,10.32,28.37,108.39,108.39,0,0,1,2,30.26c-1.47,20.21-8.41,39.38-18.12,56.32a188.33,188.33,0,0,1-16.46,24.1c-3.05,3.78-6.18,7.48-9.51,11q-2.47,2.67-5.08,5.26c-1.78,1.76-3.42,3.35-5.54,5.21l2.91-9.29c1.68,6.87,2.81,13.2,3.82,19.84s1.69,13.19,2.13,19.85a186.26,186.26,0,0,1-1.39,40.38,128.45,128.45,0,0,1-4.83,20.21,97.15,97.15,0,0,1-9.06,19.35,78.12,78.12,0,0,1-14.35,16.6,76.46,76.46,0,0,1-18.8,11.41,92.51,92.51,0,0,1-20.67,5.57c-3.45.63-7,.8-10.46,1.11-3.51,0-7,.25-10.54,0a99.41,99.41,0,0,1-20.8-3.14,103.75,103.75,0,0,1-19.7-7.15c-25.32-12-45.25-33.11-57.79-57.39a153.44,153.44,0,0,1-16.32-79.19c.38-6.9,1.24-13.22,2-19.78l1.4-9.78,1.73-9.79c1.35-6.52,2.8-13.06,4.73-19.49s4.13-12.74,5.85-18.38a52.1,52.1,0,0,0,2.51-16.27,38.36,38.36,0,0,0-.16-4.25c-.09-1.44-.15-2.87-.37-4.36l-.55-4.44c-.28-1.18-.43-2.26-.76-3.38-2.62-8.8-11.07-16.58-21.2-22.24s-21.73-9.94-33.56-13.23a255.6,255.6,0,0,0-36.21-7.17l1,0H571.47l1,0a255.6,255.6,0,0,0-36.21,7.17c-11.83,3.29-23.42,7.47-33.56,13.23s-18.59,13.44-21.2,22.24c-.33,1.12-.48,2.2-.77,3.38l-.54,4.44c-.22,1.49-.28,2.92-.37,4.36a38.36,38.36,0,0,0-.16,4.25,51.52,51.52,0,0,0,2.51,16.27c1.72,5.64,4,12,5.85,18.38s3.38,13,4.73,19.49l1.73,9.79,1.4,9.78c.73,6.56,1.59,12.88,2,19.78a153.35,153.35,0,0,1-16.33,79.19c-12.53,24.28-32.46,45.35-57.78,57.39a103.59,103.59,0,0,1-19.71,7.15A99.32,99.32,0,0,1,383.2,1623c-3.51.29-7,.08-10.54,0-3.49-.31-7-.48-10.46-1.11a92.36,92.36,0,0,1-20.67-5.57,76.46,76.46,0,0,1-18.8-11.41,78.12,78.12,0,0,1-14.35-16.6,96.59,96.59,0,0,1-9.06-19.35,128.45,128.45,0,0,1-4.83-20.21,186.26,186.26,0,0,1-1.39-40.38q.66-10,2.13-19.85c1-6.64,2.14-13,3.82-19.84L302,1478c-2.12-1.86-3.76-3.45-5.54-5.21s-3.43-3.48-5.08-5.26c-3.33-3.55-6.46-7.25-9.51-11a188.4,188.4,0,0,1-16.47-24.1c-9.69-16.94-16.67-36.11-18.09-56.33a108.85,108.85,0,0,1,2.08-30.22,121.16,121.16,0,0,1,10.41-28.29c9.43-17.62,22.48-32.81,36.91-45.45,14.45-12.84,30.7-24,48.58-32a164.16,164.16,0,0,1,56.61-14.83,182.89,182.89,0,0,1,29.24.37,189.09,189.09,0,0,1,28.56,5.18,179,179,0,0,1,27.06,9.82,130.09,130.09,0,0,1,24.76,14.61,3.08,3.08,0,0,1-2.89,5.36l-.2-.07a318.36,318.36,0,0,0-52.29-13.33c-8.78-1.45-17.6-2.25-26.38-2.82-4.4-.06-8.79-.32-13.16-.13-2.19.07-4.38.06-6.57.17l-6.53.48a162.41,162.41,0,0,0-50.53,12.46,149.33,149.33,0,0,0-23.08,12.44,162.86,162.86,0,0,0-21,16.07c-13.41,11.72-24.76,25.19-32.85,40.23a103.47,103.47,0,0,0-8.74,23.69,90.46,90.46,0,0,0-1.7,25c1.16,16.81,7.06,33.39,15.72,48.51A170.77,170.77,0,0,0,296.17,1445c2.77,3.43,5.62,6.8,8.63,10,1.5,1.61,3,3.19,4.57,4.72s3.2,3.13,4.56,4.32l4.27,3.74-1.36,5.55c-1.37,5.58-2.52,11.88-3.42,17.91s-1.57,12.24-2,18.37a168.46,168.46,0,0,0,1.21,36.34,111.18,111.18,0,0,0,4.09,17.16,79.18,79.18,0,0,0,7.18,15.41,59.81,59.81,0,0,0,10.7,12.39,58.33,58.33,0,0,0,14,8.46A74.27,74.27,0,0,0,365,1603.7c2.86.55,5.77.65,8.65.93,2.9,0,5.8.22,8.69,0a80.91,80.91,0,0,0,17.14-2.59,85.16,85.16,0,0,0,16.38-6c21.16-10,38.42-28,49.34-49.22a135,135,0,0,0,14.31-69.68c-.31-5.92-1.16-12.31-1.86-18.49l-1.32-9.25-1.61-9.15c-1.26-6-2.58-12-4.34-17.87s-3.78-11.64-5.81-18.26a70.7,70.7,0,0,1-3.29-21.58c-.05-1.84.08-3.59.2-5.35s.2-3.53.45-5.21l.62-5.11c.39-1.94.76-4,1.35-6a48.8,48.8,0,0,1,12.35-20A79.9,79.9,0,0,1,493.54,1328c12.19-6.89,24.95-11.39,37.78-15a272.89,272.89,0,0,1,39.18-7.74l.42,0h36.22l.42,0a272.89,272.89,0,0,1,39.18,7.74c12.82,3.59,25.58,8.09,37.78,15a80.15,80.15,0,0,1,17.34,12.94,48.91,48.91,0,0,1,12.35,20c.59,1.95,1,4,1.34,6l.63,5.11c.25,1.68.34,3.45.45,5.21a52.31,52.31,0,0,1,.19,5.35,70.7,70.7,0,0,1-3.28,21.58c-2,6.62-4.13,12.34-5.81,18.26s-3.08,11.84-4.34,17.87l-1.61,9.15-1.33,9.25c-.69,6.18-1.54,12.57-1.85,18.49a134.91,134.91,0,0,0,14.31,69.68c10.92,21.18,28.18,39.19,49.34,49.22a85.32,85.32,0,0,0,16.37,6,81.09,81.09,0,0,0,17.15,2.59c2.89.26,5.79.05,8.69,0,2.88-.28,5.78-.38,8.65-.93a74.27,74.27,0,0,0,16.37-4.36,58.33,58.33,0,0,0,14-8.46,59.81,59.81,0,0,0,10.7-12.39,79.77,79.77,0,0,0,7.18-15.41,110,110,0,0,0,4.08-17.16,167.82,167.82,0,0,0,1.22-36.34c-.41-6.13-1.07-12.27-2-18.37s-2.06-12.33-3.42-17.91l-1.36-5.55,4.27-3.74c1.35-1.19,3.06-2.82,4.56-4.32s3.07-3.11,4.57-4.72c3-3.21,5.86-6.58,8.63-10a170.77,170.77,0,0,0,14.84-21.72c8.65-15.12,14.58-31.69,15.69-48.51a90.23,90.23,0,0,0-1.8-25,102.26,102.26,0,0,0-8.83-23.6c-8.18-15-19.63-28.24-33-39.91A178.18,178.18,0,0,0,825,1257.61a162.22,162.22,0,0,0-50.34-13.4,201,201,0,0,0-52.91,1.89,251.4,251.4,0,0,0-52.07,14.36l-.21.09a3.07,3.07,0,0,1-2.87-5.38Z" style="fill:url(#Super_Soft_Black_Vignette-19)"/><path d="M873.6,1479.53l-6.32,2c-2.34.66-4.69,1.26-7,1.72a84.74,84.74,0,0,1-14.16,1.61,112.91,112.91,0,0,1-27.39-2.68,159.22,159.22,0,0,1-25.41-8.27c-4.1-1.62-8-3.69-12-5.5-3.89-2-7.7-4.16-11.53-6.23,4.15,1.37,8.25,2.8,12.38,4.1,4.21,1.07,8.31,2.4,12.53,3.25a152.4,152.4,0,0,0,25.24,3.54,101.66,101.66,0,0,0,24.55-1.9,69.74,69.74,0,0,0,11.36-3.4c1.82-.69,3.57-1.5,5.31-2.34l5.69-3a9.24,9.24,0,1,1,8.62,16.35,9.68,9.68,0,0,1-1.46.62Z" style="fill:url(#Super_Soft_Black_Vignette-20)"/><path d="M312.16,1462.44l5.69,3c1.74.84,3.49,1.65,5.31,2.34a69.74,69.74,0,0,0,11.36,3.4,101.74,101.74,0,0,0,24.55,1.9,152.1,152.1,0,0,0,25.24-3.54c4.22-.85,8.33-2.18,12.54-3.25,4.12-1.3,8.22-2.73,12.37-4.1-3.82,2.07-7.64,4.21-11.52,6.23-4,1.81-7.89,3.88-12,5.5a159.22,159.22,0,0,1-25.41,8.27,112.83,112.83,0,0,1-27.38,2.68,84.62,84.62,0,0,1-14.16-1.61c-2.37-.46-4.72-1.06-7.05-1.72l-6.33-2-.32-.11a9.24,9.24,0,1,1,7.1-17Z" style="fill:url(#Super_Soft_Black_Vignette-21)"/><path d="M917.82,1404a7.29,7.29,0,0,1-1.45-.15,6.89,6.89,0,0,1-5.29-8.19c3.17-14.82.86-25.34-7.08-32.14-32.9-28.23-151.12,7.83-193.9,24.11a6.89,6.89,0,0,1-4.9-12.89c16.53-6.28,162.76-60.32,207.78-21.69,11.95,10.26,15.85,25.57,11.58,45.5A6.9,6.9,0,0,1,917.82,1404Z" style="fill:url(#Super_Soft_Black_Vignette-22)"/><path d="M263,1404a6.9,6.9,0,0,1-6.74-5.45c-4.27-19.93-.37-35.24,11.58-45.5,45-38.63,191.26,15.41,207.78,21.69a6.89,6.89,0,0,1-4.9,12.89c-42.78-16.27-161-52.33-193.9-24.11-7.94,6.81-10.25,17.32-7.07,32.14a6.91,6.91,0,0,1-5.3,8.19A7.21,7.21,0,0,1,263,1404Z" style="fill:url(#Super_Soft_Black_Vignette-23)"/><g style="opacity:0.5"><path d="M1490.52,146c230.69,0,420.53,124.11,444.54,283.47a228.21,228.21,0,0,0,2.62-33.88c0-175.44-200.2-317.66-447.16-317.66s-447.16,142.22-447.16,317.66a229,229,0,0,0,2.59,34C1069.86,270.23,1259.75,146,1490.52,146Z" style="fill:#fff"/></g><path d="M1074.5,756.19c-9.38-5.79-13.75-14.67-11.49-23.35L1097.37,601c-58.34-58.17-89.09-126.5-89.09-198.35C1008.28,213.7,1224.61,60,1490.52,60S1972.76,213.7,1972.76,402.6s-216.33,342.59-482.25,342.59c-67.53,0-132.68-9.71-193.89-28.86l-188,44.68a48,48,0,0,1-11.13,1.29A44.31,44.31,0,0,1,1074.5,756.19Zm239.2-89.12c55.49,18.76,115,28.27,176.81,28.27,227.22,0,412.09-131.32,412.09-292.74s-184.86-292.74-412.08-292.74S1078.44,241.19,1078.44,402.6c0,64.59,29.08,125.85,84.1,177.17,6,5.59,8.39,12.72,6.59,19.64l-26.29,100.91,144.65-34.39a48.3,48.3,0,0,1,11.13-1.28A47.25,47.25,0,0,1,1313.7,667.07Z" style="fill:url(#Super_Soft_Black_Vignette-24)"/><g style="opacity:0.35000000000000003"><path d="M1131.7,592c132.42,64.32,304.9,84.14,467.32,42.51,180.13-46.17,301.87-156.1,333.32-281a229.37,229.37,0,0,1,5.34,49.1c0,175.44-200.2,317.66-447.16,317.66-68.69,0-133.74-11-191.9-30.69l-201.11,47.81,37.13-142.51C1133.63,593.93,1132.69,593,1131.7,592Z" style="fill:url(#Super_Soft_Black_Vignette-25)"/></g><path d="M1200.09,457.62h-29.62V293h29.62v58.43H1272V293h29.62V457.62H1272V381.05h-71.93Z"/><path d="M1315.44,320.1a44.65,44.65,0,0,1,9.17-14,43.69,43.69,0,0,1,13.7-9.57,40.87,40.87,0,0,1,16.92-3.53h84.43v29.62h-84.43a12.53,12.53,0,0,0-9.57,4.26,14.44,14.44,0,0,0-3.93,10.14v17.23h97.93v29.62h-97.93v31.64A12.39,12.39,0,0,0,1354.22,428h85.44v29.62h-85.44a41,41,0,0,1-16.52-3.33,43,43,0,0,1-13.4-9.06,41.84,41.84,0,0,1-12.19-29.72V337.13A43.68,43.68,0,0,1,1315.44,320.1Z"/><path d="M1481.77,410.87a29.21,29.21,0,0,0,6.54,8.87,31.29,31.29,0,0,0,9.58,6,30.59,30.59,0,0,0,11.68,2.22h65.08v29.62h-65.08a60.74,60.74,0,0,1-23.47-4.54,60.12,60.12,0,0,1-19-12.29,57,57,0,0,1-12.7-18.23,55.14,55.14,0,0,1-4.63-22.57V293h29.62V400A24.66,24.66,0,0,0,1481.77,410.87Z"/><path d="M1610.72,410.87a29.08,29.08,0,0,0,6.55,8.87,31.12,31.12,0,0,0,9.57,6,30.59,30.59,0,0,0,11.68,2.22h65.08v29.62h-65.08a60.74,60.74,0,0,1-23.47-4.54,60.12,60.12,0,0,1-19-12.29,57,57,0,0,1-12.69-18.23,55,55,0,0,1-4.64-22.57V293h29.62V400A24.8,24.8,0,0,0,1610.72,410.87Z"/><path d="M1795.89,293a37.78,37.78,0,0,1,15.51,3.23,41.54,41.54,0,0,1,12.69,8.66,40.15,40.15,0,0,1,8.57,12.79,39.13,39.13,0,0,1,3.12,15.42v70.32a53.51,53.51,0,0,1-15.92,38.38,55.18,55.18,0,0,1-17.43,11.59,54.33,54.33,0,0,1-21.45,4.23h-33.45a38.13,38.13,0,0,1-15.31-3.13,41.15,41.15,0,0,1-12.7-8.46,40.5,40.5,0,0,1-8.66-12.59,37.79,37.79,0,0,1-3.23-15.52V347.6a53.47,53.47,0,0,1,4.24-21.35,55.68,55.68,0,0,1,11.58-17.33,53.27,53.27,0,0,1,17.33-11.69A53.86,53.86,0,0,1,1762,293Zm10.27,39.92a10.33,10.33,0,0,0-10.27-10.3H1762a23,23,0,0,0-9.68,2,27.65,27.65,0,0,0-7.85,5.35,23.46,23.46,0,0,0-5.34,7.87,24.4,24.4,0,0,0-1.92,9.59v70.46a9.67,9.67,0,0,0,3,7.06,9.87,9.87,0,0,0,7.25,3H1781a24.79,24.79,0,0,0,9.77-1.92,25.38,25.38,0,0,0,13.4-13,23.22,23.22,0,0,0,2-9.69Z"/></g></svg>