<svg id="Layer_1" data-name="Layer 1" xmlns="http://www.w3.org/2000/svg" xmlns:xlink="http://www.w3.org/1999/xlink" viewBox="0 0 1970 1056"><defs><style>.cls-1{fill:none;}.cls-2{fill:#0b0054;}.cls-3{fill:#358ded;}.cls-4{fill:#c4b2ff;}.cls-5{clip-path:url(#clip-path);}.cls-6{fill:#b099fa;}.cls-7{fill:#8765fb;}.cls-8{fill:#a980fd;}.cls-9{fill:#b299fe;}.cls-10{fill:#ece7fe;}.cls-11{fill:#210089;}.cls-12{fill:#8767fb;}.cls-13{clip-path:url(#clip-path-2);}.cls-14{clip-path:url(#clip-path-3);}.cls-15{fill:#c2b2fe;}.cls-16{fill:#ab98fc;}.cls-17{fill:#744bf7;}.cls-18{fill:#ad93ff;}.cls-19{fill:#fff;}.cls-20{fill:#ede5ff;}.cls-21{fill:#fa0;}.cls-22{fill:#ff8d00;}.cls-23{fill:#ff7703;}.cls-24{fill:#ffe100;}.cls-25{clip-path:url(#clip-path-4);}.cls-26{fill:#d8cdff;}.cls-27{fill:#572dde;}.cls-28{fill:#8b66fe;}.cls-29{fill:#23c9f6;}.cls-30{fill:#cdfdff;}.cls-31{clip-path:url(#clip-path-5);}.cls-32{clip-path:url(#clip-path-6);}.cls-33{clip-path:url(#clip-path-7);}.cls-34{clip-path:url(#clip-path-8);}.cls-35{fill:#888a99;}.cls-36{fill:#c9c6e2;}.cls-37{fill:#a09cd7;}.cls-38{fill:#766ee8;}.cls-39{fill:#6101c4;}.cls-40{fill:#dcb100;}.cls-41{fill:#ffad01;}.cls-42{fill:#ff8402;}.cls-43{clip-path:url(#clip-path-9);}.cls-44{fill:#fedf61;}.cls-45{fill:#6803ca;}.cls-46{fill:#b8b5fa;}.cls-47{fill:#7670ea;}.cls-48{fill:#d3d2ee;}.cls-49{fill:#b5afef;}.cls-50{fill:#fecb06;}.cls-51{fill:#ef9a28;}.cls-52{fill:#ada8ea;}.cls-53{fill:#bbb8ff;}.cls-54{fill:#e1defd;}.cls-55{fill:#6a04d0;}.cls-56{fill:#7d64d3;}.cls-57{fill:#7c3ff2;}.cls-58{fill:#8857ff;}.cls-59{fill:#fe9901;}.cls-60{fill:#fc0;}.cls-61{fill:#5f28dc;}.cls-62{fill:#8d70ff;}.cls-63{fill:#a7a2fe;}.cls-64{fill:#bbb8fe;}.cls-65{fill:#fefff9;}.cls-66{fill:#972ffb;}.cls-67{fill:#6256fe;}.cls-68{fill:#8078f6;}.cls-69{fill:#8179fe;}.cls-70{fill:#fefffc;}.cls-71{clip-path:url(#clip-path-10);}.cls-72{fill:#8179ff;}.cls-73{fill:#5e27da;}.cls-74{fill:#8178ff;}.cls-75{fill:#bab7fe;}.cls-76{fill:#fe9904;}.cls-77{clip-path:url(#clip-path-11);}</style><clipPath id="clip-path"><rect class="cls-1" x="67.94" y="720.23" width="114.42" height="49.11" rx="13.35" transform="translate(-427.62 230.19) rotate(-37.51)"/></clipPath><clipPath id="clip-path-2"><circle class="cls-1" cx="34.75" cy="897.08" r="208.11"/></clipPath><clipPath id="clip-path-3"><path class="cls-1" d="M85.16,775.2h85.22a11.12,11.12,0,0,1,11.12,11.12v13.16a8.89,8.89,0,0,1-8.88,8.88H79.86A2.82,2.82,0,0,1,77,805.58V783.32a8.13,8.13,0,0,1,8.13-8.13h0Z"/></clipPath><clipPath id="clip-path-4"><rect class="cls-1" x="-0.9" y="836.55" width="311.75" height="127.68" rx="29.05"/></clipPath><clipPath id="clip-path-5"><path class="cls-1" d="M153.92,746.69a10.35,10.35,0,1,1-10.36-10.34h0A10.35,10.35,0,0,1,153.92,746.69Z"/></clipPath><clipPath id="clip-path-6"><path class="cls-1" d="M152.26,748.35A10.34,10.34,0,1,1,141.92,738a10.34,10.34,0,0,1,10.34,10.35Z"/></clipPath><clipPath id="clip-path-7"><path class="cls-1" d="M119.1,746.69a10.35,10.35,0,1,1-10.36-10.34h0A10.36,10.36,0,0,1,119.1,746.69Z"/></clipPath><clipPath id="clip-path-8"><path class="cls-1" d="M117.44,748.35A10.35,10.35,0,1,1,107.09,738h0a10.34,10.34,0,0,1,10.34,10.34Z"/></clipPath><clipPath id="clip-path-9"><rect class="cls-1" x="1837.27" y="841.03" width="133.54" height="35.71" rx="17.85"/></clipPath><clipPath id="clip-path-10"><rect class="cls-1" x="1810.05" y="853.43" width="21.82" height="18.86"/></clipPath><clipPath id="clip-path-11"><rect class="cls-1" x="1488.87" y="808.27" width="225.12" height="60.2" rx="30.1"/></clipPath></defs><title>footer-bg</title><path class="cls-2" d="M2000.78,65V1082.65H-34.75v-603c67.82,5.33,166.36,1.89,253.67-54.45,113.34-73,107.11-170,208.46-221.61,106.87-54.38,165.12,27.37,331.68,18.49,252.3-13.47,299.26-210.71,475.3-188,178.3,23,202.25,234.67,373.15,260.94C1750.06,316.84,1891.58,193.86,2000.78,65Z"/><rect class="cls-3" x="76.96" y="718.44" width="109.76" height="49.11" rx="14.81" transform="translate(-425.15 233.89) rotate(-37.51)"/><rect class="cls-4" x="69.35" y="722.62" width="114.42" height="49.11" rx="14.81" transform="translate(-428.79 231.54) rotate(-37.51)"/><g class="cls-5"><rect class="cls-6" x="91.38" y="731.56" width="114.42" height="49.11" rx="14.81" transform="translate(-429.68 246.81) rotate(-37.51)"/></g><path class="cls-7" d="M242.86,896.25a208.36,208.36,0,0,1-2.9,34.82,204.56,204.56,0,0,1-6.29,26.53c-.69,2.23-1.4,4.44-2.17,6.64a206.87,206.87,0,0,1-8.83,21.55,207.36,207.36,0,0,1-11.91,21.56,209.5,209.5,0,0,1-62,63A207.16,207.16,0,0,1,101,1093.58c-1.75.59-3.53,1.16-5.31,1.7A205.58,205.58,0,0,1,67,1101.87a209.77,209.77,0,0,1-64.45,0,205.37,205.37,0,0,1-28.24-6.44c-1.94-.58-3.88-1.2-5.8-1.85-1.09-.37-2.16-.73-3.24-1.12V834.6a2,2,0,0,1-1-1.71v-47.4a2,2,0,0,1,1-1.72V700a207.54,207.54,0,0,1,69.51-11.89,207.27,207.27,0,0,1,97,23.94h.1A208.56,208.56,0,0,1,174,741.57l.09.07A207.34,207.34,0,0,1,213,788.8c3.18,5.26,6.13,10.69,8.84,16.24q3.18,6.51,5.91,13.27,3.62,8.93,6.4,18.24a202.53,202.53,0,0,1,6.06,26.53c.19,1.1.35,2.21.5,3.31a204.91,204.91,0,0,1,2,21.56Q242.88,892.08,242.86,896.25Z"/><circle class="cls-8" cx="111.03" cy="872.2" r="113.59"/><circle class="cls-9" cx="173.22" cy="781.83" r="18.24"/><path class="cls-9" d="M155,776.49H75.41a18.28,18.28,0,0,1,0-36.55H155a18.28,18.28,0,0,1,0,36.55Z"/><rect class="cls-10" x="68.83" y="766.62" width="57.95" height="10.22" rx="3.08"/><path class="cls-9" d="M68.75,748.66c-7.18-6.21-16.6-18.24-13.27-26.53,4.28-10.64,27.59-10.16,38.14-10a90,90,0,0,1,36.48,8.29c6.86,3.28,31.41,15,29.85,24.88C157.67,759.86,98.37,774.32,68.75,748.66Z"/><rect class="cls-11" x="70.41" y="744.12" width="89.55" height="28.19" rx="8.5"/><circle class="cls-12" cx="98.6" cy="758.61" r="13.27"/><circle class="cls-12" cx="133.42" cy="758.61" r="13.27"/><g class="cls-13"><circle class="cls-8" cx="167.41" cy="976.67" r="113.59"/></g><path class="cls-10" d="M85.16,775.2h85.22a11.12,11.12,0,0,1,11.12,11.12v16a6,6,0,0,1-6,6H80.42A3.38,3.38,0,0,1,77,805V783.32a8.13,8.13,0,0,1,8.13-8.13h0Z"/><g class="cls-14"><rect class="cls-15" x="93.62" y="796.75" width="74.62" height="14.92" rx="4.5"/><rect class="cls-16" x="77.04" y="796.75" width="74.62" height="14.92" rx="4.5"/></g><rect class="cls-17" x="163.27" y="766.9" width="13.27" height="51.41" rx="4"/><rect class="cls-17" x="199.75" y="748.66" width="13.27" height="69.65" rx="4"/><path class="cls-17" d="M148.35,909.92v108.62a22,22,0,0,1-22,22H-34.75V888H126.38a21.92,21.92,0,0,1,17.19,8.3,22.47,22.47,0,0,1,1.45,2.06,21.48,21.48,0,0,1,3,7.88A22.78,22.78,0,0,1,148.35,909.92Z"/><path class="cls-9" d="M55.11,888H230.43a43.94,43.94,0,0,1,43.94,43.94h0v64.68a43.94,43.94,0,0,1-43.94,43.94H54.72a37.39,37.39,0,0,1-37.38-37.38h0V925.72A37.77,37.77,0,0,1,55.11,888Z"/><path class="cls-17" d="M145,827V935.63a22,22,0,0,1-18.91,21.75h0a20.9,20.9,0,0,1-3.06.22H-34.75v-123a2,2,0,0,1-1-1.71V805h158.8a22.29,22.29,0,0,1,3.16.23h0a22,22,0,0,1,17,13c.23.54.45,1.09.64,1.66A22,22,0,0,1,145,827Z"/><path class="cls-9" d="M33.69,805h199.9a37.46,37.46,0,0,1,37.46,37.46h0v89.26a25.82,25.82,0,0,1-25.83,25.83H33.3A19.28,19.28,0,0,1,14,938.33V824.7A19.66,19.66,0,0,1,33.62,805Z"/><path class="cls-18" d="M92,851.07v98.64a14.53,14.53,0,0,1-14.52,14.53H-34.75V836.55H77.44A14.52,14.52,0,0,1,92,851Z"/><rect class="cls-19" x="118.49" y="805.04" width="48.09" height="14.92" rx="4.5"/><path class="cls-19" d="M138.15,805h95.44a37.46,37.46,0,0,1,37.46,37.46h0v89.26a25.82,25.82,0,0,1-25.83,25.83H137.77a19.27,19.27,0,0,1-19.27-19.27h0V824.7A19.66,19.66,0,0,1,138.12,805Z"/><rect class="cls-9" x="93.62" y="818.31" width="152.56" height="48.09" rx="11.52"/><rect class="cls-20" x="-0.9" y="836.55" width="313.41" height="127.68" rx="29.05"/><path class="cls-21" d="M330.75,873.33v47.49a10.25,10.25,0,0,1-10.25,10.25H-34.75v-68H320.5a10.25,10.25,0,0,1,10.25,10.25Z"/><path class="cls-22" d="M297.58,901.5v24.32a5.25,5.25,0,0,1-5.23,5.25H-34.75V896.25h327.1a5.25,5.25,0,0,1,5.23,5.25Z"/><path class="cls-23" d="M17.34,901.5v24.32A5.21,5.21,0,0,1,14,930.69a1.66,1.66,0,0,1-.31.12,5.23,5.23,0,0,1-1.62.26H-33.79a5.55,5.55,0,0,1-1-.09V896.33a4.77,4.77,0,0,1,1-.08H12.09a5.1,5.1,0,0,1,1.93.37A5.25,5.25,0,0,1,17.34,901.5Z"/><rect class="cls-24" x="43.16" y="862.43" width="149.96" height="43.76" rx="13.2"/><g class="cls-25"><rect class="cls-26" x="-0.9" y="937.7" width="268.93" height="26.53" rx="8"/></g><path class="cls-27" d="M30.61,989v15.06a3.27,3.27,0,0,1-3.25,3.25H-34.75V985.79H27.36A3.26,3.26,0,0,1,30.61,989Z"/><rect class="cls-28" x="12.37" y="985.79" width="268.64" height="21.56" rx="6.5"/><circle class="cls-9" cx="101.91" cy="753.64" r="14.92"/><circle class="cls-9" cx="136.74" cy="753.64" r="14.92"/><circle class="cls-29" cx="105.23" cy="750.32" r="14.92"/><circle class="cls-29" cx="140.05" cy="750.32" r="14.92"/><circle class="cls-30" cx="143.37" cy="747.01" r="14.92"/><path class="cls-11" d="M153.92,746.69a10.35,10.35,0,1,1-10.36-10.34h0A10.35,10.35,0,0,1,153.92,746.69Z"/><g class="cls-31"><path class="cls-29" d="M152.26,748.35A10.34,10.34,0,1,1,141.92,738a10.34,10.34,0,0,1,10.34,10.35Z"/><g class="cls-32"><path class="cls-29" d="M153.92,745a10.35,10.35,0,1,1-10.36-10.34h0A10.34,10.34,0,0,1,153.92,745Z"/><circle class="cls-10" cx="154.98" cy="728.76" r="21.56"/></g></g><circle class="cls-30" cx="108.55" cy="747.01" r="14.92"/><path class="cls-11" d="M119.1,746.69a10.35,10.35,0,1,1-10.36-10.34h0A10.36,10.36,0,0,1,119.1,746.69Z"/><g class="cls-33"><path class="cls-29" d="M117.44,748.35A10.35,10.35,0,1,1,107.09,738h0a10.34,10.34,0,0,1,10.34,10.34Z"/><g class="cls-34"><path class="cls-29" d="M119.1,745a10.35,10.35,0,1,1-10.36-10.34h0A10.36,10.36,0,0,1,119.1,745Z"/><circle class="cls-10" cx="120.15" cy="728.76" r="21.56"/></g></g><g id="Secondary_Building_Tall" data-name="Secondary Building Tall"><ellipse class="cls-35" cx="1912.99" cy="1072.34" rx="71.26" ry="17.48"/><rect class="cls-36" x="1854.67" y="1041.55" width="98.74" height="30.18" rx="15.09"/><path class="cls-37" d="M1894.37,1045.88h46.09a12.91,12.91,0,0,1,12.92,12.92h0a12.91,12.91,0,0,1-12.92,12.92h-46.09a12.91,12.91,0,0,1-12.92-12.92h0A12.91,12.91,0,0,1,1894.37,1045.88Z"/><rect class="cls-36" x="1854.67" y="962.42" width="98.74" height="74.6" rx="24.54"/><rect class="cls-37" x="1881.45" y="972.32" width="71.96" height="64.69" rx="21.96"/><path class="cls-38" d="M1858,956.55h92.06a3.35,3.35,0,0,1,3.34,3.34h0a3.35,3.35,0,0,1-3.34,3.34H1858a3.35,3.35,0,0,1-3.34-3.34h0A3.35,3.35,0,0,1,1858,956.55Z"/><path class="cls-39" d="M1921.38,956.55h28.68a3.35,3.35,0,0,1,3.34,3.34h0a3.35,3.35,0,0,1-3.34,3.34h-28.68a3.35,3.35,0,0,1-3.34-3.34h0A3.35,3.35,0,0,1,1921.38,956.55Z"/><rect class="cls-38" x="1854.67" y="1035.68" width="98.74" height="6.68" rx="3.34"/><rect class="cls-39" x="1918.04" y="1035.68" width="35.36" height="6.68" rx="3.34"/><rect class="cls-40" x="1858.43" y="1053.26" width="54.47" height="6.81" rx="1.27"/><rect class="cls-40" x="1922.25" y="1053.26" width="27.7" height="6.81" rx="1.27"/><rect class="cls-40" x="1858.43" y="1016.79" width="30.35" height="6.81" rx="1.27"/><rect class="cls-40" x="1858.43" y="996.13" width="30.35" height="6.81" rx="1.27"/><rect class="cls-40" x="1858.43" y="976.28" width="30.35" height="6.81" rx="1.27"/><rect class="cls-40" x="1895.71" y="976.28" width="22.27" height="6.81" rx="1.27"/><rect class="cls-40" x="1894.09" y="996.25" width="13.73" height="6.81" rx="1.27"/><rect class="cls-40" x="1895.71" y="1018.06" width="22.27" height="6.81" rx="1.27"/><rect class="cls-40" x="1923.75" y="976.28" width="23.89" height="6.81" rx="1.27"/><rect class="cls-40" x="1923.75" y="1018.06" width="23.89" height="6.81" rx="1.27"/><rect class="cls-40" x="1914.17" y="996.36" width="33.47" height="6.81" rx="1.27"/><circle class="cls-41" cx="1903.97" cy="841.02" r="49.39"/><circle class="cls-42" cx="1911.97" cy="850.31" r="42.41"/><rect class="cls-36" x="1837.27" y="841.02" width="133.54" height="35.71" rx="17.85"/><g class="cls-43"><path class="cls-37" d="M1888.73,849.5h79.52a2.65,2.65,0,0,1,2.65,2.65h0v19.53a5.07,5.07,0,0,1-5.07,5.07h-77.1a5.07,5.07,0,0,1-5.07-5.07V854.57a5.07,5.07,0,0,1,5.07-5.07Z"/></g><path class="cls-38" d="M1858,875.41H1950a3.35,3.35,0,0,1,3.34,3.34h0a3.35,3.35,0,0,1-3.34,3.34H1858a3.35,3.35,0,0,1-3.34-3.34h0A3.35,3.35,0,0,1,1858,875.41Z"/><path class="cls-39" d="M1921.33,875.41H1950a3.35,3.35,0,0,1,3.34,3.34h0a3.35,3.35,0,0,1-3.34,3.34h-28.68a3.35,3.35,0,0,1-3.34-3.34h0A3.35,3.35,0,0,1,1921.33,875.41Z"/><path class="cls-44" d="M1873.21,810.67h0a3.59,3.59,0,0,0,2.41-.94,42,42,0,0,1,22.9-10.6,3.58,3.58,0,0,0,3.12-3.55h0a3.57,3.57,0,0,0-3.59-3.57,2.88,2.88,0,0,0-.41,0,49.17,49.17,0,0,0-26.84,12.43,3.58,3.58,0,0,0,2.41,6.21Z"/><rect class="cls-40" x="1845.92" y="862.48" width="42.81" height="6.81" rx="1.27"/><rect class="cls-40" x="1894.05" y="862.48" width="25.16" height="6.81" rx="1.27"/><rect class="cls-40" x="1923.13" y="862.48" width="38.89" height="6.81" rx="1.27"/><rect class="cls-40" x="1885.62" y="849.56" width="76.4" height="6.81" rx="1.27"/><rect class="cls-40" x="1845.92" y="849.56" width="34.74" height="6.81" rx="1.27"/><rect class="cls-36" x="1854.71" y="881.96" width="98.74" height="74.6" rx="24.54"/><rect class="cls-37" x="1881.5" y="891.86" width="71.96" height="64.69" rx="21.96"/><rect class="cls-40" x="1858.48" y="936.33" width="30.35" height="6.81" rx="1.27"/><rect class="cls-40" x="1858.48" y="915.67" width="30.35" height="6.81" rx="1.27"/><rect class="cls-40" x="1858.48" y="895.82" width="30.35" height="6.81" rx="1.27"/><rect class="cls-40" x="1895.76" y="895.82" width="22.27" height="6.81" rx="1.27"/><rect class="cls-40" x="1894.14" y="915.79" width="13.73" height="6.81" rx="1.27"/><rect class="cls-40" x="1895.76" y="937.6" width="22.27" height="6.81" rx="1.27"/><rect class="cls-40" x="1923.8" y="895.82" width="23.89" height="6.81" rx="1.27"/><rect class="cls-40" x="1923.8" y="937.6" width="23.89" height="6.81" rx="1.27"/><rect class="cls-40" x="1914.22" y="915.9" width="33.47" height="6.81" rx="1.27"/></g><g id="Main_Building" data-name="Main Building"><rect class="cls-45" x="1782.01" y="828.65" width="9.44" height="140.7"/><polygon class="cls-46" points="1906.08 984.68 1669.54 984.68 1683.31 1006.31 1892.32 1006.31 1906.08 984.68"/><polygon class="cls-47" points="1905.05 990.38 1891.28 1012.01 1786.73 1012.01 1786.73 990.38 1905.05 990.38"/><polygon class="cls-48" points="1920.02 1068.96 1655.4 1068.96 1661.24 1043.08 1669.52 1006.31 1905.9 1006.31 1914.19 1043.08 1920.02 1068.96"/><polygon class="cls-49" points="1920.01 1068.96 1786.73 1068.96 1786.73 1006.31 1905.89 1006.31 1914.17 1043.08 1920.01 1068.96"/><rect class="cls-50" x="1723.57" y="1032.05" width="58.46" height="13.2" rx="2.45"/><rect class="cls-50" x="1667.64" y="1032.05" width="33.03" height="13.2" rx="2.45"/><rect class="cls-51" x="1838.61" y="1032.05" width="71.93" height="13.2" rx="2.45"/><rect class="cls-51" x="1793.35" y="1032.05" width="41.22" height="13.2" rx="2.45"/><path class="cls-52" d="M1945.8,1053.22V1069H1627.66v-15.74a10.14,10.14,0,0,1,10.14-10.14h297.86A10.14,10.14,0,0,1,1945.8,1053.22Z"/><path class="cls-47" d="M1945.8,1053.22V1069H1786.73v-25.88h148.93A10.14,10.14,0,0,1,1945.8,1053.22Z"/><polygon class="cls-47" points="1682.07 984.75 1892.89 984.75 1880.63 965.48 1694.34 965.48 1682.07 984.75"/><polygon class="cls-46" points="1682.54 984.69 1694.8 965.41 1787.99 965.41 1787.99 984.69 1682.54 984.69"/><rect class="cls-53" x="1747.6" y="977.01" width="174.21" height="15.53" rx="2.88"/><rect class="cls-54" x="1652.63" y="977.01" width="141.96" height="15.53" rx="2.88"/><rect class="cls-55" x="1763.91" y="961.68" width="130.9" height="7.75" rx="1.44"/><rect class="cls-56" x="1684.48" y="961.68" width="106.67" height="7.75" rx="1.44"/><circle class="cls-41" cx="1787.29" cy="666.05" r="65.33"/><rect class="cls-57" x="1767.85" y="785.9" width="37.75" height="45.81" rx="7.01"/><circle class="cls-58" cx="1786.63" cy="767.71" r="41.98"/><path class="cls-59" d="M1972.63,766.14H1581.34a9,9,0,0,1-8.94-9.06,8.88,8.88,0,0,1,.6-3.18l19.16-48.11a9,9,0,0,1,8.37-5.66h391.29a9,9,0,0,1,9,9,8.83,8.83,0,0,1-.6,3.21L1981,760.49A9,9,0,0,1,1972.63,766.14Z"/><path class="cls-60" d="M2000.18,712.37l-7.9,19.82H1581.64l10.51-26.4a9,9,0,0,1,8.37-5.66h391.29a9,9,0,0,1,9,9A8.83,8.83,0,0,1,2000.18,712.37Z"/><rect class="cls-61" x="1582.67" y="728.42" width="410.59" height="7.54" rx="1.4"/><rect class="cls-62" x="1684.51" y="714.14" width="208.26" height="64.93" rx="12.05"/><rect class="cls-63" x="1682.62" y="665.92" width="208.26" height="64.93" rx="12.05"/><rect class="cls-64" x="1629.01" y="710.37" width="318.18" height="40.95" rx="7.6"/><path class="cls-65" d="M1791.69,609.15c-1,0-2-.08-3-.08a55.62,55.62,0,0,0-25.3,6.06,4.47,4.47,0,0,0-2,6,4.57,4.57,0,0,0,1.07,1.36l.12.11a4.46,4.46,0,0,0,4.94.61,46.54,46.54,0,0,1,21-5h2.06a46,46,0,0,1,13,2.43,4.47,4.47,0,0,0,5.65-2.81,4.38,4.38,0,0,0,.2-.94v-.25a4.47,4.47,0,0,0-3-4.73A55.55,55.55,0,0,0,1791.69,609.15Zm-50.42,26.42a55.53,55.53,0,0,0-7.65,20.93,4.47,4.47,0,0,0,3.78,5.06,4.74,4.74,0,0,0,.65.05h0a4.5,4.5,0,0,0,4.43-3.84,46.18,46.18,0,0,1,6.48-17.49,4.47,4.47,0,0,0-.89-5.72h0a4.49,4.49,0,0,0-6.34.39,4.74,4.74,0,0,0-.46.62Z"/><rect class="cls-50" x="1689.36" y="688.55" width="68.7" height="13.2" rx="2.45"/><rect class="cls-50" x="1763.98" y="688.55" width="21.82" height="13.2" rx="2.45"/><rect class="cls-51" x="1801.83" y="688.67" width="44.06" height="13.2" rx="2.45"/><rect class="cls-51" x="1852.59" y="688.55" width="30.43" height="13.2" rx="2.45"/><rect class="cls-50" x="1640.32" y="725.73" width="68.7" height="13.2" rx="2.45"/><rect class="cls-50" x="1723.57" y="725.73" width="26.67" height="13.2" rx="2.45"/><rect class="cls-50" x="1755.63" y="725.73" width="67.08" height="13.2" rx="2.45"/><rect class="cls-51" x="1878.22" y="724.92" width="56.58" height="13.2" rx="2.45"/><rect class="cls-50" x="1672.65" y="1011.31" width="60.35" height="13.2" rx="2.45"/><rect class="cls-50" x="1741.62" y="1011.31" width="40.41" height="13.2" rx="2.45"/><rect class="cls-51" x="1793.35" y="1011.31" width="33.41" height="13.2" rx="2.45"/><rect class="cls-51" x="1831.88" y="1011.31" width="20.21" height="13.2" rx="2.45"/><rect class="cls-51" x="1857.2" y="1011.31" width="44.45" height="13.2" rx="2.45"/><rect class="cls-66" x="1786.35" y="859.9" width="22.9" height="5.93" rx="1.1"/><rect class="cls-66" x="1806.85" y="854.78" width="11.02" height="16.16" rx="2.05"/><circle class="cls-53" cx="1821.24" cy="849.52" r="10.91"/><circle class="cls-67" cx="1820.97" cy="876.2" r="10.91"/><rect class="cls-68" x="1810.05" y="853.43" width="21.82" height="18.86"/><rect class="cls-69" x="1808.17" y="872.21" width="25.59" height="3.94" rx="0.73"/><rect class="cls-53" x="1808.31" y="849.55" width="25.59" height="3.94" rx="0.73"/><path class="cls-70" d="M1820.29,842.25v.07a1.56,1.56,0,0,1-.91,1.44,6.63,6.63,0,0,0-3.14,2.89,1.58,1.58,0,0,1-1.4.85h-.08a1.59,1.59,0,0,1-1.59-1.57,1.62,1.62,0,0,1,.17-.72,9.93,9.93,0,0,1,4.74-4.42,1.58,1.58,0,0,1,2.08.82A1.56,1.56,0,0,1,1820.29,842.25Z"/><rect class="cls-50" x="1811.94" y="857.2" width="11.85" height="4.31" rx="0.8"/><rect class="cls-50" x="1811.94" y="863.67" width="11.85" height="4.31" rx="0.8"/><g class="cls-71"><rect class="cls-51" x="1827.03" y="857.2" width="13.74" height="4.31" rx="0.8"/><rect class="cls-51" x="1827.03" y="864.21" width="13.74" height="4.31" rx="0.8"/></g><circle class="cls-72" cx="1765.04" cy="888.8" r="10.91"/><circle class="cls-73" cx="1764.77" cy="915.48" r="10.91"/><rect class="cls-67" x="1753.86" y="892.71" width="21.82" height="18.86"/><rect class="cls-67" x="1751.98" y="911.49" width="25.59" height="3.94" rx="0.73"/><rect class="cls-74" x="1752.12" y="888.83" width="25.59" height="3.94" rx="0.73"/><path class="cls-75" d="M1764.1,881.53v.07a1.54,1.54,0,0,1-.92,1.44,6.63,6.63,0,0,0-3.13,2.88,1.58,1.58,0,0,1-1.41.86h-.08a1.58,1.58,0,0,1-1.41-2.29,9.9,9.9,0,0,1,4.73-4.42,1.58,1.58,0,0,1,2.09.83A1.51,1.51,0,0,1,1764.1,881.53Z"/><rect class="cls-76" x="1755.75" y="896.48" width="11.85" height="4.31" rx="0.8"/><rect class="cls-76" x="1755.75" y="902.95" width="11.85" height="4.31" rx="0.8"/><rect class="cls-61" x="1774.76" y="899.77" width="7.27" height="5.93"/><rect class="cls-61" x="1773.68" y="896.54" width="4.31" height="11.85" rx="0.8"/><rect class="cls-61" x="1559.43" y="727.02" width="47.14" height="7.54" rx="1.4" transform="translate(325.84 1938.88) rotate(-68.64)"/></g><g id="Secondary_Building" data-name="Secondary Building"><circle class="cls-41" cx="1601.32" cy="808.25" r="83.27"/><circle class="cls-42" cx="1614.81" cy="823.91" r="71.49"/><path class="cls-36" d="M1543.57,1009.51h115.58a25.44,25.44,0,0,1,25.44,25.44h0a25.44,25.44,0,0,1-25.44,25.44H1543.57a25.44,25.44,0,0,1-25.44-25.44h0A25.44,25.44,0,0,1,1543.57,1009.51Z"/><path class="cls-37" d="M1585.06,1016.83h77.71a21.78,21.78,0,0,1,21.78,21.78h0a21.78,21.78,0,0,1-21.78,21.78h-77.71a21.78,21.78,0,0,1-21.78-21.78h0A21.78,21.78,0,0,1,1585.06,1016.83Z"/><rect class="cls-36" x="1518.13" y="876.13" width="166.46" height="125.76" rx="44.41"/><rect class="cls-37" x="1563.28" y="892.82" width="121.3" height="109.06" rx="41.97"/><rect class="cls-36" x="1488.87" y="808.25" width="225.12" height="60.2" rx="30.1"/><g class="cls-77"><path class="cls-37" d="M1572.49,822.55h138.84a2.82,2.82,0,0,1,2.82,2.82v37.71a5.4,5.4,0,0,1-5.4,5.4H1572.49a5.4,5.4,0,0,1-5.4-5.4h0V827.94a5.4,5.4,0,0,1,5.4-5.4h0Z"/></g><path class="cls-38" d="M1523.76,866.23H1679a5.63,5.63,0,0,1,5.63,5.63h0a5.63,5.63,0,0,1-5.63,5.63h-155.2a5.63,5.63,0,0,1-5.63-5.63h0A5.63,5.63,0,0,1,1523.76,866.23Z"/><path class="cls-39" d="M1630.59,866.23H1679a5.63,5.63,0,0,1,5.63,5.63h0a5.63,5.63,0,0,1-5.63,5.63h-48.36a5.63,5.63,0,0,1-5.63-5.63h0A5.63,5.63,0,0,1,1630.59,866.23Z"/><path class="cls-44" d="M1549.47,757.09h0a6,6,0,0,0,4.06-1.58,70.8,70.8,0,0,1,38.59-17.87,6,6,0,0,0,5.27-6h0a6,6,0,0,0-6-6,5.92,5.92,0,0,0-.84,0,82.9,82.9,0,0,0-45.25,20.94,6,6,0,0,0,4.12,10.51Z"/><path class="cls-38" d="M1523.75,999.63H1679a5.63,5.63,0,0,1,5.63,5.63h0a5.63,5.63,0,0,1-5.63,5.63h-155.2a5.63,5.63,0,0,1-5.63-5.63h0A5.63,5.63,0,0,1,1523.75,999.63Z"/><path class="cls-39" d="M1630.59,999.63H1679a5.63,5.63,0,0,1,5.63,5.63h0a5.63,5.63,0,0,1-5.63,5.63h-48.36a5.63,5.63,0,0,1-5.63-5.63h0A5.63,5.63,0,0,1,1630.59,999.63Z"/><rect class="cls-40" x="1524.48" y="1029.26" width="91.83" height="11.48" rx="1.35"/><rect class="cls-40" x="1632.06" y="1029.26" width="46.69" height="11.48" rx="1.35"/><rect class="cls-40" x="1524.48" y="967.78" width="51.17" height="11.48" rx="1.35"/><rect class="cls-40" x="1524.48" y="932.96" width="51.17" height="11.48" rx="1.35"/><rect class="cls-40" x="1524.48" y="899.5" width="51.17" height="11.48" rx="1.35"/><rect class="cls-40" x="1587.32" y="899.5" width="37.55" height="11.48" rx="1.35"/><rect class="cls-40" x="1584.59" y="933.15" width="23.15" height="11.48" rx="1.35"/><rect class="cls-40" x="1587.32" y="969.92" width="37.55" height="11.48" rx="1.35"/><rect class="cls-40" x="1634.59" y="899.5" width="40.27" height="11.48" rx="1.35"/><rect class="cls-40" x="1634.59" y="969.92" width="40.27" height="11.48" rx="1.35"/><rect class="cls-40" x="1618.44" y="933.35" width="56.42" height="11.48" rx="1.35"/><rect class="cls-40" x="1503.46" y="844.44" width="72.18" height="11.48" rx="1.35"/><rect class="cls-40" x="1584.59" y="844.44" width="42.41" height="11.48" rx="1.35"/><rect class="cls-40" x="1633.62" y="844.44" width="65.56" height="11.48" rx="1.35"/><rect class="cls-40" x="1570.39" y="822.65" width="128.79" height="11.48" rx="1.35"/><rect class="cls-40" x="1503.46" y="822.65" width="58.56" height="11.48" rx="1.35"/></g></svg>