<svg xmlns="http://www.w3.org/2000/svg" xmlns:xlink="http://www.w3.org/1999/xlink" viewBox="0 0 630 782"><defs><clipPath id="clip-path"><rect x="75.64" y="60.64" width="126.74" height="253.1" style="fill:none"/></clipPath><clipPath id="clip-path-2"><path d="M542.2,429.33H341a21.2,21.2,0,0,1-21-24.2l14.14-98.68a21.21,21.21,0,0,1,21-18.2H556.34a21.2,21.2,0,0,1,21,24.21l-14.14,98.68A21.19,21.19,0,0,1,542.2,429.33Z" style="fill:none"/></clipPath></defs><g id="For_Render" data-name="For Render"><rect x="240.56" y="654.11" width="71.08" height="71.08" style="fill:#ffc243"/><rect x="240.5" y="635.59" width="71.08" height="71.08" style="fill:#ffc243"/><rect x="240.5" y="618.79" width="71.08" height="71.08" rx="35.54" style="fill:#fd9243"/><rect x="146.55" y="509.49" width="277.79" height="158.42" rx="25.02" style="fill:#ff6220"/><rect x="150.48" y="717.26" width="251.25" height="24.39" rx="12.19" style="fill:#3a1a85"/><rect x="127.94" y="496.07" width="277.79" height="158.42" rx="25.02" style="fill:#ffc243"/><rect x="140.25" y="507.52" width="255.79" height="134.55" rx="13.08" style="fill:#3a1a85"/><rect x="301.14" y="644.66" width="55.99" height="6.81" rx="3.4" style="fill:#ff6220"/><circle cx="361.84" cy="648.04" r="3.4" style="fill:#ff6220"/><path d="M384.84,525.51v99.9a11.6,11.6,0,0,1-11.59,11.29H163a11.59,11.59,0,0,1-11.57-10.79c0-.27,0-.53,0-.8v-99.6a11.6,11.6,0,0,1,11.6-11.6H373.25A11.6,11.6,0,0,1,384.84,525.51Z" style="fill:#fff"/><path d="M384.84,525.51v15.23H151.41V525.51a11.6,11.6,0,0,1,11.6-11.6H373.25A11.6,11.6,0,0,1,384.84,525.51Z" style="fill:#ccc"/><rect x="163.53" y="519.84" width="42.5" height="15" rx="7.5" style="fill:#999"/><rect x="345.33" y="523.04" width="27.9" height="8.3" rx="4.15" style="fill:#fff"/><rect x="304.03" y="523.04" width="27.9" height="8.3" rx="4.15" style="fill:#999"/><rect x="273.73" y="523.04" width="27.9" height="8.3" rx="4.15" style="fill:#999"/><rect x="243.73" y="523.24" width="27.9" height="8.3" rx="4.15" style="fill:#999"/><rect x="235.78" y="560.94" width="64.69" height="9.5" rx="4.75" style="fill:#999"/><rect x="239.45" y="575.34" width="38.9" height="4.5" rx="2.25" style="fill:#ccc"/><rect x="281.07" y="575.34" width="14.7" height="4.5" rx="2.25" style="fill:#ccc"/><rect x="263.35" y="582.84" width="32.4" height="4.5" rx="2.25" style="fill:#ccc"/><rect x="239.45" y="582.84" width="22.2" height="4.5" rx="2.25" style="fill:#ccc"/><path d="M384.84,619.64v5.77a11.6,11.6,0,0,1-11.59,11.29H163a11.59,11.59,0,0,1-11.57-10.79v-6.27a19.2,19.2,0,0,1,19.2-19.2h195A19.2,19.2,0,0,1,384.84,619.64Z" style="fill:#ccc"/><path d="M236.92,620.52V636.7H185.14V620.52a10,10,0,0,1,10-10h31.82A10,10,0,0,1,236.92,620.52Z" style="fill:#999"/><path d="M293.93,620.52V636.7H242.15V620.52a10,10,0,0,1,10-10H284A10,10,0,0,1,293.93,620.52Z" style="fill:#999"/><path d="M351.09,620.52V636.7H299.31V620.52a10,10,0,0,1,10-10h31.83A10,10,0,0,1,351.09,620.52Z" style="fill:#999"/><rect x="48.24" y="39.44" width="158.63" height="304" rx="19.25" style="fill:#ff6220"/><rect x="59.71" y="39.44" width="158.63" height="304" rx="19.25" style="fill:#ffc243"/><rect x="59.71" y="60.64" width="158.63" height="253.1" style="fill:#3a1a85"/><rect x="110.34" y="46.59" width="49.16" height="7.43" rx="3.72" style="fill:#fd9243"/><rect x="170.56" y="46.55" width="13.51" height="7.43" rx="3.72" style="fill:#fd9243"/><circle cx="100.63" cy="50.3" r="6.72" style="fill:#ff6220"/><circle cx="138.51" cy="329.05" r="11.36" style="fill:#fd9243"/><circle cx="138.54" cy="329.03" r="7.76" style="fill:#ffc243"/><rect x="75.67" y="60.64" width="126.74" height="253.1" style="fill:#fff"/><rect x="75.64" y="60.64" width="126.8" height="28.4" style="fill:#ccc"/><rect x="83.74" y="67.34" width="42.5" height="15" rx="7.5" style="fill:#999"/><rect x="179.82" y="69.54" width="14.92" height="1.81" rx="0.9" style="fill:#999"/><rect x="179.82" y="73.96" width="14.92" height="1.81" rx="0.9" style="fill:#999"/><rect x="179.82" y="78.42" width="14.92" height="1.81" rx="0.9" style="fill:#999"/><rect x="96.33" y="105.84" width="85.24" height="15" rx="7.5" style="fill:#999"/><rect x="102.73" y="126.59" width="44.71" height="6.28" rx="3.14" style="fill:#ccc"/><rect x="149.04" y="126.55" width="25.4" height="6.28" rx="3.14" style="fill:#ccc"/><rect x="102.73" y="135.29" width="20.61" height="6.28" rx="3.14" style="fill:#ccc"/><rect x="125.44" y="135.29" width="16.5" height="6.28" rx="3.14" style="fill:#ccc"/><rect x="143.84" y="135.29" width="30.6" height="6.28" rx="3.14" style="fill:#ccc"/><rect x="102.74" y="143.45" width="25.4" height="6.28" rx="3.14" style="fill:#ccc"/><rect x="129.69" y="143.48" width="44.71" height="6.28" rx="3.14" style="fill:#ccc"/><rect x="117.34" y="161.24" width="43.2" height="8.8" rx="4.4" style="fill:#999"/><path d="M139,191.44h0a63.4,63.4,0,0,1,63.4,63.4v58.9a0,0,0,0,1,0,0H75.64a0,0,0,0,1,0,0v-58.9A63.4,63.4,0,0,1,139,191.44Z" style="fill:#ccc"/><rect x="103.24" y="206.94" width="71.7" height="71.7" rx="35.85" style="fill:gray"/><g style="clip-path:url(#clip-path)"><rect x="179.84" y="232.34" width="61.1" height="61.1" rx="30.55" style="fill:#999"/><rect x="35.24" y="232.34" width="61.1" height="61.1" rx="30.55" style="fill:#999"/></g><path d="M180.28,243.63l-11.11,12.26a1.22,1.22,0,0,1-2.13-.82h0a1.17,1.17,0,0,1,.32-.82l9.6-10.61a1.22,1.22,0,0,0,0-1.64l-9.6-10.61a1.21,1.21,0,0,1-.32-.82v0a1.22,1.22,0,0,1,2.13-.82L180.28,242A1.24,1.24,0,0,1,180.28,243.63Z" style="fill:#fff"/><path d="M97.71,242l11.1-12.26a1.22,1.22,0,0,1,2.13.82h0a1.19,1.19,0,0,1-.32.82L101,242a1.22,1.22,0,0,0,0,1.64l9.6,10.61a1.21,1.21,0,0,1,.32.82v0a1.22,1.22,0,0,1-2.13.82l-11.1-12.26A1.22,1.22,0,0,1,97.71,242Z" style="fill:#fff"/><rect x="110.74" y="290.94" width="56.6" height="13.3" rx="6.65" style="fill:#fff"/><rect x="115.24" y="282.54" width="25.8" height="4.5" rx="2.25" style="fill:#999"/><rect x="142.68" y="282.54" width="20.18" height="4.5" rx="2.25" style="fill:#999"/><polygon points="620.64 426.23 620.64 433.52 602.9 442.76 558.69 442.76 558.69 409.06 603.46 409.06 620.64 426.23" style="fill:#862a03"/><rect x="575.76" y="424.17" width="31.38" height="5.65" transform="translate(-4.92 847.08) rotate(-70.99)" style="fill:#bf613a"/><polygon points="620.64 426.23 620.64 428.58 617.8 431.42 615.35 428.97 599.42 413.04 603.4 409.06 603.43 409.02 603.46 409.06 620.64 426.23" style="fill:#bf613a"/><rect x="318.7" y="442.76" width="269.92" height="7.42" style="fill:#ff814d"/><polygon points="620.64 426.23 620.64 433.52 602.9 442.76 588.63 450.2 588.63 442.82 588.75 442.76 615.35 428.97 620.64 426.23" style="fill:#ff6220"/><path d="M568.58,442.76H329a25.25,25.25,0,0,1-25-28.83l16.84-117.52a25.26,25.26,0,0,1,25-21.67h239.6a25.25,25.25,0,0,1,25,28.83L593.57,421.1A25.24,25.24,0,0,1,568.58,442.76Z" style="fill:#ff6220"/><path d="M560.1,442.76H320.49a25.24,25.24,0,0,1-25-28.83l16.84-117.52a25.25,25.25,0,0,1,25-21.67H576.94a25.25,25.25,0,0,1,25,28.83L585.09,421.1A25.24,25.24,0,0,1,560.1,442.76Z" style="fill:#ffc243"/><path d="M549,434.3H333.31a22.73,22.73,0,0,1-22.5-25.95L326,302.58a22.75,22.75,0,0,1,22.51-19.51H564.12a22.74,22.74,0,0,1,22.5,26L571.46,414.8A22.72,22.72,0,0,1,549,434.3Z" style="fill:#3a1a85"/><ellipse cx="586.67" cy="358.75" rx="5.94" ry="4.92" transform="translate(151.56 891.26) rotate(-82.19)" style="fill:#ff6220"/><rect x="308.43" y="340.53" width="4.14" height="36.35" rx="2.07" transform="translate(54.56 -40.76) rotate(8.23)" style="fill:#ff6220"/><g id="_Group_" data-name="&lt;Group&gt;"><g style="clip-path:url(#clip-path-2)"><polygon points="559.63 429.28 315.61 429.28 337.81 288.24 581.84 288.24 559.63 429.28" style="fill:#fff"/><polygon points="577.15 318.04 333.15 318.04 337.83 288.24 581.84 288.24 577.15 318.04" style="fill:#ccc"/><path d="M410.1,310.44H354a3.38,3.38,0,0,1-3.41-4l1.09-6.91a4.92,4.92,0,0,1,4.68-4.05h56.11a3.38,3.38,0,0,1,3.41,4.05l-1.09,6.91A4.93,4.93,0,0,1,410.1,310.44Z" style="fill:#999"/><path d="M563.11,307.21h-19a3.37,3.37,0,0,1-3.4-4h0a4.92,4.92,0,0,1,4.68-4.05h19a3.38,3.38,0,0,1,3.41,4.05h0A4.93,4.93,0,0,1,563.11,307.21Z" style="fill:#fff"/><path d="M529.63,307.15h-19a3.38,3.38,0,0,1-3.41-4h0a4.93,4.93,0,0,1,4.68-4h19a3.38,3.38,0,0,1,3.41,4h0A4.93,4.93,0,0,1,529.63,307.15Z" style="fill:#999"/><path d="M496.23,307.15h-19a3.37,3.37,0,0,1-3.4-4h0a4.93,4.93,0,0,1,4.68-4h19a3.38,3.38,0,0,1,3.41,4h0A4.93,4.93,0,0,1,496.23,307.15Z" style="fill:#999"/><path d="M525.56,408.64H482.73c-8,0-13.42-6.46-12.17-14.43l6.74-42.83c1.26-8,8.74-14.44,16.71-14.44h42.83c8,0,13.42,6.47,12.16,14.44l-6.74,42.83C541,402.18,533.53,408.64,525.56,408.64Z" style="fill:gray"/><path d="M442.22,355.45H372a6.27,6.27,0,0,1-6.32-7.5h0a9.14,9.14,0,0,1,8.68-7.5h70.24a6.26,6.26,0,0,1,6.32,7.5h0A9.15,9.15,0,0,1,442.22,355.45Z" style="fill:#999"/><path d="M434.17,371.28H395.74a2.62,2.62,0,0,1-2.65-3.14h0a3.83,3.83,0,0,1,3.64-3.14h38.42a2.62,2.62,0,0,1,2.65,3.14h0A3.83,3.83,0,0,1,434.17,371.28Z" style="fill:#ccc"/><path d="M461.17,371.24H442.05a2.61,2.61,0,0,1-2.64-3.14h0A3.82,3.82,0,0,1,443,365h19.12a2.62,2.62,0,0,1,2.65,3.14h0A3.84,3.84,0,0,1,461.17,371.24Z" style="fill:#ccc"/><path d="M408.7,380H394.37a2.63,2.63,0,0,1-2.65-3.14h0a3.84,3.84,0,0,1,3.64-3.14h14.33a2.62,2.62,0,0,1,2.64,3.14h0A3.84,3.84,0,0,1,408.7,380Z" style="fill:#ccc"/><path d="M427.3,380H417.08a2.63,2.63,0,0,1-2.65-3.14h0a3.83,3.83,0,0,1,3.64-3.14h10.22a2.62,2.62,0,0,1,2.64,3.14h0A3.84,3.84,0,0,1,427.3,380Z" style="fill:#ccc"/><path d="M459.8,380H435.48a2.63,2.63,0,0,1-2.65-3.14h0a3.83,3.83,0,0,1,3.64-3.14h24.32a2.62,2.62,0,0,1,2.64,3.14h0A3.84,3.84,0,0,1,459.8,380Z" style="fill:#ccc"/><path d="M412.21,388.14H393.09a2.63,2.63,0,0,1-2.65-3.14h0a3.84,3.84,0,0,1,3.64-3.14H413.2a2.61,2.61,0,0,1,2.64,3.14h0A3.83,3.83,0,0,1,412.21,388.14Z" style="fill:#ccc"/><path d="M458.46,388.17H420a2.63,2.63,0,0,1-2.64-3.14h0a3.82,3.82,0,0,1,3.63-3.14h38.43a2.62,2.62,0,0,1,2.64,3.14h0A3.83,3.83,0,0,1,458.46,388.17Z" style="fill:#ccc"/><ellipse cx="358.65" cy="383.79" rx="20.28" ry="17.33" transform="translate(-165.23 345.43) rotate(-42.75)" style="fill:#ccc"/><ellipse cx="359.47" cy="391.29" rx="0.7" ry="0.6" transform="translate(-170.11 347.98) rotate(-42.75)" style="fill:#ccc"/><path d="M443.75,409H397.92a5.35,5.35,0,0,1-5.4-6.41h0a7.81,7.81,0,0,1,7.42-6.41h45.83a5.36,5.36,0,0,1,5.4,6.41h0A7.8,7.8,0,0,1,443.75,409Z" style="fill:#999"/></g></g></g></svg>