<svg id="For_Render" data-name="For Render" xmlns="http://www.w3.org/2000/svg" xmlns:xlink="http://www.w3.org/1999/xlink" viewBox="0 0 1136 244"><defs><clipPath id="clip-path"><rect x="138.73" y="18.95" width="23.03" height="9.88" rx="3.41" transform="translate(16.52 96.43) rotate(-37.51)" style="fill:none"/></clipPath><clipPath id="clip-path-2"><circle cx="132.05" cy="54.55" r="41.88" style="fill:none"/></clipPath><clipPath id="clip-path-4"><path d="M142.43,30H159a2.56,2.56,0,0,1,2.56,2.56v2.07a2,2,0,0,1-2,2H141.21a.65.65,0,0,1-.65-.65V31.89A1.87,1.87,0,0,1,142.43,30Z" style="fill:none"/></clipPath><clipPath id="clip-path-5"><rect x="124.87" y="42.37" width="62.74" height="25.7" rx="8.87" style="fill:none"/></clipPath><clipPath id="clip-path-7"><rect x="90.83" y="24.35" width="18.02" height="5.67" rx="1.96" style="fill:none"/></clipPath><clipPath id="clip-path-8"><path d="M156,24.28A2.08,2.08,0,1,1,154,22.2,2.09,2.09,0,0,1,156,24.28Z" style="fill:#210089"/></clipPath><clipPath id="clip-path-9"><path d="M155.69,24.62a2.08,2.08,0,1,1-2.08-2.08A2.08,2.08,0,0,1,155.69,24.62Z" style="fill:#23c9f6"/></clipPath><clipPath id="clip-path-10"><path d="M149,24.28a2.08,2.08,0,1,1-2.08-2.08A2.09,2.09,0,0,1,149,24.28Z" style="fill:#210089"/></clipPath><clipPath id="clip-path-11"><path d="M148.69,24.62a2.09,2.09,0,1,1-2.08-2.08A2.08,2.08,0,0,1,148.69,24.62Z" style="fill:#23c9f6"/></clipPath><clipPath id="clip-path-12"><path d="M101.82,25.28A2.32,2.32,0,1,0,104.13,23,2.31,2.31,0,0,0,101.82,25.28Z" style="fill:#210089"/></clipPath><clipPath id="clip-path-13"><path d="M102.19,25.65a2.32,2.32,0,1,0,2.31-2.31A2.31,2.31,0,0,0,102.19,25.65Z" style="fill:#23c9f6"/></clipPath><clipPath id="clip-path-14"><path d="M95.35,32.69h13.89A1.29,1.29,0,0,1,110.52,34v1.76a2.63,2.63,0,0,1-2.63,2.63H94.44a1.27,1.27,0,0,1-1.27-1.27V34.87a2.18,2.18,0,0,1,2.18-2.18Z" style="fill:none"/></clipPath><clipPath id="clip-path-15"><path d="M89.34,32.67,97,21.83a1,1,0,0,1,1.43-.15,7.66,7.66,0,0,1-8.74,12.39A1,1,0,0,1,89.34,32.67Z" style="fill:none"/></clipPath><clipPath id="clip-path-16"><rect x="839.48" y="91.07" width="204.44" height="45.73" rx="12.41" transform="translate(740.72 -813.09) rotate(70.87)" style="fill:none"/></clipPath><clipPath id="clip-path-17"><rect x="839.56" y="127.85" width="204.44" height="45.73" rx="12.41" transform="translate(195.81 745.02) rotate(-47.64)" style="fill:none"/></clipPath><clipPath id="clip-path-18"><ellipse cx="804" cy="91.26" rx="28.64" ry="33.72" transform="translate(630.55 881.61) rotate(-84.1)" style="fill:none"/></clipPath><clipPath id="clip-path-19"><rect x="804.48" y="108.83" width="90.87" height="20.6" rx="5.59" transform="translate(16.75 -86.76) rotate(5.9)" style="fill:none"/></clipPath><clipPath id="clip-path-20"><circle cx="890.61" cy="123.33" r="15.66" style="fill:none"/></clipPath><clipPath id="clip-path-21"><rect x="890.56" y="96.92" width="100.74" height="58.98" rx="16.01" transform="translate(17.98 -96.08) rotate(5.9)" style="fill:none"/></clipPath><clipPath id="clip-path-22"><ellipse cx="986.97" cy="131.17" rx="15.66" ry="11.57" transform="translate(755.02 1099.42) rotate(-84.1)" style="fill:none"/></clipPath><clipPath id="clip-path-23"><path d="M993.43,112H1015a4.76,4.76,0,0,1,4.76,4.76v9.81a4.76,4.76,0,0,1-4.76,4.76h-21.6a5.25,5.25,0,0,1-5.25-5.25v-8.84a5.25,5.25,0,0,1,5.25-5.25Z" transform="translate(17.83 -102.58) rotate(5.9)" style="fill:none"/></clipPath></defs><g id="Stellar_Base" data-name="Stellar Base"><rect x="140.54" y="18.59" width="22.09" height="9.88" rx="3.41" transform="translate(17.02 97.18) rotate(-37.51)" style="fill:#358ded"/><rect x="139.01" y="19.43" width="23.03" height="9.88" rx="3.41" transform="translate(16.28 96.7) rotate(-37.51)" style="fill:#c4b2ff"/><g style="clip-path:url(#clip-path)"><rect x="143.45" y="21.23" width="23.03" height="9.88" rx="3.41" transform="translate(16.11 99.78) rotate(-37.51)" style="fill:#b099fa"/></g><circle cx="132.05" cy="54.38" r="41.88" style="fill:#8765fb"/><circle cx="147.4" cy="49.54" r="22.86" style="fill:#a980fd"/><circle cx="159.91" cy="31.36" r="3.67" style="fill:#b299fe"/><path d="M156.23,30.28h-16a3.68,3.68,0,1,1,0-7.35h16a3.68,3.68,0,1,1,0,7.35Z" style="fill:#b299fe"/><rect x="138.9" y="28.29" width="11.66" height="2.06" rx="0.71" style="fill:#ece7fe"/><path d="M138.89,24.68c-1.45-1.25-3.34-3.67-2.67-5.34.86-2.14,5.55-2,7.67-2A18,18,0,0,1,151.24,19c1.38.66,6.32,3,6,5C156.78,26.93,144.85,29.84,138.89,24.68Z" style="fill:#b299fe"/><rect x="139.22" y="23.77" width="18.02" height="5.67" rx="1.96" style="fill:#210089"/><circle cx="144.89" cy="26.68" r="2.67" style="fill:#8767fb"/><circle cx="151.9" cy="26.68" r="2.67" style="fill:#8767fb"/><g style="clip-path:url(#clip-path-2)"><path d="M122.2,10.33c2.85-1.76,5.58-4,7.34-3,2.37,1.4,2.21,8-.66,12.68s-6.84,4.74-10.35,7.67c-8,6.66-5.92,21.49-5.34,25.7,3.8,27.61,31.75,37,28.37,46.72-3.29,9.42-34.1,14.25-54.4-1-13.89-10.43-20-28.2-18-44.38C71.29,37.44,83,19.85,96.84,16.34,104.14,14.48,112.23,16.5,122.2,10.33Z" style="fill:#5a2ee5"/></g><g style="clip-path:url(#clip-path-2)"><circle cx="158.74" cy="70.57" r="22.86" style="fill:#a980fd"/></g><path d="M142.74,30h15.85a3,3,0,0,1,3,3v2.07A1.62,1.62,0,0,1,160,36.7h-18.5a.91.91,0,0,1-.91-.91V32.2A2.18,2.18,0,0,1,142.74,30Z" style="fill:#ece7fe"/><g style="clip-path:url(#clip-path-4)"><rect x="143.89" y="34.36" width="15.02" height="3" rx="1.04" style="fill:#c2b2fe"/><rect x="140.56" y="34.36" width="15.02" height="3" rx="1.04" style="fill:#ab98fc"/></g><rect x="157.91" y="28.35" width="2.67" height="10.35" rx="0.92" style="fill:#744bf7"/><rect x="167.59" y="27.02" width="2.67" height="14.02" rx="0.92" style="fill:#592fe2"/><rect x="165.25" y="24.68" width="2.67" height="14.02" rx="0.92" style="fill:#744bf7"/><rect x="83.49" y="52.71" width="71.42" height="30.7" rx="10.59" style="fill:#744bf7"/><path d="M137.65,52.71h32a10.59,10.59,0,0,1,10.59,10.59v9.51a10.59,10.59,0,0,1-10.59,10.59H137.55a9,9,0,0,1-9-9V61.82A9.11,9.11,0,0,1,137.65,52.71Z" style="fill:#b299fe"/><path d="M95.35,32.69h13.89A1.29,1.29,0,0,1,110.52,34v1.76a2.63,2.63,0,0,1-2.63,2.63H94.44a1.27,1.27,0,0,1-1.27-1.27V34.87A2.18,2.18,0,0,1,95.35,32.69Z" style="fill:#c5b3fd"/><rect x="82.82" y="36.03" width="71.42" height="30.7" rx="10.59" style="fill:#744bf7"/><path d="M134.46,36h32.61A12.54,12.54,0,0,1,179.6,48.57v9.51A8.65,8.65,0,0,1,171,66.73H134.33a6.45,6.45,0,0,1-6.45-6.45V42.61A6.58,6.58,0,0,1,134.46,36Z" style="fill:#b299fe"/><rect x="76.15" y="42.37" width="67.41" height="25.7" rx="8.87" style="fill:#ad93ff"/><rect x="148.9" y="36.03" width="9.68" height="3" rx="1.04" style="fill:#fff"/><path d="M155.48,36h11.58A12.54,12.54,0,0,1,179.6,48.57v9.51A8.65,8.65,0,0,1,171,66.73h-15.6a6.45,6.45,0,0,1-6.45-6.45V42.61A6.58,6.58,0,0,1,155.48,36Z" style="fill:#fff"/><rect x="143.89" y="38.7" width="30.7" height="9.68" rx="3.34" style="fill:#b299fe"/><rect x="124.87" y="42.37" width="63.07" height="25.7" rx="8.87" style="fill:#ede5ff"/><rect x="72.14" y="47.71" width="119.47" height="13.68" rx="4.72" style="fill:#fa0"/><rect x="77.82" y="54.38" width="107.13" height="7.01" rx="2.42" style="fill:#ff8d00"/><rect x="84.49" y="54.38" width="28.7" height="7.01" rx="2.42" style="fill:#ff7703"/><rect x="117.2" y="54.38" width="11.35" height="7.01" rx="2.42" style="fill:#ff7703"/><path d="M108.52,103.44c-4.76,9.18.79,22.45,2.33,22.36,1.16-.07,1.37-7.69,2.34-7.68,1.51,0,1.22,18.42,5,19,2.25.36,3.89-5.91,6.34-5.68,4.58.44,5.55,23.05,7.67,23,2.28,0,2.48-26.12,9.35-27.37,2.46-.44,4.14,2.6,6.34,1.67,4.06-1.71,1.72-13.56,4.67-14.35,1.75-.46,3.56,3.45,4.67,3,1.64-.65,1.46-10.66-3.34-16.69C144.62,89.09,115.74,89.51,108.52,103.44Z" style="fill:#df8f00"/><path d="M119.2,99.19c-7.69,8.2-3.27,22.49-.34,23,1.85.33,3.37-4.68,6-4.34,3.18.41,3.4,8,6.34,8.34,2.73.31,3.67-6.11,9-7.67,3.64-1.07,5.49,1.24,7.34,0,3.42-2.3,2.82-14-4-20C137.12,92.82,125.49,92.48,119.2,99.19Z" style="fill:#e0be08"/><path d="M125.2,103.11c-2.5,2.6-2.58,7.37-1,8.34,1.33.81,2.87-1.64,5.68-1.34,4.05.45,5.34,6.06,7,5.68,1.91-.44,4.13-8.65-.33-12.68C133.48,100.33,128,100.21,125.2,103.11Z" style="fill:#e8e8e6"/><rect x="133.74" y="47.58" width="30.18" height="8.81" rx="3.04" style="fill:#ffe100"/><rect x="168.92" y="47.68" width="11.61" height="8.81" rx="3.04" style="fill:#ffe100"/><g style="clip-path:url(#clip-path-5)"><rect x="124.87" y="62.73" width="54.12" height="5.34" rx="1.84" style="fill:#d8cdff"/></g><rect x="82.82" y="72.4" width="48.39" height="4.34" rx="1.5" style="fill:#572dde"/><rect x="127.54" y="72.4" width="54.06" height="4.34" rx="1.5" style="fill:#8b66fe"/><circle cx="145.56" cy="25.68" r="3" style="fill:#b299fe"/><circle cx="152.57" cy="25.68" r="3" style="fill:#b299fe"/><g style="clip-path:url(#clip-path-2)"><path d="M107.94,31H92.08a3.75,3.75,0,0,1-3.78-3.34,3.67,3.67,0,0,1,3.66-4h15.86A3.76,3.76,0,0,1,111.6,27,3.67,3.67,0,0,1,107.94,31Z" style="fill:#b299fe"/><rect x="90.83" y="24.35" width="18.02" height="5.67" rx="1.96" style="fill:#210089"/><g style="clip-path:url(#clip-path-7)"><circle cx="105.51" cy="28.02" r="2.67" style="fill:#8767fb"/></g></g><circle cx="146.23" cy="25.01" r="3" style="fill:#23c9f6"/><circle cx="153.24" cy="25.01" r="3" style="fill:#23c9f6"/><circle cx="153.9" cy="24.35" r="3" style="fill:#cdfdff"/><path d="M156,24.28A2.08,2.08,0,1,1,154,22.2,2.09,2.09,0,0,1,156,24.28Z" style="fill:#210089"/><g style="clip-path:url(#clip-path-8)"><path d="M155.69,24.62a2.08,2.08,0,1,1-2.08-2.08A2.08,2.08,0,0,1,155.69,24.62Z" style="fill:#23c9f6"/><g style="clip-path:url(#clip-path-9)"><path d="M156,24A2.08,2.08,0,1,1,154,21.87,2.08,2.08,0,0,1,156,24Z" style="fill:#23c9f6"/><circle cx="156.24" cy="20.68" r="4.34" style="fill:#ece7fe"/></g></g><circle cx="146.9" cy="24.35" r="3" style="fill:#cdfdff"/><path d="M149,24.28a2.08,2.08,0,1,1-2.08-2.08A2.09,2.09,0,0,1,149,24.28Z" style="fill:#210089"/><g style="clip-path:url(#clip-path-10)"><path d="M148.69,24.62a2.09,2.09,0,1,1-2.08-2.08A2.08,2.08,0,0,1,148.69,24.62Z" style="fill:#23c9f6"/><g style="clip-path:url(#clip-path-11)"><path d="M149,24a2.08,2.08,0,1,1-2.08-2.08A2.08,2.08,0,0,1,149,24Z" style="fill:#23c9f6"/><circle cx="149.23" cy="20.68" r="4.34" style="fill:#ece7fe"/></g></g><circle cx="104.68" cy="26.18" r="3.17" style="fill:#b299fe"/><circle cx="104.18" cy="25.35" r="3.34" style="fill:#cdfdff"/><path d="M101.82,25.28A2.32,2.32,0,1,0,104.13,23,2.31,2.31,0,0,0,101.82,25.28Z" style="fill:#210089"/><g style="clip-path:url(#clip-path-12)"><path d="M102.19,25.65a2.32,2.32,0,1,0,2.31-2.31A2.31,2.31,0,0,0,102.19,25.65Z" style="fill:#23c9f6"/><g style="clip-path:url(#clip-path-13)"><path d="M101.82,24.91a2.32,2.32,0,1,0,2.31-2.32A2.31,2.31,0,0,0,101.82,24.91Z" style="fill:#23c9f6"/><circle cx="101.58" cy="21.27" r="4.82" style="fill:#ece7fe"/></g></g><g style="clip-path:url(#clip-path-14)"><path d="M107.69,29.35h13.89a1.29,1.29,0,0,1,1.29,1.29V32.4A2.63,2.63,0,0,1,120.24,35h-13a1.74,1.74,0,0,1-1.74-1.74V31.53a2.18,2.18,0,0,1,2.18-2.18Z" style="fill:#ede5ff"/></g><rect x="96.5" y="27.35" width="2.67" height="10.35" style="fill:#744bf7"/><rect x="90.5" y="27.68" width="9.34" height="2.34" rx="0.81" transform="translate(34.06 -49.6) rotate(35.22)" style="fill:#744bf7"/><path d="M89.36,32.64,97,21.8a1,1,0,0,1,1.43-.15A7.66,7.66,0,0,1,89.7,34,1,1,0,0,1,89.36,32.64Z" style="fill:#b299ff"/><g style="clip-path:url(#clip-path-15)"><path d="M97.57,21.84l.48-.32c.61-.4,2,.89,2.47,2.29a6.44,6.44,0,0,1,.36,2.15c0,1.06-1.26.63-2.18-.75L98,24.13C97.33,23.15,97.15,22.12,97.57,21.84Z" style="fill:#8a67ff;stroke:#8a67ff;stroke-miterlimit:10;stroke-width:10px"/><rect x="89.42" y="28.04" width="3.48" height="8.06" rx="1.2" transform="translate(147.15 110.83) rotate(-144.78)" style="fill:#c2b6ff"/></g><rect x="101.84" y="29.02" width="2.67" height="10.35" rx="0.92" style="fill:#744bf7"/><rect x="117.86" y="31.69" width="2.67" height="10.35" rx="0.92" style="fill:#744bf7"/><rect x="121.2" y="28.02" width="2.67" height="10.35" rx="0.92" style="fill:#744bf7"/><rect x="105.51" y="94.1" width="53.06" height="7.68" style="fill:#6f48ed"/><rect x="102.18" y="89.42" width="59.74" height="6.34" rx="2.19" style="fill:#a790ef"/><rect x="102.51" y="98.77" width="59.74" height="6.34" rx="2.19" style="fill:#a790ef"/></g><g id="Shield"><ellipse cx="216" cy="54.5" rx="38" ry="22.5" transform="translate(148.1 266.67) rotate(-86.41)" style="fill:#744bf7;opacity:0.78"/><ellipse cx="216.88" cy="54.58" rx="29.44" ry="17.43" transform="translate(148.85 267.63) rotate(-86.41)" style="fill:#b299fe;opacity:0.78"/><ellipse cx="217.52" cy="54.85" rx="22.89" ry="13.55" transform="translate(149.17 268.52) rotate(-86.41)" style="fill:#ede5ff;opacity:0.78"/><ellipse cx="216" cy="52.5" rx="12.06" ry="5.36" transform="translate(139.53 261.22) rotate(-83.54)" style="fill:#23a5fd;opacity:0.65"/><ellipse cx="216" cy="52.5" rx="9.05" ry="3.38" transform="translate(140.13 261.44) rotate(-83.71)" style="fill:#03d9ff;opacity:0.65"/><ellipse cx="216" cy="53" rx="7.53" ry="2.4" transform="translate(142.53 262.92) rotate(-84.5)" style="fill:#00dffc;opacity:0.65"/><path d="M176.29,4.07H176a2.46,2.46,0,0,0-2.46,2.46V7A2.46,2.46,0,0,0,176,9.5h.54q2.25,0,4.44.21a2.48,2.48,0,0,0,2.17-.87l.37-.45a2.47,2.47,0,0,0-1.62-4A51.28,51.28,0,0,0,176.29,4.07Zm25.52,89.84a44.35,44.35,0,0,1-6.63,3.63,2.46,2.46,0,0,0-.71,4h0a2.42,2.42,0,0,0,2.71.52,50.91,50.91,0,0,0,7.32-4,2.47,2.47,0,0,0-1.35-4.53h0A2.49,2.49,0,0,0,201.81,93.91ZM192.52,8.45l-.28.33a2.47,2.47,0,0,0,1,3.88,45.68,45.68,0,0,1,8.53,4.43,2.49,2.49,0,0,0,1.35.41h.64A2.47,2.47,0,0,0,205.18,13a51.1,51.1,0,0,0-9.82-5.25A2.47,2.47,0,0,0,192.52,8.45Z" style="fill:#744bf7;opacity:0.78"/></g><g id="Stellar_Engine" data-name="Stellar Engine"><path d="M910.43,107.42,847.09,42.18a2.63,2.63,0,0,1-1.37-1.41c-1.63-4.69,14.85-14.66,36.79-22.28s41.06-10,42.68-5.29h0a2.61,2.61,0,0,1-.2,2l-9.33,90.45A3.05,3.05,0,0,1,910.43,107.42Z" style="fill:#c1bff0"/><path d="M915.67,105.62,925,15.17a3.36,3.36,0,0,0,.3-1,2,2,0,0,0-.1-.92c-1.62-4.69-20.73-2.32-42.68,5.29s-38.41,17.59-36.79,22.28a2.63,2.63,0,0,0,1.37,1.41l63.35,65.24A3,3,0,0,0,915.67,105.62Zm-8-8L856.94,42.87a2.25,2.25,0,0,1-1.11-1.18c-1.34-3.89,11.44-11.86,28.55-17.79s32.09-7.6,33.44-3.72a2.27,2.27,0,0,1-.13,1.62l-5.94,74.4A2.32,2.32,0,0,1,907.68,97.62Z" style="fill:#8772fc"/><g style="clip-path:url(#clip-path-16)"><path d="M910.8,103,847.46,37.79a2.59,2.59,0,0,1-1.38-1.41c-1.62-4.69,14.85-14.66,36.79-22.27s41.06-10,42.68-5.3h0a2.56,2.56,0,0,1-.2,2L916,101.22A3,3,0,0,1,910.8,103Z" style="fill:#7c69e8"/></g><path d="M916.88,121.25l2.54-.88a9.55,9.55,0,0,0,1.83-.85c.24-.15.48-.3.7-.46s.45-.34.65-.52a9.81,9.81,0,0,0,2.88-10.66L914.62,76.57a5.15,5.15,0,0,0-2.49-2.88,14.44,14.44,0,0,0-5.42-1.61l-.44,0a11.91,11.91,0,0,0-1.46,0,14.27,14.27,0,0,0-1.43.17c-.37.07-.74.16-1.11.26a13.33,13.33,0,0,0-8.65,7.68,5.11,5.11,0,0,0-.11,3.67l10.88,31.34a9.81,9.81,0,0,0,12.19,6.16Z" style="fill:#8a72ff"/><path d="M921.83,119l.78-.27A9.87,9.87,0,0,0,925.5,108l-10.92-31.5a5.25,5.25,0,0,0-2.51-2.91,14.6,14.6,0,0,0-5.45-1.62,4.67,4.67,0,0,0,0,3.13L921.83,119Z" style="fill:#380073"/><path d="M863,58.43l2-1,3.89-1.84-2.68-2.89-7.51-8.1L857,42.87a2.24,2.24,0,0,1-1.1-1.19c-.48-1.37.81-3.26,3.43-5.38,4.8-3.88,14-8.57,25.12-12.41,2.55-.89,5.06-1.68,7.48-2.37l.16-.05A2.88,2.88,0,0,0,890.35,16c-2.52.75-5.1,1.59-7.73,2.5-21.94,7.61-38.41,17.58-36.79,22.27a1.42,1.42,0,0,0,.08.18,2.71,2.71,0,0,0,1.3,1.24l6.21,6.4,6.79,7Z" style="fill:#c2b3ff"/><path d="M880.73,68.55,862.08,48.2a3.2,3.2,0,0,0-4.61-.13h0a3.21,3.21,0,0,0-.08,4.53l18.94,19.74a1.88,1.88,0,0,0,2.45.21l1.68-1.24A1.86,1.86,0,0,0,880.73,68.55Z" style="fill:#ffdbda"/><path d="M925.45,151.42l3.34-1.16a13,13,0,0,0,2.41-1.13c.32-.19.63-.39.93-.61a12.92,12.92,0,0,0,4.64-14.72l-14.3-41.23a6.8,6.8,0,0,0-3.28-3.79,18.57,18.57,0,0,0-7.72-2.16,15.45,15.45,0,0,0-1.92,0,15.79,15.79,0,0,0-1.88.23h0c-.47.08-.94.2-1.43.33a17.53,17.53,0,0,0-11.38,10.12,6.71,6.71,0,0,0-.14,4.83L909,143.44a12.91,12.91,0,0,0,16.06,8.1Z" style="fill:#8a72ff"/><path d="M928.15,150.48l.64-.22a13,13,0,0,0,2.41-1.13c.32-.19.63-.39.93-.61a12.92,12.92,0,0,0,4.64-14.72l-14.3-41.23a6.8,6.8,0,0,0-3.28-3.79,18.57,18.57,0,0,0-7.72-2.16,15.45,15.45,0,0,0-1.92,0,15.79,15.79,0,0,0-1.88.23h0a5.56,5.56,0,0,0-.18,3.93Z" style="fill:#380073"/><path d="M897,105.1l2.08-.72a1.21,1.21,0,0,0,.75-1.54h0a4.64,4.64,0,0,1,.1-3.34,12.3,12.3,0,0,1,5-5.74,2.91,2.91,0,0,0,1.26-3.45h0a2.9,2.9,0,0,0-4.23-1.54,17.72,17.72,0,0,0-7.17,8.3,6.71,6.71,0,0,0-.14,4.83l.85,2.46A1.21,1.21,0,0,0,897,105.1Z" style="fill:#c1b3ff"/><path d="M910.48,144.37l-83.94,35a2.6,2.6,0,0,0-1.82.76c-3.34,3.66,7.86,19.32,25,35s33.79,25.37,37.13,21.71h0a2.58,2.58,0,0,0,.59-1.89l27.11-86.79A3.06,3.06,0,0,0,910.48,144.37Z" style="fill:#c1bff0"/><path d="M910.5,144.37l-83.94,35a2.64,2.64,0,0,0-1.82.76c-3.35,3.67,7.86,19.33,25,35s33.79,25.37,37.13,21.7a2,2,0,0,0,.45-.81,3.56,3.56,0,0,0,.14-1.07l27.1-86.8A3,3,0,0,0,910.5,144.37Zm-3.23,10.83-23.9,70.71a2.22,2.22,0,0,1-.52,1.54c-2.77,3-15.87-4.39-29.25-16.6s-22-24.57-19.22-27.61a2.23,2.23,0,0,1,1.48-.66l68.22-30.29A2.33,2.33,0,0,1,907.27,155.2Z" style="fill:#8772fc"/><g style="clip-path:url(#clip-path-17)"><path d="M909.08,148.55l-83.94,35a2.64,2.64,0,0,0-1.82.76c-3.34,3.67,7.86,19.33,25,35s33.78,25.37,37.13,21.7h0a2.59,2.59,0,0,0,.58-1.88l27.11-86.79A3.05,3.05,0,0,0,909.08,148.55Z" style="fill:#7c69e8"/></g><path d="M921.86,134.21l2,1.8a10.07,10.07,0,0,1,1.35,1.51l.47.7c.14.24.27.49.39.74a9.81,9.81,0,0,1-1.57,10.93l-22.32,24.48a5.18,5.18,0,0,1-3.43,1.67,14.44,14.44,0,0,1-5.61-.66l-.42-.15a13,13,0,0,1-1.34-.59,13.21,13.21,0,0,1-1.24-.72c-.31-.21-.62-.44-.92-.68a13.36,13.36,0,0,1-4.92-10.47,5.14,5.14,0,0,1,1.35-3.41L908,134.84a9.82,9.82,0,0,1,13.64-.84Z" style="fill:#8a72ff"/><path d="M925.51,138.27l.61.55a9.88,9.88,0,0,1-1.58,11l-22.47,24.64a5.17,5.17,0,0,1-3.44,1.68,14.62,14.62,0,0,1-5.65-.66,4.67,4.67,0,0,1,1.21-2.88l31.31-34.33Z" style="fill:#380073"/><path d="M843.88,172.2l-9,3.75-8.23,3.43A2.74,2.74,0,0,0,825,180a.86.86,0,0,0-.13.14c-3.35,3.66,7.86,19.32,25,35,2,1.87,4.1,3.65,6.11,5.34a2.88,2.88,0,0,0,3.8-4.33l-.13-.1c-2-1.59-3.94-3.31-5.94-5.13C845,203,838.38,195,835.5,189.58c-1.57-3-2-5.22-1-6.29a2.23,2.23,0,0,1,1.48-.66l2.23-1,10.08-4.48,3.61-1.6L849,172.34l-1.47-1.67Z" style="fill:#c2b3ff"/><path d="M868.69,165.74l-1.05-1.81a1.86,1.86,0,0,0-2.34-.77l-25.19,10.66a3.22,3.22,0,0,0-1.71,4.2h0a3.21,3.21,0,0,0,4.29,1.7l25.16-11.35A1.85,1.85,0,0,0,868.69,165.74Z" style="fill:#ffdbda"/><path d="M941.64,109.87l2.61,2.38a12.74,12.74,0,0,1,1.77,2c.22.3.42.61.61.92a12.94,12.94,0,0,1-1.54,15.36l-29.4,32.25a6.81,6.81,0,0,1-4.52,2.19,18.73,18.73,0,0,1-7.94-1.06,16.9,16.9,0,0,1-1.76-.78,14.46,14.46,0,0,1-1.64-1l0,0c-.39-.27-.79-.56-1.18-.87a17.54,17.54,0,0,1-6.47-13.79,6.73,6.73,0,0,1,1.77-4.49l29.45-32.29a12.92,12.92,0,0,1,18-1.11Z" style="fill:#8a72ff"/><path d="M943.75,111.8l.5.45a12.74,12.74,0,0,1,1.77,2c.22.3.42.61.61.92a12.94,12.94,0,0,1-1.54,15.36l-29.4,32.25a6.81,6.81,0,0,1-4.52,2.19,18.73,18.73,0,0,1-7.94-1.06,16.9,16.9,0,0,1-1.76-.78,14.46,14.46,0,0,1-1.64-1l0,0a5.51,5.51,0,0,1,1.39-3.68Z" style="fill:#380073"/><path d="M897.21,141.2l1.62,1.48a1.21,1.21,0,0,1,.08,1.71h0a4.72,4.72,0,0,0-1.23,3.11,12.25,12.25,0,0,0,2.3,7.23,2.91,2.91,0,0,1-.2,3.66h0a2.91,2.91,0,0,1-4.5-.24A17.85,17.85,0,0,1,892,147.69a6.74,6.74,0,0,1,1.78-4.49l1.75-1.93A1.22,1.22,0,0,1,897.21,141.2Z" style="fill:#c1b3ff"/><path d="M965.16,103.38l.48-4.63h0c-.06-.28-.39-.58-1-.88h0c-2.42-1.3-9.08-2.74-17-3.56l-.61-.06c-9.51-.94-17.29-.61-17.88.75h0l-.48,4.64h0c0,1.48,8,3.51,18,4.54s18.21.68,18.52-.77Z" style="fill:#ba31d4"/><path d="M952,98.24a3.67,3.67,0,0,0-2.74-3.88,4.52,4.52,0,0,0-.53-.11,4.34,4.34,0,0,0-.51,0h-.06c-3.41-.35-6.63-.56-9.42-.62-1.86,0-3.54,0-5,.06l-.11.08a3.5,3.5,0,0,0-.81,4.72c1.91-.1,4.34-.1,7.1,0,1.53.06,3.16.17,4.87.31l2.85.27c1.34.14,2.65.29,3.92.46A3.64,3.64,0,0,0,952,98.24Z" style="fill:#ff54bd"/><path d="M940.17,97.11a3.66,3.66,0,0,0-1.6-3.44c-1.77,0-3.36,0-4.71.09-2.69.18-4.42.59-4.69,1.22h0l-.48,4.64h.09c.32-.51,1.84-.85,4.19-1a64.87,64.87,0,0,1,6.75,0A3.68,3.68,0,0,0,940.17,97.11Z" style="fill:#fe82cf"/><path d="M965,103.36l.49-4.77h0c0-.26-.3-.52-.74-.8h0c-2.43-1.32-9.13-2.78-17.1-3.6l-.61-.06a3.75,3.75,0,0,0-1.44.75,3.86,3.86,0,0,0-1.33,2.54,3.79,3.79,0,0,0,.11,1.39c.89.07,1.79.16,2.72.25,1.28.14,2.54.28,3.74.45,7.81,1,13.69,2.62,14.13,3.85Z" style="fill:#ba31d4"/><rect x="214.56" y="69.71" width="565.92" height="23.68" transform="translate(11.02 -50.72) rotate(5.9)" style="fill:#23a5fd"/><rect x="214.56" y="72.43" width="565.92" height="18.24" transform="translate(11.02 -50.72) rotate(5.9)" style="fill:#03d9ff"/><rect x="214.51" y="74.61" width="565.92" height="14.7" transform="translate(11.06 -50.72) rotate(5.9)" style="fill:#00dffc"/><ellipse cx="785" cy="111.5" rx="17.94" ry="22.55" transform="translate(587.94 879.5) rotate(-83.69)" style="fill:#00dffc"/><ellipse cx="782.11" cy="112.06" rx="11.57" ry="9.26" transform="translate(590.23 878.51) rotate(-84.1)" style="fill:#fffffd"/><path d="M792.9,91.44a11.51,11.51,0,0,1,6.61-1.39c.27,0,.54.07.8.12h0c.35,0,.7,0,1,.08a19,19,0,0,1,13.68,8.5,26.32,26.32,0,0,1,4.21,17.56c-1.37,13.23-11.6,23-22.85,21.86l-1-.14h0q-.4,0-.81-.06a11.38,11.38,0,0,1-6.19-2.7c-5.15-4.3-8.14-13.11-7.13-22.89S787,94.59,792.9,91.44Z" style="fill:#5727d6"/><g style="clip-path:url(#clip-path-18)"><path d="M793.19,90.33A11.43,11.43,0,0,1,799.8,89c.27,0,.54.06.8.11h0c.34,0,.69,0,1,.08a19,19,0,0,1,13.68,8.51,26.31,26.31,0,0,1,4.22,17.56c-1.37,13.23-11.6,23-22.85,21.85-.35,0-.7-.08-1-.14h0a7.67,7.67,0,0,1-.82,0,11.47,11.47,0,0,1-6.18-2.71c-5.15-4.3-8.14-13.1-7.13-22.88S787.27,93.49,793.19,90.33Z" style="fill:#380073"/></g><rect x="804.48" y="108.83" width="90.87" height="20.6" rx="5.59" transform="translate(16.75 -86.76) rotate(5.9)" style="fill:#5727d6"/><g style="clip-path:url(#clip-path-19)"><rect x="745.63" y="91.86" width="165.78" height="20.6" rx="5.59" transform="translate(14.9 -84.65) rotate(5.9)" style="fill:#380073"/></g><ellipse cx="882.13" cy="122.38" rx="13.47" ry="9.95" transform="translate(669.69 987.25) rotate(-84.1)" style="fill:#00a0ff"/><path d="M878.09,131.92h0a1.89,1.89,0,0,0-.41-2,9.07,9.07,0,0,1-2.22-4.49,1.57,1.57,0,0,0-1.39-1.28h0a1.6,1.6,0,0,0-1.73,1.83,14.06,14.06,0,0,0,2.54,6.36A1.86,1.86,0,0,0,878.09,131.92Z" style="fill:#00f6ff"/><circle cx="890.61" cy="123.33" r="15.66" style="fill:#5727d6"/><path d="M900.86,124.36s0,.07,0,.1A10.35,10.35,0,0,1,882.56,130a2.63,2.63,0,0,0-2.66-.88h0a2.64,2.64,0,0,0-1.44,4.22A15.66,15.66,0,0,0,899,136.56a8.27,8.27,0,0,0,1.89-12.18Z" style="fill:#8873fe"/><g style="clip-path:url(#clip-path-20)"><circle cx="891.5" cy="113.35" r="15.66" style="fill:#380073"/></g><rect x="884.53" y="108.57" width="40.64" height="31.32" rx="8.5" transform="translate(17.57 -92.38) rotate(5.9)" style="fill:#5727d5"/><path d="M893.5,138.12a1.58,1.58,0,0,0,2.27-1.31h0a1.59,1.59,0,0,0-.82-1.49,12.65,12.65,0,0,1-3.47-2.82,12.81,12.81,0,0,1-3.06-6.88,1.58,1.58,0,0,0-1.46-1.4l-.48,0A1.59,1.59,0,0,0,884.8,126a15.68,15.68,0,0,0,8.7,12.16Z" style="fill:#00a0ff"/><rect x="890.56" y="96.92" width="100.74" height="58.98" rx="16.01" transform="translate(17.98 -96.08) rotate(5.9)" style="fill:#5727d5"/><g style="clip-path:url(#clip-path-21)"><rect x="930.01" y="99.18" width="66.18" height="49.67" rx="13.48" transform="translate(17.86 -98.37) rotate(5.9)" style="fill:#380073"/></g><path d="M933.2,153.2a2,2,0,0,0-1.82-2.25l-1.9-.19a29.49,29.49,0,0,1-15.37-52.38,1.53,1.53,0,0,0-1.33-2.68,29.49,29.49,0,0,0,4.35,57.89L931,155A2,2,0,0,0,933.2,153.2Z" style="fill:#8873fe"/><path d="M900.11,145.88a2.42,2.42,0,0,0,2-4c-.33-.36-.65-.73-1-1.11a25.09,25.09,0,0,1-5.63-15.32,2.41,2.41,0,0,0-2.16-2.35l-.24,0a2.42,2.42,0,0,0-2.67,2.45,29.34,29.34,0,0,0,6.6,17.92q.74.9,1.53,1.74a2.39,2.39,0,0,0,1.5.74Z" style="fill:#ffdbda"/><path d="M889.45,122.22c3.42-4,9.93-5.5,9.93-5.5a30.41,30.41,0,0,1,5.47-.71,14.64,14.64,0,0,1,4.45-.45c1.08,0,3.45.16,3.59.86.19,1-3.38,2.41-6,3.48h0c-7.17,2.71-11,3.72-14.72,3.87-1.7.07-2.88-.06-3.06-.6C889,122.85,889.24,122.46,889.45,122.22Z" style="fill:#5727d5"/><path d="M909.51,122.8c5.37-.06,11.51.1,18.13.52l.42-4.07c-22.56-1.41-39.44,0-39.83,3.77v.07a2.17,2.17,0,0,0,.84,1.61,1.24,1.24,0,0,0,1.31.25C893.85,123.64,900.64,122.9,909.51,122.8Z" style="fill:#c1b3ff"/><path d="M993.22,133.87c.46-4.46-22.67-10.5-51.66-13.5l-3.79-.37-.42,4.07,3.79.37c23.6,2.44,43.32,6.9,49.58,10.88l0,0a1.22,1.22,0,0,0,1.3,0,2.19,2.19,0,0,0,1.16-1.4A.17.17,0,0,1,993.22,133.87Z" style="fill:#5727d7"/><path d="M941.11,124.45c3.91.4,7.72.86,11.38,1.37A2,2,0,0,0,954.8,124h0a2,2,0,0,0-1.75-2.23c-3.7-.51-7.55-1-11.52-1.39-9.95-1-19.3-1.56-27.31-1.64a2,2,0,0,0-.23,4.06h.19C922.1,122.9,931.31,123.44,941.11,124.45Z" style="fill:#ab8ffc"/><ellipse cx="986.97" cy="131.17" rx="15.66" ry="11.57" transform="translate(755.02 1099.42) rotate(-84.1)" style="fill:#5727d5"/><g style="clip-path:url(#clip-path-22)"><ellipse cx="985.04" cy="121.74" rx="15.66" ry="18.84" transform="translate(762.66 1089.04) rotate(-84.1)" style="fill:#380073"/></g><path d="M982.89,143.17h0a1.76,1.76,0,0,0-.66-1.58c-2.72-2.19-4.33-6.43-3.84-11.1a13.33,13.33,0,0,1,.24-1.56,1.46,1.46,0,0,0-1.28-1.74h0a1.45,1.45,0,0,0-1.57,1.16c-.12.61-.21,1.23-.28,1.87-.59,5.75,1.2,11,4.35,14.07A1.8,1.8,0,0,0,982.89,143.17Z" style="fill:#00a0ff"/><ellipse cx="995.67" cy="132.06" rx="11.29" ry="8.75" transform="translate(761.93 1108.88) rotate(-84.1)" style="fill:#a691ff"/><path d="M989.38,128.48h0a1.47,1.47,0,0,0-2.13,1,13.55,13.55,0,0,0-.28,1.71c-.64,6.2,2.74,11.63,7.54,12.12l.54,0a1.28,1.28,0,0,0,1.28-1.15h0a1.27,1.27,0,0,0-1.24-1.4,2.11,2.11,0,0,1-.35,0c-3.16-.32-5.31-4.52-4.81-9.36a11.19,11.19,0,0,1,.2-1.33A1.48,1.48,0,0,0,989.38,128.48Z" style="fill:#c2b3ff"/><path d="M1004.37,133c.65-6.2-2.73-11.63-7.54-12.12a7.72,7.72,0,0,0-6.08,2.24,1.33,1.33,0,0,0,.28,2.13h0a1.34,1.34,0,0,0,1.6-.28,4.76,4.76,0,0,1,3.92-1.71c3.16.33,5.32,4.52,4.82,9.36a13,13,0,0,1-.8,3.36,1.47,1.47,0,0,0,1.21,2h.05a1.45,1.45,0,0,0,1.49-.88A13.87,13.87,0,0,0,1004.37,133Z" style="fill:#5727d6"/><path d="M994.71,122.62h10.73a4.76,4.76,0,0,1,4.76,4.76v9.81a4.76,4.76,0,0,1-4.76,4.76H994.71a5.25,5.25,0,0,1-5.25-5.25v-8.84a5.25,5.25,0,0,1,5.25-5.25Z" transform="translate(18.9 -102.1) rotate(5.9)" style="fill:#8873fe"/><g style="clip-path:url(#clip-path-23)"><path d="M994.91,122.07h10.73a4.76,4.76,0,0,1,4.76,4.76v9.81a4.76,4.76,0,0,1-4.76,4.76H994.91a5.25,5.25,0,0,1-5.25-5.25v-8.84a5.25,5.25,0,0,1,5.25-5.25Z" transform="translate(18.85 -102.12) rotate(5.9)" style="fill:#5727d6"/></g><ellipse cx="1008.4" cy="133.1" rx="12.84" ry="9.95" transform="translate(772.33 1122.47) rotate(-84.1)" style="fill:#a591fe"/><rect x="994.9" y="137.63" width="18.34" height="4.8" rx="1.3" transform="translate(19.72 -102.5) rotate(5.9)" style="fill:#a591fe"/><path d="M998.31,134c0,5,2.27,9.26,5.68,11.11a1.93,1.93,0,0,0,2.83-1.5h0a1.94,1.94,0,0,0-1.12-2c-2.54-1.11-4.27-4.13-4.34-7.66a1.53,1.53,0,0,0-1.37-1.5h0A1.52,1.52,0,0,0,998.31,134Z" style="fill:#ffdbda"/><path d="M1034.5,158a15.05,15.05,0,0,1-7.73,1.27c-.32,0-.63-.07-1-.13h0l-1.23-.09a24.09,24.09,0,1,1,5-47.92q.62.06,1.23.15h0l1,.07a15.16,15.16,0,0,1,7.32,2.83c6.12,4.4,9.79,13.27,8.78,23.05S1041.4,155,1034.5,158Z" style="fill:#a591fe"/><path d="M1033.48,113.53a2,2,0,0,0-1.77-2.17c-.32,0-.64-.06-1-.07h0l-1.22-.16a24,24,0,0,0-17.69,5.29,2.41,2.41,0,0,0,1.27,4.26l-.15,0a2.4,2.4,0,0,0,1.73-.5,19.47,19.47,0,0,1,14.14-4.13l1,.13-.19,0s.49.17.74.22h0a2.82,2.82,0,0,0,3.06-2.51Z" style="fill:#8772fc"/><path d="M1015.51,119.63a1.61,1.61,0,0,0-.78-2.9l-2.51-.26a1,1,0,0,0-.76.23,24,24,0,0,0-8.32,15.83l-.06.64a1.07,1.07,0,0,0,.95,1.18l2.54.26a1,1,0,0,0,1.13-.93l.07-.6A19,19,0,0,1,1015.51,119.63Z" style="fill:#a591fe"/><path d="M1002.45,133.76c-.11-.3,0-.74.72-1.49,5.29-5.64,19.22-3.09,19.94-2.19a2.66,2.66,0,0,1,.48.9,2.31,2.31,0,0,1,.08.57c-.15,1.41-12.37,2.44-12.88,2.5C1004,134.86,1002.67,134.38,1002.45,133.76Z" style="fill:#5727d5"/><rect x="1037.67" y="131.67" width="81.67" height="19.06" rx="5.17" transform="translate(20.23 -110.14) rotate(5.9)" style="fill:#df8f00"/><rect x="1021.31" y="121.48" width="49" height="31.31" rx="8.5" transform="translate(19.64 -106.8) rotate(5.9)" style="fill:#df8f00"/><rect x="1053.39" y="135.76" width="60.98" height="12.79" rx="3.47" transform="translate(20.36 -110.69) rotate(5.9)" style="fill:#e0be08"/><rect x="1021.25" y="126.12" width="44.12" height="22.6" rx="6.13" transform="translate(19.66 -106.54) rotate(5.9)" style="fill:#e0be08"/><path d="M1044.79,141l-5.16-.54a41,41,0,0,0-12.57,3.59,5.74,5.74,0,0,1-1.84-10.92,5.65,5.65,0,0,1-.37-2.69,5.75,5.75,0,1,1,11.43,1.18h0a5.76,5.76,0,0,1,4,3.45l5.11.53a2.71,2.71,0,0,1,2.42,3h0A2.72,2.72,0,0,1,1044.79,141Z" style="fill:#e8e8e6"/><path d="M1044.72,122.38c-2-3.21-4.84-5.32-8.14-5.66-7.28-.75-14.07,7.34-15.18,18.07s3.88,20.05,11.16,20.8a10.78,10.78,0,0,0,8.47-3.22l-6.17-.63a15.16,15.16,0,0,1-2.45-.47,6.26,6.26,0,0,1-1-.29h0c-4.19-1.72-6.83-8.26-6.06-15.72.6-5.79,3.1-10.62,6.27-12.88h0a6.64,6.64,0,0,1,4.54-1.33,5.88,5.88,0,0,1,2.2.68Z" style="fill:#380073"/><path d="M1028.14,155.92a2.63,2.63,0,0,0-2.58-1.62c-.32,0-.64,0-1-.07a19.06,19.06,0,0,1-17-20.78,1.64,1.64,0,0,1-1.76,1.22l-1.3-.13a1.71,1.71,0,0,1-1.52-1.48,24,24,0,0,0,21.46,26c.41.05.82.08,1.22.1h0A2.75,2.75,0,0,0,1028.14,155.92Z" style="fill:#ffdbda"/><path d="M1014.3,134.45a76.87,76.87,0,0,1,8.37.79,2,2,0,0,0,2.21-1.56h0a2,2,0,0,0-1.6-2.47c-11.46-1.63-20.2-.64-21,2.8a.25.25,0,0,0,0,.07,2.7,2.7,0,0,0,.19,1.61c.14.34.41.45.69.28C1005.31,134.8,1009.27,134.28,1014.3,134.45Z" style="fill:#c1b3ff"/><path d="M1014.05,132.63a2,2,0,0,0-2-2.18c-5.56.17-9.27,1.37-9.79,3.55a.64.64,0,0,1,0,.07,2.7,2.7,0,0,0,.19,1.61.46.46,0,0,0,.7.28c1.86-1,5-1.52,9-1.55A2,2,0,0,0,1014.05,132.63Z" style="fill:#ffdbda"/><path d="M1023.39,143.72h0a2,2,0,0,0,2.18-2.28c-.1-.63-.17-1.28-.22-1.95a2,2,0,0,0-1.79-1.85h0a2,2,0,0,0-2.2,2.14q.09,1.17.27,2.28A2,2,0,0,0,1023.39,143.72Zm9.44,11.91a2,2,0,0,0,2.15-1.79l0-.24a2,2,0,0,0-1.82-2.2h-.08a7.28,7.28,0,0,1-5.26-3.63,2,2,0,0,0-1.47-.89h0a2,2,0,0,0-1.91,3c2,3.23,4.85,5.36,8.17,5.71Z" style="fill:#5727d7"/><path d="M963,161l.58-5.61h0c-.07-.35-.47-.71-1.16-1.08h0C959.52,152.76,951.5,151,942,150l-.73-.07c-11.45-1.13-20.82-.72-21.53.92h0l-.58,5.61h0c0,1.81,9.61,4.25,21.62,5.49s21.93.82,22.3-.95Z" style="fill:#ba31d4"/><path d="M947.07,154.92a4.44,4.44,0,0,0-3.31-4.67,4.53,4.53,0,0,0-.64-.13,4.14,4.14,0,0,0-.61,0h-.08c-4.1-.43-8-.67-11.33-.74-2.25-.06-4.26,0-6,.07l-.13.09a4.28,4.28,0,0,0-1.64,2.94,4.23,4.23,0,0,0,.66,2.75c2.3-.13,5.23-.12,8.56,0,1.84.09,3.8.21,5.86.39,1.12.09,2.26.2,3.43.32,1.62.16,3.2.35,4.72.55A4.23,4.23,0,0,0,947.07,154.92Z" style="fill:#ff54bd"/><path d="M933.05,153.47a4.47,4.47,0,0,0-1.95-4.17c-2.14,0-4.07,0-5.71.11-3.26.22-5.36.72-5.68,1.47h0l-.58,5.61h.11c.39-.62,2.24-1,5.08-1.22a81.27,81.27,0,0,1,8.18,0A4.5,4.5,0,0,0,933.05,153.47Z" style="fill:#fe82cf"/><path d="M962.75,161l.6-5.75h0c-.06-.31-.37-.63-.89-1h0c-2.93-1.59-11-3.34-20.61-4.34l-.74-.07a4.35,4.35,0,0,0-1.73.9,4.67,4.67,0,0,0-1.48,4.74c1.07.09,2.16.19,3.28.31,1.55.16,3.06.34,4.51.53,9.42,1.26,16.51,3.16,17,4.65Z" style="fill:#ba31d4"/><path d="M874.21,111.28c-1.92-3.67-5.1-6.2-8.91-6.59s-7.44,1.43-10.07,4.63a19.27,19.27,0,0,0-2,20.5c1.93,3.59,5.07,6.06,8.83,6.45s7.34-1.39,10-4.51l-8.84-.91a5.25,5.25,0,0,1-.56,0l-.55-.08c-3.92-.8-6.58-5.58-6-11,.53-5.13,3.75-9.11,7.47-9.53a5.71,5.71,0,0,1,1.24,0,5.43,5.43,0,0,1,1.21.26Z" style="fill:#5727d6"/><path d="M859.54,109.77c-1.92-3.67-5.1-6.21-8.91-6.6s-7.44,1.44-10.07,4.63a19.25,19.25,0,0,0-2,20.5c1.93,3.59,5.08,6.06,8.83,6.45s7.34-1.39,10-4.5l-8.85-.92a5.07,5.07,0,0,1-.55,0,4.85,4.85,0,0,1-.55-.08c-3.92-.79-6.59-5.58-6-11,.53-5.14,3.74-9.12,7.46-9.53a5.71,5.71,0,0,1,1.24,0,5.43,5.43,0,0,1,1.21.26Z" style="fill:#5727d6"/><path d="M845.22,108.29c-1.92-3.67-5.1-6.21-8.91-6.6s-7.44,1.44-10.07,4.63a19.28,19.28,0,0,0-2,20.5c1.93,3.59,5.07,6.06,8.83,6.45s7.34-1.38,10-4.5l-8.84-.92a6.14,6.14,0,0,1-1.11-.11c-3.92-.79-6.58-5.58-6-11,.53-5.14,3.75-9.11,7.47-9.53a5.7,5.7,0,0,1,1.24,0,5.56,5.56,0,0,1,1.21.26Z" style="fill:#5727d6"/><path d="M833,133.26a.83.83,0,0,0,.92-.74l.38-3.75a.84.84,0,0,0-.73-.93,4.24,4.24,0,0,1-.56-.11c-3.78-.93-6.5-6.4-6-11a13.72,13.72,0,0,1,.69-3.13,2.41,2.41,0,0,0-2-3.19h0A2.4,2.4,0,0,0,823.1,112a20.72,20.72,0,0,0-.89,4.17,18.61,18.61,0,0,0,1.95,10.63c1.93,3.59,5.08,6.06,8.84,6.44Z" style="fill:#00a0ff"/><path d="M862,136.39a.85.85,0,0,0,.92-.75l.38-3.75a.84.84,0,0,0-.73-.93,4.24,4.24,0,0,1-.56-.11c-3.78-.93-6.5-6.4-6-11a13.72,13.72,0,0,1,.69-3.13,2.4,2.4,0,0,0-2-3.19h0a2.4,2.4,0,0,0-2.55,1.65,20.47,20.47,0,0,0-.89,4.16,18.61,18.61,0,0,0,2,10.63c1.93,3.59,5.08,6.06,8.84,6.45Z" style="fill:#00a0ff"/><path d="M847.44,134.88a.85.85,0,0,0,.92-.75l.39-3.75a.85.85,0,0,0-.74-.93c-.17,0-.36-.06-.56-.1-3.78-.94-6.5-6.41-6-11a14.06,14.06,0,0,1,.7-3.12,2.42,2.42,0,0,0-2-3.2h0a2.42,2.42,0,0,0-2.55,1.65,19.81,19.81,0,0,0-.88,4.16,18.43,18.43,0,0,0,2,10.63c1.93,3.59,5.07,6.06,8.83,6.45Z" style="fill:#00a0ff"/><path d="M823.28,105.81c-1.59-3.68-4.27-6.19-7.53-6.53s-6.41,1.57-8.71,4.85A22.59,22.59,0,0,0,805,124.9c1.6,3.6,4.26,6,7.47,6.38s6.32-1.52,8.62-4.71l-7.57-.79a2.57,2.57,0,0,1-.48,0,3.54,3.54,0,0,1-.47-.07c-3.35-.74-5.56-5.54-5-11.07.53-5.2,3.36-9.28,6.55-9.76a4.18,4.18,0,0,1,1.06,0,3.66,3.66,0,0,1,1,.24Z" style="fill:#00a0ff"/><path d="M793.19,134.05h0a2.62,2.62,0,0,0-1.15-2.46,9.69,9.69,0,0,1-1-.73c-2.78-2.31-4.75-6.3-5.44-11.06a2.18,2.18,0,0,0-1.92-1.85h0a2.16,2.16,0,0,0-2.36,2.4c.76,6.49,3.36,12,7.08,15.06.21.17.41.34.63.49A2.62,2.62,0,0,0,793.19,134.05Z" style="fill:#00a0ff"/><rect x="1051.6" y="136.98" width="14.43" height="5.44" rx="1.48" transform="translate(19.98 -108.13) rotate(5.9)" style="fill:#e8e8e6"/><rect x="1068.41" y="138.33" width="6.81" height="5.44" rx="1.48" transform="translate(20.18 -109.46) rotate(5.9)" style="fill:#e8e8e6"/><rect x="1074.86" y="158.98" width="18.51" height="5.44" rx="1.48" transform="translate(54.71 -214.83) rotate(11.61)" style="fill:#e8e8e6"/><rect x="1094.84" y="163" width="14.97" height="5.44" rx="1.48" transform="translate(55.89 -218.41) rotate(11.61)" style="fill:#e8e8e6"/><rect x="751.52" y="106.64" width="27.5" height="5.72" rx="2.86" transform="translate(15.31 -78.1) rotate(5.9)" style="fill:#fffffd"/><rect x="733.17" y="103.87" width="15.79" height="5.72" rx="2.86" transform="translate(14.9 -75.63) rotate(5.9)" style="fill:#fffffd"/><rect x="719.91" y="102.26" width="11.16" height="5.72" rx="2.86" transform="translate(14.65 -74.04) rotate(5.9)" style="fill:#fffffd"/><rect x="676.51" y="99.33" width="41.38" height="5.72" rx="2.86" transform="translate(14.2 -71.14) rotate(5.9)" style="fill:#fffffd"/><rect x="650.49" y="95.35" width="24.31" height="5.72" rx="2.86" transform="translate(13.61 -67.61) rotate(5.9)" style="fill:#fffffd"/><rect x="567.3" y="89.6" width="80.15" height="5.72" rx="2.86" transform="translate(12.73 -61.96) rotate(5.9)" style="fill:#fffffd"/><rect x="540.59" y="83.34" width="23.25" height="5.72" rx="2.86" transform="translate(11.79 -56.32) rotate(5.9)" style="fill:#fffffd"/><rect x="525.47" y="81.21" width="12.05" height="5.72" rx="2.86" transform="translate(11.46 -54.2) rotate(5.9)" style="fill:#fffffd"/><rect x="485.44" y="78.18" width="35.65" height="5.72" rx="2.86" transform="translate(11 -51.32) rotate(5.9)" style="fill:#fffffd"/><rect x="390.58" y="71.15" width="88.39" height="5.72" rx="2.86" transform="translate(9.91 -44.31) rotate(5.9)" style="fill:#fffffd"/><rect x="375.5" y="65.96" width="12.42" height="5.72" rx="2.86" transform="translate(9.1 -38.88) rotate(5.9)" style="fill:#fffffd"/><rect x="350.36" y="63.53" width="20.81" height="5.72" rx="2.86" transform="translate(8.74 -36.74) rotate(5.9)" style="fill:#fffffd"/><rect x="293.67" y="59.31" width="52.75" height="5.72" rx="2.86" transform="translate(8.09 -32.58) rotate(5.9)" style="fill:#fffffd"/><path d="M216.32,52.28h71.18a2.86,2.86,0,0,1,2.86,2.86v0A2.86,2.86,0,0,1,287.51,58H216.32a0,0,0,0,1,0,0V52.28a0,0,0,0,1,0,0Z" transform="translate(7.01 -25.76) rotate(5.9)" style="fill:#fffffd"/></g></svg>