<svg xmlns="http://www.w3.org/2000/svg" viewBox="0 0 281 251"><g id="Pro_Export_Size" data-name="Pro Export Size"><path d="M280.84.5a34.54,34.54,0,0,1-7.54,12.4C262.42,24.09,246.15,23,228.7,20.59c-22.11-3.09-46.1-8.41-63.4,6.11a34.49,34.49,0,0,0-4.77,4.85c-15.42,19.22.36,45.75-24.83,78-23.93,30.58-51.33,23.5-60.5,50.3-8.8,25.72,11.25,47.44-2.8,65-4.23,5.29-11.68,7.67-26.4,12.2-16.86,5.19-31.92,9.83-46,11.72V.5Z" style="fill:#001372;opacity:0.8"/><path d="M272.81.5c-6.36,10.61-21.49,12-37.92,18-2.1.77-4.17,1.48-6.19,2.13-30.24,9.8-51.91,7.67-68.17,11-8.1,1.63-14.86,4.61-20.67,11.06-14.32,15.89-.59,28.09-15,55.08C107.33,130.49,82,122,61.83,153.9c-18.74,29.66-4.89,50.32-24.11,73.16-10.06,12-24,18.07-37.72,21.11V.5Z" style="fill:#001372"/><path d="M206.15.5c-10,7-22.72,11.88-29.05,14.3-20.85,8-24.06,3.41-42.6,11C123.22,30.42,102.18,39,90.6,58.3c-14.8,24.63,1.25,41-14.2,60.5-12.45,15.7-25.65,8.52-39,26.8-9.59,13.13-4.3,18.93-16.6,36.9A89.73,89.73,0,0,1,0,204.16V.5Z" style="fill:#0b0054"/></g></svg>