<svg id="Galactic" xmlns="http://www.w3.org/2000/svg" xmlns:xlink="http://www.w3.org/1999/xlink" viewBox="0 0 3700 2070"><defs><radialGradient id="radial-gradient" cx="1812" cy="2962" r="2920" gradientUnits="userSpaceOnUse"><stop offset="0.85" stop-color="#2d005b"/><stop offset="0.87" stop-color="#33075f"/><stop offset="0.89" stop-color="#421a6c"/><stop offset="0.91" stop-color="#5c397f"/><stop offset="0.93" stop-color="#7f649b"/><stop offset="0.96" stop-color="#ad9bbf"/><stop offset="0.99" stop-color="#e4deea"/><stop offset="1" stop-color="#fff"/></radialGradient><clipPath id="clip-path"><circle cx="2026.09" cy="1359.28" r="219.58" style="fill:none"/></clipPath><clipPath id="clip-path-2"><circle cx="2667.31" cy="787.41" r="106.25" style="fill:none"/></clipPath><clipPath id="clip-path-3"><circle cx="1899.72" cy="583.49" r="187.15" style="fill:none"/></clipPath><clipPath id="clip-path-4"><circle cx="2052.94" cy="583.11" r="106.25" style="fill:none"/></clipPath><clipPath id="clip-path-5"><circle cx="1749.48" cy="582.37" r="106.25" style="fill:none"/></clipPath><clipPath id="clip-path-6"><path d="M2056.79,1318q0,11.22-.94,22.21c-11.26,134.07-123.66,239.37-260.64,239.37s-249.38-105.3-260.65-239.37q-.93-11-.93-22.21a260.91,260.91,0,0,1,85.92-193.83h351.31A260.92,260.92,0,0,1,2056.79,1318Z" style="fill:none"/></clipPath><clipPath id="clip-path-7"><rect x="2082.86" y="985.06" width="367.85" height="65.47" rx="32.74" transform="translate(4533.58 2035.6) rotate(180)" style="fill:none"/></clipPath><clipPath id="clip-path-8"><circle cx="2349.56" cy="1050.45" r="69.56" style="fill:none"/></clipPath><clipPath id="clip-path-9"><rect x="2380.38" y="1029.5" width="244.83" height="38.77" rx="19.39" transform="translate(5005.58 2097.78) rotate(180)" style="fill:none"/></clipPath><clipPath id="clip-path-10"><rect x="1034.08" y="1052.47" width="225.17" height="55.17" style="fill:none"/></clipPath><clipPath id="clip-path-11"><circle cx="1034.08" cy="1055.45" r="52.19" style="fill:none"/></clipPath><clipPath id="clip-path-12"><path d="M2692.86,1697.24H2418.47a6.39,6.39,0,0,1-4.12-11.28l88.48-74.65a6.42,6.42,0,0,1,4.13-1.51l275.92.19a6.39,6.39,0,0,1,4.07,11.32l-90,74.47A6.4,6.4,0,0,1,2692.86,1697.24Z" style="fill:none"/></clipPath><clipPath id="clip-path-13"><path d="M2889,1531.21H2614.66a6.39,6.39,0,0,1-4.12-11.28l88.48-74.66a6.39,6.39,0,0,1,4.12-1.5l275.92.19a6.39,6.39,0,0,1,4.07,11.32l-90,74.46A6.4,6.4,0,0,1,2889,1531.21Z" style="fill:none"/></clipPath><clipPath id="clip-path-14"><path d="M2314.31,1696.75H2039.92a6.39,6.39,0,0,1-4.12-11.28l88.48-74.65a6.42,6.42,0,0,1,4.13-1.51l275.92.19a6.39,6.39,0,0,1,4.07,11.32l-90,74.46A6.38,6.38,0,0,1,2314.31,1696.75Z" style="fill:none"/></clipPath><clipPath id="clip-path-15"><path d="M2510.4,1531.23H2236a6.39,6.39,0,0,1-4.12-11.28l88.48-74.65a6.39,6.39,0,0,1,4.13-1.51l275.92.19a6.39,6.39,0,0,1,4.07,11.32l-90,74.46A6.36,6.36,0,0,1,2510.4,1531.23Z" style="fill:none"/></clipPath></defs><circle cx="1812" cy="2962" r="2920" style="fill:url(#radial-gradient)"/><g id="Building_Block" data-name="Building Block"><g id="Galaxy"><ellipse cx="1843.71" cy="2385.68" rx="1888.29" ry="818.45" style="fill:#de5638;opacity:0.6000000000000001"/><ellipse cx="1839.53" cy="2292.39" rx="1551.97" ry="672.68" style="fill:#de5638;opacity:0.6000000000000001"/><path d="M658.77,1810.93c168-37,358.6-42.7,550-55.25q35.37-2.31,70.38-3.94c-504,88.3-859.56,302.34-859.56,552.42,0,329,615.28,595.65,1374.25,595.65s1374.25-266.68,1374.25-595.65c0-279.13-443-513.38-1040.84-578-278.81-51.94-604.48-71.11-950.31-48.43-185.17,12.14-359,70.87-525.63,103.37" style="fill:#fe9d00;opacity:0.9"/><path d="M2379.69,2220.14c-129.84-88.69-340-146.32-577.16-146.32-233.83,0-441.37,56-571.6,142.56,22.31-262.09,270.91-468.63,574.24-468.63C2110,1747.75,2359.46,1956.26,2379.69,2220.14Z" style="fill:#ffe0bf"/><ellipse cx="1805.17" cy="2217.17" rx="570.25" ry="247.17" style="fill:#fff"/><path d="M1865.24,1712.19c75.23,1.14,148.87,5,220.51,11.19,33.47,2.91,46.74,44.88,21.18,66.68h0a37.86,37.86,0,0,1-28,8.9c-86.43-7.75-176.14-11.79-268.14-11.79h0c-13.38,0-19.53-16.67-9.34-25.35l54.08-46.14A14.64,14.64,0,0,1,1865.24,1712.19Z" style="fill:#ffc381"/><path d="M2865.65,1990.14h0a41.85,41.85,0,0,1-47.4,4.67c-120.83-66.54-279.9-120.71-463.86-157-31.43-6.21-41.78-46-17.4-66.8h0a38.3,38.3,0,0,1,32.08-8.52c189.32,36.43,356.06,91,488.48,158.68A41.75,41.75,0,0,1,2865.65,1990.14Z" style="fill:#ffc381"/></g><g id="Booster_Block" data-name="Booster Block"><rect x="1710.33" y="1610.32" width="203.55" height="459.68" style="fill:#5400d2"/><rect x="1752.09" y="1602.72" width="120.04" height="467.28" style="fill:#8c68ec"/></g><g id="Bottom_Wing_Block" data-name="Bottom Wing Block"><rect x="1258.5" y="1758" width="129.73" height="144.45" rx="30.94" style="fill:#aecce8"/><rect x="1292.05" y="1738.42" width="31.32" height="180.43" rx="15.66" style="fill:#7da8ec"/><path d="M1538.57,1910.57l-86.08,101.87c-15.61,18.46-41.89,5.09-41.89-21.31v-440c0-22.15,14.85-40.11,33.16-40.11H1544.1c2.45,0,4.44,2.4,4.44,5.37v365.53C1548.54,1892.7,1545,1903,1538.57,1910.57Z" style="fill:#b3d0ee"/><rect x="1502.31" y="1685.48" width="31.32" height="180.43" rx="15.66" style="fill:#7da8ec"/><rect x="1463.54" y="1757.8" width="31.32" height="180.43" rx="15.66" style="fill:#7da8ec"/><rect x="1424.77" y="1809.25" width="31.32" height="180.43" rx="15.66" style="fill:#7da8ec"/><path d="M1435.68,1870.45l-86.09,84.22c-15.6,15.27-41.88,4.21-41.88-17.61V1573.25a33.16,33.16,0,0,1,33.16-33.16h100.34a4.44,4.44,0,0,1,4.44,4.44v302.22A33.18,33.18,0,0,1,1435.68,1870.45Z" style="fill:#efefef"/><rect x="1318.15" y="1769.73" width="31.32" height="135.7" rx="15.66" style="fill:#aecce8"/><rect x="1318.15" y="1706.44" width="31.32" height="54.4" rx="15.66" style="fill:#aecce8"/></g><g id="Level_2_Block" data-name="Level 2 Block"><rect x="2019.01" y="1329.83" width="103.64" height="271.4" style="fill:#efefef"/><rect x="2032.43" y="1468.51" width="79.03" height="26.1" rx="13.05" style="fill:#c8dcf5"/><rect x="2032.43" y="1407.37" width="79.03" height="26.1" rx="13.05" style="fill:#c8dcf5"/><rect x="2032.43" y="1437.94" width="79.03" height="26.1" rx="13.05" style="fill:#c8dcf5"/><path d="M2294.88,1033.92v122.83c0,144.18-116.88,261.06-261.05,261.06H1569.51c-144.17,0-261-116.88-261-261.06V1033.92a261.44,261.44,0,0,1,3.71-44.08h669.56v-217h52.1C2178,772.87,2294.88,889.75,2294.88,1033.92Z" style="fill:#9accff"/><path d="M2052.56,1316.78q0,11.12-.92,22c-11.16,132.8-122.49,237.1-258.17,237.1s-247-104.3-258.17-237.1q-.91-10.87-.93-22a258.44,258.44,0,0,1,85.11-192h348A258.44,258.44,0,0,1,2052.56,1316.78Z" style="fill:#fefefe"/><g style="clip-path:url(#clip-path)"><path d="M2053.22,1325.73q0,11.12-.93,22c-11.16,132.8-122.49,237.11-258.17,237.11s-247-104.31-258.17-237.11q-.92-10.86-.92-22a258.37,258.37,0,0,1,85.11-192h348A258.41,258.41,0,0,1,2053.22,1325.73Z" style="fill:#9accff"/></g><rect x="2032.43" y="1500.57" width="79.03" height="26.1" rx="13.05" style="fill:#c8dcf5"/></g><g id="Level_1_Block" data-name="Level 1 Block"><rect x="1412.84" y="1506.54" width="761.26" height="128.99" rx="55.61" style="fill:#fefefe"/><rect x="1849.76" y="1506.54" width="324.34" height="128.99" rx="55.61" style="fill:#b7d4f4"/></g><g id="Level_3_Block" data-name="Level 3 Block"><rect x="1412.84" y="1124.05" width="761.26" height="213.99" rx="74.51" style="fill:#6a4bfe"/><rect x="1880.33" y="1124.05" width="293.02" height="213.99" rx="74.63" style="fill:#562bff"/></g><g id="Level_4_Block" data-name="Level 4 Block"><rect x="1806.52" y="1124.05" width="577.84" height="85" rx="42.5" style="fill:#87b7ff"/></g><g id="Layer_5_Block" data-name="Layer 5 Block"><rect x="1182.45" y="1001.77" width="1222.04" height="110.35" rx="55.17" style="fill:#bff0ff"/><rect x="1806.52" y="1012.95" width="577.84" height="85" rx="42.5" style="fill:#2f2bfe"/></g><g id="Right_Deck_Block" data-name="Right Deck Block"><circle cx="2668.05" cy="786.66" r="106.25" style="fill:#cee1ff"/><g style="clip-path:url(#clip-path-2)"><circle cx="2773.93" cy="853.77" r="172.61" style="fill:#70dbff"/></g><rect x="2530.49" y="786.29" width="274.38" height="115.57" rx="53.42" style="fill:#6e29fe"/><circle cx="2626.67" cy="735.59" r="41.01" style="fill:#fff"/><rect x="2345.58" y="681" width="54.42" height="175.38" rx="27.21" style="fill:#9f6efe"/><rect x="2195.72" y="822.82" width="652.56" height="110.35" rx="55.17" style="fill:#5d9dff"/><rect x="2359.82" y="898.13" width="281.34" height="35.04" rx="17.52" style="fill:#fff"/></g><g id="Level_7_Block" data-name="Level 7 Block"><circle cx="1899.72" cy="582" r="187.15" style="fill:#cee1ff"/><g style="clip-path:url(#clip-path-3)"><circle cx="2004.1" cy="651.34" r="225.92" style="fill:#70dbff"/></g><rect x="2136" y="375.55" width="46.92" height="295.26" rx="23.46" style="fill:#834cff"/><circle cx="1849.02" cy="484.32" r="78.29" style="fill:#fff"/><circle cx="2053.68" cy="582.37" r="106.25" style="fill:#cee1ff"/><g style="clip-path:url(#clip-path-4)"><circle cx="2159.56" cy="649.47" r="172.61" style="fill:#70dbff"/></g><circle cx="1749.48" cy="582.37" r="106.25" style="fill:#cee1ff"/><g style="clip-path:url(#clip-path-5)"><circle cx="1856.1" cy="648.73" r="172.61" style="fill:#70dbff"/></g><rect x="1762.53" y="593.18" width="274.38" height="115.57" rx="53.42" style="fill:#9f6dff"/><rect x="1612.66" y="582.74" width="274.38" height="115.57" rx="53.42" style="fill:#6e29fe"/><rect x="1916.12" y="582" width="274.38" height="115.57" rx="53.42" style="fill:#6e29fe"/><rect x="1553.76" y="623" width="687.44" height="357.14" rx="80.35" style="fill:#fefefe"/><rect x="1897.48" y="623" width="343.72" height="357.14" rx="80.35" style="fill:#bfddff"/><circle cx="1710.33" cy="531.29" r="41.01" style="fill:#fff"/><circle cx="2012.3" cy="531.29" r="41.01" style="fill:#fff"/></g><g id="Level_6_Block" data-name="Level 6 Block"><rect x="1353.94" y="770.63" width="26.1" height="140.17" rx="13.05" style="fill:#9f6efe"/><path d="M1411.35,767a85.62,85.62,0,0,1-141.26,65.09l115.44-126.37A85.36,85.36,0,0,1,1411.35,767Z" style="fill:#5220d7"/><ellipse cx="1322.12" cy="762.7" rx="88.3" ry="61.22" transform="translate(-56.19 1418.42) rotate(-55.42)" style="fill:#5220d7"/><ellipse cx="1322.12" cy="762.68" rx="82.1" ry="56.92" transform="translate(-56.17 1418.41) rotate(-55.42)" style="fill:#6130fe"/><rect x="1286.55" y="702.65" width="19.46" height="89.39" rx="9.73" transform="translate(0.92 1496.29) rotate(-60)" style="fill:#5220d7"/><rect x="1182.45" y="892.16" width="1222.04" height="110.35" rx="55.17" style="fill:#fefefe"/><rect x="1793.1" y="891.42" width="615.19" height="110.35" rx="55.17" style="fill:#5d9dff"/></g></g><g id="Level_1_Decoration" data-name="Level 1 Decoration"><rect x="1881.82" y="1544.56" width="86.49" height="54.43" rx="27.21" style="fill:#0160fa"/><rect x="1983.22" y="1543.82" width="86.49" height="54.43" rx="27.21" style="fill:#0160fa"/><circle cx="2121.16" cy="1570.66" r="35.79" style="fill:#0160fa"/><circle cx="2121.08" cy="1571.35" r="23.81" style="fill:#0029ec"/><rect x="2002.45" y="1557.98" width="47.62" height="27.01" rx="13.51" style="fill:#09ccfa"/><rect x="1901.54" y="1557.45" width="47.62" height="27.01" rx="13.51" style="fill:#09ccfa"/><rect x="1632.79" y="1547.18" width="204.07" height="54.43" rx="27.21" style="fill:#0160fa"/><rect x="1651.43" y="1560.82" width="168.51" height="27.01" rx="13.51" style="fill:#09ccfa"/><rect x="1555.25" y="1520.7" width="32.06" height="96.93" rx="16.03" style="fill:#b1d7fb"/><rect x="1517.97" y="1522.19" width="32.06" height="96.93" rx="16.03" style="fill:#85b4fc"/><rect x="1480.69" y="1522.19" width="32.06" height="96.93" rx="16.03" style="fill:#b1d7fb"/><rect x="1468.01" y="1562.46" width="131.97" height="16.4" rx="8.2" style="fill:#83b3f5"/></g><g id="Level_2_Decoration" data-name="Level 2 Decoration"><g style="clip-path:url(#clip-path-6)"><path d="M1980,1464.36H1610.21a64.2,64.2,0,0,1-62.46-49.36l-4.26-18a30.3,30.3,0,0,1,29.48-37.3h444.22a30.31,30.31,0,0,1,29.49,37.3l-4.27,18A64.19,64.19,0,0,1,1980,1464.36Z" style="fill:#0165f7"/></g><path d="M1983.06,1448.19H1602.39a16.75,16.75,0,0,1-15.9-12.34l-11.1-37.88c-3.3-11.26,4.7-22.66,15.89-22.66h402.88c11.2,0,19.2,11.4,15.9,22.66l-11.1,37.88A16.75,16.75,0,0,1,1983.06,1448.19Z" style="fill:#02d5ff"/></g><g id="Level_3_Decoration" data-name="Level 3 Decoration"><rect x="2019.01" y="1249.31" width="32.06" height="96.93" rx="16.03" style="fill:#fff"/><rect x="1981.73" y="1250.8" width="32.06" height="96.93" rx="16.03" style="fill:#88b9fe"/><rect x="1944.45" y="1250.8" width="32.06" height="96.93" rx="16.03" style="fill:#fffffd"/><rect x="1931.78" y="1291.06" width="131.97" height="16.4" rx="8.2" style="fill:#a5cff5"/><rect x="1461.64" y="1269.92" width="204.07" height="54.43" rx="27.21" style="fill:#0160fa"/><rect x="1480.28" y="1283.55" width="168.51" height="27.01" rx="13.51" style="fill:#09ccfa"/><rect x="1678.5" y="1269.92" width="86.49" height="54.43" rx="27.21" style="fill:#0160fa"/><rect x="1698.21" y="1282.81" width="47.62" height="27.01" rx="13.51" style="fill:#09ccfa"/></g><g id="Level_4_Decoration" data-name="Level 4 Decoration"><rect x="1177.98" y="1111.37" width="1222.04" height="110.35" rx="55.17" style="fill:#fefefe"/><rect x="1837.45" y="1123.69" width="146.88" height="85" rx="42.5" transform="translate(3821.79 2332.38) rotate(-180)" style="fill:#1601fe"/><circle cx="1945.19" cy="1166.56" r="42.13" style="fill:#1834ff"/><circle cx="1945.56" cy="1166.19" r="29.08" style="fill:#0088fe"/><rect x="1865.92" y="1124.89" width="14.32" height="83.2" rx="7.16" transform="translate(3039.57 -706.6) rotate(90)" style="fill:#1834ff"/><rect x="2320.23" y="1115.1" width="32.06" height="96.93" rx="16.03" style="fill:#b4daff"/><rect x="2282.95" y="1116.59" width="32.06" height="96.93" rx="16.03" style="fill:#1fa4e7"/><rect x="2245.67" y="1116.59" width="32.06" height="96.93" rx="16.03" style="fill:#b4daff"/><rect x="2233" y="1156.85" width="131.97" height="16.4" rx="8.2" style="fill:#fffffd"/><rect x="1937" y="1123.3" width="15.66" height="85" rx="7.83" style="fill:#049efe"/><rect x="1596.64" y="1139.34" width="86.49" height="54.43" rx="27.21" style="fill:#0160fa"/><rect x="1616.35" y="1152.23" width="47.62" height="27.01" rx="13.51" style="fill:#09ccfa"/><rect x="1691.33" y="1140.83" width="86.49" height="54.43" rx="27.21" style="fill:#0160fa"/><rect x="1711.04" y="1153.72" width="47.62" height="27.01" rx="13.51" style="fill:#09ccfa"/><rect x="1205.76" y="1141.7" width="204.07" height="54.43" rx="27.21" style="fill:#0160fa"/><rect x="1224.4" y="1155.33" width="168.51" height="27.01" rx="13.51" style="fill:#09ccfa"/><rect x="1428.66" y="1126.28" width="146.88" height="85" rx="42.5" style="fill:#1601fe"/><circle cx="1467.8" cy="1169.15" r="42.13" style="fill:#1834ff"/><circle cx="1467.43" cy="1168.78" r="29.08" style="fill:#0088fe"/><rect x="1457.73" y="1126.28" width="15.66" height="85" rx="7.83" style="fill:#049efe"/><rect x="1532.74" y="1127.48" width="14.32" height="83.2" rx="7.16" transform="translate(2708.98 -370.83) rotate(90)" style="fill:#1834ff"/></g><g id="Level_5_Decoration" data-name="Level 5 Decoration"><g id="Right_Weapon" data-name="Right Weapon"><rect x="2039.36" y="1005.81" width="160.86" height="93.08" rx="46.54" transform="translate(4239.58 2104.7) rotate(180)" style="fill:#1601fe"/><circle cx="2157.35" cy="1051.94" r="46.13" style="fill:#1834ff"/><rect x="2070.54" y="1006.47" width="15.68" height="91.11" rx="7.84" transform="translate(1026.35 3130.41) rotate(-90)" style="fill:#1834ff"/><circle cx="2168.23" cy="1051.05" r="42.13" style="fill:#f1f5ff"/><rect x="2137.29" y="1018.62" width="267.19" height="65.47" rx="32.74" transform="translate(4541.78 2102.7) rotate(180)" style="fill:#6b4eff"/><g style="clip-path:url(#clip-path-7)"><rect x="2138.78" y="1018.62" width="267.19" height="65.47" rx="32.74" transform="translate(4544.76 2102.7) rotate(180)" style="fill:#562bff"/></g><rect x="2177.82" y="1041.28" width="177.45" height="14.91" rx="7.46" transform="translate(4533.1 2097.48) rotate(-180)" style="fill:#b0c1ff"/><circle cx="2349.56" cy="1050.45" r="69.56" style="fill:#00119d"/><g style="clip-path:url(#clip-path-8)"><circle cx="2411.04" cy="1006.63" r="99.87" style="fill:#0016cc"/></g><circle cx="2403.47" cy="1049.19" r="34.3" style="fill:#00119d"/><rect x="2380.36" y="1029.8" width="244.83" height="38.77" rx="19.39" transform="translate(5005.54 2098.37) rotate(-180)" style="fill:#6b4eff"/><g style="clip-path:url(#clip-path-9)"><rect x="2364.72" y="1010.12" width="291.78" height="38.77" rx="19.39" transform="translate(5021.22 2059.01) rotate(-180)" style="fill:#562bff"/></g><rect x="2195.22" y="1018.17" width="61.46" height="65.61" rx="17.53" transform="translate(4451.9 2101.95) rotate(180)" style="fill:#9ccbff"/><rect x="2227.57" y="1018.17" width="29.11" height="65.61" rx="14.56" transform="translate(4484.25 2101.95) rotate(180)" style="fill:#f7fdfb"/><rect x="2235.92" y="1028.97" width="12.46" height="44.85" rx="6.23" transform="translate(4484.29 2102.78) rotate(180)" style="fill:#1f9cdf"/><rect x="2420.89" y="1044.65" width="177.45" height="9.31" rx="4.66" transform="translate(5019.23 2098.61) rotate(-180)" style="fill:#b0c1ff"/><circle cx="2610.39" cy="1049.42" r="20.01" style="fill:#00119d"/><circle cx="2610.36" cy="1049.46" r="11.44" style="fill:#6b4eff"/><circle cx="2487" cy="1049.46" r="20.01" style="fill:#b0c1ff"/><circle cx="2486.85" cy="1048.62" r="11.44" style="fill:#6b4eff"/><rect x="2293.39" y="1050.23" width="43.24" height="10.44" rx="5.22" transform="translate(4630.03 2110.9) rotate(180)" style="fill:#9fc9ff"/><rect x="2304.58" y="1036.06" width="43.24" height="10.44" rx="5.22" transform="translate(4652.4 2082.57) rotate(-180)" style="fill:#9fc9ff"/></g><g id="Left_Weapon" data-name="Left Weapon"><rect x="1201.25" y="1012.7" width="146.88" height="85" rx="42.5" style="fill:#1601fe"/><circle cx="1240.39" cy="1055.58" r="42.13" style="fill:#1834ff"/><circle cx="1228.3" cy="1055.82" r="42.13" style="fill:#96c9fe"/><rect x="1305.34" y="1013.9" width="14.32" height="83.2" rx="7.16" transform="translate(2367.99 -257) rotate(90)" style="fill:#1834ff"/><rect x="1034.08" y="1027.86" width="225.17" height="55.17" rx="27.59" style="fill:#562bfe"/><g style="clip-path:url(#clip-path-10)"><rect x="1033.81" y="1029.85" width="225.17" height="55.17" rx="27.59" style="fill:#6a4bfe"/></g><rect x="1041.53" y="1046.5" width="177.45" height="14.91" rx="7.46" style="fill:#b0c1ff"/><circle cx="1034.08" cy="1055.45" r="52.19" style="fill:#00119d"/><g style="clip-path:url(#clip-path-11)"><circle cx="997.17" cy="994.68" r="74.93" style="fill:#0016cc"/></g><circle cx="993.07" cy="1057.69" r="34.3" style="fill:#b0c1ff"/><rect x="920.75" y="1038.3" width="95.44" height="38.77" rx="19.39" style="fill:#6b4eff"/><circle cx="940.88" cy="1058.43" r="20.88" style="fill:#b0c1ff"/><circle cx="940.85" cy="1058.47" r="11.93" style="fill:#6b4eff"/><rect x="1033.33" y="1037.56" width="43.24" height="10.44" rx="5.22" style="fill:#9fc9ff"/><rect x="1033.33" y="1059.92" width="43.24" height="10.44" rx="5.22" style="fill:#9fc9ff"/><rect x="1142.93" y="1026.37" width="55.17" height="58.9" rx="17.53" style="fill:#9ccbff"/><rect x="1142.93" y="1026.37" width="26.14" height="58.9" rx="13.07" style="fill:#f7fdfb"/><rect x="1150.39" y="1035.32" width="11.18" height="40.26" rx="5.59" style="fill:#1f9cdf"/></g><rect x="1589.45" y="1027.99" width="204.07" height="54.43" rx="27.21" style="fill:#0160fa"/><rect x="1608.09" y="1041.63" width="168.51" height="27.01" rx="13.51" style="fill:#09ccfa"/><rect x="1377.7" y="1029.48" width="204.07" height="54.43" rx="27.21" style="fill:#0160fa"/><rect x="1396.34" y="1043.12" width="168.51" height="27.01" rx="13.51" style="fill:#09ccfa"/><rect x="1858.14" y="1006.24" width="160.86" height="93.08" rx="46.54" transform="translate(3877.13 2105.57) rotate(-180)" style="fill:#1601fe"/><circle cx="1976.12" cy="1052.37" r="46.13" style="fill:#1834ff"/><circle cx="1976.53" cy="1052.78" r="31.84" style="fill:#0088fe"/><rect x="1970" y="1006.24" width="17.15" height="93.08" rx="8.57" transform="translate(3957.15 2105.57) rotate(-180)" style="fill:#049efe"/><rect x="1889.32" y="1006.9" width="15.68" height="91.11" rx="7.84" transform="translate(844.7 2949.62) rotate(-90)" style="fill:#1834ff"/></g><g id="Level_6_Decoration" data-name="Level 6 Decoration"><rect x="1206.11" y="922.64" width="266.89" height="49.05" rx="24.52" style="fill:#0160fa"/><rect x="1225" y="934.25" width="230" height="24.34" rx="12.17" style="fill:#09ccfa"/><rect x="1549" y="921.92" width="200.75" height="49.05" rx="24.52" style="fill:#0160fa"/><rect x="1568" y="933.54" width="166" height="24.34" rx="12.17" style="fill:#09ccfa"/><rect x="1843.57" y="922.9" width="127.83" height="49.05" rx="24.52" style="fill:#0160fa"/><rect x="1858" y="934.51" width="98" height="24.34" rx="12.17" style="fill:#09ccfa"/><rect x="2121.64" y="922.85" width="262.36" height="49.05" rx="24.52" style="fill:#0160fa"/><rect x="2140" y="934.47" width="229" height="24.34" rx="12.17" style="fill:#09ccfa"/></g><g id="Level_7_Decoration" data-name="Level 7 Decoration"><rect x="1585.82" y="683.4" width="296" height="168.51" rx="39.62" style="fill:#0564fc"/><rect x="1921.34" y="682.65" width="296" height="168.51" rx="39.62" style="fill:#0564fc"/><rect x="1612.66" y="702.17" width="242.32" height="130.18" rx="39.62" style="fill:#01d6fe"/><rect x="1948.4" y="701.91" width="242.32" height="130.18" rx="39.62" style="fill:#01d6fe"/></g><g id="Right_Deck_Decoration" data-name="Right Deck Decoration"><rect x="2420.59" y="852.92" width="410.41" height="49.05" rx="24.52" style="fill:#0160fa"/><rect x="2438" y="864.53" width="382" height="24.34" rx="12.17" style="fill:#09ccfa"/></g><g id="Solar_Panel" data-name="Solar Panel"><rect x="2785.31" y="1496.82" width="23.11" height="165.62" transform="translate(2219.65 -1580.2) rotate(50.19)" style="fill:#2f3aee"/><rect x="2604.88" y="1481.91" width="23.11" height="165.62" transform="translate(2143.28 -1446.96) rotate(50.19)" style="fill:#2f3aee"/><rect x="2209.71" y="1493.09" width="23.11" height="165.62" transform="translate(2009.71 -1139.38) rotate(50.19)" style="fill:#2f3aee"/><rect x="2417.73" y="1493.09" width="23.11" height="165.62" transform="translate(2084.55 -1299.18) rotate(50.19)" style="fill:#2f3aee"/><rect x="2111.47" y="1557.98" width="753.8" height="26.84" rx="13.42" style="fill:#4785ec"/><path d="M2519.18,1538.57l-304.74-3a6.39,6.39,0,0,1-4.06-11.28l100.6-84.87a6.4,6.4,0,0,1,4.12-1.51h308.25a6.39,6.39,0,0,1,4.12,11.28l-104.1,87.85A6.36,6.36,0,0,1,2519.18,1538.57Z" style="fill:#4d71fd"/><path d="M2510,1531.14H2235.58a6.39,6.39,0,0,1-4.12-11.28l88.48-74.65a6.4,6.4,0,0,1,4.13-1.51l275.91.19a6.4,6.4,0,0,1,4.08,11.32l-90,74.46A6.4,6.4,0,0,1,2510,1531.14Z" style="fill:#4f27ea"/><path d="M2897.43,1538.75l-304.74-3a6.39,6.39,0,0,1-4.06-11.28l100.6-84.88a6.39,6.39,0,0,1,4.12-1.5h308.24a6.4,6.4,0,0,1,4.13,11.28l-104.11,87.84A6.39,6.39,0,0,1,2897.43,1538.75Z" style="fill:#4d71fd"/><path d="M2888.21,1531.32H2613.83a6.4,6.4,0,0,1-4.13-11.28l88.48-74.65a6.39,6.39,0,0,1,4.13-1.51l275.92.19a6.39,6.39,0,0,1,4.07,11.32l-90,74.46A6.4,6.4,0,0,1,2888.21,1531.32Z" style="fill:#4f27ea"/><path d="M2323.42,1704.62l-304.74-3a6.39,6.39,0,0,1-4.06-11.28l100.59-84.87a6.44,6.44,0,0,1,4.13-1.51h308.24a6.39,6.39,0,0,1,4.12,11.28l-104.1,87.85A6.39,6.39,0,0,1,2323.42,1704.62Z" style="fill:#4d71fd"/><path d="M2314.2,1697.18H2039.81a6.39,6.39,0,0,1-4.12-11.28l88.48-74.65a6.44,6.44,0,0,1,4.13-1.51l275.92.19a6.39,6.39,0,0,1,4.07,11.32l-90,74.47A6.4,6.4,0,0,1,2314.2,1697.18Z" style="fill:#4f27ea"/><path d="M2701.66,1705.54l-304.74-3a6.4,6.4,0,0,1-4.06-11.29l100.6-84.87a6.4,6.4,0,0,1,4.12-1.51h308.25a6.39,6.39,0,0,1,4.12,11.28L2705.85,1704A6.42,6.42,0,0,1,2701.66,1705.54Z" style="fill:#4d71fd"/><path d="M2692.44,1697.36H2418.06a6.39,6.39,0,0,1-4.12-11.28l88.48-74.65a6.34,6.34,0,0,1,4.12-1.51l275.92.19a6.39,6.39,0,0,1,4.07,11.32l-90,74.46A6.4,6.4,0,0,1,2692.44,1697.36Z" style="fill:#4f27ea"/><g style="clip-path:url(#clip-path-12)"><path d="M2762.55,1645.72H2425.69c-7.31,0-10.65-7.44-5.06-11.29l108.63-74.65a9,9,0,0,1,5.06-1.5l338.74.18c7.36,0,10.67,7.51,5,11.33l-110.51,74.46A9,9,0,0,1,2762.55,1645.72Z" style="fill:#6346ee"/></g><g style="clip-path:url(#clip-path-13)"><path d="M2958.73,1479.68H2621.88c-7.32,0-10.66-7.44-5.06-11.28l108.62-74.65a9,9,0,0,1,5.07-1.51l338.74.19c7.35,0,10.66,7.5,5,11.32l-110.51,74.46A9,9,0,0,1,2958.73,1479.68Z" style="fill:#6346ee"/></g><g style="clip-path:url(#clip-path-14)"><path d="M2384,1645.23H2047.14c-7.32,0-10.65-7.44-5.06-11.29l108.62-74.65a9,9,0,0,1,5.07-1.5l338.74.18c7.36,0,10.67,7.51,5,11.33L2389,1643.76A9,9,0,0,1,2384,1645.23Z" style="fill:#6346ee"/></g><g style="clip-path:url(#clip-path-15)"><path d="M2580.09,1479.7H2243.23c-7.31,0-10.65-7.44-5.06-11.28l108.63-74.65a9,9,0,0,1,5.06-1.51l338.74.19c7.36,0,10.67,7.5,5,11.32l-110.51,74.46A9,9,0,0,1,2580.09,1479.7Z" style="fill:#6346ee"/></g><rect x="2097" y="1640" width="266" height="12.68" rx="6.34" style="fill:#8c68ec"/><rect x="2473" y="1640" width="269" height="12.68" rx="6.34" style="fill:#8c68ec"/><rect x="2673" y="1472.99" width="265" height="12.68" rx="6.34" style="fill:#8c68ec"/><rect x="2295" y="1471.49" width="266" height="12.68" rx="6.34" style="fill:#8c68ec"/><ellipse cx="2857.81" cy="1571.03" rx="14.17" ry="22" style="fill:#200168"/><ellipse cx="2865.27" cy="1571.03" rx="14.17" ry="22" style="fill:#cce4fe"/></g></svg>