<svg xmlns="http://www.w3.org/2000/svg" xmlns:xlink="http://www.w3.org/1999/xlink" viewBox="0 0 370 201"><defs><radialGradient id="radial-gradient" cx="176" cy="323.5" r="322.5" gradientUnits="userSpaceOnUse"><stop offset="0.73" stop-color="#001372"/><stop offset="0.75" stop-color="#091c77"/><stop offset="0.79" stop-color="#233385"/><stop offset="0.85" stop-color="#4c5a9c"/><stop offset="0.91" stop-color="#868fbc"/><stop offset="0.97" stop-color="#cfd2e4"/><stop offset="1" stop-color="#eff0f6"/></radialGradient><clipPath id="clip-path"><ellipse cx="307" cy="193" rx="20.5" ry="5" style="fill:none"/></clipPath><clipPath id="clip-path-2"><ellipse cx="70.5" cy="180.07" rx="29" ry="7.07" style="fill:none"/></clipPath><clipPath id="clip-path-3"><rect x="128.45" y="135.99" width="39.63" height="10.6" rx="5.3" style="fill:none"/></clipPath><clipPath id="clip-path-4"><rect x="192.71" y="130.42" width="12.05" height="10.41" style="fill:none"/></clipPath></defs><g id="Building"><g id="Main_Building" data-name="Main Building"><g id="New_Building" data-name="New Building"><circle cx="176" cy="323.5" r="322.5" style="fill:url(#radial-gradient)"/><path d="M412.24,201.65H-27.28c47.48-28.35,128.18-47,219.76-47S364.76,173.3,412.24,201.65Z" style="fill:#a7aac9"/><ellipse cx="307" cy="193" rx="20.5" ry="5" style="fill:#5c69d1"/><g style="clip-path:url(#clip-path)"><ellipse cx="314" cy="193" rx="20.5" ry="5" style="fill:#7c85c8"/></g><ellipse cx="70.5" cy="180.07" rx="29" ry="7.07" style="fill:#5c69d1"/><g style="clip-path:url(#clip-path-2)"><ellipse cx="80.4" cy="180.07" rx="29" ry="7.07" style="fill:#7c85c8"/></g></g></g></g><g id="For_Render_Rev" data-name="For Render Rev"><rect x="211.62" y="160.49" width="10.75" height="9.56" style="fill:#5f06bb"/><rect x="211.62" y="160.54" width="6.1" height="9.51" style="fill:#9d07ff"/><rect x="219.73" y="141.27" width="8.01" height="15.94" style="fill:#5f06bb"/><rect x="219.73" y="141.54" width="4.55" height="15.67" style="fill:#9d07ff"/><rect x="225.01" y="128.43" width="5.46" height="15.94" style="fill:#5f06bb"/><rect x="225.01" y="128.43" width="3.28" height="15.94" style="fill:#9d07ff"/><rect x="196.23" y="150.1" width="38.89" height="11.48" rx="5.74" style="fill:#9d07ff"/><rect x="211.89" y="136.44" width="26.5" height="11.48" rx="5.74" style="fill:#9d07ff"/><rect x="220.27" y="122.23" width="14.85" height="11.48" rx="5.74" style="fill:#9d07ff"/><path d="M212.8,159.85h0a1.73,1.73,0,0,1-1.73,1.73H202a5.74,5.74,0,0,1-4.13-9.72.71.71,0,0,1,1.22.5v0a5.74,5.74,0,0,0,5.74,5.74h6.28A1.72,1.72,0,0,1,212.8,159.85Z" style="fill:#c53dfa"/><path d="M221.91,145.91v.55a1.46,1.46,0,0,1-1.46,1.46h-2.82a5.74,5.74,0,0,1-5.74-5.74,5.68,5.68,0,0,1,1.61-4,.71.71,0,0,1,1.22.5v0a5.74,5.74,0,0,0,5.73,5.74h0A1.45,1.45,0,0,1,221.91,145.91Z" style="fill:#c53dfa"/><path d="M230.29,124.15v-.55a1.46,1.46,0,0,0-1.46-1.46H226a5.74,5.74,0,0,0-4.13,9.72.71.71,0,0,0,1.22-.5v0a5.74,5.74,0,0,1,5.73-5.74h0A1.45,1.45,0,0,0,230.29,124.15Z" style="fill:#c53dfa"/><rect x="181.92" y="119.96" width="3.19" height="47.57" style="fill:#0064ff"/><circle cx="148.25" cy="135.99" r="14.66" style="fill:#00cbfa"/><circle cx="150.62" cy="138.74" r="12.59" style="fill:#0087ff"/><rect x="133.6" y="147.94" width="29.3" height="22.14" rx="11.07" style="fill:#f307f7"/><rect x="141.55" y="150.87" width="21.36" height="19.2" rx="9.6" style="fill:#8205bb"/><rect x="128.45" y="135.99" width="39.63" height="10.6" rx="5.3" style="fill:#f307f7"/><g style="clip-path:url(#clip-path-3)"><path d="M146.27,138.5H166a2.11,2.11,0,0,1,2.11,2.11v1.93a4,4,0,0,1-4,4h-17.8a4,4,0,0,1-4-4v0A4,4,0,0,1,146.27,138.5Z" style="fill:#8600b8"/></g><rect x="133.6" y="146.19" width="29.3" height="1.98" rx="0.99" style="fill:#0ec2fb"/><rect x="152.41" y="146.19" width="10.5" height="1.98" rx="0.99" style="fill:#6101c4"/><path d="M139.12,127h0a1,1,0,0,0,.71-.28,12.51,12.51,0,0,1,6.8-3.15,1,1,0,0,0,.92-1h0a1.06,1.06,0,0,0-1.19-1,14.59,14.59,0,0,0-8,3.69A1.06,1.06,0,0,0,139.12,127Z" style="fill:#fefff9"/><rect x="134.72" y="164.07" width="9.01" height="2.02" rx="1.01" style="fill:#dcb100"/><rect x="134.72" y="157.94" width="9.01" height="2.02" rx="1.01" style="fill:#dcb100"/><rect x="134.72" y="152.05" width="9.01" height="2.02" rx="1.01" style="fill:#dcb100"/><rect x="145.78" y="152.05" width="6.61" height="2.02" rx="1.01" style="fill:#dcb100"/><rect x="145.3" y="157.97" width="4.08" height="2.02" rx="1.01" style="fill:#dcb100"/><rect x="154.11" y="152.05" width="7.09" height="2.02" rx="1.01" style="fill:#dcb100"/><rect x="151.26" y="158.01" width="9.93" height="2.02" rx="1.01" style="fill:#dcb100"/><rect x="142.8" y="140.62" width="22.67" height="2.02" rx="1.01" style="fill:#dcb100"/><rect x="131.02" y="140.62" width="10.31" height="2.02" rx="1.01" style="fill:#dcb100"/><polygon points="223.86 172.71 143.9 172.71 148.55 180.02 219.21 180.02 223.86 172.71" style="fill:#8205ba"/><polygon points="223.51 174.63 218.86 181.94 183.51 181.94 183.51 174.63 223.51 174.63" style="fill:#6e00ff"/><polygon points="228.57 201.2 139.12 201.2 141.09 192.45 143.89 180.02 223.8 180.02 226.6 192.45 228.57 201.2" style="fill:#2cfeff"/><polygon points="228.57 201.2 183.51 201.2 183.51 180.02 223.8 180.02 226.6 192.45 228.57 201.2" style="fill:#00adfa"/><rect x="162.16" y="188.72" width="19.76" height="4.46" rx="2.23" style="fill:#fecb06"/><rect x="143.26" y="188.72" width="11.17" height="4.46" rx="2.23" style="fill:#fecb06"/><rect x="201.05" y="188.72" width="24.32" height="4.46" rx="2.23" style="fill:#ef9a28"/><rect x="185.75" y="188.72" width="13.94" height="4.46" rx="2.23" style="fill:#ef9a28"/><path d="M237.29,195.88v5.32H129.74v-5.32a3.42,3.42,0,0,1,3.43-3.43H233.86A3.43,3.43,0,0,1,237.29,195.88Z" style="fill:#8205ba"/><path d="M237.29,195.88v5.32H183.51v-8.75h50.35A3.43,3.43,0,0,1,237.29,195.88Z" style="fill:#6e00ff"/><polygon points="148.13 172.73 219.4 172.73 215.26 166.21 152.28 166.21 148.13 172.73" style="fill:#0049ff"/><polygon points="148.2 172.53 152.35 166.01 183.85 166.01 183.85 172.53 148.2 172.53" style="fill:#0d7bff"/><rect x="170.29" y="170.11" width="58.89" height="5.25" rx="2.63" style="fill:#0d7bff"/><rect x="134.75" y="170.11" width="51.42" height="5.25" rx="2.63" style="fill:#0ec2fb"/><rect x="175.8" y="164.93" width="44.25" height="2.62" rx="1.31" style="fill:#0049ff"/><rect x="148.95" y="164.93" width="36.06" height="2.62" rx="1.31" style="fill:#0d7bff"/><circle cx="183.7" cy="61.71" r="22.09" style="fill:#00cbfa"/><path d="M183.84,40.46h0a.87.87,0,0,0,.83.87,20.36,20.36,0,0,1,17,30.1.86.86,0,0,0,.14,1h0a.86.86,0,0,0,1.37-.2A22.08,22.08,0,0,0,184.74,39.6.86.86,0,0,0,183.84,40.46Z" style="fill:#fefff9"/><circle cx="183.13" cy="61.26" r="16.61" style="fill:#0087ff"/><circle cx="182.19" cy="58.7" r="7.35" style="fill:#0049ff"/><rect x="174.77" y="104.96" width="16.91" height="18.37" rx="8.45" style="fill:#0253dc"/><rect x="176.86" y="107.05" width="12.99" height="14.11" rx="6.5" style="fill:#0064ff"/><circle cx="183.35" cy="92.24" r="20.48" style="fill:#8857ff"/><path d="M246.36,98.83H114.08a3,3,0,0,1-2.83-4.14l6.48-16.27a3,3,0,0,1,2.83-1.91H252.84a3,3,0,0,1,2.83,4.14l-6.48,16.26A3,3,0,0,1,246.36,98.83Z" style="fill:#6e00ff"/><path d="M255.67,80.65,253,87.35H114.18l3.56-8.93a3,3,0,0,1,2.83-1.91H252.84A3,3,0,0,1,255.67,80.65Z" style="fill:#6e00ff"/><rect x="114.53" y="86.07" width="138.8" height="2.55" rx="1.28" style="fill:#a32cff"/><rect x="148.96" y="81.25" width="70.4" height="21.95" rx="10.97" style="fill:#0067fe"/><path d="M164.58,61.67h37.89a16.26,16.26,0,0,1,16.26,16.26v0A5.69,5.69,0,0,1,213,83.62H154a5.69,5.69,0,0,1-5.69-5.69v0A16.26,16.26,0,0,1,164.58,61.67Z" style="fill:#0165fd"/><path d="M218.72,69.36V80.92a2.69,2.69,0,0,1-2.69,2.7h-2.22a2.71,2.71,0,0,0,2-2.61V72.19a7.7,7.7,0,0,0-7.7-7.7H159a7.7,7.7,0,0,0-7.7,7.7V81a2.71,2.71,0,0,0,2,2.61H151a2.7,2.7,0,0,1-2.7-2.7V69.36a7.69,7.69,0,0,1,7.7-7.69h55A7.69,7.69,0,0,1,218.72,69.36Z" style="fill:#00adfd"/><rect x="158.52" y="61.67" width="25.14" height="2.82" rx="1.41" style="fill:#24ddff"/><rect x="130.19" y="79.97" width="107.56" height="13.84" rx="6.92" style="fill:#33ffed"/><path d="M183.84,44.11l-.9,0a16.84,16.84,0,0,0-7.66,1.83,1.36,1.36,0,0,0-.27,2.24l0,0a1.34,1.34,0,0,0,1.49.18,14.2,14.2,0,0,1,6.37-1.51l.62,0a14.17,14.17,0,0,1,3.94.73,1.34,1.34,0,0,0,1.77-1.13V46.4a1.35,1.35,0,0,0-.91-1.43A16.69,16.69,0,0,0,183.84,44.11Zm-15.27,8a16.79,16.79,0,0,0-2.32,6.35A1.35,1.35,0,0,0,167.59,60h0a1.36,1.36,0,0,0,1.34-1.16,14.22,14.22,0,0,1,2-5.3,1.34,1.34,0,0,0-.26-1.73h0A1.35,1.35,0,0,0,168.57,52.11Z" style="fill:#fefff9"/><rect x="152.78" y="69.77" width="21.68" height="2.84" rx="1.42" style="fill:#fecb06"/><rect x="176.33" y="69.77" width="6.89" height="2.84" rx="1.42" style="fill:#fecb06"/><rect x="188.28" y="69.8" width="13.9" height="2.84" rx="1.42" style="fill:#ef9a28"/><rect x="204.29" y="69.77" width="9.6" height="2.84" rx="1.42" style="fill:#ef9a28"/><rect x="134.02" y="85.16" width="23.23" height="4.46" rx="2.23" style="fill:#fff"/><rect x="162.16" y="85.16" width="9.02" height="4.46" rx="2.23" style="fill:#fff"/><rect x="176.92" y="85.16" width="22.68" height="4.46" rx="2.23" style="fill:#fecb06"/><rect x="214.44" y="84.89" width="19.13" height="4.46" rx="2.23" style="fill:#fff"/><rect x="144.95" y="181.71" width="20.4" height="4.46" rx="2.23" style="fill:#fecb06"/><rect x="168.27" y="181.71" width="13.66" height="4.46" rx="2.23" style="fill:#fecb06"/><rect x="185.75" y="181.71" width="11.29" height="4.46" rx="2.23" style="fill:#ef9a28"/><rect x="198.78" y="181.71" width="6.83" height="4.46" rx="2.23" style="fill:#ef9a28"/><rect x="207.34" y="181.71" width="15.03" height="4.46" rx="2.23" style="fill:#ef9a28"/><rect x="183.38" y="134.35" width="7.74" height="2" rx="1" style="fill:#972ffb"/><rect x="190.32" y="132.62" width="3.73" height="5.46" rx="1.86" style="fill:#972ffb"/><circle cx="198.89" cy="128.26" r="6.02" style="fill:#0464f7"/><circle cx="198.74" cy="142.99" r="6.02" style="fill:#0464f7"/><rect x="192.71" y="130.42" width="12.05" height="10.41" style="fill:#0087ff"/><rect x="191.67" y="140.78" width="14.13" height="2.17" rx="1.09" style="fill:#5319ff"/><rect x="191.75" y="128.28" width="14.13" height="2.17" rx="1.09" style="fill:#5319ff"/><path d="M198.37,124.24v.05a.88.88,0,0,1-.51.79,3.61,3.61,0,0,0-1.73,1.59.89.89,0,0,1-.78.48h0a.87.87,0,0,1-.78-1.27,5.47,5.47,0,0,1,2.61-2.44A.88.88,0,0,1,198.37,124.24Z" style="fill:#fefffc"/><rect x="193.76" y="132.5" width="6.54" height="2.38" rx="1.19" style="fill:#fefffc"/><rect x="193.76" y="136.07" width="6.54" height="2.38" rx="1.19" style="fill:#fefffc"/><g style="clip-path:url(#clip-path-4)"><rect x="202.08" y="132.5" width="7.59" height="2.38" rx="1.19" style="fill:#fecb06"/><rect x="202.08" y="136.37" width="7.59" height="2.38" rx="1.19" style="fill:#fecb06"/></g><circle cx="176.18" cy="140.29" r="3.69" style="fill:#0464f7"/><circle cx="176.09" cy="149.31" r="3.69" style="fill:#0464f7"/><rect x="172.4" y="141.61" width="7.38" height="6.38" style="fill:#6256fe"/><rect x="171.77" y="147.96" width="8.65" height="1.33" rx="0.67" style="fill:#5319ff"/><rect x="171.81" y="140.3" width="8.65" height="1.33" rx="0.67" style="fill:#5319ff"/><path d="M175.86,137.83v0a.5.5,0,0,1-.31.48,2.29,2.29,0,0,0-1.06,1,.52.52,0,0,1-.47.29h0a.54.54,0,0,1-.48-.78,3.33,3.33,0,0,1,1.61-1.49A.53.53,0,0,1,175.86,137.83Z" style="fill:#bab7fe"/><rect x="173.22" y="143.28" width="4.01" height="1.07" rx="0.54" style="fill:#fecb06"/><rect x="173.22" y="145.07" width="4.01" height="1.07" rx="0.54" style="fill:#fecb06"/><rect x="179.47" y="144" width="2.46" height="2" style="fill:#5f28dc"/><rect x="179.1" y="142.91" width="1.46" height="4.01" rx="0.73" style="fill:#5f28dc"/><rect x="244.82" y="86.39" width="15.94" height="2.55" rx="1.28" transform="translate(79.07 291.16) rotate(-68.64)" style="fill:#a32cff"/><rect x="106.67" y="85.59" width="15.94" height="2.55" rx="1.28" transform="translate(-8.01 161.99) rotate(-68.64)" style="fill:#a32cff"/><rect x="198.84" y="153.35" width="22.67" height="2.02" rx="1.01" style="fill:#dcb100"/><rect x="217.72" y="156.9" width="13.9" height="2.02" rx="1.01" style="fill:#dcb100"/><rect x="223.26" y="127.08" width="8.94" height="2.02" rx="1.01" style="fill:#dcb100"/><rect x="213.88" y="141.15" width="8.94" height="2.02" rx="1.01" style="fill:#dcb100"/><rect x="223.26" y="141.15" width="13.49" height="2.02" rx="1.01" style="fill:#dcb100"/></g></svg>