<svg xmlns="http://www.w3.org/2000/svg" xmlns:xlink="http://www.w3.org/1999/xlink" viewBox="0 0 120 106"><defs><clipPath id="clip-path"><circle cx="48" cy="57" r="46.5" style="fill:none"/></clipPath><clipPath id="clip-path-2"><circle cx="58" cy="56" r="46.5" style="fill:none"/></clipPath></defs><g id="For_Export_Planetary" data-name="For Export Planetary"><g style="clip-path:url(#clip-path)"><circle cx="58" cy="56" r="46.5" style="fill:#3380b4"/><path d="M114.77,79h0a2.5,2.5,0,0,0-2.5-2.5H84.83a2.5,2.5,0,0,0-2.5,2.5h0a2.5,2.5,0,0,1-2.5,2.5H73a2.5,2.5,0,0,0-2.5,2.5h0A2.5,2.5,0,0,0,73,86.5h4a2.5,2.5,0,0,1,2.5,2.5h0a2.5,2.5,0,0,0,2.5,2.5h27.44a2.5,2.5,0,0,0,2.5-2.5h0a2.5,2.5,0,0,0-2.5-2.5h-3.78a2.49,2.49,0,0,1-2.5-2.5h0a2.49,2.49,0,0,1,2.5-2.5h6.7A2.5,2.5,0,0,0,114.77,79Z" style="fill:#85cc66"/></g><path d="M104.07,56A46.5,46.5,0,0,1,78.13,97.75a35.68,35.68,0,0,0-4.48-2.62,46.54,46.54,0,0,0-1.28-77.65,36.19,36.19,0,0,0,5.71-3.2A46.5,46.5,0,0,1,104.07,56Z" style="fill:#265f8a"/><rect x="62.5" y="47.5" width="19" height="6" rx="2.81" style="fill:#85cc66"/><rect x="76.5" y="57.5" width="13" height="7" rx="3.33" style="fill:#85cc66"/><g style="clip-path:url(#clip-path-2)"><path d="M12.5,32.35v.3A5.85,5.85,0,0,1,6.65,38.5h-9.3A5.85,5.85,0,0,0-8.5,44.35v.3A5.85,5.85,0,0,0-2.65,50.5h49.3a5.85,5.85,0,0,0,5.85-5.85v-.3a5.85,5.85,0,0,1,5.85-5.85h9.3a5.85,5.85,0,0,0,5.85-5.85v-.3a5.85,5.85,0,0,0-5.85-5.85H18.35A5.85,5.85,0,0,0,12.5,32.35Z" style="fill:#85cc66"/><path d="M46.5,64.82v-.64a3.68,3.68,0,0,0-3.68-3.68H1.18A3.68,3.68,0,0,0-2.5,64.18v.64A3.68,3.68,0,0,0,1.18,68.5H9A3.5,3.5,0,0,1,12.5,72v.83A3.5,3.5,0,0,1,9,76.33H9a3.5,3.5,0,0,0-3.5,3.5v1A3.68,3.68,0,0,0,9.18,84.5H38.82a3.68,3.68,0,0,0,3.68-3.68v-.64a3.68,3.68,0,0,0-3.68-3.68h-.64a3.68,3.68,0,0,1-3.68-3.68v-.64a3.68,3.68,0,0,1,3.68-3.68h4.64A3.68,3.68,0,0,0,46.5,64.82Z" style="fill:#85cc66"/><path d="M114.49,79h0a2.5,2.5,0,0,0-2.5-2.5H84.55a2.5,2.5,0,0,0-2.5,2.5h0a2.5,2.5,0,0,1-2.5,2.5H72.67a2.5,2.5,0,0,0-2.5,2.5h0a2.5,2.5,0,0,0,2.5,2.5h4a2.5,2.5,0,0,1,2.5,2.5h0a2.5,2.5,0,0,0,2.5,2.5h27.44a2.5,2.5,0,0,0,2.5-2.5h0a2.5,2.5,0,0,0-2.5-2.5h-3.78a2.5,2.5,0,0,1-2.5-2.5h0a2.5,2.5,0,0,1,2.5-2.5H112A2.5,2.5,0,0,0,114.49,79Z" style="fill:#85cc66"/><circle cx="58" cy="-15" r="35.5" style="fill:#e6e6e6"/><circle cx="58" cy="127" r="35.5" style="fill:#e6e6e6"/><path d="M115.49,79a2.5,2.5,0,0,1-2.5,2.5h-6.94a2.5,2.5,0,0,0-1.77.73,2.47,2.47,0,0,0-.74,1.77,2.5,2.5,0,0,0,2.51,2.5h4a2.5,2.5,0,0,1,0,5H82a2.48,2.48,0,0,1-1.77-.73v-.53A46.27,46.27,0,0,0,90,76.5h23A2.5,2.5,0,0,1,115.49,79Z" style="fill:#56933a"/></g><path d="M47.5,34.23v-.46a3.26,3.26,0,0,1,3.27-3.27h.46a3.26,3.26,0,0,0,3.27-3.27v-.46a3.26,3.26,0,0,0-3.27-3.27H16.77a3.26,3.26,0,0,0-3.27,3.27v.46a3.26,3.26,0,0,0,3.27,3.27h9.46a3.26,3.26,0,0,1,3.27,3.27v.46a3.26,3.26,0,0,1-3.27,3.27H21.77a3.26,3.26,0,0,0-3.27,3.27v.46a3.26,3.26,0,0,0,3.27,3.27H55.23a3.26,3.26,0,0,0,3.27-3.27v-.46a3.26,3.26,0,0,0-3.27-3.27H50.77A3.26,3.26,0,0,1,47.5,34.23Z" style="fill:#e6e6e6;opacity:0.8"/><path d="M39.5,74V72A3.5,3.5,0,0,0,36,68.5H13.6a4.11,4.11,0,0,0-4.1,4.1v1.48a3.42,3.42,0,0,0,3.42,3.42H23.38a3.11,3.11,0,0,1,3.12,3.12v1.92a4,4,0,0,0,4,4H41.77a4.73,4.73,0,0,0,4.73-4.73V81A3.5,3.5,0,0,0,43,77.5h0A3.5,3.5,0,0,1,39.5,74Z" style="fill:#e6e6e6;opacity:0.8"/><rect x="56.5" y="59.5" width="31" height="11" rx="5.26" style="fill:#e6e6e6;opacity:0.8"/></g></svg>