<svg id="Layer_1" data-name="Layer 1" xmlns="http://www.w3.org/2000/svg" xmlns:xlink="http://www.w3.org/1999/xlink" viewBox="0 0 3700 2010"><defs><radialGradient id="radial-gradient" cx="1907.5" cy="2730.5" r="2602.5" gradientUnits="userSpaceOnUse"><stop offset="0.62" stop-color="#22b5bc"/><stop offset="0.66" stop-color="#2bb8bf"/><stop offset="0.71" stop-color="#43c0c6"/><stop offset="0.79" stop-color="#6acdd2"/><stop offset="0.87" stop-color="#a1e0e2"/><stop offset="0.96" stop-color="#e6f7f7"/><stop offset="0.99" stop-color="#fff"/></radialGradient><clipPath id="clip-path"><path d="M3483,2010H255.76c292.75-184.22,905.33-311,1613.63-311S3190.28,1825.78,3483,2010Z" style="fill:none"/></clipPath><clipPath id="clip-path-2"><rect x="1628.04" y="440.28" width="188.86" height="650.15" style="fill:none"/></clipPath><clipPath id="clip-path-3"><circle cx="1847.24" cy="200.48" r="403.48" style="fill:none"/></clipPath><clipPath id="clip-path-4"><path d="M1837.85,567.33l-148-1.11a30.77,30.77,0,0,1-29.8-37.43c17.92-81.45,91.26-143.08,177.82-143.08,87.07,0,160.69,62.36,178.1,144.39a30.77,30.77,0,0,1-30.07,37.23Z" style="fill:none"/></clipPath><clipPath id="clip-path-5"><circle cx="1897.6" cy="705.26" r="56.66" style="fill:#1d5c7f"/></clipPath><clipPath id="clip-path-6"><path d="M1841.12,554.74l-137-1a17.2,17.2,0,0,1-16.93-19.47c10.16-75.71,75.72-134.78,153.92-134.78,78.64,0,144.42,59.74,154.06,135.94a17.2,17.2,0,0,1-17.07,19.34Z" style="fill:none"/></clipPath><clipPath id="clip-path-7"><rect x="1890.06" y="407.08" width="149.58" height="76.65" rx="33.48" transform="translate(40.54 1042.1) rotate(-30)" style="fill:none"/></clipPath><clipPath id="clip-path-8"><circle cx="2000.05" cy="425.4" r="29.76" style="fill:none"/></clipPath><clipPath id="clip-path-9"><ellipse cx="1622.89" cy="1164.83" rx="41.22" ry="33.75" transform="translate(380.32 2729) rotate(-87.21)" style="fill:none"/></clipPath><clipPath id="clip-path-10"><polygon points="2164.36 1312.49 1974.86 1071.15 1785.35 1312.49 1769.97 1312.49 1769.97 1331.93 1769.96 1331.95 1769.97 1331.95 1769.97 1595.21 2179.75 1595.21 2179.75 1312.49 2164.36 1312.49" style="fill:none"/></clipPath><clipPath id="clip-path-11"><rect x="1151.88" y="1409.78" width="177.42" height="326.22" rx="77.5" style="fill:none"/></clipPath><clipPath id="clip-path-12"><rect x="1157.6" y="1215.19" width="112.17" height="97.29" rx="33.98" style="fill:none"/></clipPath><clipPath id="clip-path-13"><rect x="1447.19" y="1386.89" width="113.32" height="114.46" rx="33.98" style="fill:none"/></clipPath><clipPath id="clip-path-14"><rect x="1657.8" y="1385.74" width="112.17" height="114.46" rx="33.98" style="fill:none"/></clipPath><clipPath id="clip-path-15"><path d="M1955.23,1349.12h77a39.88,39.88,0,0,1,39.88,39.88v195.31a12,12,0,0,1-12,12H1915.34a0,0,0,0,1,0,0V1389A39.88,39.88,0,0,1,1955.23,1349.12Z" style="fill:none"/></clipPath><clipPath id="clip-path-16"><path d="M1941,1349.12h59.68a48.57,48.57,0,0,1,48.57,48.57v198.67a0,0,0,0,1,0,0H1892.45a0,0,0,0,1,0,0V1397.68A48.57,48.57,0,0,1,1941,1349.12Z" style="fill:none"/></clipPath><clipPath id="clip-path-17"><path d="M1589.48,848.32a142.5,142.5,0,0,1-138.4-138.4Z" style="fill:none"/></clipPath><clipPath id="clip-path-18"><path d="M1275.88,844a142.5,142.5,0,0,1,138.41-138.4Z" style="fill:none"/></clipPath><clipPath id="clip-path-19"><path d="M1272.54,534.62A142.52,142.52,0,0,1,1411,673Z" style="fill:none"/></clipPath><clipPath id="clip-path-20"><path d="M1581,538.83a142.52,142.52,0,0,1-138.4,138.41Z" style="fill:#7ee8ff"/></clipPath></defs><g id="Tree"><path d="M1184.88,1615.45h512.38a0,0,0,0,1,0,0v32.27a20.5,20.5,0,0,1-20.5,20.5H1184.88a20.5,20.5,0,0,1-20.5-20.5V1636a20.5,20.5,0,0,1,20.5-20.5Z" style="fill:#302863"/><g id="Planet"><circle cx="1907.5" cy="2730.5" r="2602.5" style="fill:url(#radial-gradient)"/><path d="M3486.69,2010H259.42c292.75-184.22,905.33-311,1613.63-311S3193.94,1825.78,3486.69,2010Z" style="fill:#265f8a"/><g style="clip-path:url(#clip-path)"><path d="M3445,2358H-217.24C115,1976.53,810.11,1714,1613.87,1714S3112.79,1976.53,3445,2358Z" style="fill:#3380b4"/><path d="M1419.94,1812.57h0a43.5,43.5,0,0,0-45.07-41.87L269.62,1811.49a43.51,43.51,0,0,0-41.87,45.08h0a43.5,43.5,0,0,0,45.08,41.86l381.74-14.09a43.5,43.5,0,0,1,45.07,41.87l.34,9a43.51,43.51,0,0,1-41.87,45.08L558.18,1984A43.5,43.5,0,0,0,516.31,2029l.56,15a43.5,43.5,0,0,0,45.07,41.87l764.48-28.22a43.5,43.5,0,0,0,41.87-45.07l-.56-15a43.5,43.5,0,0,0-45.07-41.87L1208.74,1960a43.51,43.51,0,0,1-45.08-41.87l-.33-9a43.5,43.5,0,0,1,41.86-45.08l172.89-6.38A43.49,43.49,0,0,0,1419.94,1812.57Z" style="fill:#85cc66"/><rect x="2096" y="1908" width="325" height="86" rx="43" transform="translate(365.89 -356.65) rotate(9.82)" style="fill:#85cc66"/></g><path d="M3253.51,2010H3016.26a40,40,0,0,1-9.3-35.23v-.07a40,40,0,0,0-30.6-47.64,40.05,40.05,0,0,1-30.61-47.65l1.26-5.78a40,40,0,0,1,47.64-30.6l166.3,36.2a40.05,40.05,0,0,1,30.61,47.65l0,.06a40,40,0,0,0,30.61,47.65A40,40,0,0,1,3253.51,2010Z" style="fill:#6db16e"/></g><g id="Wood"><path d="M1817.31,2013h-67.43l-16.08-19.43-5.07-6.14a20.19,20.19,0,0,1,2.69-28.42l8.94-7.39a20.18,20.18,0,0,1,28.42,2.7l5.31,6.42Z" style="fill:#302863"/><rect x="1722.13" y="1860.01" width="51.96" height="135.44" rx="20.19" style="fill:#302863"/><rect x="1687.36" y="1750.83" width="51.96" height="166.55" rx="20.19" transform="translate(-746.29 1334.39) rotate(-35.47)" style="fill:#302863"/><rect x="1517.59" y="1628.47" width="51.96" height="315.62" rx="20.19" transform="translate(-242.71 3329.86) rotate(-90)" style="fill:#302863"/><rect x="1327.96" y="1643.26" width="51.96" height="191.26" rx="20.19" transform="translate(-848.45 1659.06) rotate(-50.02)" style="fill:#302863"/><rect x="1200.51" y="1586.57" width="51.96" height="191.26" rx="20.19" transform="translate(-624.44 2635.16) rotate(-81.15)" style="fill:#302863"/><rect x="1131" y="1591.72" width="51.96" height="102.25" rx="20.19" style="fill:#302863"/><path d="M2176.65,2000.65V2013h-261.3v-12.35a67,67,0,0,1,2.49-18.14c.46-1.63,1-3.23,1.55-4.81a67.06,67.06,0,0,1,63-44.1h127.2a67,67,0,0,1,67.05,67.05Z" style="fill:#302863"/><path d="M1951.08,2013h-48.42l-86.72-96.59a14,14,0,0,1,1.06-19.76l6-5.37a14,14,0,0,1,19.77,1.06l76.64,85.36Z" style="fill:#302863"/><rect x="1810.75" y="1715.85" width="36.03" height="201.79" rx="14" style="fill:#302863"/><rect x="1858.23" y="1581.97" width="36.03" height="184.26" rx="14" transform="translate(1514.21 -814.25) rotate(39.98)" style="fill:#302863"/><rect x="1850.44" y="1713.7" width="21.87" height="93.96" rx="8.5" transform="translate(3622.05 -100.69) rotate(90)" style="fill:#302863"/><rect x="1903.04" y="1722.04" width="21.87" height="56.2" rx="8.5" transform="matrix(0.61, 0.79, -0.79, 0.61, 2141.18, -833.4)" style="fill:#302863"/><rect x="1917.58" y="1619.31" width="21.87" height="130.48" rx="8.5" style="fill:#302863"/><rect x="1933.24" y="1671.19" width="21.87" height="56.2" rx="8.5" transform="translate(-632.45 1530.82) rotate(-37.41)" style="fill:#302863"/><rect x="2030.64" y="1617.21" width="21.87" height="191.79" rx="8.5" transform="translate(3754.67 -328.48) rotate(90)" style="fill:#302863"/><rect x="2135.82" y="1695" width="21.87" height="87.52" rx="8.5" transform="translate(-614.75 1662.03) rotate(-37.41)" style="fill:#302863"/><rect x="1907.07" y="1590.99" width="400.31" height="77.23" rx="30" style="fill:#302863"/><rect x="2216.64" y="1620.44" width="34.7" height="94.86" rx="13.48" transform="translate(2201.42 -1119.86) rotate(52.59)" style="fill:#302863"/><rect x="2186.77" y="1671.57" width="34.7" height="74.17" rx="13.48" transform="translate(264.62 -295.34) rotate(8.15)" style="fill:#302863"/><path d="M2257.64,1757.53,2175.45,1988l-8.93,25H2064.93l28.32-79.4,74.26-208.22a12.8,12.8,0,0,1,16.35-7.75l66,23.55A12.8,12.8,0,0,1,2257.64,1757.53Z" style="fill:#302863"/><rect x="2236.2" y="1750.69" width="34.7" height="115.9" rx="13.48" transform="translate(3298.24 -885.48) rotate(72.45)" style="fill:#302863"/><rect x="2284.56" y="1722.88" width="34.7" height="90.28" rx="13.48" transform="translate(428.82 -449.23) rotate(12.28)" style="fill:#302863"/><rect x="2347.22" y="1676.08" width="34.7" height="147.3" rx="13.48" transform="matrix(-0.14, 0.99, -0.99, -0.14, 4431.99, -342.77)" style="fill:#302863"/><rect x="2375.58" y="1627.09" width="22.34" height="157.66" rx="8.68" transform="matrix(0.58, 0.81, -0.81, 0.58, 2391.34, -1227.8)" style="fill:#302863"/><rect x="2457.45" y="1637.7" width="22.34" height="107.84" rx="11.17" transform="translate(4556.54 -452.26) rotate(99.82)" style="fill:#302863"/><rect x="2457.39" y="1622.46" width="22.34" height="72.93" rx="8.68" transform="translate(3441.67 -1151.57) rotate(75.2)" style="fill:#302863"/><rect x="2481.99" y="1606.44" width="22.34" height="56.17" rx="8.68" style="fill:#302863"/><rect x="2375.16" y="1551.09" width="22.34" height="162.17" rx="8.68" style="fill:#302863"/><rect x="2363.09" y="1530.92" width="22.34" height="48.46" rx="8.68" transform="translate(-159.67 2833.75) rotate(-60)" style="fill:#302863"/><rect x="2350.7" y="1510.69" width="22.34" height="48.46" rx="8.68" style="fill:#302863"/><rect x="2514.59" y="1683.35" width="22.34" height="56.17" rx="11.17" transform="translate(-408.53 2547.17) rotate(-50.02)" style="fill:#302863"/><rect x="2571.9" y="1664.56" width="22.34" height="107.3" rx="11.17" transform="translate(1151.93 4470.71) rotate(-96.16)" style="fill:#302863"/><rect x="2619.02" y="1677.84" width="22.34" height="47.59" rx="11.17" transform="translate(4663.11 4085.06) rotate(-163.36)" style="fill:#302863"/><rect x="2552.5" y="1510.99" width="15.05" height="361.69" rx="7.52" transform="translate(1152.66 4418.61) rotate(-96.16)" style="fill:#302863"/><rect x="2735.91" y="1638.47" width="15.05" height="45.16" rx="7.52" transform="translate(3778.34 4696.6) rotate(-140.02)" style="fill:#302863"/><rect x="2746.19" y="1600" width="15.05" height="56.43" rx="7.52" transform="translate(5507.43 3256.43) rotate(-180)" style="fill:#302863"/><rect x="2510.39" y="1439.63" width="22.34" height="290.29" rx="8.68" transform="translate(3409.44 -1258.01) rotate(75.2)" style="fill:#302863"/><rect x="2549.75" y="1462.86" width="15.05" height="86.01" rx="7.52" transform="translate(5354.29 513.89) rotate(129.98)" style="fill:#302863"/><rect x="2617.46" y="1447.48" width="15.05" height="110.84" rx="7.52" transform="translate(2816.59 4521.6) rotate(-123.42)" style="fill:#302863"/><rect x="2574.05" y="1520.34" width="22.34" height="48.46" rx="8.68" style="fill:#302863"/></g><g id="Leaves"><path d="M2497.07,1801l-47.32-.07a16.64,16.64,0,0,1-15.56-22.39,67.2,67.2,0,0,1,62.88-44.36c28.83,0,53.63,18.66,62.92,44.45a16.65,16.65,0,0,1-15.6,22.37Z" style="fill:#00996a"/><path d="M2453.83,1790.5l-45.58-.06a16,16,0,0,1-15-21.57,64.3,64.3,0,0,1,121.17.08,16,16,0,0,1-15,21.55Z" style="fill:#016b67"/><path d="M2537.76,1414.65l-124.18-.14c-30.34,0-51.16-24.7-40.85-48,24.43-55.25,89.48-95.18,165-95.18s140.74,40,165.11,95.36c10.28,23.35-10.58,48-40.93,48Z" style="fill:#7cff7f"/><path d="M2649.88,1486l-98.56-.1c-24.08,0-40.6-18-32.42-34.94,19.39-40.18,71-69.22,131-69.22s111.7,29.1,131,69.35c8.16,17-8.39,34.91-32.48,34.91Z" style="fill:#27d983"/><path d="M2435.45,1475.15l-171.09-.18c-41.81,0-70.49-31.19-56.28-60.65,33.65-69.75,123.28-120.16,227.37-120.16s193.91,50.52,227.48,120.39c14.16,29.47-14.57,60.6-56.39,60.6Z" style="fill:#27d983"/><path d="M2538.14,1394.06l-41.25,0c-10.08,0-17-8.21-13.57-16,8.11-18.35,29.72-31.62,54.82-31.62s46.76,13.3,54.85,31.68c3.42,7.76-3.51,16-13.59,16Z" style="fill:#7cff7f"/><path d="M2532.38,1467.43l58.32,0c14.25,0,24,8.21,19.19,16-11.47,18.36-42,31.62-77.51,31.62s-66.1-13.29-77.55-31.68c-4.83-7.75,5-15.94,19.22-15.94Z" style="fill:#27d983"/><path d="M2634.93,1689l-55.75-.06c-13.62,0-23-11.09-18.33-21.57,11-24.8,40.16-42.73,74.08-42.73s63.18,18,74.12,42.81c4.62,10.48-4.74,21.55-18.37,21.55Z" style="fill:#00996a"/><path d="M2509.13,1614.16l-68.85-.07c-16.83,0-28.37-13.7-22.65-26.64,13.54-30.63,49.61-52.77,91.5-52.77s78,22.19,91.53,52.87c5.7,12.94-5.86,26.61-22.69,26.61Z" style="fill:#00a16f"/><path d="M2758.08,1607.66l-79.88-.09c-19.52,0-32.91-15.89-26.28-30.9,15.72-35.55,57.56-61.23,106.16-61.23s90.54,25.74,106.21,61.34c6.62,15-6.8,30.88-26.32,30.88Z" style="fill:#00a16f"/><path d="M2355,1431.39l84.86.09c20.73,0,35,16.89,27.91,32.83-16.69,37.76-61.14,65-112.77,65s-96.17-27.35-112.82-65.16c-7-16,7.22-32.8,28-32.8Z" style="fill:#00a16f"/><path d="M2239.82,1448.12,2044,1447.9c-47.84-.06-80.66-39-64.4-75.74,38.51-87.12,141.07-150.06,260.19-150.06s221.89,63.09,260.31,150.34c16.2,36.81-16.68,75.68-64.53,75.68Z" style="fill:#00a16f"/><path d="M2341.28,1391.48l-65.41-.07c-16,0-26.95-13-21.52-25.3,12.87-29.11,47.13-50.14,86.93-50.14s74.14,21.08,87,50.23c5.41,12.3-5.57,25.28-21.56,25.28Z" style="fill:#28e186"/><path d="M2453.42,1772l35.84,0a12.61,12.61,0,0,1,11.79,17,50.56,50.56,0,0,1-95.28-.06,12.61,12.61,0,0,1,11.81-17Z" style="fill:#016b67"/><path d="M2860.86,1579l-40.82-.06c-10,0-16.81-10.69-13.42-20.78,8-23.89,29.41-41.16,54.24-41.16s46.26,17.31,54.27,41.24c3.38,10.1-3.48,20.76-13.45,20.76Z" style="fill:#00a16f"/><path d="M2831.64,1566l40.82.06c10,0,16.82,10.69,13.43,20.78-8,23.89-29.41,41.16-54.25,41.16s-46.26-17.31-54.26-41.24c-3.38-10.1,3.47-20.76,13.45-20.76Z" style="fill:#00a16f"/><path d="M2773.24,1557l-34.61,0c-8.45,0-14.26-5.34-11.38-10.39,6.81-11.95,24.94-20.58,46-20.58s39.23,8.65,46,20.62c2.87,5.05-3,10.38-11.41,10.38Z" style="fill:#7cff7f"/></g></g><g id="Main_House" data-name="Main House"><rect id="Roof_Background" data-name="Roof Background" x="1217.12" y="1018.32" width="597.5" height="262.12" style="fill:#fd7577"/><rect id="Stairs_Background" data-name="Stairs Background" x="1640.63" y="1091.57" width="362.85" height="206.03" style="fill:#8a6ffe"/><g id="Staircase_2" data-name="Staircase 2"><path d="M1601.09,871.81h91.38a6.54,6.54,0,0,1,6.54,6.54v30.09a0,0,0,0,1,0,0H1594.85a0,0,0,0,1,0,0V878A6.24,6.24,0,0,1,1601.09,871.81Z" style="fill:#7820fe"/><rect x="1594.85" y="871.81" width="104.16" height="14.88" rx="6.41" style="fill:#8a6ffe"/><path d="M1634.28,835.18h91.38a6.54,6.54,0,0,1,6.54,6.54v30.09a0,0,0,0,1,0,0H1628a0,0,0,0,1,0,0V841.42A6.24,6.24,0,0,1,1634.28,835.18Z" style="fill:#7820fe"/><rect x="1628.04" y="835.18" width="104.16" height="14.88" rx="6.41" style="fill:#8a6ffe"/><path d="M1678.92,798.55h91.38a6.54,6.54,0,0,1,6.54,6.54v30.09a0,0,0,0,1,0,0H1672.68a0,0,0,0,1,0,0V804.79A6.24,6.24,0,0,1,1678.92,798.55Z" style="fill:#7820fe"/><rect x="1672.68" y="798.55" width="104.16" height="14.88" rx="6.41" style="fill:#8a6ffe"/></g><g id="Tower"><rect x="1699.01" y="534.14" width="278.14" height="556.29" style="fill:#fef047"/><g style="clip-path:url(#clip-path-2)"><rect x="1682.98" y="536.43" width="278.14" height="552.86" style="fill:#fb0"/></g><g style="clip-path:url(#clip-path-3)"><rect x="1681.84" y="534.14" width="293.02" height="556.29" style="fill:#fb0"/></g><path d="M1840.92,567.33l-155.06-1.17a24.88,24.88,0,0,1-24.42-28.9c14.51-85.81,89.92-151.92,179.48-151.92,90.07,0,165.75,66.86,179.69,153.26A24.87,24.87,0,0,1,1996,567.33Z" style="fill:#d64df2"/><g style="clip-path:url(#clip-path-4)"><ellipse cx="1670.39" cy="508.39" rx="181.97" ry="181.39" style="fill:#ae56f6"/></g><path d="M1795.57,532.09a1.5,1.5,0,0,0,0-3,1.5,1.5,0,0,0,0,3Z" style="fill:#d64df2"/><path d="M1841.33,554.74l-137-1a17.2,17.2,0,0,1-16.92-19.47c10.16-75.71,75.71-134.78,153.91-134.78,78.64,0,144.42,59.74,154.06,135.94a17.2,17.2,0,0,1-17.07,19.34Z" style="fill:#4d98fe"/><circle cx="1897.6" cy="705.26" r="56.66" style="fill:#e8b003"/><circle cx="1897.6" cy="705.26" r="56.66" style="fill:#1d5c7f"/><g style="clip-path:url(#clip-path-5)"><circle cx="1879.29" cy="706.41" r="56.66" style="fill:#1d5c7f"/></g><g style="clip-path:url(#clip-path-6)"><path d="M1995.47,487.86l-1.28,168.36a21.14,21.14,0,0,1-23.92,20.8c-93-12.48-165.64-93-165.64-189.16,0-96.64,73.41-177.49,167.06-189.34a21.14,21.14,0,0,1,23.78,21Z" style="fill:#74bfff"/></g><path d="M1847.27,399.29c-2.68-.15-5.37-.21-8.08-.21a151.9,151.9,0,0,0-36.07,4.32,176.65,176.65,0,0,0-66.34,138.29q0,6.59.48,13l20.73.17q-.6-6.82-.61-13.8A156.37,156.37,0,0,1,1847.27,399.29Z" style="fill:#d64df2"/><path d="M1763.18,415.45c-1.89.11-3.77.28-5.67.52a87.7,87.7,0,0,0-24.73,6.85c-24.78,31.37-37.55,76.67-31.57,125q.7,5.68,1.73,11.22l14.5-1.66q-1.15-5.82-1.9-11.84C1708.83,491.35,1728.76,441.44,1763.18,415.45Z" style="fill:#ae56f6"/><circle cx="1897.6" cy="911.3" r="26.9" style="fill:#e8b003"/><rect x="1879.86" y="893.55" width="215.19" height="34.34" rx="15" style="fill:#c03bec"/><circle cx="2079.02" cy="910.72" r="17.17" style="fill:#f865b6"/><circle cx="1897.6" cy="483.2" r="34.91" style="fill:#853af9"/><rect x="1868.8" y="439.27" width="113.35" height="57.63" rx="25.18" transform="translate(23.92 1025.45) rotate(-30)" style="fill:#fa474d"/><rect x="1889.9" y="407.01" width="150.75" height="76.65" rx="33.48" transform="translate(40.63 1042.3) rotate(-30)" style="fill:#f1ef4f"/><circle cx="1998.9" cy="425.4" r="37.77" style="fill:#fb0"/><g style="clip-path:url(#clip-path-7)"><rect x="1910.68" y="447.71" width="149.58" height="76.65" transform="translate(22.98 1057.85) rotate(-30)" style="fill:#fb0"/></g><circle cx="2000.05" cy="425.4" r="29.76" style="fill:#441ea5"/><g style="clip-path:url(#clip-path-8)"><circle cx="1984.02" cy="411.67" r="38.92" style="fill:#3a1d79"/></g></g><g id="Mid_Roof" data-name="Mid Roof"><path d="M1644.27,1277.26l125.35-151.56c12-14.5,1.68-36.41-17.14-36.41h-250.7c-18.81,0-29.13,21.91-17.14,36.41L1610,1277.26A22.24,22.24,0,0,0,1644.27,1277.26Z" style="fill:#fe336a"/><ellipse cx="1622.89" cy="1164.83" rx="41.22" ry="33.75" transform="translate(380.32 2729) rotate(-87.21)" style="fill:#f865b6"/><g style="clip-path:url(#clip-path-9)"><ellipse cx="1635.48" cy="1165.98" rx="41.22" ry="33.75" transform="translate(391.16 2742.67) rotate(-87.21)" style="fill:#6810f2"/><path d="M1656.72,1171.94l-60.83-4.54a1.59,1.59,0,0,1-1.39-1.73l.43-6.49a1.55,1.55,0,0,1,1.61-1.51l60.83,4.55a1.59,1.59,0,0,1,1.4,1.73l-.44,6.49A1.54,1.54,0,0,1,1656.72,1171.94Z" style="fill:#fe336a"/><polygon points="1635.16 1123.09 1625.24 1208.6 1617.31 1207.43 1627.23 1121.92 1635.16 1123.09" style="fill:#fe336a"/></g></g><g id="Staricase_1" data-name="Staricase 1"><rect x="1640.63" y="1238.09" width="104.16" height="36.63" style="fill:#7820fe"/><rect x="1640.63" y="1238.09" width="113.32" height="14.88" rx="6.41" style="fill:#8a6ffe"/><rect x="1670.39" y="1201.46" width="104.16" height="36.63" style="fill:#7820fe"/><rect x="1670.39" y="1201.46" width="113.32" height="14.88" rx="6.41" style="fill:#8a6ffe"/><rect x="1699.01" y="1164.83" width="104.16" height="36.63" style="fill:#7820fe"/><rect x="1699.01" y="1164.83" width="113.32" height="14.88" rx="6.41" style="fill:#8a6ffe"/><rect x="1727.62" y="1127.06" width="104.16" height="36.63" style="fill:#7820fe"/><rect x="1727.62" y="1127.06" width="113.32" height="14.88" rx="6.41" style="fill:#8a6ffe"/><rect x="1756.24" y="1091.57" width="104.16" height="36.63" style="fill:#7820fe"/><rect x="1756.24" y="1091.57" width="113.32" height="14.88" rx="6.41" style="fill:#8a6ffe"/><path d="M1732.2,1054.95h98a6.2,6.2,0,0,1,6.2,6.2v22.18a8.25,8.25,0,0,1-8.25,8.25H1732.2a0,0,0,0,1,0,0v-36.63A0,0,0,0,1,1732.2,1054.95Z" style="fill:#fa4b46"/><rect x="1732.2" y="1054.95" width="104.16" height="14.88" rx="6.41" style="fill:#ff8a69"/><path d="M1695.57,1017.17h98.6a5.57,5.57,0,0,1,5.57,5.57v32.21a0,0,0,0,1,0,0H1695.57a0,0,0,0,1,0,0v-37.77A0,0,0,0,1,1695.57,1017.17Z" style="fill:#fa4b46"/><rect x="1695.57" y="1017.17" width="104.16" height="14.88" rx="6.41" style="fill:#ff8a69"/><path d="M1661.24,981.69H1759a6.4,6.4,0,0,1,6.4,6.4v30.23a0,0,0,0,1,0,0H1661.24a0,0,0,0,1,0,0V981.69A0,0,0,0,1,1661.24,981.69Z" style="fill:#fa4b46"/><rect x="1661.24" y="981.69" width="104.16" height="14.88" rx="6.41" style="fill:#ff8a69"/><path d="M1625.75,945.06h97.62a6.54,6.54,0,0,1,6.54,6.54v30.09a0,0,0,0,1,0,0H1625.75a0,0,0,0,1,0,0V945.06A0,0,0,0,1,1625.75,945.06Z" style="fill:#fa4b46"/><rect x="1625.75" y="945.06" width="104.16" height="14.88" rx="6.41" style="fill:#ff8a69"/><path d="M1589.12,908.43h97.62a6.54,6.54,0,0,1,6.54,6.54v30.09a0,0,0,0,1,0,0H1589.12a0,0,0,0,1,0,0V908.43A0,0,0,0,1,1589.12,908.43Z" style="fill:#fa4b46"/><rect x="1589.12" y="908.43" width="104.16" height="14.88" rx="6.41" style="fill:#ff8a69"/><path d="M1561.65,1054.95h172a11.15,11.15,0,0,1,11.15,11.15v25.48a0,0,0,0,1,0,0H1561.65a0,0,0,0,1,0,0v-36.63A0,0,0,0,1,1561.65,1054.95Z" style="fill:#c03bec"/><path d="M1561.65,1018.32h133.07a11.15,11.15,0,0,1,11.15,11.15v25.48a0,0,0,0,1,0,0H1561.65a0,0,0,0,1,0,0v-36.63A0,0,0,0,1,1561.65,1018.32Z" style="fill:#c03bec"/><path d="M1561.65,981.69h99.88a11.15,11.15,0,0,1,11.15,11.15v25.48a0,0,0,0,1,0,0h-111a0,0,0,0,1,0,0V981.69A0,0,0,0,1,1561.65,981.69Z" style="fill:#c03bec"/><path d="M1561.65,945.06h63.25a11.15,11.15,0,0,1,11.15,11.15v25.48a0,0,0,0,1,0,0h-74.4a0,0,0,0,1,0,0V945.06A0,0,0,0,1,1561.65,945.06Z" style="fill:#c03bec"/><path d="M1561.65,908.43h26.62a11.15,11.15,0,0,1,11.15,11.15v25.48a0,0,0,0,1,0,0h-37.77a0,0,0,0,1,0,0V908.43A0,0,0,0,1,1561.65,908.43Z" style="fill:#c03bec"/></g><g id="House_Left" data-name="House Left"><rect x="1011.09" y="1307.91" width="412.07" height="288.45" style="fill:#fb0"/><polygon points="1217.12 1029.76 1011.09 1307.91 1423.15 1307.91 1217.12 1029.76" style="fill:#fb0"/><path d="M1410.8,1319.36h0c-8.08,0-15.64-3.51-20.2-9.37l-174.37-223.92a3.33,3.33,0,0,0-5.09,0L1036.77,1310c-4.56,5.86-12.12,9.37-20.2,9.37h0c-21.86,0-34.78-21.55-22.43-37.41l197.19-253.24c10.76-13.81,34-13.81,44.71,0L1433.23,1282C1445.59,1297.81,1432.67,1319.36,1410.8,1319.36Z" style="fill:#fe336b"/></g><g id="House_Right" data-name="House Right"><rect x="1794.01" y="1313.63" width="386.88" height="282.72" style="fill:#fef047"/><polygon points="1987.29 1072.16 1794.01 1333.09 2180.57 1333.09 1987.29 1072.16" style="fill:#fef047"/><g style="clip-path:url(#clip-path-10)"><path d="M2161.76,1349.12h0a21.81,21.81,0,0,1-17.21-8L1996,1150.4a2.83,2.83,0,0,0-4.33,0l-148.53,190.74a21.79,21.79,0,0,1-17.2,8h0c-18.63,0-29.64-18.36-19.11-31.87l168-215.7c9.17-11.77,28.92-11.77,38.09,0l168,215.7C2191.39,1330.76,2180.38,1349.12,2161.76,1349.12Z" style="fill:#e8b003"/></g><path d="M2170.15,1319.36h0a22.87,22.87,0,0,1-18.05-8.37l-155.82-200.11a3,3,0,0,0-4.55,0L1835.9,1311a22.86,22.86,0,0,1-18,8.37h0c-19.55,0-31.09-19.26-20-33.43L1974,1059.63c9.62-12.35,30.34-12.35,40,0l176.21,226.3C2201.23,1300.1,2189.69,1319.36,2170.15,1319.36Z" style="fill:#fe336b"/></g><g id="House_Mid" data-name="House Mid"><rect x="1395.68" y="1307.91" width="215.19" height="288.45" style="fill:#f7ea44"/><rect x="1610.87" y="1307.91" width="223.2" height="288.45" style="fill:#e8b003"/><rect x="1387.67" y="1273.57" width="452.13" height="48.07" rx="21" style="fill:#fe336b"/></g><g id="Door"><path d="M1296.1,1510.51v85.85H1127.84v-85.85c0-55.63,37.67-100.73,84.13-100.73,23.23,0,44.26,11.28,59.48,29.51S1296.1,1482.69,1296.1,1510.51Z" style="fill:#f24443"/><g style="clip-path:url(#clip-path-11)"><path d="M1296.1,1510.51v85.85H1123.26v-85.85c0-55.63,38.69-100.73,86.42-100.73,23.86,0,45.47,11.28,61.1,29.51S1296.1,1482.69,1296.1,1510.51Z" style="fill:#6810f2"/></g><ellipse cx="1176.49" cy="1522.53" rx="10.87" ry="12.02" style="fill:#382d71"/></g><g id="Window_1" data-name="Window 1"><rect x="1157.6" y="1215.19" width="112.17" height="97.29" rx="33.98" style="fill:#fa474d"/><g style="clip-path:url(#clip-path-12)"><rect x="1173.62" y="1215.19" width="112.17" height="97.29" rx="33.98" style="fill:#6810f2"/></g><rect x="1171.33" y="1257.55" width="98.44" height="12.59" style="fill:#fa474d"/><rect x="1172.48" y="1257.55" width="97.29" height="12.59" transform="translate(-42.72 2484.97) rotate(-90)" style="fill:#fa474d"/></g><g id="Window_2" data-name="Window 2"><rect x="1447.19" y="1388.03" width="112.17" height="114.46" rx="33.98" style="fill:#f7b602"/><g style="clip-path:url(#clip-path-13)"><rect x="1432.31" y="1388.03" width="113.32" height="114.46" rx="33.98" style="fill:#6810f2"/></g><rect x="1447.19" y="1436.11" width="100.73" height="14.88" style="fill:#f7b602"/><rect x="1440.32" y="1438.4" width="113.32" height="12.59" transform="translate(52.29 2941.67) rotate(-90)" style="fill:#f7b602"/></g><g id="Window_3" data-name="Window 3"><rect x="1657.8" y="1386.89" width="112.17" height="114.46" rx="33.98" style="fill:#fa474d"/><g style="clip-path:url(#clip-path-14)"><rect x="1673.83" y="1385.74" width="112.17" height="114.46" rx="33.98" style="fill:#6810f2"/></g><rect x="1671.54" y="1434.96" width="98.44" height="14.88" style="fill:#fa474d"/><rect x="1663.52" y="1437.25" width="115.61" height="12.59" transform="translate(277.78 3164.88) rotate(-90)" style="fill:#fa474d"/></g><g id="Big_Window" data-name="Big Window"><path d="M1955.19,1349.12h78.74a38.23,38.23,0,0,1,38.23,38.23v207.87a0,0,0,0,1,0,0H1915.34a0,0,0,0,1,0,0V1389A39.85,39.85,0,0,1,1955.19,1349.12Z" style="fill:#feba01"/><g style="clip-path:url(#clip-path-15)"><path d="M1947.89,1348h59.68a48.57,48.57,0,0,1,48.57,48.57v198.67a0,0,0,0,1,0,0H1899.32a0,0,0,0,1,0,0V1396.54A48.57,48.57,0,0,1,1947.89,1348Z" style="fill:#4c97fd"/><g style="clip-path:url(#clip-path-16)"><rect x="2014.93" y="1468.16" width="29.76" height="51.51" rx="13" style="fill:#72bdfe"/><rect x="2013.78" y="1389.18" width="29.76" height="51.51" rx="13" style="fill:#72bdfe"/></g></g><rect x="1977.15" y="1349.12" width="16.02" height="246.1" style="fill:#6f1deb"/><path d="M1980.59,1356h16a0,0,0,0,1,0,0v143.47a3,3,0,0,1-3,3h-9.94a3,3,0,0,1-3-3V1356A0,0,0,0,1,1980.59,1356Z" transform="translate(559.36 3417.84) rotate(-90)" style="fill:#6f1deb"/><path d="M1981.21,1443H1996a.62.62,0,0,1,.62.62v142.83a3.06,3.06,0,0,1-3.06,3.06h-9.91a3.06,3.06,0,0,1-3.06-3.06V1443.6A.62.62,0,0,1,1981.21,1443Z" transform="translate(472.37 3504.83) rotate(-90)" style="fill:#6f1deb"/></g><g id="Wind_Turbine" data-name="Wind Turbine"><rect x="1416.29" y="690.95" width="24.04" height="239.23" style="fill:#ff54e8"/><path d="M1585.89,844.74a142.52,142.52,0,0,1-138.4-138.41Z" style="fill:#79dce1"/><g style="clip-path:url(#clip-path-17)"><path d="M1621.82,846.42a142.51,142.51,0,0,1-182.58-70.54Z" style="fill:#7ee8ff"/></g><path d="M1275.5,844.33a142.5,142.5,0,0,1,138.4-138.4Z" style="fill:#41c1fe"/><g style="clip-path:url(#clip-path-18)"><path d="M1258.1,931.34a250.81,250.81,0,0,1,243.6-243.6Z" style="fill:#79dce1"/></g><path d="M1272.62,534.7A142.52,142.52,0,0,1,1411,673.1Z" style="fill:#41c1fe"/><g style="clip-path:url(#clip-path-19)"><path d="M1502.86,759a229.68,229.68,0,0,1-133-286.08Z" style="fill:#79dce1"/></g><path d="M1581.38,538.45A142.5,142.5,0,0,1,1443,676.85Z" style="fill:#41c1fe"/><path d="M1581,538.83a142.52,142.52,0,0,1-138.4,138.41Z" style="fill:#7ee8ff"/><g style="clip-path:url(#clip-path-20)"><path d="M1598.78,451.44A250.81,250.81,0,0,1,1355.18,695Z" style="fill:#79dce1"/></g><circle cx="1428.88" cy="690.95" r="32.05" style="fill:#853af9"/></g><g id="Roof_Balcony" data-name="Roof Balcony"><rect x="1283.51" y="895.84" width="13.74" height="41.21" style="fill:#7627f5"/><rect x="1324.71" y="895.84" width="13.74" height="41.21" style="fill:#7627f5"/><rect x="1368.21" y="895.84" width="13.74" height="41.21" style="fill:#7627f5"/><rect x="1410.56" y="895.84" width="13.74" height="41.21" style="fill:#7627f5"/><rect x="1452.91" y="895.84" width="13.74" height="41.21" style="fill:#c041e6"/><rect x="1497.55" y="895.84" width="13.74" height="41.21" style="fill:#c041e6"/><rect x="1543.34" y="895.84" width="13.74" height="41.21" style="fill:#c041e6"/><polygon points="1385.38 1119.05 1338.45 1054.95 1338.45 957.65 1385.38 957.65 1385.38 1119.05" style="fill:#771fff"/><rect x="1385.38" y="957.65" width="45.79" height="161.39" style="fill:#4d98fe"/><rect x="1349.14" y="1047.75" width="14.88" height="85.37" rx="6.5" transform="translate(-382.57 1021.68) rotate(-36.53)" style="fill:#f24767"/><rect x="1396.83" y="1084.71" width="14.88" height="67.53" rx="6.5" transform="translate(285.79 2522.74) rotate(-90)" style="fill:#fb0"/><rect x="1273.21" y="930.18" width="298.75" height="33.19" rx="14.5" style="fill:#ff54e4"/><rect x="1273.21" y="930.18" width="186.57" height="33.19" rx="14.5" style="fill:#c03bec"/><rect x="1272.06" y="892.41" width="298.75" height="13.74" rx="6" style="fill:#8d78dd"/><rect x="1444.9" y="892.41" width="127.05" height="13.74" rx="6" style="fill:#f260cb"/></g><rect x="1438.03" y="1224.35" width="112.17" height="28.62" rx="12.5" style="fill:#fe336b"/><rect x="1394.54" y="1183.14" width="112.17" height="28.62" rx="12.5" style="fill:#fe336b"/><rect x="1354.48" y="1143.08" width="112.17" height="28.62" rx="12.5" style="fill:#fe336b"/></g><g id="Front_Fence" data-name="Front Fence"><rect x="955" y="1592.92" width="1272.83" height="33.19" rx="14.5" style="fill:#7d62e3"/><rect x="1587.98" y="1592.92" width="457.85" height="33.19" rx="14.5" style="fill:#6a1ce2"/><rect x="1472.37" y="1592.92" width="272.42" height="33.19" rx="14.5" style="fill:#4586e2"/><rect x="1958.84" y="1592.92" width="268.99" height="33.19" rx="14.5" style="fill:#4586e2"/><rect x="1872.99" y="1534.55" width="354.83" height="13.74" rx="6" style="fill:#6caeea"/><rect x="1872.99" y="1534.55" width="115.61" height="13.74" rx="6" style="fill:#7d66ea"/><rect x="1425.44" y="1534.55" width="354.83" height="13.74" rx="6" style="fill:#8366e4"/><rect x="1425.44" y="1534.55" width="246.1" height="13.74" rx="6" style="fill:#62bbb7"/><rect x="1305.26" y="1534.55" width="185.43" height="13.74" rx="6" style="fill:#8067df"/><rect x="955" y="1534.55" width="161.39" height="13.74" rx="6" style="fill:#8067df"/><rect x="2194.63" y="1548.28" width="14.88" height="44.64" style="fill:#6caeea"/><rect x="2131.68" y="1548.28" width="14.88" height="44.64" style="fill:#6caeea"/><rect x="2068.72" y="1548.28" width="14.88" height="44.64" style="fill:#6caeea"/><rect x="2009.2" y="1548.28" width="14.88" height="44.64" style="fill:#6caeea"/><rect x="1946.25" y="1548.28" width="14.88" height="44.64" style="fill:#7d66ea"/><rect x="1883.29" y="1548.28" width="14.88" height="44.64" style="fill:#6a1ce2"/><rect x="1755.1" y="1548.28" width="14.88" height="44.64" style="fill:#6a1ce2"/><rect x="1693.29" y="1548.28" width="14.88" height="44.64" style="fill:#7d66ea"/><rect x="1630.33" y="1548.28" width="14.88" height="44.64" style="fill:#62bbb7"/><rect x="1567.38" y="1548.28" width="14.88" height="44.64" style="fill:#62bbb7"/><rect x="1504.42" y="1548.28" width="14.88" height="44.64" style="fill:#62bbb7"/><rect x="1443.76" y="1548.28" width="14.88" height="44.64" style="fill:#6810f2"/><rect x="1380.8" y="1548.28" width="14.88" height="44.64" style="fill:#6810f2"/><rect x="1320.14" y="1548.28" width="14.88" height="44.64" style="fill:#6810f2"/><rect x="1093.5" y="1548.28" width="14.88" height="44.64" style="fill:#6810f2"/><rect x="1030.55" y="1548.28" width="14.88" height="44.64" style="fill:#6810f2"/><rect x="971.02" y="1548.28" width="14.88" height="44.64" style="fill:#6810f2"/></g></svg>