<svg xmlns="http://www.w3.org/2000/svg" xmlns:xlink="http://www.w3.org/1999/xlink" viewBox="0 0 120 106"><defs><clipPath id="clip-path"><circle cx="14.69" cy="21.47" r="4.73" style="fill:none"/></clipPath><clipPath id="clip-path-2"><circle cx="60.8" cy="90.54" r="5.03" style="fill:none"/></clipPath><clipPath id="clip-path-3"><circle cx="99.53" cy="28.55" r="4.79" style="fill:none"/></clipPath><clipPath id="clip-path-4"><circle cx="82.78" cy="69.79" r="6.26" style="fill:none"/></clipPath><clipPath id="clip-path-5"><circle cx="28.32" cy="48.86" r="3.5" style="fill:none"/></clipPath><clipPath id="clip-path-6"><circle cx="65.43" cy="33.5" r="2.5" style="fill:none"/></clipPath><clipPath id="clip-path-7"><circle cx="60.75" cy="49.3" r="15.2" style="fill:none"/></clipPath></defs><g id="For_Export" data-name="For Export"><path d="M58.33,15.44h0a1.48,1.48,0,0,1-1.39,1.32,237.18,237.18,0,0,0-40.56,5.81,1.47,1.47,0,0,1-1.22-.23l-.11-.08a1.48,1.48,0,0,1,.52-2.65,247.72,247.72,0,0,1,41.19-5.82A1.49,1.49,0,0,1,58.33,15.44Z" style="fill:#2200b7"/><circle cx="14.69" cy="21.47" r="4.73" style="fill:#0bb1f3"/><g style="clip-path:url(#clip-path)"><path d="M13.28,20.43h0a.86.86,0,0,1,.85-.86h1.23a.85.85,0,0,0,.86-.86v-.12a.85.85,0,0,0-.86-.86H6.64a.86.86,0,0,0-.86.86h0a.86.86,0,0,1-.85.86H3.7a.85.85,0,0,0-.86.86v.12a.85.85,0,0,0,.86.86H5.78a.85.85,0,0,1,.86.86v.12a.86.86,0,0,0,.86.86h8.72a.85.85,0,0,0,.86-.86v-.12a.85.85,0,0,0-.86-.86H14.13A.85.85,0,0,1,13.28,20.43Z" style="fill:#0d70ee"/><rect x="3.7" y="23.5" width="10.44" height="1.84" rx="0.92" style="fill:#0d70ee"/></g><path d="M57.6,90.37h0a1.31,1.31,0,0,1-1.4,1.31c-18.73-1.26-35.14-4.47-46.92-8.93a1.7,1.7,0,0,1-.92-2.38h0a1.71,1.71,0,0,1,2.21-.78c10.72,4.77,27,8.22,45.81,9.47A1.3,1.3,0,0,1,57.6,90.37Z" style="fill:#2200b7"/><circle cx="60.8" cy="90.54" r="5.03" style="fill:#0b45f8"/><g style="clip-path:url(#clip-path-2)"><circle cx="64.28" cy="89.2" r="6.96" style="fill:#106cf3"/></g><path d="M117,50.1a16,16,0,0,1-.73,4.75,1.44,1.44,0,0,1-1.37,1h0A1.44,1.44,0,0,1,113.51,54a14.35,14.35,0,0,0,.58-4c0-7.38-5.73-14.16-15.33-19.54a1.12,1.12,0,0,1-.5-1.4h0a1.12,1.12,0,0,1,1.58-.56C110.57,34.4,117,41.91,117,50.1Z" style="fill:#2200b7"/><circle cx="99.53" cy="28.55" r="4.79" style="fill:#009e89"/><g style="clip-path:url(#clip-path-3)"><circle cx="101.11" cy="28.36" r="3.99" style="fill:#09db89"/></g><path d="M106.18,24.88c-.25-.41-1.43-.2-3.1.46a4.7,4.7,0,0,1,.35.43c.61-.18,1-.2,1.12,0s-.12.53-.59,1a23.05,23.05,0,0,1-4.07,2.93,26.64,26.64,0,0,1-4,2c-.92.34-1.55.44-1.68.22s.24-.71,1-1.34a4.14,4.14,0,0,1-.19-.49c-1.65,1.3-2.59,2.39-2.32,2.85s1.74.13,3.73-.73a35.09,35.09,0,0,0,3.81-2,32.07,32.07,0,0,0,4-2.75C105.63,26.27,106.43,25.3,106.18,24.88Z" style="fill:#4164ff"/><path d="M86.91,69.19a.76.76,0,0,1-.44,1c-9,2.8-14.89,4-27.65,4-1.63,0-3.25,0-4.84-.1a.91.91,0,0,1-.81-1.25h0a.92.92,0,0,1,.89-.56c1.58.06,3.19.1,4.81.1A97.43,97.43,0,0,0,86,68.75a.75.75,0,0,1,.92.44Z" style="fill:#2200b7"/><circle cx="82.78" cy="69.79" r="6.26" style="fill:#df2e2a"/><g style="clip-path:url(#clip-path-4)"><path d="M80.2,70.71v-.36a1.16,1.16,0,0,1,1.16-1.17h1.11A1.16,1.16,0,0,0,83.63,68v-.37a1.16,1.16,0,0,0-1.16-1.16h0a1.17,1.17,0,0,1-1.17-1.17v-.24a1.16,1.16,0,0,0-1.16-1.17H73.38a1.16,1.16,0,0,0-1.16,1.17v.36a1.16,1.16,0,0,0,1.16,1.17h0a1.17,1.17,0,0,1,1.17,1.17V68a1.17,1.17,0,0,1-1.17,1.17h-1.1a1.17,1.17,0,0,0-1.17,1.17v.36a1.17,1.17,0,0,0,1.17,1.17h2.58A1.16,1.16,0,0,1,76,73.05v.37a1.16,1.16,0,0,1-1.16,1.16H73.38a1.16,1.16,0,0,0-1.16,1.17v.37a1.16,1.16,0,0,0,1.16,1.16h6.76a1.16,1.16,0,0,0,1.16-1.16v-.37a1.17,1.17,0,0,1,1.17-1.17h1.47a1.16,1.16,0,0,0,1.17-1.16v-.37a1.17,1.17,0,0,0-1.17-1.17H81.36A1.16,1.16,0,0,1,80.2,70.71Z" style="fill:#d64945"/></g><g id="Planet_4" data-name="Planet 4"><path d="M52.71,29.42C42.33,30.52,35,32.07,29,34.72a.82.82,0,0,0,.11,1.53l.23.07a.81.81,0,0,0,.53,0c5.76-2.37,13.74-4.21,23-5.24a.81.81,0,0,0,.64-1.17h0A.79.79,0,0,0,52.71,29.42Z" style="fill:#2200b7"/><circle cx="28.81" cy="36.58" r="3.01" style="fill:#f67d3d"/><circle cx="28.15" cy="36.21" r="2.28" style="fill:#ff5200"/></g><g id="Planet_3" data-name="Planet 3"><path d="M46.76,36.42c-9.24,1.47-16,5.27-16.78,9.83a1,1,0,0,1-1,.83h0a1,1,0,0,1-.95-1.2C29.14,41,36.6,37,46.63,35.52a.47.47,0,0,1,.5.32h0A.45.45,0,0,1,46.76,36.42Z" style="fill:#2200b7"/><circle cx="28.32" cy="48.86" r="3.5" style="fill:#1045f4"/><g style="clip-path:url(#clip-path-5)"><circle cx="30.18" cy="47.9" r="3.9" style="fill:#2378ff"/></g></g><g id="Planet_2" data-name="Planet 2"><path d="M83.23,41.29h0a.78.78,0,0,1-.53-.21c-3.23-3.13-9.39-5.54-16.9-6.51a.47.47,0,0,1-.38-.64h0a.49.49,0,0,1,.5-.3c7.66.94,14.06,3.25,17.8,6.3A.77.77,0,0,1,83.23,41.29Z" style="fill:#2200b7"/><circle cx="65.43" cy="33.5" r="2.5" style="fill:#b649db"/><g style="clip-path:url(#clip-path-6)"><path d="M66.67,29.4a1.87,1.87,0,0,1-.57,2.4c-.44.2-.76-.15-1.22.09s-.41.85-.83,1.62-1.22,1.56-1.74,1.43c-.79-.19-1.51-2.76-.39-4.41S66,28.51,66.67,29.4Z" style="fill:#bc14d3"/></g></g><path id="Planet_1" data-name="Planet 1" d="M80,47.07a3.57,3.57,0,0,1-.62,2,.5.5,0,0,1-.42.23h0a.51.51,0,0,1-.45-.75,3.12,3.12,0,0,0,.37-1.45c0-2.47-3.11-4.62-7.67-5.71a.26.26,0,0,1-.19-.36h0a.27.27,0,0,1,.31-.16C76.49,42,80,44.33,80,47.07Z" style="fill:#2200b7"/><g id="Sun"><circle cx="60.75" cy="49.3" r="15.2" style="fill:#ed9633"/><g style="clip-path:url(#clip-path-7)"><circle cx="64.1" cy="49.2" r="12.43" style="fill:#f4be1c"/></g></g></g></svg>