<svg xmlns="http://www.w3.org/2000/svg" viewBox="0 0 120 105"><g id="For_Export_Galactic" data-name="For Export Galactic"><ellipse cx="59.19" cy="57.58" rx="57.26" ry="23.78" transform="translate(-16.73 25.1) rotate(-21.05)" style="fill:#102193"/><path d="M22.13,58l0,.07a.63.63,0,0,0,1,.22A76.26,76.26,0,0,1,42.35,45.2a.63.63,0,0,0,.31-.79l0,0a.64.64,0,0,0-.87-.34A78.7,78.7,0,0,0,22.28,57.36.64.64,0,0,0,22.13,58ZM69.28,73.73v0a.63.63,0,0,0,.84.35,99.61,99.61,0,0,0,14.25-7.57.64.64,0,0,0,.25-.76h0a.63.63,0,0,0-.93-.3,99.71,99.71,0,0,1-14.08,7.46A.63.63,0,0,0,69.28,73.73ZM16.51,74c-1.2-3.11-.23-6.83,2.44-10.73a.62.62,0,0,0,.07-.59L19,62.57a.64.64,0,0,0-1.11-.14c-3.16,4.43-4.34,8.68-3,12.23,3.68,9.59,24.6,10.55,47.52,2.49a.63.63,0,0,0,.38-.83v0a.62.62,0,0,0-.8-.36C39.94,83.67,19.94,83,16.51,74ZM98,36.57l-.23.09a.63.63,0,0,0-.14,1.1,8.41,8.41,0,0,1,3.15,3.87c2.23,5.77-3,13.64-12.8,20.92a.61.61,0,0,0-.21.73h0a.63.63,0,0,0,1,.28c10.42-7.75,16-16.24,13.55-22.51a9.43,9.43,0,0,0-3.69-4.42A.65.65,0,0,0,98,36.57ZM51.58,39.71c-1.09.42-2.15.85-3.2,1.29a.63.63,0,0,0-.34.81v0a.64.64,0,0,0,.84.35c1-.44,2.13-.88,3.22-1.3,13.38-5.15,26.28-7.23,35.5-6.28a.63.63,0,0,0,.65-.86v0a.63.63,0,0,0-.53-.4C78.17,32.41,65.1,34.51,51.58,39.71Z" style="fill:#2657da"/><ellipse cx="57.9" cy="58.37" rx="38.61" ry="16.04" transform="translate(-17.1 24.69) rotate(-21.05)" style="fill:#5d2b80"/><ellipse cx="59.11" cy="57.71" rx="32.48" ry="13.49" transform="translate(-16.78 25.08) rotate(-21.05)" style="fill:#d43e6c"/><ellipse cx="59.02" cy="57.62" rx="26.79" ry="11.13" transform="translate(-16.76 25.05) rotate(-21.05)" style="fill:#f38353"/><ellipse cx="59.05" cy="57.64" rx="14.98" ry="6.22" transform="translate(-16.76 25.05) rotate(-21.05)" style="fill:#f9d962"/><ellipse cx="59.06" cy="57.73" rx="7.37" ry="3.06" transform="translate(-16.79 25.07) rotate(-21.05)" style="fill:#fff"/><path d="M65.82,54.77a2,2,0,0,1,.08.22c-.7-1.49-4.21-1.55-7.94-.12s-6.29,3.84-5.81,5.42l-.09-.23a7.38,7.38,0,1,1,13.76-5.29Z" style="fill:#fff;opacity:0.25"/><path d="M40.42,50.73a1,1,0,0,0-.23.12c-5.63,3.49-10,7.34-12.51,11A1.42,1.42,0,1,0,30,63.45c2-3.31,6.1-7,11.57-10.33a1.34,1.34,0,0,0-1.19-2.39Zm7.72,22.51c-8,1.31-14.44.78-17.55-1.62a1.61,1.61,0,0,0-2,0h0a1.61,1.61,0,0,0,.13,2.64c4.14,2.59,11.61,3.15,20.43,1.63A1.06,1.06,0,0,0,50,74.46l-.08-.21A1.63,1.63,0,0,0,48.14,73.24ZM50.5,45.53l0,0c-1.16.5-2.29,1-3.39,1.54a1.33,1.33,0,0,0-.66,1.68h0a1.33,1.33,0,0,0,1.83.72q1.59-.78,3.27-1.5a1.33,1.33,0,0,0-1-2.46Zm21.38-5.84a71.39,71.39,0,0,0-14.21,3.16,1.3,1.3,0,1,0,.81,2.46A72.94,72.94,0,0,1,72.25,42a1.09,1.09,0,0,0,.63-.32,1.18,1.18,0,0,0,.25-1.26A1.19,1.19,0,0,0,71.88,39.69Zm16.63,2.14a1.08,1.08,0,0,0-1.33.17,1.06,1.06,0,0,0,.17,1.62,5.27,5.27,0,0,1,2.15,2.51,4.79,4.79,0,0,1,.27,2.33,1.12,1.12,0,0,0,.87,1.23,1,1,0,0,0,.63,0,1.09,1.09,0,0,0,.7-.87,6.69,6.69,0,0,0-.35-3.4A7.24,7.24,0,0,0,88.51,41.83ZM77.22,62.2A80.7,80.7,0,0,1,63.51,69a83,83,0,0,1-8,2.65A1.06,1.06,0,0,0,54.75,73l.24.62a1.06,1.06,0,0,0,1.28.64,80.54,80.54,0,0,0,7.65-2.54,77.48,77.48,0,0,0,14.52-7.32,1.08,1.08,0,0,0,.46-1.07l-.07-.44A1.06,1.06,0,0,0,77.22,62.2Z" style="fill:#ef4e62"/><path d="M56.23,47.16h0a.52.52,0,0,0,.66.3c1.77-.63,3.52-1.16,5.22-1.6a.52.52,0,0,0,.35-.69h0a.51.51,0,0,0-.61-.31c-1.73.44-3.51,1-5.31,1.62A.53.53,0,0,0,56.23,47.16Zm-16,8.69h0a.55.55,0,0,0,.86.23,51.08,51.08,0,0,1,13.28-7.65.52.52,0,0,0,.29-.67h0a.52.52,0,0,0-.68-.29,53.64,53.64,0,0,0-13.59,7.76A.54.54,0,0,0,40.19,55.85ZM46.6,71.23l0,.06a.4.4,0,0,0,.41.26,53.55,53.55,0,0,0,14.25-3.09.4.4,0,0,0,.24-.53h0a.4.4,0,0,0-.52-.24,51.23,51.23,0,0,1-14,3A.4.4,0,0,0,46.6,71.23ZM73.7,44.08h0a.56.56,0,0,0,.49.35c4.38.25,7.5,1.6,8.44,4,.6,1.57.23,3.4-.93,5.34a.55.55,0,0,0,0,.45h0a.51.51,0,0,0,.91.09c1.55-2.36,2.1-4.61,1.37-6.51-1.08-2.79-4.69-4.3-9.71-4.51A.55.55,0,0,0,73.7,44.08Z" style="fill:#f9d962"/><path d="M10.25,61.29l0,.08a1,1,0,0,0,1.73.29C16.79,56,24.33,50.07,33.74,44.79a1,1,0,0,0,.45-1.25l0-.09a1,1,0,0,0-1.45-.52C23.19,48.3,15.48,54.34,10.43,60.27A1,1,0,0,0,10.25,61.29Zm40.2-26.67Q47.66,35.69,45,36.86a1,1,0,0,0-.55,1.3l0,.09a1,1,0,0,0,1.35.57c1.79-.77,3.61-1.52,5.48-2.24A135.5,135.5,0,0,1,69.56,31a1,1,0,0,0,.72-1.36l0-.06a1,1,0,0,0-1.18-.62A134.17,134.17,0,0,0,50.45,34.62Zm35.1-6.79h0a1,1,0,0,0,1,.65c13-.66,22.6,2.23,25.06,8.64,1.19,3.1.6,6.7-1.47,10.52a1.05,1.05,0,0,0-.06.85l.06.16a1,1,0,0,0,1.84.13c2.56-4.52,3.33-8.81,1.92-12.49-2.77-7.19-13.28-10.51-27.44-9.84A1,1,0,0,0,85.55,27.83ZM36.35,87l0,.15a1,1,0,0,0,1.07.64,124.73,124.73,0,0,0,30.47-7.72A136,136,0,0,0,85.59,71.8,1,1,0,0,0,86,70.55L86,70.4a1,1,0,0,0-1.44-.52A134.89,134.89,0,0,1,67.22,78a124.47,124.47,0,0,1-30,7.67A1,1,0,0,0,36.35,87Z" style="fill:#4016af"/></g></svg>