<svg xmlns="http://www.w3.org/2000/svg" xmlns:xlink="http://www.w3.org/1999/xlink" viewBox="0 0 470 340"><defs><radialGradient id="radial-gradient" cx="235.07" cy="169.26" r="313.01" gradientTransform="translate(0 0.04)" gradientUnits="userSpaceOnUse"><stop offset="0" stop-color="#000129"/><stop offset="0.24" stop-color="#00022e"/><stop offset="0.51" stop-color="#00043b"/><stop offset="0.8" stop-color="#010852"/><stop offset="1" stop-color="#010b66"/></radialGradient></defs><g id="Export_Resolution" data-name="Export Resolution"><rect x="0.07" y="-0.69" width="470" height="340.69" style="fill:url(#radial-gradient)"/><path d="M335.23,15.63l.13-.21a5.49,5.49,0,0,1,7.5-2L373.42,31a5.51,5.51,0,0,1,2,7.52l-.12.22a5.51,5.51,0,0,0,2,7.52l4.11,2.37a5.52,5.52,0,0,1,2,7.52l-.13.22a5.48,5.48,0,0,1-7.5,2l-4.11-2.37a5.5,5.5,0,0,0-7.51,2l-.05.09a5.52,5.52,0,0,0,2,7.52l12,6.94a5.51,5.51,0,0,1,2,7.52l-.1.18a5.52,5.52,0,0,0,2,7.52l5.24,3a5.5,5.5,0,0,0,7.51-2l.1-.18a5.48,5.48,0,0,1,7.5-2L413,92.71a5.48,5.48,0,0,0,7.5-2h0a5.51,5.51,0,0,0-2-7.52L411,78.82a5.52,5.52,0,0,1-2-7.52l.13-.21a5.51,5.51,0,0,0-2-7.52L403,61.22a5.52,5.52,0,0,1-2-7.52l.13-.22a5.48,5.48,0,0,1,7.5-2L439.17,69.1a5.51,5.51,0,0,1,2,7.52l-.12.21a5.5,5.5,0,0,0,2,7.52l4.07,2.35a5.51,5.51,0,0,1,2,7.52h0a5.52,5.52,0,0,0,2,7.52l7.53,4.35a5.51,5.51,0,0,1,2,7.52l-.12.22a5.5,5.5,0,0,1-7.51,2l-10.52-6.07a5.48,5.48,0,0,0-7.5,2L435,112a5.5,5.5,0,0,1-7.51,2l-21.12-12.19a5.49,5.49,0,0,0-7.51,2l-.1.17a5.49,5.49,0,0,1-7.5,2L360.67,88.43a5.51,5.51,0,0,1-2-7.52l.1-.18a5.52,5.52,0,0,0-2-7.52l-14.68-8.47a5.5,5.5,0,0,1-2-7.52l.07-.13a5.52,5.52,0,0,0-2-7.52l-12-6.94a5.51,5.51,0,0,1-2-7.52l.12-.22a5.5,5.5,0,0,1,7.51-2l4.11,2.37a5.48,5.48,0,0,0,7.5-2l.1-.17a5.51,5.51,0,0,0-2-7.52l-4.11-2.38A5.52,5.52,0,0,1,335.23,15.63Z" style="fill:#606060;opacity:0.2"/><path d="M234.23,314.19l0,.24a5.49,5.49,0,0,1-6.42,4.39l-34.65-6.56a5.51,5.51,0,0,1-4.38-6.43l.05-.25a5.5,5.5,0,0,0-4.38-6.43l-4.67-.89a5.5,5.5,0,0,1-4.38-6.43l.05-.24a5.49,5.49,0,0,1,6.42-4.39l4.66.88a5.49,5.49,0,0,0,6.42-4.39l0-.1a5.5,5.5,0,0,0-4.38-6.43l-13.64-2.58a5.5,5.5,0,0,1-4.38-6.44l0-.19a5.5,5.5,0,0,0-4.37-6.44l-5.94-1.12a5.49,5.49,0,0,0-6.42,4.39l0,.19a5.49,5.49,0,0,1-6.42,4.39l-11.93-2.26a5.5,5.5,0,0,0-6.42,4.39h0a5.52,5.52,0,0,0,4.38,6.44l8.54,1.61a5.52,5.52,0,0,1,4.38,6.44l-.05.24a5.5,5.5,0,0,0,4.38,6.43l4.62.88a5.5,5.5,0,0,1,4.38,6.43l0,.25a5.5,5.5,0,0,1-6.42,4.39L118.52,298a5.49,5.49,0,0,1-4.38-6.43l0-.25a5.5,5.5,0,0,0-4.38-6.43l-4.61-.87a5.52,5.52,0,0,1-4.38-6.44h0a5.51,5.51,0,0,0-4.38-6.43l-8.54-1.62a5.5,5.5,0,0,1-4.38-6.43l0-.24A5.49,5.49,0,0,1,90,258.5l11.93,2.26a5.49,5.49,0,0,0,6.41-4.39l.05-.25a5.5,5.5,0,0,1,6.42-4.39l24,4.54a5.5,5.5,0,0,0,6.42-4.39l0-.2a5.5,5.5,0,0,1,6.42-4.38l34.66,6.56a5.5,5.5,0,0,1,4.38,6.43l0,.2a5.5,5.5,0,0,0,4.38,6.43l16.64,3.15a5.52,5.52,0,0,1,4.38,6.44l0,.14a5.52,5.52,0,0,0,4.38,6.44L234,285.67a5.49,5.49,0,0,1,4.37,6.43l0,.25a5.5,5.5,0,0,1-6.42,4.39l-4.66-.89a5.49,5.49,0,0,0-6.42,4.39l0,.2a5.5,5.5,0,0,0,4.38,6.43l4.66.88A5.52,5.52,0,0,1,234.23,314.19Z" style="fill:#606060;opacity:0.2"/><path d="M470.07,216.92V324.28a4.4,4.4,0,0,0-4,1.23,4.39,4.39,0,0,1-6.22.06l-.43-.42a11.14,11.14,0,0,1-.16-15.73,4.42,4.42,0,0,0-.06-6.23l-7.15-7a4.39,4.39,0,0,0-6.22.06,10.18,10.18,0,0,1-14.42.15l-11.72-11.51a28,28,0,0,0-39.59.4,16.27,16.27,0,0,0,.24,23l5.88,5.78A26.24,26.24,0,0,1,393,340H326.61a26.17,26.17,0,0,1,5.32-7.91l3.23-3.31a15.07,15.07,0,0,0-.21-21.29,41.51,41.51,0,0,1-.6-58.63L355,227.73a52.13,52.13,0,0,1,73.82-.76,4.39,4.39,0,0,0,6.22-.06l1.33-1.36a33.48,33.48,0,0,1,33.69-8.63Z" style="fill:#606060;opacity:0.2"/><path d="M240.8,340H103.73a81.36,81.36,0,0,0-12-21.05c-16.87-21.64-44.45-36.64-71.48-36.64H0V196.37a21.67,21.67,0,0,0,5.56-2.81,19.26,19.26,0,0,0,4-3.83c3.83-4.94,5.13-11.75,3-19.28l-.12-.4c0-.13-.07-.25-.11-.37l0-.09c0-.08,0-.15-.07-.22l-.07-.22c-.07-.22-.15-.43-.23-.65,0-.06-.05-.13-.07-.2s-.05-.14-.08-.2c-.16-.43-.33-.85-.5-1.27-.06-.13-.12-.26-.17-.39l-.18-.4-.17-.36,0,0-.18-.37a3.59,3.59,0,0,0-.17-.34l0-.1a3.59,3.59,0,0,0-.17-.34c-.07-.12-.13-.25-.2-.38l-.23-.41-.19-.35L9.31,163l-.22-.38h0c-.07-.13-.14-.25-.22-.37l-.23-.37c-.08-.11-.15-.23-.22-.34l0,0c-.07-.12-.15-.23-.23-.35h0l-.25-.35-.25-.36a2.83,2.83,0,0,0-.2-.28L7.34,160l-.21-.28c-.08-.12-.17-.23-.26-.35L6.59,159l-.26-.33c-.09-.1-.17-.21-.26-.32l-.3-.36-.25-.3-.39-.45c-.16-.18-.31-.36-.47-.53l-.06-.07-.3-.32L4,156l-.28-.29c-.11-.12-.23-.24-.35-.35s-.19-.19-.29-.29c-.32-.32-.66-.64-1-.95l-.3-.29-.05,0-.28-.26c-.3-.27-.61-.53-.92-.79l-.28-.23L0,152.26v-74H46.6a26.8,26.8,0,0,1,15.67,5.5A25.89,25.89,0,0,1,71.9,97.05c2.95,10.38-3.59,18.79-14.61,18.79H24.53a8.1,8.1,0,0,0-6.6,2.9,7.69,7.69,0,0,0-1.09,7c1.23,4.33,5.22,8,9.71,9.35a12.73,12.73,0,0,0,3.61.54h73.21c10.47,0,21.08,4,29.77,10.45l.59.45.43.33.08.06.43.34.61.49.42.35.11.1.42.35.08.07.45.39.41.37.16.14.42.38.44.41.42.4.23.23.37.36.39.4a.93.93,0,0,1,.14.14l.33.34.1.11.29.3.17.18c.13.14.26.27.38.41l.32.36,0,0,.31.35c.25.28.49.57.74.86l.24.29c.1.12.2.23.29.35l0,0,.31.39a3.76,3.76,0,0,1,.25.31l.12.16.25.31c.2.26.4.53.59.8s.2.26.29.4l.27.37.06.08.24.36c.1.13.19.27.28.41l0,0,.24.37v0l.26.4c.09.13.17.26.25.39l0,.06.24.38v0l.24.4c.09.14.17.29.25.43s.33.56.49.85c.08.13.15.27.23.41l.12.23.17.32c.1.18.19.36.28.55.39.76.76,1.53,1.1,2.3l.14.34.13.31.15.36c.12.3.24.6.35.9.23.6.44,1.21.64,1.82l.15.45.27.92c0,.15.09.3.13.45.08.3.15.6.23.9,0,.15.07.29.1.44h0l.09.45c0,.15.07.29.1.44l.06.29c0,.2.07.4.11.59.07.39.13.78.19,1.16a2.54,2.54,0,0,0,0,.29h0c0,.14,0,.28.05.43s0,.29.05.43,0,.24,0,.36,0,.09,0,.14c0,.26.05.52.07.78l.06,1.23v.06c0,.42,0,.84,0,1.25v.34c0,.33,0,.66,0,1a1.21,1.21,0,0,1,0,.19,3,3,0,0,1,0,.31.34.34,0,0,1,0,.1.41.41,0,0,1,0,.11c0,.1,0,.21,0,.31l0,.22c0,.14,0,.29,0,.44a2.54,2.54,0,0,0,0,.29l0,.18a1.1,1.1,0,0,1,0,.18c0,.09,0,.19,0,.28s0,.06,0,.09v0c-.1.58-.21,1.16-.33,1.72L152,187l0,.13,0,.08,0,.06v0a1,1,0,0,1,0,.17s0,0,0,.05,0,0,0,.06l-.12.47a2.58,2.58,0,0,0-.08.26l-.08.26a.88.88,0,0,1,0,.15l0,.08c-.09.29-.18.57-.28.85l-.06.17-.09.23-.12.3h0c0,.11-.09.23-.14.35a1.8,1.8,0,0,1-.08.21l-.12.27-.12.27h0l0,.07,0,.05a2.56,2.56,0,0,0-.11.24l-.12.24-.11.24-.17.33c0,.07-.07.14-.11.2s-.2.39-.31.58a.93.93,0,0,1,0,.1l-.3.52-.11.17-.39.63-.1.15-.09.13-.14.21h0l0,0s0,0,0,0l0,0-.06.08-.1.14,0,0-.15.21c-.05.07-.1.15-.16.22l-.15.19a1.09,1.09,0,0,1-.13.17l-.12.16,0,.05,0,0-.08.1-.16.2-.19.23h0l0,0-.34.4-.19.2-.26.28,0,.05-.07.07-.16.17h0l-.22.22-.22.23-.15.14,0,0a1.59,1.59,0,0,1-.13.13l-.11.1-.06.06-.11.1-.09.08-.13.12,0,0-.06.06-.26.22-.15.13-.14.12-.25.21,0,0-.11.09-.17.13-.22.17-.16.12-.28.22-.43.31-.12.08,0,0-.09.06-.25.17,0,0h0l-.21.14,0,0-.11.07,0,0-.26.16-.07.05-.12.07h0l-.31.19a.05.05,0,0,1,0,0L140,203l-.1.06-.27.14s0,0,0,0l-.13.07h0l-.3.16,0,0-.38.19-.1,0-.29.14L138,204l-.21.1-.35.15-.33.15h0l-.08,0-.19.07-.15.07h0l-.08,0-.11.05-.2.07-.07,0-.13.05-.06,0h-.07l-.26.1h0l-.4.14-.17.07-.2.06-.25.08h0l-.34.1-.69.21h0l-.12,0-.13,0-.08,0-.13,0-.19.05-.16,0h0l-.19.05-.39.09h0l-.23.05-.14,0-.3.07h0l-.29.06-.23.05-.22,0-.27,0h-.09l-.43.07h-.06l-.13,0h-.05l-.27,0-.08,0-.25,0-.3,0-.15,0-.15,0-.46.06-.23,0h0l-.32,0h0l-.24,0-.31,0h-.27l-.3,0h0l-.25,0-.45,0H91.69c-6.47,0-11.94,1.88-16,5.09h0a20.25,20.25,0,0,0-3.39,3.41C68.23,220.73,66.85,228,69.13,236c4.56,16,22.06,29,39.08,29h13.21c12.3,0,24.94,9.39,28.24,21a24.33,24.33,0,0,0,2.2,5.26,32,32,0,0,0,15.92,13.69,28.93,28.93,0,0,0,6.26,1.71,25,25,0,0,0,3.85.3h9.7c12.39,0,25,4.73,35.26,12.38a65.64,65.64,0,0,1,10.5,9.74c.51.6,1,1.2,1.51,1.82a59,59,0,0,1,4,5.75l.6,1c.1.17.19.34.29.5l.57,1C240.51,339.44,240.66,339.72,240.8,340Z" style="fill:#00486a"/><path d="M151.86,291.25C138.28,308.62,116,317.35,91.74,319c-16.87-21.64-44.45-36.64-71.48-36.64H0V222.06q3.73-1.89,8-3.91c34.07-15.92,68.28-31.9,96.57-35h0c15.87-1.74,29.87.58,40.95,9.24.59.46,1.16.93,1.72,1.42s.9.79,1.33,1.2l-.09.13-.14.21h0l0,0s0,0,0,0l0,0-.16.22,0,0-.15.21c-.05.07-.1.15-.16.22l-.15.19a1.09,1.09,0,0,1-.13.17l-.12.16,0,.05,0,0-.08.1-.16.2-.19.23h0l0,0-.34.4-.19.2-.26.28,0,.05-.1.1-.13.14h0l-.22.22-.22.23-.15.14,0,0a1.59,1.59,0,0,1-.13.13l-.11.1-.06.06-.11.1-.09.08-.13.12,0,0-.06.06-.26.22-.15.13-.14.12-.25.21,0,0-.11.09-.17.13-.22.17-.16.12-.28.22-.43.31-.12.08,0,0-.09.06-.25.17,0,0h0l-.21.14,0,0-.11.07,0,0-.26.16-.07.05-.12.07h0l-.31.19a.05.05,0,0,1,0,0,4.36,4.36,0,0,1-.41.24l0,0-.08.05-.27.14s0,0,0,0l-.13.07h0l-.3.16,0,0-.38.19-.1,0-.29.14L138,204l-.21.1-.35.15-.33.15h0l-.08,0-.19.07-.15.07h0l-.08,0-.11.05-.2.07-.07,0-.13.05-.06,0h-.07l-.26.1h0l-.4.14-.17.07-.2.06-.25.08h0l-.34.1-.69.21h0l-.12,0-.13,0-.08,0-.13,0-.19.05-.16,0h0l-.19.05-.39.09h0l-.23.05-.14,0-.3.07h0l-.29.06-.23.05-.22,0-.34.06h0l-.43.07h-.24l-.27,0-.08,0-.25,0-.3,0-.15,0-.15,0-.46.06-.23,0h0l-.32,0h0l-.24,0-.31,0h-.33l-.24,0h0l-.25,0-.45,0H91.69c-6.47,0-11.94,1.88-16,5.09h0a20.25,20.25,0,0,0-3.39,3.41C68.23,220.73,66.85,228,69.13,236c4.56,16,22.06,29,39.08,29h13.21c12.3,0,24.94,9.39,28.24,21A24.33,24.33,0,0,0,151.86,291.25Z" style="fill:#00396e"/><path d="M151.42,171.3c2.84,10,1.06,19-4.12,25.49C142.26,203.1,134,207,123.68,207h-32c-6.47,0-11.94,1.88-16,5.09l0,0c-2.2-2.09,2.55-9.07,3.81-10.92,6.64-9.75,17.34-10.65,26.56-19.24,3.52-3.28,15.22-14.15,9.86-27.06-3.72-8.95-14-14.84-22.94-19.2h10.41c10.47,0,21.08,4,29.77,10.45S148.62,161.45,151.42,171.3Z" style="fill:#005e64"/><path d="M151.42,171.3c2.84,10,1.06,19-4.12,25.49-2.24-1.31,6.26-12.74-1.12-27.94C140,156.06,126.05,148,120.85,144.9a80.48,80.48,0,0,0-23-9.28h5.56c10.47,0,21.08,4,29.77,10.45S148.62,161.45,151.42,171.3Z" style="fill:#089177"/><path d="M22.53,188a90.58,90.58,0,0,1-17,5.57,19.26,19.26,0,0,0,4-3.83c3.83-4.94,5.13-11.75,3-19.28l-.12-.4c0-.13-.07-.25-.11-.37l0-.09c0-.08,0-.15-.07-.22l-.07-.22c-.07-.22-.15-.43-.23-.65,0-.06-.05-.13-.07-.2s-.05-.14-.08-.2c-.16-.43-.33-.85-.5-1.27-.06-.13-.12-.26-.17-.39l-.18-.4-.17-.36,0,0-.18-.37a3.59,3.59,0,0,0-.17-.34l0-.1a3.59,3.59,0,0,0-.17-.34c-.07-.12-.13-.25-.2-.38l-.23-.41-.19-.35L9.31,163l-.22-.38h0c-.07-.13-.14-.25-.22-.37l-.23-.37c-.08-.11-.15-.23-.22-.34l0,0c-.07-.12-.15-.23-.23-.35h0l-.25-.35-.25-.36a2.83,2.83,0,0,0-.2-.28L7.34,160l-.21-.28-.26-.35L6.59,159l-.26-.33c-.09-.1-.17-.21-.26-.32l-.3-.36-.25-.3-.39-.45c-.16-.18-.31-.36-.47-.53l-.06-.07-.3-.32L4,156l-.28-.29c-.11-.12-.23-.24-.35-.35s-.19-.19-.29-.29c-.32-.32-.66-.64-1-.95l-.3-.29-.05,0-.28-.26c-.3-.27-.61-.53-.92-.79l-.28-.23L0,152.26V113.39a45.57,45.57,0,0,1,5.86-1.66c14.53-3.07,30.82.57,37.86,4.11H24.53a8.1,8.1,0,0,0-6.6,2.9,7.69,7.69,0,0,0-1.09,7c1.23,4.33,5.22,8,9.71,9.35,6.43,5.84,21.45,11.43,25,21.55C57.12,172.89,27.79,185.81,22.53,188Z" style="fill:#00396e"/><path d="M240.8,340H184.5a30.53,30.53,0,0,0,5.55-2.4c1.59-.89,15-8.34,12.12-16.14-1-2.64-3.59-4.73-6.92-6.5-6.66-3.51-16.18-5.72-21.21-8.31a25,25,0,0,0,3.85.3h9.7c12.39,0,25,4.73,35.26,12.38a65.64,65.64,0,0,1,10.5,9.74c.51.6,1,1.2,1.51,1.82a59,59,0,0,1,4,5.75l.6,1c.1.17.19.34.29.5l.57,1C240.51,339.44,240.66,339.72,240.8,340Z" style="fill:#005e64"/><path d="M240.8,340h-4.07a39.82,39.82,0,0,0-4.82-6.41,61.11,61.11,0,0,0-20.79-14.33c-5.61-2.39-8.52-2.56-15.87-4.3-2.83-.67-6.32-1.57-10.87-2.92-14.55-4.31-16.26-6.19-16.6-7.1a28.93,28.93,0,0,0,6.26,1.71,25,25,0,0,0,3.85.3h9.7c12.39,0,25,4.73,35.26,12.38a65.64,65.64,0,0,1,10.5,9.74c.51.6,1,1.2,1.51,1.82a59,59,0,0,1,4,5.75l.6,1c.1.17.19.34.29.5l.57,1C240.51,339.44,240.66,339.72,240.8,340Z" style="fill:#089177"/><path d="M411,24h59v35H455.79c-20.52,0-33.52,13.23-31.37,30.54a34.21,34.21,0,0,0,1.23,5.73,43.43,43.43,0,0,0,7,13.45A56.76,56.76,0,0,0,445.51,121a59.75,59.75,0,0,0,24.56,10v39.72a30,30,0,0,1-2.92-1.79,23.9,23.9,0,0,1-9.45-12.21c-2.9-9.54-14-17.27-24.85-17.27h-8.43a35.66,35.66,0,0,1-19.95-6.56c-5.83-4.05-10.38-9.64-12.26-15.83C388.45,104.71,374,94.69,360,94.69H338.52A25.76,25.76,0,0,1,324.12,90a22.33,22.33,0,0,1-8.84-11.42c-2.71-8.92,3.29-16.15,13.42-16.15h52.52c4.92,0,8.83-1.75,11.19-4.59s3.16-6.76,1.84-11.09a21.74,21.74,0,0,0-8.58-11.09,26,26,0,0,0-10.37-4.28,21,21,0,0,0-3.62-.31C359.63,31,347.24,22.42,344,11.8l-1.48-4.88a20.76,20.76,0,0,1-.92-7.61h33.88v0c2.07,6.81,7.09,13,13.52,17.46a43.84,43.84,0,0,0,4.11,2.52A38.34,38.34,0,0,0,411,24Z" style="fill:#00486a"/><path d="M470.07,24v35H455.79c-20.52,0-33.52,13.23-31.37,30.54a63.71,63.71,0,0,1-19.15-6.84c-8.48-4.66-18.19-12-25-20.39h1c4.92,0,8.83-1.75,11.19-4.59s3.16-6.76,1.84-11.09a21.74,21.74,0,0,0-8.58-11.09,26,26,0,0,0-10.37-4.28c3.81-5.11,10.22-9.06,17.83-12A38.34,38.34,0,0,0,411,24Z" style="fill:#00396e"/><path d="M445.51,121a59.75,59.75,0,0,0,24.56,10v7.48c-6-.81-7.39,2-12.83,2.6-12.57,1.47-33.12-10.09-35.34-19.33-1.35-5.67,4.29-10,10.77-13A56.76,56.76,0,0,0,445.51,121Z" style="fill:#005e64"/><path d="M466.68,162a32.19,32.19,0,0,0,3.39,2.61v6.08a30,30,0,0,1-2.92-1.79,23.9,23.9,0,0,1-9.45-12.21c-2.9-9.54-14-17.27-24.85-17.27h-8.43a35.66,35.66,0,0,1-19.95-6.56c-5.83-4.05-10.38-9.64-12.26-15.83C388.45,104.71,374,94.69,360,94.69H338.52A25.76,25.76,0,0,1,324.12,90a22.33,22.33,0,0,1-8.84-11.42c-2.71-8.92,3.29-16.15,13.42-16.15h1.43c-3.23,1.87-6.41,4.58-6.82,8.16-.94,8.32,11.24,16.83,12,17.34,16.06,11.08,28.75,0,44.58,9.32,15.45,9.09,11.47,24.44,28.61,32.76a75.92,75.92,0,0,0,22.26,6.62,49.77,49.77,0,0,1,19.16,5.72c.3.17.56.33.81.49C459.92,148.71,458.08,154.45,466.68,162Z" style="fill:#089177"/><path d="M208.67-5.3h0a16,16,0,0,1-16,16h-77.2a10.61,10.61,0,0,0-10.6,10.62h0A10.6,10.6,0,0,1,94.27,32H80.17a23.92,23.92,0,0,0-23.9,24h0a23.92,23.92,0,0,1-23.9,24H25.62A12.76,12.76,0,0,0,12.87,92.65h0A12.76,12.76,0,0,1,.12,105.42h-17.9A16.57,16.57,0,0,0-34.33,122h0a16.57,16.57,0,0,0,16.55,16.58H44A16.57,16.57,0,0,0,60.57,122h0a16.57,16.57,0,0,1,16.55-16.59h9.3A12.76,12.76,0,0,0,99.17,92.65h0a12.76,12.76,0,0,1,12.75-12.78h13a23.92,23.92,0,0,0,23.9-24h0a23.92,23.92,0,0,1,23.9-24h69.1a10.6,10.6,0,0,0,10.6-10.62h0A10.61,10.61,0,0,1,263,10.73h5.9a16,16,0,0,0,16-16h0a16,16,0,0,0-16-16h-44.2A16,16,0,0,0,208.67-5.3Z" style="fill:#606060;opacity:0.2"/><path d="M216.57,162.43l1-1.89a.2.2,0,0,1,.34,0l1.06,2,1.94,1.08a.19.19,0,0,1,0,.33l-1.9,1a.27.27,0,0,0-.07.08l-1,1.89a.19.19,0,0,1-.33,0l-1-1.9a.16.16,0,0,0-.07-.07l-1.9-1a.19.19,0,0,1,0-.33l1.89-1A.14.14,0,0,0,216.57,162.43Z" style="fill:#1f1079"/><path d="M400.8,312.27l2.13-3.75a.38.38,0,0,1,.66,0l2,3.75,3.74,2a.37.37,0,0,1,0,.65L405.5,317a.54.54,0,0,0-.15.15l-2.14,3.76a.37.37,0,0,1-.65,0l-1.91-3.65a.29.29,0,0,0-.15-.14l-3.64-1.94a.37.37,0,0,1,0-.65l3.77-2.12A.36.36,0,0,0,400.8,312.27Z" style="fill:#274fc0"/><path d="M396.59,181.66l2.09-3.8a.39.39,0,0,1,.67,0l2.12,3.91,3.9,2.14a.38.38,0,0,1,0,.67l-3.8,2.08a.33.33,0,0,0-.16.15l-2.09,3.8a.38.38,0,0,1-.67,0l-2.07-3.8a.33.33,0,0,0-.15-.16l-3.8-2.09a.39.39,0,0,1,0-.67l3.81-2.07A.39.39,0,0,0,396.59,181.66Z" style="fill:#1f1079"/><path d="M283.61,43.38,287,37.15a.63.63,0,0,1,1.1,0l3.51,6.43L298,47.12a.63.63,0,0,1,0,1.1l-6.25,3.38a.67.67,0,0,0-.25.25l-3.41,6.23a.63.63,0,0,1-1.1,0l-3.42-6.26a.67.67,0,0,0-.25-.25l-6.25-3.45a.63.63,0,0,1,0-1.1l6.25-3.39A.64.64,0,0,0,283.61,43.38Z" style="fill:#fffcff"/><path d="M188.79,221.16l2.09-3.8a.39.39,0,0,1,.67,0l2.12,3.91,3.9,2.14a.38.38,0,0,1,0,.67l-3.8,2.08a.33.33,0,0,0-.16.15l-2.09,3.8a.38.38,0,0,1-.67,0l-2.07-3.8a.33.33,0,0,0-.15-.16l-3.8-2.09a.39.39,0,0,1,0-.67l3.81-2.07A.39.39,0,0,0,188.79,221.16Z" style="fill:#1f1079"/><path d="M163.58,69.88l1.71-3.12a.32.32,0,0,1,.56,0L167.61,70l3.22,1.78a.31.31,0,0,1,0,.55L167.69,74a.34.34,0,0,0-.12.12l-1.72,3.13a.32.32,0,0,1-.55,0l-1.72-3.15a.37.37,0,0,0-.12-.13l-3.14-1.73a.31.31,0,0,1,0-.55l3.14-1.7A.3.3,0,0,0,163.58,69.88Z" style="fill:#1f1079"/><path d="M28.89,310.26l2.09-3.8a.39.39,0,0,1,.67,0l2.12,3.91,3.9,2.14a.38.38,0,0,1,0,.67l-3.8,2.08a.33.33,0,0,0-.16.15l-2.09,3.8a.38.38,0,0,1-.67,0l-2.07-3.8a.33.33,0,0,0-.15-.16l-3.8-2.09a.39.39,0,0,1,0-.67l3.81-2.07A.39.39,0,0,0,28.89,310.26Z" style="fill:#274fc0"/><circle cx="268.07" cy="55.46" r="1.9" style="fill:#fffcff"/><circle cx="174.47" cy="83.26" r="3.5" style="fill:#274fc0"/><circle cx="177.97" cy="217.16" r="3.5" style="fill:#274fc0"/><circle cx="197.72" cy="230.21" r="1.75" style="fill:#fffcff"/><circle cx="79.37" cy="126.56" r="3.5" style="fill:#1f1079"/><circle cx="243.07" cy="329.36" r="2.3" style="fill:#fffcff"/><circle cx="90.37" cy="249.86" r="3.5" style="fill:#1f1079"/><circle cx="57.87" cy="334.06" r="3.5" style="fill:#1f1079"/><circle cx="284.07" cy="217.06" r="3.5" style="fill:#1f1079"/><circle cx="435.67" cy="328.16" r="3.5" style="fill:#274fc0"/><circle cx="451.07" cy="170.86" r="3.9" style="fill:#274fc0"/><circle cx="431.12" cy="149.51" r="2.45" style="fill:#fffcff"/><circle cx="407.72" cy="180.71" r="1.75" style="fill:#fffcff"/><circle cx="398.02" cy="321.01" r="1.75" style="fill:#fffcff"/><circle cx="258.07" cy="233.76" r="3.5" style="fill:#274fc0"/><circle cx="258.07" cy="213.56" r="3.5" style="fill:#274fc0"/><circle cx="206.67" cy="160.46" r="3.5" style="fill:#274fc0"/><circle cx="301.87" cy="31.76" r="3.5" style="fill:#1f1079"/><circle cx="261.92" cy="25.51" r="2.75" style="fill:#1f1079"/></g></svg>