<svg id="Main_Artowrk" data-name="Main Artowrk" xmlns="http://www.w3.org/2000/svg" xmlns:xlink="http://www.w3.org/1999/xlink" viewBox="0 0 2280 1368"><defs><clipPath id="clip-path"><path d="M1904.34,231.82A152.85,152.85,0,1,1,1735,79.85q4.76-.51,9.59-.73,3.45-.16,6.93-.16A152.86,152.86,0,0,1,1904.34,231.82Z" style="fill:none"/></clipPath></defs><g id="Main_Booster" data-name="Main Booster"><rect x="1105" y="317" width="109" height="676" style="fill:#fffffd"/><rect x="1171" y="317" width="43" height="676" style="fill:#b2b2ee"/><path d="M1159.51,1000.5c-.81,11.29-2.06,20.5-3,26.5H1105V881.13a20.23,20.23,0,0,1,11.1-4.57c11-.69,19.53,9.67,23.73,14.92C1164.61,922.41,1161.48,973.29,1159.51,1000.5Z" style="fill:#b2b2ee"/><path d="M1215,748.64v70.47a9.9,9.9,0,0,1-10,9.89H1114.9a9.9,9.9,0,0,1-9.9-9.9V748.9a9.9,9.9,0,0,1,9.9-9.9h89.31s9.08,3.4,9.79,8.17h0A5.09,5.09,0,0,0,1215,748.64Z" style="fill:#3b6fb1"/><path d="M1215,748.64v70.47a9.93,9.93,0,0,1-.11,1.46,10,10,0,0,1-10,8.43H1171V739h33.21s9.08,3.4,9.79,8.17h0A5.09,5.09,0,0,0,1215,748.64Z" style="fill:#2a4f96"/><rect x="1105" y="485" width="109" height="126" rx="9.09" style="fill:#3b6fb1"/><path d="M1214,494.09V601.91a9.12,9.12,0,0,1-9.09,9.09h-26a7.93,7.93,0,0,1-7.93-7.93V492.93a7.93,7.93,0,0,1,7.93-7.93h26A9.12,9.12,0,0,1,1214,494.09Z" style="fill:#2a4f96"/><rect x="1105" y="598" width="109" height="20" rx="8.36" style="fill:#b5abff"/><rect x="1084" y="595" width="151" height="16" rx="7.47" style="fill:#c4b7fa"/><rect x="1107" y="596.57" width="72.52" height="13.63" transform="matrix(0.26, -0.97, 0.97, 0.26, 267.12, 1553.9)" style="fill:#fffff9"/><rect x="1139.56" y="596.57" width="72.52" height="13.63" transform="translate(893.82 1894.54) rotate(-104.84)" style="fill:#9580f5"/><path d="M1189.44,632h1.12A12.44,12.44,0,0,1,1203,644.44v21.68a6.88,6.88,0,0,1-6.88,6.88h-12.24a6.88,6.88,0,0,1-6.88-6.88V644.44A12.44,12.44,0,0,1,1189.44,632Z" style="fill:#8372ff"/><path d="M1129.44,632h1.12A12.44,12.44,0,0,1,1143,644.44v21.68a6.88,6.88,0,0,1-6.88,6.88h-12.24a6.88,6.88,0,0,1-6.88-6.88V644.44A12.44,12.44,0,0,1,1129.44,632Z" style="fill:#c8baff"/><path d="M1214,747.2h0a7,7,0,0,1-6.9,5.79h-38.75a7.2,7.2,0,0,1-7.28-6.51,7,7,0,0,1,7-7.49h36.42A9.65,9.65,0,0,1,1214,747.2Z" style="fill:#07164c"/><path d="M1213.28,820.79a9.65,9.65,0,0,1-9.53,8.21h-36.12a7.2,7.2,0,0,1-7.28-6.51,7,7,0,0,1,7-7.49h39.06A7,7,0,0,1,1213.28,820.79Z" style="fill:#07164c"/><circle cx="1123.5" cy="783.5" r="16.5" style="fill:#011a50"/><circle cx="1114.5" cy="780.5" r="16.5" style="fill:#fffff9"/><circle cx="1183.5" cy="527.5" r="13.5" style="fill:#011a50"/><circle cx="1176.5" cy="525.5" r="13.5" style="fill:#fffff9"/><circle cx="1129.5" cy="342.5" r="13.5" style="fill:#b2b2ee"/><circle cx="1129.5" cy="382.5" r="13.5" style="fill:#b2b2ee"/><rect x="1136" y="555" width="47" height="19" rx="8.89" style="fill:#fffff9"/><path d="M1198,135a8,8,0,0,1,8,8V286.69a13.82,13.82,0,0,1-.09,1.58,13.62,13.62,0,0,1-1,3.85,33.38,33.38,0,0,0-2.67,10.57,32.39,32.39,0,0,0,0,5.31h-85.44a32.39,32.39,0,0,0,0-5.31,33.38,33.38,0,0,0-2.67-10.57,13.7,13.7,0,0,1-1.11-5.43V143a8,8,0,0,1,8-8Z" style="fill:#3373b4"/><path d="M1206,288a15.27,15.27,0,0,1-.91,3.9,37.17,37.17,0,0,0-2.41,10.72,38.55,38.55,0,0,0,0,5.38h-38.12l2.72-20Z" style="fill:#24366f"/><path d="M1197.74,135a8.26,8.26,0,0,1,8.26,8.26V286.42c0,.53,0,1.06-.08,1.58H1174V135Z" style="fill:#24366f"/><rect x="1105" y="308" width="109" height="13" rx="6.04" style="fill:#20356b"/><rect x="1150" y="308" width="64" height="13" rx="6.04" style="fill:#011944"/><rect x="1113" y="282" width="93" height="13" rx="6.04" style="fill:#20356b"/><rect x="1163" y="282" width="43" height="13" rx="6.04" style="fill:#011944"/><rect x="1124" y="149" width="26" height="120" rx="12.44" style="fill:#a7ccf8"/><path d="M1196,341h39.67a5.33,5.33,0,0,1,5.33,5.33v.34a5.33,5.33,0,0,1-5.33,5.33H1196a0,0,0,0,1,0,0V341a0,0,0,0,1,0,0Z" transform="translate(2437 693) rotate(180)" style="fill:#07164c"/><path d="M1196,363h36.67a5.33,5.33,0,0,1,5.33,5.33v.34a5.33,5.33,0,0,1-5.33,5.33H1196a0,0,0,0,1,0,0V363A0,0,0,0,1,1196,363Z" transform="translate(2434 737) rotate(-180)" style="fill:#07164c"/><path d="M1197.66,192.73l-.13.13a5.51,5.51,0,0,0,0,7.65l33.75,34.84a2.56,2.56,0,0,1,.72,1.78V371.26a2.55,2.55,0,0,0,2.55,2.55h0a8.45,8.45,0,0,0,8.45-8.45V234.73a8.19,8.19,0,0,0-2.32-5.72l-35.13-36.28A5.49,5.49,0,0,0,1197.66,192.73Z" style="fill:#07164c"/><path d="M1187.47,135H1131c-12.62,0-21.45-13.23-17.26-25.86l1.71-5.18,15.29-46.19L1142,23.82c5.74-17.32,28.8-17.32,34.53,0l11.24,34L1203,104l1.71,5.18C1208.92,121.77,1200.09,135,1187.47,135Z" style="fill:#3373b4"/><rect x="1165.87" y="45.12" width="22.99" height="64.35" transform="translate(28.66 346.83) rotate(-16.96)" style="fill:#24366f"/><path d="M1197.76,131.63a17.41,17.41,0,0,1-10.32,3.37H1131c-12.6,0-21.43-13.21-17.24-25.83l1.7-5.17H1203l1.7,5.17A20.06,20.06,0,0,1,1197.76,131.63Z" style="fill:#24366f"/><path d="M1178.26,58h-38.07a6.84,6.84,0,0,1-6.49-9L1142,24c5.74-17.31,28.8-17.31,34.53,0l8.27,25A6.84,6.84,0,0,1,1178.26,58Z" style="fill:#cf2e99"/><path d="M1200,120.49a46.77,46.77,0,0,1-1.88,11.14,17.37,17.37,0,0,1-10.32,3.37h-50.32a2.46,2.46,0,0,1-2.46-2.46v-2.3a6.44,6.44,0,0,1,6.62-6.24h25.16a7.07,7.07,0,0,0,1.92-.27,7.84,7.84,0,0,0,2.66-1.52c1.67-1.47,3.48-5.65,3.39-11.64a29,29,0,0,0-.84-6.57h23.85A46.87,46.87,0,0,1,1200,120.49Z" style="fill:#021b49"/><rect x="1129.16" y="61.55" width="16.58" height="38.76" rx="7.79" transform="translate(92.14 -374.77) rotate(19.48)" style="fill:#a7ccf8"/><rect x="1154.15" y="22.11" width="22.99" height="32.85" rx="10.79" transform="translate(39.46 341.72) rotate(-16.96)" style="fill:#b000a6"/></g><g id="Mid_Booster" data-name="Mid Booster"><path d="M1220,997v308H1100V997h.38l40.14-113.1c3.15-8.87,11.36-13.29,19.56-13.26a22.35,22.35,0,0,1,6.09.87,20,20,0,0,1,9.44,5.82h0a19.4,19.4,0,0,1,3.86,6.56L1219.62,997Z" style="fill:#938ae7"/><path d="M1219,996.85V1305h-23V995c-3.07-21-7.36-43.84-13.35-68.14-4.93-20-10.41-38.5-16.1-55.51a19.47,19.47,0,0,1,9.2,5.81v0a44.36,44.36,0,0,1,3.76,6.55Z" style="fill:#6078d6"/><path d="M1209.49,997h-99.31a6.52,6.52,0,0,1-6.44-8.52l21.61-61.09a6.78,6.78,0,0,1,6.44-4.39h56.09a6.79,6.79,0,0,1,6.44,4.39l21.61,61.09A6.52,6.52,0,0,1,1209.49,997Z" style="fill:#3771b0"/><path d="M1209.6,997h-17.12a309.67,309.67,0,0,0-14.58-74H1188a6.79,6.79,0,0,1,6.44,4.39L1216,988.48A6.51,6.51,0,0,1,1209.6,997Z" style="fill:#275197"/><rect x="1119.7" y="933.3" width="22.3" height="52.08" rx="10.47" transform="translate(383.56 -321.57) rotate(19.43)" style="fill:#a7cdf3"/><path d="M1100.5,1075H1106a9,9,0,0,1,9,9V1294.5a10.5,10.5,0,0,1-10.5,10.5h-4a.5.5,0,0,1-.5-.5v-229a.5.5,0,0,1,.5-.5Z" style="fill:#fcfff7"/><rect x="1154.5" y="1033.5" width="11" height="60" rx="5.33" transform="translate(96.5 2223.5) rotate(-90)" style="fill:#213763"/><rect x="1171" y="1040" width="11" height="230" rx="5.33" style="fill:#213763"/><rect x="1138" y="1040" width="11" height="230" rx="5.33" style="fill:#3a6fac"/><path d="M1209,1328h-98.1a7.45,7.45,0,0,1-6.35-3.24L1094,1307.88c-2.51-4,1-8.88,6.36-8.88h119.17c5.4,0,8.87,4.85,6.35,8.88l-10.53,16.88A7.46,7.46,0,0,1,1209,1328Z" style="fill:#213763"/><path d="M1203.05,1354h-85.49a42.61,42.61,0,0,1,7.81-26h69.87a42.62,42.62,0,0,1,7.82,26Z" style="fill:#213763"/></g><g id="Right_Booster" data-name="Right Booster"><path d="M1335,997v308h-86V901.51l6.27-17.61a19.59,19.59,0,0,1,3.87-6.56h0a20,20,0,0,1,9.47-5.82,22.49,22.49,0,0,1,6.11-.87c8.22,0,16.46,4.39,19.61,13.26l14.92,41.9L1332,989.54l2.66,7.46Z" style="fill:#938ae7"/><path d="M1326.76,1328h-70.07a5.08,5.08,0,0,1-4.54-3.24l-7.53-16.88c-1.8-4,.68-8.88,4.54-8.88h85.12c3.86,0,6.34,4.85,4.54,8.88l-7.52,16.88A5.11,5.11,0,0,1,1326.76,1328Z" style="fill:#213763"/><path d="M1321.14,1354h-58.09a57.86,57.86,0,0,1,5.31-26h47.48a57.86,57.86,0,0,1,5.31,26Z" style="fill:#213763"/><rect x="1250" y="897" width="9" height="401" rx="4.27" style="fill:#fcfff7"/><path d="M1325.54,996H1250V922h53.85a6.85,6.85,0,0,1,6,3.33,5.71,5.71,0,0,1,.5,1.06l21.7,61.09a6.53,6.53,0,0,1,.32,1.45A6.6,6.6,0,0,1,1325.54,996Z" style="fill:#3771b0"/><path d="M1250,922h4a7,7,0,0,1,7,7v60a7,7,0,0,1-7,7h-4a0,0,0,0,1,0,0V922A0,0,0,0,1,1250,922Z" style="fill:#9ecdfe"/><rect x="1328" y="1040" width="11" height="230" rx="5.33" style="fill:#213763"/><rect x="1294" y="1040" width="11" height="230" rx="5.33" style="fill:#213763"/><rect x="1287" y="1019" width="11" height="91" rx="5.33" transform="translate(228 2357) rotate(-90)" style="fill:#213763"/><path d="M1204,907h39.67a5.33,5.33,0,0,1,5.33,5.33v.34a5.33,5.33,0,0,1-5.33,5.33H1204a0,0,0,0,1,0,0V907A0,0,0,0,1,1204,907Z" transform="translate(2453 1825) rotate(180)" style="fill:#07164c"/><path d="M1204,926h39.67a5.33,5.33,0,0,1,5.33,5.33v.34a5.33,5.33,0,0,1-5.33,5.33H1204a0,0,0,0,1,0,0V926a0,0,0,0,1,0,0Z" transform="translate(2453 1863) rotate(-180)" style="fill:#07164c"/></g><g id="Left_Booster" data-name="Left Booster"><path d="M1070,901.51V1305H984V997h.38l2.33-6.54L1010,924.93l14.61-41c3.15-8.87,11.39-13.29,19.61-13.26a22.49,22.49,0,0,1,6.11.87,20,20,0,0,1,9.47,5.82h0a19.59,19.59,0,0,1,3.87,6.56Z" style="fill:#fcfff7"/><path d="M992.45,1328h70.07a5.09,5.09,0,0,0,4.54-3.24l7.53-16.88c1.8-4-.68-8.88-4.54-8.88H984.93c-3.86,0-6.34,4.85-4.54,8.88l7.52,16.88A5.11,5.11,0,0,0,992.45,1328Z" style="fill:#213763"/><path d="M998.07,1354h58.08a57.59,57.59,0,0,0-5.31-26h-47.47a57.86,57.86,0,0,0-5.31,26Z" style="fill:#213763"/><rect x="1060" y="897" width="9" height="401" rx="4.27" style="fill:#b2afff"/><path d="M1070,922v74H994.44a6.65,6.65,0,0,1-6.78-6.15,6.18,6.18,0,0,1,.35-2.37l21.61-61.09a6.53,6.53,0,0,1,1.1-1.92,6.91,6.91,0,0,1,5.34-2.47Z" style="fill:#3771b0"/><rect x="1000.61" y="929.54" width="12.87" height="55.27" rx="6.04" transform="translate(375.79 -280.5) rotate(19.43)" style="fill:#a7cdf3"/><rect x="980" y="1040" width="11" height="230" rx="5.33" transform="translate(1971 2310) rotate(180)" style="fill:#213763"/><rect x="1014" y="1040" width="11" height="230" rx="5.33" transform="translate(2039 2310) rotate(180)" style="fill:#213763"/><rect x="1021" y="1019" width="11" height="91" rx="5.33" transform="translate(-38 2091) rotate(-90)" style="fill:#213763"/><path d="M1070,909h39.67a5.33,5.33,0,0,1,5.33,5.33v.34a5.33,5.33,0,0,1-5.33,5.33H1070a0,0,0,0,1,0,0V909A0,0,0,0,1,1070,909Z" style="fill:#07164c"/><path d="M1070,927h39.67a5.33,5.33,0,0,1,5.33,5.33v.34a5.33,5.33,0,0,1-5.33,5.33H1070a0,0,0,0,1,0,0V927A0,0,0,0,1,1070,927Z" style="fill:#07164c"/></g><g id="Scenery"><g id="Tower_3" data-name="Tower 3"><path d="M1526,1132.71v4.06l-.38,3.14L1499,1359.16c-.38,3.2-2.55,5.37-4.84,4.82l-.71-.17c-2.29-.54-3.83-3.59-3.44-6.79l26.54-218.93.57-4.71c.39-3.21,2.56-5.36,4.84-4.82l.72.18C1524.31,1129.11,1525.54,1130.7,1526,1132.71Z" style="fill:#7f26b0"/><path d="M1526,910.87v225.55l-.36,3.14c-.63,2-2,3.44-3.64,3.44h-1c-2.06,0-3.77-2.3-4-5.26,0-.19,0-.4,0-.61V910.87c0-3.24,1.79-5.87,4-5.87h1C1524.21,905,1526,907.63,1526,910.87Z" style="fill:#7f26b0"/><path d="M1572,916.33v435l-.36,6.06c-.63,3.91-2,6.63-3.64,6.63h-1c-2.06,0-3.77-4.44-4-10.14,0-.38,0-.78,0-1.19V916.33c0-6.25,1.79-11.33,4-11.33h1C1570.21,905,1572,910.08,1572,916.33Z" style="fill:#7f26b0"/><path d="M1589.7,1130.64l-.12,4,.28,3.17,19.94,220.63c.29,3.22,2.39,5.51,4.69,5.09l.72-.12c2.31-.4,3.93-3.36,3.64-6.58L1599,1136.57l-.43-4.74c-.29-3.22-2.39-5.5-4.69-5.1l-.72.14C1591.5,1127.15,1590.22,1128.66,1589.7,1130.64Z" style="fill:#13478d"/><path d="M1590,912.8v222.7l.36,3.11c.63,2,2,3.39,3.64,3.39h1c2.06,0,3.77-2.27,4-5.19,0-.2,0-.4,0-.61V912.8c0-3.2-1.79-5.8-4-5.8h-1C1591.79,907,1590,909.6,1590,912.8Z" style="fill:#13478d"/><rect x="1517" y="905" width="55" height="11" style="fill:#7f26b0"/><polygon points="1559.86 999.61 1523.79 917.74 1530.49 911.94 1566.55 993.8 1559.86 999.61" style="fill:#7f26b0"/><polygon points="1593.6 994.81 1586.16 998.44 1572 941.43 1572 914.91 1573.56 914.15 1593.6 994.81" style="fill:#13478d"/><polygon points="1530.49 999.61 1566.55 917.74 1559.86 911.94 1523.79 993.8 1530.49 999.61" style="fill:#7f26b0"/><polygon points="1593.31 909.91 1573.7 1002.12 1572.27 1001.52 1572 1001.41 1572 972 1571.9 972 1585.77 906.75 1593.31 909.91" style="fill:#13478d"/><polygon points="1559.76 1101.52 1521.46 1008.5 1528.28 1002.98 1566.58 1096 1559.76 1101.52" style="fill:#7f26b0"/><polygon points="1560.65 1206.79 1520.86 1110.15 1527.68 1104.63 1567.46 1201.27 1560.65 1206.79" style="fill:#7f26b0"/><polygon points="1522.2 1205.76 1565.74 1109.7 1559.1 1103.77 1515.56 1199.84 1522.2 1205.76" style="fill:#7f26b0"/><polygon points="1507.8 1312.7 1565.49 1213.98 1559.4 1206.98 1501.71 1305.7 1507.8 1312.7" style="fill:#7f26b0"/><polygon points="1561.18 1312.01 1512.28 1214.87 1518.71 1208.5 1567.61 1305.64 1561.18 1312.01" style="fill:#7f26b0"/><polygon points="1529.07 1100.42 1567.36 1007.4 1560.55 1001.88 1522.25 1094.9 1529.07 1100.42" style="fill:#7f26b0"/><polygon points="1571.84 1104.53 1571.91 1104.75 1571.81 1105.17 1571.21 1104.9 1571.84 1104.53" style="fill:#13478d"/><polygon points="1594.52 1002.61 1583.49 1052.25 1579.37 1070.81 1572 1103.96 1572 1066.87 1575.24 1052.25 1579.37 1033.69 1587 999.34 1594.52 1002.61" style="fill:#13478d"/><polygon points="1594.52 1101.89 1589.3 1104.16 1587 1105.17 1586.54 1103.13 1579.37 1070.81 1575.24 1052.25 1572 1037.63 1572 1000.54 1572.27 1001.75 1579.37 1033.69 1583.49 1052.25 1594.52 1101.89" style="fill:#13478d"/><polygon points="1571.84 1104.53 1571.91 1104.75 1571.81 1105.17 1571.21 1104.9 1571.84 1104.53" style="fill:#13478d"/><polygon points="1602.08 1203.16 1595.53 1207.13 1594.85 1207.53 1594.67 1206.95 1581.75 1164.91 1576.72 1148.56 1572 1133.21 1572 1105.32 1580.01 1131.36 1585.03 1147.71 1602.08 1203.16" style="fill:#13478d"/><polygon points="1609.81 1304.9 1602.86 1310.1 1586.16 1266.32 1581.31 1253.63 1572 1229.22 1572 1205.81 1573.28 1209.17 1585.14 1240.25 1589.99 1252.95 1609.81 1304.9" style="fill:#13478d"/><polygon points="1602.05 1210.8 1589.99 1252.95 1586.16 1266.32 1572.09 1315.47 1572 1315.42 1572 1286.16 1581.31 1253.63 1585.14 1240.25 1594.67 1206.95 1594.74 1206.68 1595.53 1207.13 1602.05 1210.8" style="fill:#13478d"/><polygon points="1593.08 1105.59 1585.03 1147.71 1581.75 1164.91 1573.28 1209.17 1573.25 1209.33 1572 1208.86 1572 1173.24 1576.72 1148.56 1580.01 1131.36 1585.48 1102.73 1586.54 1103.13 1589.3 1104.16 1593.08 1105.59" style="fill:#13478d"/><rect x="1517" y="995" width="50" height="11" style="fill:#7f26b0"/><rect x="1517" y="1099" width="50" height="11" style="fill:#7f26b0"/><rect x="1572" y="1099" width="27" height="11" style="fill:#13478d"/><rect x="1514" y="1202" width="50" height="11" style="fill:#7f26b0"/><rect x="1572" y="1202" width="28" height="11" style="fill:#13478d"/><rect x="1501" y="1306" width="67" height="11" style="fill:#7f26b0"/><rect x="1572" y="1306" width="39" height="11" style="fill:#13478d"/><rect x="1572" y="905" width="27" height="11" style="fill:#13478d"/><rect x="1572" y="995" width="27" height="11" style="fill:#13478d"/><polygon points="1571.84 1104.53 1571.91 1104.75 1571.81 1105.17 1571.21 1104.9 1571.84 1104.53" style="fill:#13478d"/><polygon points="1572 1103.96 1572 1105.32 1571.83 1104.75 1572 1103.96" style="fill:#13478d"/><path d="M1568.1,892H1560V795.23a12.36,12.36,0,0,1,11,12.33v35.91l0,.65,3.87,40.34A6.86,6.86,0,0,1,1568.1,892Z" style="fill:#13478d"/><rect x="1556" y="746" width="4" height="62" style="fill:#13478d"/><path d="M1568,892h-20.48a6.92,6.92,0,0,1-6.93-7.63l4.33-40.29a6.12,6.12,0,0,0,0-.74V807.4a12.4,12.4,0,0,1,12.4-12.4h1a11.85,11.85,0,0,1,1.33.07A12.47,12.47,0,0,1,1571,807.42v36l0,.66,4,40.4A6.92,6.92,0,0,1,1568,892Z" style="fill:#7f26b0"/><path d="M1568,892h-10V795h.27a12.21,12.21,0,0,1,1.35.07A12.53,12.53,0,0,1,1571,807.42v36l0,.67,4,40.4A7,7,0,0,1,1568,892Z" style="fill:#13478d"/><rect x="1512" y="897" width="90" height="8" style="fill:#13478d"/><rect x="1510" y="884" width="94" height="13" style="fill:#7f26b0"/><circle cx="1557.5" cy="737.5" r="14.5" style="fill:#f91443"/><ellipse cx="1550" cy="732" rx="6.53" ry="4.28" transform="translate(114.29 1668.51) rotate(-58.4)" style="fill:#f3969f"/></g><g id="Tower_2" data-name="Tower 2"><path d="M721,1141.56v4l-.38,3.15L694,1368c-.38,3.2-2.55,5.36-4.84,4.81l-.71-.16c-2.29-.55-3.83-3.59-3.44-6.79l26.54-218.93.57-4.72c.39-3.2,2.56-5.35,4.84-4.81l.72.18C719.31,1138,720.54,1139.55,721,1141.56Z" style="fill:#7f26b0"/><path d="M721,919.87v225.55l-.36,3.14c-.63,2-2,3.44-3.64,3.44h-1c-2.06,0-3.77-2.3-4-5.26,0-.19,0-.4,0-.61V919.87c0-3.24,1.79-5.87,4-5.87h1C719.21,914,721,916.63,721,919.87Z" style="fill:#7f26b0"/><path d="M767,925.33v435l-.36,6.06c-.63,3.91-2,6.63-3.64,6.63h-1c-2.06,0-3.77-4.44-4-10.14,0-.38,0-.78,0-1.19V925.33c0-6.25,1.79-11.33,4-11.33h1C765.21,914,767,919.08,767,925.33Z" style="fill:#7f26b0"/><path d="M784.77,1139.49l-.12,4,.28,3.16,19.94,220.63c.29,3.23,2.4,5.52,4.69,5.1l.73-.12c2.3-.41,3.93-3.36,3.64-6.58L794,1145.42l-.44-4.74c-.29-3.23-2.39-5.51-4.69-5.1l-.72.13C786.57,1136,785.3,1137.51,784.77,1139.49Z" style="fill:#13478d"/><path d="M785,921.8v222.7l.36,3.11c.63,2,2,3.39,3.64,3.39h1c2.06,0,3.77-2.27,4-5.19,0-.2,0-.4,0-.61V921.8c0-3.2-1.79-5.8-4-5.8h-1C786.79,916,785,918.6,785,921.8Z" style="fill:#13478d"/><rect x="712" y="914" width="55" height="11" style="fill:#7f26b0"/><polygon points="754.93 1008.45 718.87 926.59 725.56 920.79 761.63 1002.65 754.93 1008.45" style="fill:#7f26b0"/><polygon points="788.6 1003.65 781.16 1007.29 767 950.27 767 923.76 768.56 922.99 788.6 1003.65" style="fill:#13478d"/><polygon points="725.56 1008.45 761.63 926.59 754.93 920.79 718.87 1002.65 725.56 1008.45" style="fill:#7f26b0"/><polygon points="788.31 918.91 768.7 1011.12 767.27 1010.52 767 1010.41 767 981 766.9 981 780.77 915.75 788.31 918.91" style="fill:#13478d"/><polygon points="754.83 1110.37 716.53 1017.35 723.35 1011.83 761.65 1104.85 754.83 1110.37" style="fill:#7f26b0"/><polygon points="755.72 1215.64 715.93 1118.99 722.75 1113.47 762.54 1210.12 755.72 1215.64" style="fill:#7f26b0"/><polygon points="717.28 1214.61 760.82 1118.54 754.17 1112.62 710.63 1208.68 717.28 1214.61" style="fill:#7f26b0"/><polygon points="702.87 1321.54 760.56 1222.83 754.47 1215.83 696.78 1314.55 702.87 1321.54" style="fill:#7f26b0"/><polygon points="756.25 1320.85 707.36 1223.72 713.79 1217.35 762.68 1314.48 756.25 1320.85" style="fill:#7f26b0"/><polygon points="724.14 1109.27 762.44 1016.25 755.62 1010.72 717.32 1103.74 724.14 1109.27" style="fill:#7f26b0"/><polygon points="766.91 1113.37 766.98 1113.59 766.89 1114.01 766.29 1113.75 766.91 1113.37" style="fill:#13478d"/><polygon points="789.52 1011.46 778.49 1061.1 774.37 1079.66 767 1112.81 767 1075.71 770.24 1061.1 774.37 1042.54 782 1008.18 789.52 1011.46" style="fill:#13478d"/><polygon points="789.52 1110.73 784.3 1113.01 782 1114.01 781.54 1111.97 774.37 1079.66 770.24 1061.1 767 1046.48 767 1009.38 767.27 1010.6 774.37 1042.54 778.49 1061.1 789.52 1110.73" style="fill:#13478d"/><polygon points="766.91 1113.37 766.98 1113.59 766.89 1114.01 766.29 1113.75 766.91 1113.37" style="fill:#13478d"/><polygon points="797.08 1212.01 790.52 1215.97 789.85 1216.38 789.67 1215.8 776.75 1173.75 771.72 1157.4 767 1142.06 767 1114.17 775.01 1140.2 780.03 1156.55 797.08 1212.01" style="fill:#13478d"/><polygon points="804.81 1313.74 797.86 1318.94 781.16 1275.17 776.31 1262.47 767 1238.06 767 1214.66 768.28 1218.01 780.14 1249.09 784.99 1261.8 804.81 1313.74" style="fill:#13478d"/><polygon points="797.05 1219.65 784.99 1261.8 781.16 1275.17 767.09 1324.32 767 1324.27 767 1295.01 776.31 1262.47 780.14 1249.09 789.67 1215.8 789.75 1215.53 790.52 1215.97 797.05 1219.65" style="fill:#13478d"/><polygon points="788.08 1114.43 780.03 1156.55 776.75 1173.75 768.28 1218.01 768.25 1218.18 767 1217.7 767 1182.09 771.72 1157.4 775.01 1140.2 780.48 1111.57 781.54 1111.97 784.3 1113.01 788.08 1114.43" style="fill:#13478d"/><rect x="712" y="1004" width="50" height="11" style="fill:#7f26b0"/><rect x="712" y="1108" width="50" height="11" style="fill:#7f26b0"/><rect x="767" y="1108" width="27" height="11" style="fill:#13478d"/><rect x="709" y="1211" width="50" height="11" style="fill:#7f26b0"/><rect x="767" y="1211" width="28" height="11" style="fill:#13478d"/><rect x="696" y="1315" width="67" height="11" style="fill:#7f26b0"/><rect x="767" y="1315" width="39" height="11" style="fill:#13478d"/><rect x="767" y="914" width="27" height="11" style="fill:#13478d"/><rect x="767" y="1004" width="27" height="11" style="fill:#13478d"/><polygon points="766.91 1113.37 766.98 1113.59 766.89 1114.01 766.29 1113.75 766.91 1113.37" style="fill:#13478d"/><polygon points="767 1112.81 767 1114.17 766.83 1113.59 767 1112.81" style="fill:#13478d"/><path d="M763.1,901H755V804.23a12.36,12.36,0,0,1,11,12.33v35.91l0,.65,3.87,40.34A6.86,6.86,0,0,1,763.1,901Z" style="fill:#13478d"/><rect x="751" y="755" width="4" height="62" style="fill:#13478d"/><path d="M763,901H742.56a6.92,6.92,0,0,1-6.93-7.63L740,853.08a6.12,6.12,0,0,0,0-.74V816.4A12.4,12.4,0,0,1,752.4,804h1a11.85,11.85,0,0,1,1.33.07A12.47,12.47,0,0,1,766,816.42v36l0,.66,4,40.4A6.92,6.92,0,0,1,763,901Z" style="fill:#7f26b0"/><path d="M763,901H753V804h.27a12.21,12.21,0,0,1,1.35.07A12.53,12.53,0,0,1,766,816.42v36l0,.67,4,40.4A7,7,0,0,1,763,901Z" style="fill:#13478d"/><rect x="707" y="906" width="90" height="8" style="fill:#13478d"/><rect x="705" y="893" width="94" height="13" style="fill:#7f26b0"/><circle cx="752.5" cy="746.5" r="14.5" style="fill:#f91443"/><ellipse cx="746" cy="741" rx="6.53" ry="4.28" transform="translate(-276.04 988.04) rotate(-58.4)" style="fill:#f3969f"/></g><g id="Fireball"><g id="Center" style="opacity:0.6"><circle cx="1007.5" cy="1215.5" r="48.5" style="fill:#e80715"/><circle cx="931.5" cy="1344.5" r="48.5" style="fill:#e80715"/><circle cx="1017.5" cy="1278.5" r="35.5" style="fill:#e80715"/><circle cx="1318" cy="1293" r="38" style="fill:#e80715"/><circle cx="1354.5" cy="1266.5" r="34.5" style="fill:#e80715"/><circle cx="1287" cy="1371" r="30" style="fill:#e80715"/><circle cx="1130" cy="1356" r="41" style="fill:#e80715"/><circle cx="1206" cy="1344" r="57" style="fill:#e80715"/><circle cx="1050.5" cy="1327.5" r="59.5" style="fill:#e80715"/></g><g id="Center-2" data-name="Center" style="opacity:0.6"><circle cx="989" cy="1324" r="53" style="fill:#e68509"/><circle cx="927" cy="1256" r="80" style="fill:#e68509"/><circle cx="906.5" cy="1134.5" r="91.5" style="fill:#e68509"/><circle cx="1335" cy="1306" r="35" style="fill:#e68509"/><circle cx="1329.5" cy="1354.5" r="52.5" style="fill:#e68509"/><circle cx="1441" cy="1320" r="73" style="fill:#e68509"/><circle cx="1370" cy="1243" r="56" style="fill:#e68509"/><circle cx="1380.5" cy="1178.5" r="52.5" style="fill:#e68509"/><circle cx="1468" cy="1219" r="90" style="fill:#e68509"/><circle cx="1263" cy="1335" r="32" style="fill:#e68509"/><circle cx="1215.5" cy="1370.5" r="56.5" style="fill:#e68509"/><circle cx="1129.5" cy="1343.5" r="56.5" style="fill:#e68509"/><circle cx="1056" cy="1335" r="32" style="fill:#e68509"/></g><g id="Mid" style="opacity:0.8"><circle cx="1469.5" cy="1133.5" r="46.5" style="fill:#e80715"/><circle cx="1538" cy="1079" r="58" style="fill:#e80715"/><circle cx="1609.5" cy="1135.5" r="60.5" style="fill:#e80715"/><circle cx="787" cy="1101" r="57" style="fill:#e80715"/><circle cx="719" cy="1167" r="81" style="fill:#e80715"/><circle cx="632" cy="1182" r="81" style="fill:#e80715"/><circle cx="723" cy="1309" r="81" style="fill:#e80715"/></g><g id="Mid-2" data-name="Mid" style="opacity:0.8"><circle cx="799.5" cy="1275.5" r="99.5" style="fill:#e68509"/><circle cx="861.5" cy="1323.5" r="59.5" style="fill:#e68509"/><circle cx="763" cy="1188" r="58" style="fill:#e68509"/><circle cx="824" cy="1126" r="61" style="fill:#e68509"/><circle cx="1566.5" cy="1299.5" r="100.5" style="fill:#e68509"/><circle cx="1521" cy="1129" r="41" style="fill:#e68509"/><circle cx="1561" cy="1168" r="70" style="fill:#e68509"/><circle cx="1579" cy="1093" r="52" style="fill:#e68509"/><circle cx="1673.5" cy="1215.5" r="77.5" style="fill:#e68509"/></g><g id="Outer"><circle cx="1766.5" cy="1183.5" r="63.5" style="fill:#e80715"/><circle cx="1847.5" cy="1196.5" r="81.5" style="fill:#e80715"/><circle cx="504" cy="1237" r="65" style="fill:#e80715"/><circle cx="411" cy="1252" r="41" style="fill:#e80715"/><circle cx="474" cy="1327" r="30" style="fill:#e80715"/><circle cx="357" cy="1324" r="65" style="fill:#e80715"/><circle cx="580" cy="1321" r="65" style="fill:#e80715"/><circle cx="518" cy="1319" r="65" style="fill:#e80715"/><circle cx="662.5" cy="1236.5" r="50.5" style="fill:#e80715"/><ellipse cx="579.5" cy="1210.5" rx="88.5" ry="98.5" style="fill:#e80715"/><circle cx="1906" cy="1272" r="85" style="fill:#e80715"/><circle cx="1983.5" cy="1271.5" r="69.5" style="fill:#e80715"/><circle cx="1997.5" cy="1347.5" r="69.5" style="fill:#e80715"/></g><g id="Outer-2" data-name="Outer"><circle cx="656.5" cy="1308.5" r="71.5" style="fill:#e68509"/><circle cx="608.5" cy="1231.5" r="43.5" style="fill:#e68509"/><circle cx="526" cy="1284" r="76" style="fill:#e68509"/><circle cx="539" cy="1334" r="76" style="fill:#e68509"/><circle cx="444.5" cy="1299.5" r="50.5" style="fill:#e68509"/><circle cx="411" cy="1356" r="65" style="fill:#e68509"/><circle cx="329" cy="1393" r="65" style="fill:#e68509"/><circle cx="1714.5" cy="1328.5" r="83.5" style="fill:#e68509"/><circle cx="1772" cy="1248" r="49" style="fill:#e68509"/><circle cx="1837" cy="1329" r="65" style="fill:#e68509"/><circle cx="1909" cy="1323" r="74" style="fill:#e68509"/><circle cx="1991" cy="1341" r="49" style="fill:#e68509"/><circle cx="2026.5" cy="1370.5" r="37.5" style="fill:#e68509"/><circle cx="2064.5" cy="1383.5" r="37.5" style="fill:#e68509"/></g></g><g id="Tower_4" data-name="Tower 4"><path d="M2127.48,1024.76v6l-.57,4.69-39.67,327.12c-.57,4.78-3.81,8-7.22,7.18l-1.07-.25c-3.42-.8-5.71-5.35-5.13-10.13l39.59-326.64.86-7c.58-4.78,3.82-8,7.23-7.18l1.07.26C2125,1019.39,2126.78,1021.76,2127.48,1024.76Z" style="fill:#7f26b0"/><path d="M2127.48,693.8v337.64l-.58,4.7c-1,3-3.22,5.15-5.79,5.15h-1.61c-3.28,0-6-3.45-6.33-7.87,0-.29,0-.61,0-.92V693.8c0-4.85,2.85-8.79,6.36-8.79h1.61C2124.62,685,2127.48,689,2127.48,693.8Z" style="fill:#7f26b0"/><path d="M2194.76,701.91v649.16l-.57,9c-1,5.83-3.23,9.89-5.8,9.89h-1.6c-3.29,0-6-6.63-6.33-15.13,0-.57,0-1.17,0-1.77V701.91c0-9.33,2.86-16.9,6.37-16.9h1.6C2191.91,685,2194.76,692.58,2194.76,701.91Z" style="fill:#7f26b0"/><path d="M2221.45,1021.67l-.18,6,.42,4.72,29.75,329.18c.43,4.81,3.57,8.23,7,7.61l1.08-.18c3.44-.61,5.86-5,5.43-9.82l-29.69-328.7-.65-7.08c-.43-4.81-3.57-8.21-7-7.6l-1.07.2C2224.14,1016.45,2222.23,1018.72,2221.45,1021.67Z" style="fill:#13478d"/><path d="M2221.23,697v332.42l.58,4.63c1,3,3.22,5.06,5.79,5.06h1.6c3.29,0,6-3.39,6.34-7.74,0-.29,0-.6,0-.91V697c0-4.77-2.85-8.66-6.37-8.66h-1.6C2224.09,688.31,2221.23,692.2,2221.23,697Z" style="fill:#13478d"/><rect x="2113.14" y="685.01" width="82.73" height="16.55" style="fill:#7f26b0"/><polygon points="2176.93 826.17 2123.12 704.03 2133.11 695.37 2186.92 817.51 2176.93 826.17" style="fill:#7f26b0"/><polygon points="2226.99 819.01 2215.89 824.43 2194.76 739.37 2194.76 699.8 2197.09 698.66 2226.99 819.01" style="fill:#13478d"/><polygon points="2133.11 826.17 2186.92 704.03 2176.93 695.37 2123.12 817.51 2133.11 826.17" style="fill:#7f26b0"/><polygon points="2226.56 692.74 2197.3 830.32 2195.16 829.43 2194.76 829.26 2194.76 785.38 2194.61 785.38 2215.31 688.03 2226.56 692.74" style="fill:#13478d"/><polygon points="2176.78 978.23 2119.64 839.44 2129.81 831.2 2186.95 969.99 2176.78 978.23" style="fill:#7f26b0"/><polygon points="2178.11 1135.28 2118.74 991.1 2128.91 982.86 2188.28 1127.05 2178.11 1135.28" style="fill:#7f26b0"/><polygon points="2120.75 1133.75 2185.71 990.42 2175.8 981.58 2110.84 1124.91 2120.75 1133.75" style="fill:#7f26b0"/><polygon points="2099.25 1293.3 2185.33 1146.02 2176.24 1135.57 2090.17 1282.85 2099.25 1293.3" style="fill:#7f26b0"/><polygon points="2178.9 1292.26 2105.95 1147.34 2115.54 1137.84 2188.49 1282.76 2178.9 1292.26" style="fill:#7f26b0"/><polygon points="2130.99 976.58 2188.13 837.79 2177.95 829.56 2120.81 968.34 2130.99 976.58" style="fill:#7f26b0"/><polygon points="2194.8 982.71 2194.91 983.04 2194.76 983.66 2193.87 983.27 2194.8 982.71" style="fill:#13478d"/><polygon points="2228.36 830.65 2211.9 904.71 2205.76 932.4 2194.76 981.87 2194.76 926.52 2199.6 904.71 2205.76 877.02 2217.14 825.76 2228.36 830.65" style="fill:#13478d"/><polygon points="2228.36 978.77 2220.57 982.16 2217.14 983.66 2216.46 980.62 2205.76 932.4 2199.6 904.71 2194.76 882.9 2194.76 827.56 2195.16 829.37 2205.76 877.02 2211.9 904.71 2228.36 978.77" style="fill:#13478d"/><polygon points="2194.8 982.71 2194.91 983.04 2194.76 983.66 2193.87 983.27 2194.8 982.71" style="fill:#13478d"/><polygon points="2239.64 1129.87 2229.86 1135.78 2228.85 1136.39 2228.58 1135.52 2209.3 1072.79 2201.8 1048.4 2194.76 1025.5 2194.76 983.89 2206.71 1022.74 2214.2 1047.13 2239.64 1129.87" style="fill:#13478d"/><polygon points="2251.17 1281.66 2240.81 1289.42 2215.89 1224.11 2208.66 1205.16 2194.76 1168.74 2194.76 1133.82 2196.68 1138.83 2214.37 1185.2 2221.6 1204.16 2251.17 1281.66" style="fill:#13478d"/><polygon points="2239.6 1141.27 2221.6 1204.16 2215.89 1224.11 2194.9 1297.44 2194.76 1297.36 2194.76 1253.71 2208.66 1205.16 2214.37 1185.2 2228.58 1135.52 2228.7 1135.12 2229.86 1135.78 2239.6 1141.27" style="fill:#13478d"/><polygon points="2226.22 984.29 2214.2 1047.13 2209.3 1072.79 2196.68 1138.83 2196.63 1139.08 2194.76 1138.37 2194.76 1085.23 2201.8 1048.4 2206.71 1022.74 2214.87 980.02 2216.46 980.62 2220.57 982.16 2226.22 984.29" style="fill:#13478d"/><rect x="2113.14" y="819.58" width="73.9" height="16.55" style="fill:#7f26b0"/><rect x="2113.14" y="974" width="73.9" height="16.55" style="fill:#7f26b0"/><rect x="2194.76" y="975.11" width="39.71" height="16.55" style="fill:#13478d"/><rect x="2109.83" y="1128.43" width="73.9" height="16.55" style="fill:#7f26b0"/><rect x="2195.86" y="1128.43" width="41.92" height="16.55" style="fill:#13478d"/><rect x="2088.87" y="1282.86" width="100.38" height="16.55" style="fill:#7f26b0"/><rect x="2194.76" y="1282.86" width="57.36" height="16.55" style="fill:#13478d"/><rect x="2194.76" y="685.01" width="39.71" height="16.55" style="fill:#13478d"/><rect x="2194.76" y="819.58" width="39.71" height="16.55" style="fill:#13478d"/><polygon points="2194.8 982.71 2194.91 983.04 2194.76 983.66 2193.87 983.27 2194.8 982.71" style="fill:#13478d"/><polygon points="2194.76 981.87 2194.76 983.89 2194.5 983.04 2194.76 981.87" style="fill:#13478d"/><path d="M2188.2,665.15H2176V520.77a18.5,18.5,0,0,1,16.55,18.4v53.55c0,.34,0,.67,0,1l5.82,60.18A10.27,10.27,0,0,1,2188.2,665.15Z" style="fill:#13478d"/><rect x="2170.49" y="447.85" width="5.52" height="92.66" style="fill:#13478d"/><path d="M2188.16,665.15h-30.41a10.31,10.31,0,0,1-10.3-11.36l6.44-60a8.05,8.05,0,0,0,.06-1.09V539.15a18.5,18.5,0,0,1,18.5-18.5h1.44a18.77,18.77,0,0,1,2,.11,18.55,18.55,0,0,1,16.69,18.39v53.56c0,.34,0,.67,0,1l5.87,60.19A10.31,10.31,0,0,1,2188.16,665.15Z" style="fill:#7f26b0"/><path d="M2188.23,665.15H2173.8V520.65h.39a18.21,18.21,0,0,1,1.95.11,18.43,18.43,0,0,1,16.42,18.39v53.56c0,.34,0,.67,0,1l5.77,60.19A10.23,10.23,0,0,1,2188.23,665.15Z" style="fill:#13478d"/><rect x="2106.52" y="673.97" width="133.47" height="11.03" style="fill:#13478d"/><rect x="2102.11" y="653.02" width="141.19" height="19.85" style="fill:#7f26b0"/><circle cx="2173.25" cy="435.16" r="21.51" style="fill:#f91443"/><ellipse cx="2162.77" cy="427.44" rx="10.18" ry="6.63" transform="translate(686.58 2064.86) rotate(-59.14)" style="fill:#f3969f"/></g><g id="Tower"><path d="M68,1025.65v6l-.56,4.69L27.79,1363.51c-.58,4.78-3.82,8-7.22,7.18l-1.07-.24c-3.42-.81-5.71-5.36-5.14-10.13L54,1033.67l.86-7c.57-4.78,3.82-8,7.22-7.18l1.07.26C65.5,1020.28,67.33,1022.65,68,1025.65Z" style="fill:#7f26b0"/><path d="M69.12,694.8v337.64l-.57,4.7c-1,3-3.23,5.15-5.79,5.15H61.15c-3.28,0-6-3.45-6.33-7.87,0-.29,0-.61,0-.92V694.8c0-4.85,2.86-8.79,6.37-8.79h1.61C66.27,686,69.12,690,69.12,694.8Z" style="fill:#7f26b0"/><path d="M136.41,702.91v649.16l-.57,9c-1,5.83-3.23,9.89-5.8,9.89h-1.6c-3.29,0-6-6.63-6.33-15.13,0-.57,0-1.17,0-1.77V702.91c0-9.33,2.86-16.9,6.37-16.9H130C133.55,686,136.41,693.58,136.41,702.91Z" style="fill:#7f26b0"/><path d="M162.93,1022.56l-.18,6,.42,4.72,29.75,329.19c.43,4.8,3.57,8.22,7,7.6l1.08-.18c3.44-.61,5.86-5,5.43-9.82l-29.69-328.7-.65-7.08c-.43-4.8-3.57-8.21-7-7.6l-1.07.2C165.62,1017.35,163.72,1019.61,162.93,1022.56Z" style="fill:#13478d"/><path d="M162.88,698v332.42l.58,4.63c1,3,3.22,5.06,5.79,5.06h1.6c3.29,0,6-3.39,6.34-7.74,0-.29,0-.6,0-.91V698c0-4.77-2.85-8.66-6.37-8.66h-1.6C165.74,689.31,162.88,693.2,162.88,698Z" style="fill:#13478d"/><rect x="53.68" y="686.01" width="82.73" height="16.55" style="fill:#7f26b0"/><polygon points="118.41 827.06 64.6 704.92 74.59 696.26 128.4 818.4 118.41 827.06" style="fill:#7f26b0"/><polygon points="168.64 819.9 157.54 825.32 136.41 740.26 136.41 700.69 138.74 699.55 168.64 819.9" style="fill:#13478d"/><polygon points="74.59 827.06 128.4 704.92 118.41 696.26 64.6 818.4 74.59 827.06" style="fill:#7f26b0"/><polygon points="168.21 693.74 138.95 831.32 136.81 830.43 136.41 830.26 136.41 786.38 136.26 786.38 156.96 689.03 168.21 693.74" style="fill:#13478d"/><polygon points="118.26 979.12 61.12 840.33 71.29 832.1 128.44 970.88 118.26 979.12" style="fill:#7f26b0"/><polygon points="119.59 1136.17 60.22 991.99 70.4 983.75 129.76 1127.94 119.59 1136.17" style="fill:#7f26b0"/><polygon points="62.23 1134.64 127.19 991.31 117.28 982.48 52.32 1125.8 62.23 1134.64" style="fill:#7f26b0"/><polygon points="40.74 1294.19 126.81 1146.91 117.72 1136.46 31.65 1283.74 40.74 1294.19" style="fill:#7f26b0"/><polygon points="120.38 1293.15 47.43 1148.23 57.02 1138.73 129.97 1283.65 120.38 1293.15" style="fill:#7f26b0"/><polygon points="72.47 977.47 129.61 838.68 119.44 830.45 62.3 969.23 72.47 977.47" style="fill:#7f26b0"/><polygon points="136.28 983.6 136.39 983.93 136.25 984.55 135.35 984.16 136.28 983.6" style="fill:#13478d"/><polygon points="170 831.55 153.55 905.6 147.41 933.29 136.41 982.76 136.41 927.41 141.25 905.6 147.41 877.91 158.79 826.65 170 831.55" style="fill:#13478d"/><polygon points="170 979.66 162.22 983.06 158.79 984.55 158.11 981.51 147.41 933.29 141.25 905.6 136.41 883.79 136.41 828.45 136.81 830.26 147.41 877.91 153.55 905.6 170 979.66" style="fill:#13478d"/><polygon points="136.28 983.6 136.39 983.93 136.25 984.55 135.35 984.16 136.28 983.6" style="fill:#13478d"/><polygon points="181.29 1130.76 171.51 1136.67 170.5 1137.28 170.23 1136.41 150.95 1073.68 143.45 1049.29 136.41 1026.39 136.41 984.79 148.36 1023.63 155.85 1048.02 181.29 1130.76" style="fill:#13478d"/><polygon points="192.82 1282.55 182.46 1290.31 157.54 1225 150.31 1206.06 136.41 1169.63 136.41 1134.71 138.32 1139.72 156.01 1186.09 163.25 1205.05 192.82 1282.55" style="fill:#13478d"/><polygon points="181.25 1142.16 163.25 1205.05 157.54 1225 136.55 1298.33 136.41 1298.25 136.41 1254.6 150.31 1206.06 156.01 1186.09 170.23 1136.41 170.35 1136.02 171.51 1136.67 181.25 1142.16" style="fill:#13478d"/><polygon points="167.87 985.18 155.85 1048.02 150.95 1073.68 138.32 1139.72 138.28 1139.97 136.41 1139.26 136.41 1086.12 143.45 1049.29 148.36 1023.63 156.52 980.91 158.11 981.51 162.22 983.06 167.87 985.18" style="fill:#13478d"/><rect x="54.78" y="820.58" width="73.9" height="16.55" style="fill:#7f26b0"/><rect x="54.78" y="975" width="73.9" height="16.55" style="fill:#7f26b0"/><rect x="136.41" y="976.11" width="39.71" height="16.55" style="fill:#13478d"/><rect x="51.48" y="1129.43" width="73.9" height="16.55" style="fill:#7f26b0"/><rect x="136.41" y="1128.33" width="41.92" height="16.55" style="fill:#13478d"/><rect x="30.52" y="1283.86" width="100.38" height="16.55" style="fill:#7f26b0"/><rect x="136.41" y="1283.86" width="57.36" height="16.55" style="fill:#13478d"/><rect x="136.41" y="686.01" width="39.71" height="16.55" style="fill:#13478d"/><rect x="136.41" y="820.58" width="39.71" height="16.55" style="fill:#13478d"/><polygon points="136.28 983.6 136.39 983.93 136.25 984.55 135.35 984.16 136.28 983.6" style="fill:#13478d"/><polygon points="136.41 982.76 136.41 984.79 136.15 983.93 136.41 982.76" style="fill:#13478d"/><path d="M129.84,666.15H117.66V521.77a18.49,18.49,0,0,1,16.54,18.4v53.55c0,.34,0,.67.05,1l5.82,60.18A10.27,10.27,0,0,1,129.84,666.15Z" style="fill:#13478d"/><rect x="112.14" y="448.85" width="5.52" height="92.66" style="fill:#13478d"/><path d="M129.81,666.15H99.4a10.31,10.31,0,0,1-10.3-11.36l6.44-60a8.05,8.05,0,0,0,.06-1.09V540.15a18.5,18.5,0,0,1,18.5-18.5h1.44a18.72,18.72,0,0,1,18.66,18.5v53.56c0,.34,0,.67.05,1l5.87,60.19A10.31,10.31,0,0,1,129.81,666.15Z" style="fill:#7f26b0"/><path d="M129.88,666.15H115.45V521.65h.39a17.88,17.88,0,0,1,1.94.11,18.43,18.43,0,0,1,16.42,18.39v53.56c0,.34,0,.67.05,1L140,654.9A10.23,10.23,0,0,1,129.88,666.15Z" style="fill:#13478d"/><rect x="47.06" y="674.97" width="133.47" height="11.03" style="fill:#13478d"/><rect x="43.75" y="654.02" width="141.19" height="19.85" style="fill:#7f26b0"/><circle cx="114.9" cy="436.16" r="21.51" style="fill:#f91443"/><ellipse cx="104.42" cy="428.44" rx="10.18" ry="6.63" transform="translate(-316.93 298.34) rotate(-59.14)" style="fill:#f3969f"/></g><g id="Moon"><path d="M1904.29,231.72a152.85,152.85,0,0,1-305,15.28c-.09-.94-.18-1.88-.25-2.83q-.51-6.16-.51-12.45c0-4.33.19-8.62.54-12.87a152.88,152.88,0,0,1,135.8-139.1q4.75-.51,9.59-.73c2.3-.1,4.61-.16,6.93-.16A152.85,152.85,0,0,1,1904.29,231.72Z" style="fill:#cfd7ea"/><g style="clip-path:url(#clip-path)"><path d="M1802.59,170.83c0,14.88-11.78,26.95-26.3,26.95a26.36,26.36,0,0,1-24.84-18.1,16.55,16.55,0,0,0-8.43-.39c-4.14,7.73-9,13.3-7.43,23.62,1.69,11,8.75,14.47,6.26,21.17-2.69,7.24-13.68,10.52-21.91,10.27-11.29-.36-11.79-7.17-23.17-9-16.12-2.55-25.59,9.48-34.43,3.21-.86-.6-5-3.71-4.39-7.06.43-2.4,3.18-4.23,5.63-4.49,2.6-.26,4.49,1.29,5.64,1.93,7.21,4,27.46-4.87,28.8-19.25.69-7.39-3.67-15.66-10-18.61-5.11-2.37-10-.6-13.15,0-17.61,3.39-46.89-17.05-52.6-44.91a48.28,48.28,0,0,1-.88-6.49A162.27,162.27,0,0,1,1637,113.06a157,157,0,0,1,89.72-41.21c9.86,7.19,18.95,17.84,20.19,30.32,1,9.66-3.61,12-3.76,27.59a58.51,58.51,0,0,0,.52,8.75c2,2.59,4.56,6.27,10.13,8.57a18.53,18.53,0,0,0,7.7,1.49,25.76,25.76,0,0,1,14.84-4.69C1790.81,143.88,1802.59,155.94,1802.59,170.83Z" style="fill:#8ca4c2;stroke:#bdcce3;stroke-miterlimit:10;stroke-width:11px"/><path d="M1841.37,277.25a26.3,26.3,0,1,0-29.09,3.8,19,19,0,1,0,29.09-3.8Z" style="fill:#8ca4c2;stroke:#bdcce3;stroke-miterlimit:10;stroke-width:11px"/><path d="M1904.54,231.94c0,74.53-52.94,136.66-123.13,150.54a194.4,194.4,0,0,0-38-303.76c2.72-.15,5.47-.23,8.23-.23C1836.11,78.49,1904.54,147.19,1904.54,231.94Z" style="fill:#00091a"/></g><path d="M1680.12,366.94a153.58,153.58,0,0,1-56.77-51.77c1.12-5.13,3.81-12.22,10.31-17.11,8.74-6.59,22.76-8,31-1.17,4.76,3.95,6.16,9.5,7,12.86,3.58,14.14-5,19.45-1.17,29.81,3.39,9.07,11.61,9.39,12.28,17.54A16.07,16.07,0,0,1,1680.12,366.94Z" style="fill:#a0b0ce"/><rect x="1714" y="280" width="15" height="99" rx="7.14" style="fill:#ebeef3"/><rect x="1727.66" y="263.16" width="15.2" height="125.5" rx="7.14" transform="translate(738.7 -1131.56) rotate(45)" style="fill:#ebeef3"/><rect x="1700" y="271.04" width="15.2" height="131.58" rx="7.14" transform="translate(707.53 1761.34) rotate(-66.09)" style="fill:#ebeef3"/><rect x="1712.38" y="304.47" width="15.2" height="82.87" rx="7.14" transform="translate(123.53 1073.45) rotate(-35.87)" style="fill:#ebeef3"/><rect x="1738.6" y="280.2" width="15.2" height="123.63" rx="7.14" transform="translate(1581.74 2113.78) rotate(-95.78)" style="fill:#ebeef3"/><circle cx="1721" cy="344" r="11" style="fill:#b7c8df"/><path d="M1630.15,167.13c3.33.46,4.45-6.41,12.86-12.28,2-1.39,7.91-5.41,15.78-5.26.46,0,11.25.32,12.86,5.26,1.2,3.66-3.69,6.54-2.34,11.11.75,2.51,3.24,4.95,5.26,4.67,3-.4,2.42-6.52,7.6-12.85,2.5-3.06,7.61-7.71,11.11-6.43s2.25,7.82,5.84,9.35c3.84,1.63,11.48-3.23,12.86-9.35,1.66-7.33-5.69-16.14-13.44-18.12-10-2.56-16.31,7.29-24.55,3.5-5.36-2.46-5-7.66-10.52-9.35-2.32-.7-5.62-.78-14.62,4.09-13.14,7.12-22.59,12.23-24,21.63C1624,159.49,1626.92,166.68,1630.15,167.13Z" style="fill:#a0b0ce"/><path d="M1670.48,208.63c-.2,3.35,11.93,3.51,14.62,9.94,3.13,7.51-10,15.57-7,22.79,2.2,5.4,12.58,8.4,19.29,4.68,8-4.43,8.23-17,4.68-24-2.93-5.75-7.54-5.92-8.19-10.52-1-7.32,10-11.35,8.77-16.36-1.63-6.55-22.66-8.66-25.13-3.51-1.3,2.7,3.25,5.83,1.75,9.93C1677.59,206.16,1670.64,206.09,1670.48,208.63Z" style="fill:#a0b0ce"/><rect x="1698.88" y="93.08" width="11.83" height="77.35" rx="5.55" transform="translate(2657.82 -1287.9) rotate(119.45)" style="fill:#bcc9e1"/><rect x="1695.67" y="93.54" width="11.83" height="97.69" rx="5.55" transform="translate(3379.08 -176.46) rotate(164.45)" style="fill:#bcc9e1"/><rect x="1698.86" y="68.25" width="11.83" height="102.42" rx="5.55" transform="translate(783.41 -1319.85) rotate(53.37)" style="fill:#bcc9e1"/><rect x="1687.97" y="92.13" width="11.83" height="64.5" rx="5.55" transform="translate(1628.18 -1572.79) rotate(83.58)" style="fill:#bcc9e1"/><rect x="1680.57" y="95.53" width="11.83" height="96.23" rx="5.55" transform="translate(199.63 -665.14) rotate(23.68)" style="fill:#bcc9e1"/><path d="M1619,232.89a14.91,14.91,0,0,1-19.7,14.11c-.09-.94-.18-1.88-.25-2.83q-.51-6.16-.51-12.45c0-4.33.19-8.62.54-12.87a14.9,14.9,0,0,1,19.92,14Z" style="fill:#d8e2f5"/><path d="M1599.34,247a151.35,151.35,0,0,0,6.79,32.27,18,18,0,0,0,1.81.09,18.71,18.71,0,1,0-8.85-35.19Z" style="fill:#d8e2f5"/><circle cx="1616.5" cy="252.5" r="13.5" style="fill:#ebeef3"/><circle cx="1693.5" cy="125.5" r="16.5" style="fill:#d8e2f5"/><circle cx="1694" cy="124" r="10" style="fill:#ebeef3"/><circle cx="1775.5" cy="151.5" r="20.5" style="fill:#7993b5"/><circle cx="1768.5" cy="179.5" r="12.5" style="fill:#7993b5"/><circle cx="1790" cy="197" r="19" style="fill:#7993b5"/></g><g id="Fence"><rect x="1160" y="762" width="11" height="1109" rx="5.33" transform="translate(-151 2482) rotate(-90)" style="fill:#06090b"/><rect x="1160" y="787" width="11" height="1109" rx="5.33" transform="translate(-176 2507) rotate(-90)" style="fill:#06090b"/><rect x="1703" y="1302" width="11" height="65" rx="5.33" transform="translate(3417 2669) rotate(-180)" style="fill:#06090b"/><rect x="1605" y="1302" width="11" height="65" rx="5.33" transform="translate(3221 2669) rotate(180)" style="fill:#06090b"/><rect x="1506" y="1302" width="11" height="65" rx="5.33" transform="translate(3023 2669) rotate(180)" style="fill:#06090b"/><rect x="1408" y="1302" width="11" height="65" rx="5.33" transform="translate(2827 2669) rotate(180)" style="fill:#06090b"/><rect x="1309" y="1302" width="11" height="65" rx="5.33" transform="translate(2629 2669) rotate(-180)" style="fill:#06090b"/><rect x="1210" y="1302" width="11" height="65" rx="5.33" transform="translate(2431 2669) rotate(180)" style="fill:#06090b"/><rect x="1112" y="1302" width="11" height="65" rx="5.33" transform="translate(2235 2669) rotate(180)" style="fill:#06090b"/><rect x="1013" y="1302" width="11" height="65" rx="5.33" transform="translate(2037 2669) rotate(-180)" style="fill:#06090b"/><rect x="914" y="1302" width="11" height="65" rx="5.33" transform="translate(1839 2669) rotate(180)" style="fill:#06090b"/><rect x="816" y="1302" width="11" height="65" rx="5.33" transform="translate(1643 2669) rotate(180)" style="fill:#06090b"/><rect x="717" y="1302" width="11" height="65" rx="5.33" transform="translate(1445 2669) rotate(180)" style="fill:#06090b"/><rect x="618" y="1302" width="11" height="65" rx="5.33" transform="translate(1247 2669) rotate(180)" style="fill:#06090b"/></g></g></svg>